<svg width="1600" height="149" viewBox="0 0 1600 149" fill="none" xmlns="http://www.w3.org/2000/svg">
<path d="M1600 77.2219L1561.89 65.333C1523.78 53.8886 1447.78 29.4441 1371.11 53.5552C1295.22 77.2219 1218.89 148.333 1143.33 148.333C1066.67 148.333 990 77.2218 914.444 47.5552C838.111 18.333 762.222 29.4441 685.556 47.5552C609.556 64.9996 533.333 89.444 456.667 83.1107C381 77.2218 304.444 41.6662 228.889 23.8885C152.333 6.11067 76.6666 6.11066 37.7777 6.11066L-0.000109637 6.11065L-0.000109103 -0.000139876L37.7777 -0.000136574C75.8888 -0.000133242 152.222 -0.000126569 228.889 -0.000119866C304.778 -0.000113232 381.111 -0.000106559 456.667 -9.99534e-05C533.333 -9.3251e-05 610 -8.65486e-05 685.556 -7.99433e-05C761.889 -7.327e-05 837.778 -6.66356e-05 914.444 -5.99332e-05C990.444 -5.3289e-05 1066.67 -4.66255e-05 1143.33 -3.99231e-05C1219 -3.33081e-05 1295.56 -2.66154e-05 1371.11 -2.00101e-05C1447.67 -1.33174e-05 1523 -6.73155e-06 1561.89 -3.33178e-06L1600 0L1600 77.2219Z" fill="white"/>
</svg>
