<svg width="1600" height="149" viewBox="0 0 1600 149" fill="none" xmlns="http://www.w3.org/2000/svg">
<path d="M0 71.1111L38.1111 83C76.2222 94.4444 152.222 118.889 228.889 94.7778C304.778 71.1111 381.111 0 456.667 0C533.333 0 610 71.1111 685.556 100.778C761.889 130 837.778 118.889 914.444 100.778C990.444 83.3333 1066.67 58.8889 1143.33 65.2222C1219 71.1111 1295.56 106.667 1371.11 124.444C1447.67 142.222 1523.33 142.222 1562.22 142.222H1600V148.333H1562.22C1524.11 148.333 1447.78 148.333 1371.11 148.333C1295.22 148.333 1218.89 148.333 1143.33 148.333C1066.67 148.333 990 148.333 914.444 148.333C838.111 148.333 762.222 148.333 685.556 148.333C609.556 148.333 533.333 148.333 456.667 148.333C381 148.333 304.444 148.333 228.889 148.333C152.333 148.333 77 148.333 38.1111 148.333H0L0 71.1111Z" fill="white"/>
</svg>
