<svg width="100" height="100" viewBox="0 0 100 100" fill="none" xmlns="http://www.w3.org/2000/svg">
<path d="M28.3333 15H86.6666V98.3333H28.3333V15Z" fill="#4DB7E5"/>
<path d="M71.6665 58.3333H86.6665V64.9999H71.6665V58.3333Z" fill="#3EA8D6"/>
<path d="M71.6665 71.6667H86.6665V78.3334H71.6665V71.6667Z" fill="#3EA8D6"/>
<path d="M28.3333 15H76.6666V90H28.3333V15Z" fill="#3EA8D6"/>
<path d="M13.3333 1.66675H71.6666V85.0001H13.3333V1.66675Z" fill="#E0E0DE"/>
<path d="M65 14.9999L60 16.6666L55 14.9999V9.99992L60 8.33325L65 9.99992V14.9999Z" fill="#348FD9"/>
<path d="M13.3333 58.3333H38.3332V78.3333H13.3333V58.3333Z" fill="#C9C9C7"/>
<path d="M13.3333 25H54.9999V51.6667H13.3333V25Z" fill="#C9C9C7"/>
<path d="M1.66675 21.6667H51.6667V48.3334H1.66675V21.6667Z" fill="#F7A116"/>
<path d="M51.6667 28.3334L26.6667 35.0001L1.66675 28.3334V21.6667H51.6667V28.3334Z" fill="#FFB531"/>
<path d="M6.66675 38.3333H11.6667V41.6666H6.66675V38.3333Z" fill="#348FD9"/>
<path d="M61.6666 58.3333L58.3333 61.6666L61.6666 64.9999H71.6666V58.3333H61.6666Z" fill="#C9C9C7"/>
<path d="M58.3333 75.0001L61.6666 78.3334H71.6666V71.6667H61.6666L58.3333 75.0001Z" fill="#C9C9C7"/>
<path d="M1.66675 55H35.0001V75H1.66675V55Z" fill="#60D1E0"/>
<path d="M28.3334 66.6667L25.0001 68.3334L21.6667 66.6667V63.3334L25.0001 61.6667L28.3334 63.3334V66.6667Z" fill="#348FD9"/>
<path d="M6.66675 60H16.6667V63.3333H6.66675V60Z" fill="#4DB7E5"/>
<path d="M6.66675 66.6667H16.6667V70.0001H6.66675V66.6667Z" fill="#4DB7E5"/>
<path d="M61.6666 68.3333L58.3333 71.6666L61.6666 74.9999H91.6666V68.3333H61.6666Z" fill="#60D1E0"/>
<path d="M95.0001 68.3333H91.6667V74.9999H95.0001C96.8409 74.9999 98.3334 73.5074 98.3334 71.6666C98.3334 69.8258 96.8409 68.3333 95.0001 68.3333Z" fill="#F48BB3"/>
<path d="M90 68.3333H93.3333V74.9999H90V68.3333Z" fill="#E0E0DE"/>
<path d="M61.6666 55L58.3333 58.3333L61.6666 61.6667H91.6666V55H61.6666Z" fill="#348FD9"/>
<path d="M95.0001 55H91.6667V61.6667H95.0001C96.8409 61.6667 98.3334 60.1742 98.3334 58.3333C98.3334 56.4925 96.8409 55 95.0001 55Z" fill="#F48BB3"/>
<path d="M90 55H93.3333V61.6667H90V55Z" fill="#E0E0DE"/>
<path d="M61.6666 55L58.3333 58.3333L61.6666 61.6667H91.6666V55H61.6666Z" fill="#348FD9"/>
<path d="M95.0001 55H91.6667V61.6667H95.0001C96.8409 61.6667 98.3334 60.1742 98.3334 58.3333C98.3334 56.4925 96.8409 55 95.0001 55Z" fill="#F48BB3"/>
<path d="M90 55H93.3333V61.6667H90V55Z" fill="#E0E0DE"/>
<path d="M15.0001 3.33333H70.0001V50H73.3334V16.6667H85.0001V50H88.3334V15C88.3334 14.0796 87.5872 13.3333 86.6668 13.3333H73.3334V1.66667C73.3334 0.746256 72.5872 0 71.6668 0H13.3334C12.413 0 11.6667 0.746256 11.6667 1.66667V16.6667H15.0001V3.33333Z" fill="black"/>
<path d="M71.6668 86.6667C72.5872 86.6667 73.3334 85.9204 73.3334 85V80H70.0001V83.3333H15.0001V80H11.6667V85C11.6667 85.9204 12.413 86.6667 13.3334 86.6667H26.6667V98.3333C26.6667 99.2537 27.413 100 28.3334 100H86.6668C87.5872 100 88.3334 99.2537 88.3334 98.3333V80H85.0001V96.6667H30.0001V86.6667H71.6668Z" fill="black"/>
<path d="M1.66667 50H51.6667C52.5871 50 53.3333 49.2537 53.3333 48.3333V21.6667C53.3333 20.7463 52.5871 20 51.6667 20H1.66667C0.746256 20 0 20.7463 0 21.6667V48.3333C0 49.2537 0.746256 50 1.66667 50ZM3.33333 23.3333H50V27.0532L26.6667 33.2747L3.33333 27.0532V23.3333ZM3.33333 30.4997L26.237 36.6064C26.5186 36.6821 26.8148 36.6821 27.0964 36.6064L50 30.4997V46.6667H3.33333V30.4997Z" fill="black"/>
<path d="M1.66667 76.6666H35C35.9204 76.6666 36.6667 75.9203 36.6667 74.9999V54.9999C36.6667 54.0795 35.9204 53.3333 35 53.3333H1.66667C0.746256 53.3333 0 54.0795 0 54.9999V74.9999C0 75.9203 0.746256 76.6666 1.66667 76.6666ZM3.33333 56.6666H33.3333V73.3332H3.33333V56.6666Z" fill="black"/>
<path d="M59.9999 18.3334C60.179 18.3334 60.3564 18.3049 60.5264 18.2487L65.5265 16.5821C66.2076 16.355 66.6666 15.7178 66.6666 15V10C66.6666 9.28227 66.2076 8.64506 65.5265 8.41801L60.5264 6.75134C60.1847 6.63822 59.8152 6.63822 59.4734 6.75134L54.4734 8.41801C53.7922 8.64506 53.3333 9.28227 53.3333 10V15C53.3333 15.7178 53.7922 16.355 54.4734 16.5821L59.4734 18.2487C59.6435 18.3049 59.8209 18.3334 59.9999 18.3334V18.3334ZM56.6666 11.202L59.9999 10.0904L63.3333 11.202V13.7981L59.9999 14.9097L56.6666 13.7981V11.202Z" fill="black"/>
<path d="M29.078 61.8334L25.7447 60.1667C25.2759 59.9324 24.7241 59.9324 24.2554 60.1667L20.9221 61.8334C20.354 62.1166 19.9968 62.6985 20 63.3333V66.6666C19.9968 67.3013 20.354 67.8832 20.9221 68.1664L24.2554 69.8331C24.7241 70.0675 25.2759 70.0675 25.7447 69.8331L29.078 68.1664C29.646 67.8832 30.0033 67.3013 30 66.6666V63.3333C30.0033 62.6985 29.646 62.1166 29.078 61.8334ZM26.6667 65.6363L25 66.4696L23.3334 65.6363V64.3635L25 63.5302L26.6667 64.3635V65.6363Z" fill="black"/>
<path d="M6.66675 60H16.6667V63.3333H6.66675V60Z" fill="black"/>
<path d="M6.66675 66.6667H16.6667V70.0001H6.66675V66.6667Z" fill="black"/>
<path d="M95 66.6667H61.6666C61.2247 66.6667 60.8007 66.8425 60.4882 67.155L57.1549 70.4884C56.5047 71.1394 56.5047 72.1941 57.1549 72.8451L60.4882 76.1785C60.8007 76.491 61.2247 76.6667 61.6666 76.6667H95C97.7612 76.6667 100 74.428 100 71.6667C100 68.9055 97.7612 66.6667 95 66.6667ZM90 73.3334H62.3567L60.6901 71.6667L62.3567 70.0001H90V73.3334ZM95 73.3334H93.3333V70.0001H95C95.9204 70.0001 96.6666 70.7463 96.6666 71.6667C96.6666 72.5872 95.9204 73.3334 95 73.3334Z" fill="black"/>
<path d="M95 53.3333H61.6666C61.2247 53.3333 60.8007 53.509 60.4882 53.8215L57.1549 57.1549C56.5047 57.8059 56.5047 58.8606 57.1549 59.5116L60.4882 62.845C60.8007 63.1575 61.2247 63.3332 61.6666 63.3332H95C97.7612 63.3332 100 61.0945 100 58.3333C100 55.572 97.7612 53.3333 95 53.3333ZM90 59.9999H62.3567L60.6901 58.3333L62.3567 56.6666H90V59.9999ZM95 59.9999H93.3333V56.6666H95C95.9204 56.6666 96.6666 57.4128 96.6666 58.3333C96.6666 59.2537 95.9204 59.9999 95 59.9999Z" fill="black"/>
<path d="M6.66675 38.3333H11.6667V41.6666H6.66675V38.3333Z" fill="black"/>
</svg>
