<svg width="100" height="100" viewBox="0 0 100 100" fill="none" xmlns="http://www.w3.org/2000/svg">
<g clip-path="url(#clip0)">
<path d="M5 26.6667H16.6667V40.0001H5V26.6667Z" fill="#D6D6D4"/>
<path d="M46.6667 26.6667H58.3334V40.0001H46.6667V26.6667Z" fill="#D6D6D4"/>
<path d="M56.6667 28.3333H53.3334V25C53.3334 13.0339 43.6329 3.33333 31.6667 3.33333C19.7006 3.33333 10.0001 13.0339 10.0001 25V26.6667H6.66675V25C6.66675 11.193 17.8598 0 31.6667 0C45.4737 0 56.6667 11.193 56.6667 25V28.3333Z" fill="#D6D6D4"/>
<path d="M11.9052 55.8586L6.90519 47.5252C6.74894 47.2656 6.66675 46.9694 6.66675 46.6667V40H10.0001V46.2052L14.7616 54.1414L11.9052 55.8586Z" fill="#D6D6D4"/>
<path d="M23.3333 53.3333H39.9999V66.6666H23.3333V53.3333Z" fill="#FEC9A3"/>
<path d="M23.3333 53.3333V59.418C28.4846 62.4161 34.8486 62.4161 39.9999 59.418V53.3333H23.3333Z" fill="#FEB784"/>
<path d="M31.6666 58.3333C23.1404 58.3308 15.9911 51.8936 15.0968 43.4146L13.3333 26.6666C13.3333 16.5413 21.5413 8.33325 31.6666 8.33325C41.7919 8.33325 49.9999 16.5413 49.9999 26.6666L48.2364 43.4146C47.342 51.8936 40.1928 58.3308 31.6666 58.3333Z" fill="#FEC9A3"/>
<path d="M31.6666 8.33325C21.5413 8.33325 13.3333 16.5413 13.3333 26.6666L13.6368 29.545L19.9999 19.9999L21.5315 20.4386C28.1339 22.3241 35.1521 22.1711 41.6666 19.9999L49.6882 29.6264L49.9999 26.6666C49.9999 16.5413 41.7919 8.33325 31.6666 8.33325Z" fill="#803A32"/>
<path d="M43.3333 26.6667L41.5697 43.4147C40.8056 50.6388 35.45 56.5357 28.3333 57.9899C32.9369 58.9404 37.7278 57.898 41.5201 55.1205C45.3124 52.3429 47.753 48.0908 48.2364 43.4147L49.6882 29.6265L42.3762 20.8521C43.0077 22.7254 43.3308 24.6891 43.3333 26.6667Z" fill="#FEC093"/>
<path d="M31.6666 8.33325C30.5484 8.33732 29.4327 8.44393 28.3333 8.64982C34.8819 9.86646 40.2579 14.5369 42.3762 20.852L49.6882 29.6264L49.9999 26.6666C49.9999 16.5413 41.7919 8.33325 31.6666 8.33325Z" fill="#733029"/>
<path d="M61.6667 100V80.0001C61.6667 72.636 55.6975 66.6667 48.3334 66.6667H15.0001C7.63599 66.6667 1.66675 72.636 1.66675 80.0001V100" fill="#348FD9"/>
<path d="M1.66675 100H61.6667V80C61.6684 77.7336 61.0898 75.5046 59.9854 73.5254C41.7148 88.6564 15.8554 94.9064 1.66675 97.1834V100Z" fill="#3086CD"/>
<path d="M24.9999 33.3333C24.9999 35.1742 23.5074 36.6667 21.6666 36.6667C19.8258 36.6667 18.3333 35.1742 18.3333 33.3333C18.3333 31.4925 19.8258 30 21.6666 30C23.5074 30 24.9999 31.4925 24.9999 33.3333Z" fill="#803A32"/>
<path d="M44.9999 33.3333C44.9999 35.1742 43.5074 36.6667 41.6666 36.6667C39.8258 36.6667 38.3333 35.1742 38.3333 33.3333C38.3333 31.4925 39.8258 30 41.6666 30C43.5074 30 44.9999 31.4925 44.9999 33.3333Z" fill="#803A32"/>
<path d="M33.3334 41.6666H28.3334C27.7556 41.6666 27.2193 41.3679 26.9149 40.8764C26.6114 40.3857 26.5837 39.772 26.8417 39.2553L30.175 32.5886L33.1584 34.0779L31.0303 38.3332H33.3334V41.6666Z" fill="#F7A468"/>
<path d="M30.2864 48.3334H28.3333V45.0001H30.2864C32.8612 44.9928 35.3295 43.9706 37.1549 42.155L39.5116 44.5118C37.0597 46.95 33.745 48.3228 30.2864 48.3334Z" fill="#F7A468"/>
<path d="M98.3333 71.6668V61.6668H92.6781C92.2135 59.8609 91.4965 58.1292 90.5484 56.5235L94.5483 52.5237L87.4763 45.4517L83.4765 49.4516C81.8709 48.5035 80.1391 47.7865 78.3333 47.3219V41.6667H68.3333V47.3219C66.5274 47.7865 64.7957 48.5035 63.19 49.4516L59.1902 45.4517L52.1182 52.5237L56.1181 56.5235C55.17 58.1292 54.453 59.8609 53.9884 61.6668H48.3333V71.6668H53.9884C54.453 73.4726 55.17 75.2043 56.1181 76.81L52.1182 80.8098L59.1902 87.8818L63.19 83.8819C64.7957 84.83 66.5274 85.547 68.3333 86.0116V91.6668H78.3333V86.0116C80.1391 85.547 81.8709 84.83 83.4765 83.8819L87.4763 87.8818L94.5483 80.8098L90.5484 76.81C91.4965 75.2043 92.2135 73.4726 92.6781 71.6668H98.3333ZM73.3333 73.3334C69.6516 73.3334 66.6666 70.3484 66.6666 66.6668C66.6666 62.9851 69.6516 60.0001 73.3333 60.0001C77.0149 60.0001 79.9999 62.9851 79.9999 66.6668C79.9999 70.3484 77.0149 73.3334 73.3333 73.3334Z" fill="#E94F4F"/>
<path d="M98.3333 71.6667V61.6667H92.6782C92.2135 59.8608 91.4966 58.1291 90.5485 56.5234L94.5483 52.5236L87.4764 45.4517L84.1431 48.785C82.006 53.055 79.3888 57.0687 76.3436 60.7471C78.9136 62.0402 80.3597 64.8405 79.9268 67.6847C79.493 70.5298 77.2786 72.7726 74.4401 73.2414C71.6007 73.7109 68.7825 72.3006 67.4569 69.7469C63.1152 73.4172 58.4351 76.6659 53.4782 79.4499L52.1216 80.8065L59.1935 87.8784L63.1934 83.8786C64.7982 84.8275 66.5283 85.5453 68.3333 86.0116V91.6667H78.3333V86.0116C80.1392 85.5469 81.8709 84.8299 83.4766 83.8818L87.4764 87.8817L94.5483 80.8097L90.5485 76.8099C91.4966 75.2043 92.2135 73.4725 92.6782 71.6667H98.3333Z" fill="#DE4242"/>
<path d="M73.3333 81.6667C65.0487 81.6667 58.3333 74.9513 58.3333 66.6667C58.3333 58.3822 65.0487 51.6667 73.3333 51.6667C81.6178 51.6667 88.3333 58.3822 88.3333 66.6667C88.3243 74.9472 81.6137 81.6578 73.3333 81.6667ZM73.3333 55.0001C66.8896 55.0001 61.6666 60.2231 61.6666 66.6667C61.6666 73.1104 66.8896 78.3334 73.3333 78.3334C79.7769 78.3334 84.9999 73.1104 84.9999 66.6667C84.9918 60.2271 79.7729 55.0082 73.3333 55.0001Z" fill="#BA2727"/>
<path d="M11.6667 85H15.0001V100H11.6667V85Z" fill="#2066A1"/>
<path d="M48.3333 86.6667H51.6666V100H48.3333V86.6667Z" fill="#2066A1"/>
<path d="M30 66.6667H33.3333V100H30V66.6667Z" fill="#2066A1"/>
<path d="M21.6667 76.6667L31.6667 66.6667H20L21.6667 76.6667Z" fill="#62A9E6"/>
<path d="M31.6667 66.6667L41.6667 76.6667L45.0001 66.6667H31.6667Z" fill="#62A9E6"/>
<path d="M3.33334 80C3.32846 76.9043 4.55567 73.9339 6.7448 71.7448C8.93393 69.5557 11.9043 68.3284 15 68.3333H18.5881L20.0236 76.9401C20.1261 77.5553 20.564 78.0623 21.158 78.2528C21.7521 78.4432 22.4032 78.2861 22.8451 77.8451L30 70.6901V100H33.3333V70.6901L40.4883 77.8451C40.8968 78.2528 41.4876 78.4204 42.0492 78.2878C42.6107 78.1551 43.064 77.7409 43.2471 77.1932L44.9137 72.1932L41.7464 71.1401L40.9302 73.5799L35.6901 68.3333H41.6667V57.0296C46.2997 54.0234 49.3246 49.0837 49.895 43.5897L50.0969 41.6667H58.3333C59.2538 41.6667 60 40.9204 60 40V26.6667C60 25.7463 59.2538 25 58.3333 25H56.6667C56.6667 11.193 45.4736 0 31.6667 0C17.8597 0 6.66667 11.193 6.66667 25H5.00001C4.0796 25 3.33334 25.7463 3.33334 26.6667V40C3.33334 40.9204 4.0796 41.6667 5.00001 41.6667H6.66667V46.6667C6.66667 46.9694 6.74887 47.2656 6.90512 47.5252L11.9051 55.8586L14.7616 54.1414L10 46.2052V41.6667H13.2365L13.4383 43.5897C14.0088 49.0837 17.0337 54.0234 21.6667 57.0296V65H15C11.0205 64.9959 7.20216 66.5747 4.38884 69.3888C1.57472 72.2021 -0.00406115 76.0205 7.84583e-06 80V100H3.33334V80ZM22.7783 73.1982L21.967 68.3333H27.6432L22.7783 73.1982ZM38.3333 65H25V58.7549C29.2896 60.415 34.0438 60.415 38.3333 58.7549V65ZM56.6667 38.3333H50.4468L51.4998 28.3333H56.6667V38.3333ZM6.66667 38.3333V28.3333H11.8335L12.8866 38.3333H6.66667ZM11.7513 25H10C10 13.0339 19.7005 3.33333 31.6667 3.33333C43.6328 3.33333 53.3333 13.0339 53.3333 25H51.582C50.7324 14.6305 42.0695 6.64795 31.665 6.64795C21.2606 6.64795 12.5977 14.6305 11.7481 25H11.7513ZM31.6667 10C40.3369 10.0138 47.5513 16.6691 48.2634 25.3101L42.9484 18.9315C42.5081 18.4049 41.7904 18.2023 41.1401 18.4204C34.9455 20.494 28.2666 20.6388 21.9881 18.8346L20.4566 18.3968C19.7599 18.1982 19.0153 18.4725 18.6133 19.0747L15.2051 24.1886C16.4339 16.0417 23.4277 10.0138 31.6667 10ZM16.7538 43.2414L15.3565 29.9699L20.7121 21.9368L21.075 22.0418C27.6237 23.9209 34.5752 23.881 41.1019 21.9246L47.9582 30.153L46.5804 43.2414C45.7723 50.8724 39.3368 56.6626 31.6634 56.6626C23.9901 56.6626 17.5545 50.8724 16.7464 43.2414H16.7538Z" fill="black"/>
<path d="M60 93.3333H63.3333V99.9999H60V93.3333Z" fill="black"/>
<path d="M24.9999 33.3333C24.9999 35.1742 23.5074 36.6667 21.6666 36.6667C19.8258 36.6667 18.3333 35.1742 18.3333 33.3333C18.3333 31.4925 19.8258 30 21.6666 30C23.5074 30 24.9999 31.4925 24.9999 33.3333Z" fill="black"/>
<path d="M44.9999 33.3333C44.9999 35.1742 43.5074 36.6667 41.6666 36.6667C39.8258 36.6667 38.3333 35.1742 38.3333 33.3333C38.3333 31.4925 39.8258 30 41.6666 30C43.5074 30 44.9999 31.4925 44.9999 33.3333Z" fill="black"/>
<path d="M33.3334 41.6666V38.3332H31.0303L33.1665 34.0779L30.1831 32.5886L26.8498 39.2553C26.5926 39.7704 26.6195 40.3824 26.9214 40.8731C27.2233 41.3638 27.7572 41.6641 28.3334 41.6666H33.3334Z" fill="black"/>
<path d="M37.1549 42.155C35.3295 43.9706 32.8612 44.9928 30.2864 45.0001H28.3333V48.3334H30.2864C33.745 48.3228 37.0597 46.95 39.5116 44.5118L37.1549 42.155Z" fill="black"/>
<path d="M11.6667 85H15.0001V100H11.6667V85Z" fill="black"/>
<path d="M48.3333 86.6667H51.6666V100H48.3333V86.6667Z" fill="black"/>
<path d="M98.3334 60H93.9283C93.5751 58.9054 93.1348 57.841 92.6116 56.8164L95.7252 53.7036C96.3754 53.0526 96.3754 51.9979 95.7252 51.3468L88.6532 44.2749C88.0022 43.6247 86.9475 43.6247 86.2965 44.2749L83.1837 47.3885C82.1599 46.8644 81.0946 46.4242 80.0001 46.0718V41.6667C80.0001 40.7463 79.2538 40 78.3334 40H68.3334C67.413 40 66.6667 40.7463 66.6667 41.6667V46.0718C65.5722 46.425 64.5077 46.8652 63.4832 47.3885L60.3704 44.2749C59.7193 43.6247 58.6646 43.6247 58.0136 44.2749L50.9417 51.3468C50.2914 51.9979 50.2914 53.0526 50.9417 53.7036L54.0569 56.8164C53.5312 57.8402 53.0909 58.9046 52.7385 60H48.3334C47.413 60 46.6667 60.7463 46.6667 61.6667V71.6667C46.6667 72.5871 47.413 73.3333 48.3334 73.3333H52.7385C53.0917 74.4279 53.532 75.4924 54.0553 76.5169L50.9417 79.6297C50.2914 80.2808 50.2914 81.3355 50.9417 81.9865L58.0136 89.0584C58.6646 89.7087 59.7193 89.7087 60.3704 89.0584L63.4832 85.9448C64.5069 86.4689 65.5722 86.9092 66.6667 87.2616V91.6667C66.6667 92.5871 67.413 93.3333 68.3334 93.3333H78.3334C79.2538 93.3333 80.0001 92.5871 80.0001 91.6667V87.2616C81.0946 86.9084 82.1591 86.4681 83.1837 85.9448L86.2965 89.0584C86.9475 89.7087 88.0022 89.7087 88.6532 89.0584L95.7252 81.9865C96.3754 81.3355 96.3754 80.2808 95.7252 79.6297L92.6099 76.5169C93.1357 75.4932 93.5759 74.4287 93.9283 73.3333H98.3334C99.2538 73.3333 100 72.5871 100 71.6667V61.6667C100 60.7463 99.2538 60 98.3334 60ZM96.6667 70H92.6767C91.9166 70 91.2533 70.5143 91.0637 71.25C90.6373 72.9053 89.9805 74.4922 89.113 75.9652C88.7273 76.6195 88.8331 77.4528 89.3702 77.9899L92.1884 80.8081L87.4749 85.5216L84.655 82.7035C84.1155 82.1688 83.2838 82.063 82.6287 82.4463C81.1573 83.3146 79.5712 83.9714 77.9167 84.397C77.1811 84.5866 76.6667 85.2498 76.6667 86.0099V90H70.0001V86.0099C70.0001 85.2498 69.4858 84.5866 68.7501 84.397C67.0956 83.9714 65.5095 83.3146 64.0382 82.4463C63.3831 82.0597 62.5497 82.1655 62.0118 82.7035L59.192 85.5216L54.4784 80.8081L57.2966 77.9883C57.8346 77.4504 57.9403 76.617 57.5538 75.9619C56.6855 74.4906 56.0287 72.9045 55.6031 71.25C55.4135 70.5143 54.7502 70 53.9902 70H50.0001V63.3333H53.9902C54.7502 63.3333 55.4135 62.819 55.6031 62.0833C56.0295 60.4281 56.6863 58.8411 57.5538 57.3682C57.9395 56.7139 57.8337 55.8805 57.2966 55.3434L54.4784 52.5252L59.192 47.8117L62.0118 50.6299C62.5497 51.1678 63.3831 51.2736 64.0382 50.887C65.5095 50.0187 67.0956 49.362 68.7501 48.9364C69.4858 48.7467 70.0001 48.0835 70.0001 47.3234V43.3333H76.6667V47.3234C76.6667 48.0835 77.1811 48.7467 77.9167 48.9364C79.5712 49.362 81.1573 50.0187 82.6287 50.887C83.2838 51.2736 84.1171 51.1678 84.655 50.6299L87.4749 47.8117L92.1884 52.5252L89.3702 55.3451C88.8323 55.883 88.7265 56.7163 89.113 57.3714C89.9814 58.8428 90.6381 60.4289 91.0637 62.0833C91.2533 62.819 91.9166 63.3333 92.6767 63.3333H96.6667V70Z" fill="black"/>
<path d="M73.3333 51.6667C65.0487 51.6667 58.3333 58.3822 58.3333 66.6667C58.3333 74.9513 65.0487 81.6667 73.3333 81.6667C81.6178 81.6667 88.3333 74.9513 88.3333 66.6667C88.3243 58.3863 81.6137 51.6757 73.3333 51.6667ZM73.3333 78.3334C66.8896 78.3334 61.6666 73.1104 61.6666 66.6667C61.6666 60.2231 66.8896 55.0001 73.3333 55.0001C79.7769 55.0001 84.9999 60.2231 84.9999 66.6667C84.9918 73.1064 79.7729 78.3253 73.3333 78.3334Z" fill="black"/>
<path d="M73.3333 58.3333C68.7313 58.3333 65 62.0645 65 66.6666C65 71.2686 68.7313 74.9999 73.3333 74.9999C77.9354 74.9999 81.6667 71.2686 81.6667 66.6666C81.661 62.0662 77.9338 58.3389 73.3333 58.3333ZM73.3333 71.6666C70.5721 71.6666 68.3333 69.4278 68.3333 66.6666C68.3333 63.9054 70.5721 61.6666 73.3333 61.6666C76.0946 61.6666 78.3333 63.9054 78.3333 66.6666C78.3333 69.4278 76.0946 71.6666 73.3333 71.6666Z" fill="black"/>
</g>
<defs>
<clipPath id="clip0">
<rect width="100" height="100" fill="white"/>
</clipPath>
</defs>
</svg>
