<svg width="100" height="100" viewBox="0 0 100 100" fill="none" xmlns="http://www.w3.org/2000/svg">
<path d="M98.5145 49.9999C98.5145 76.7943 76.7936 98.5152 49.9992 98.5152C23.2055 98.5152 1.48462 76.7943 1.48462 49.9999C1.48462 23.2062 23.2055 1.48535 49.9992 1.48535C76.7936 1.48535 98.5145 23.2062 98.5145 49.9999Z" fill="#D5354E"/>
<path d="M49.9991 95.3467C37.8867 95.3467 26.4991 90.6295 17.9343 82.0647C9.36957 73.4999 4.65308 62.1131 4.65308 49.9999C4.65308 37.8875 9.36957 26.4998 17.9343 17.9351C26.4991 9.3703 37.8867 4.65381 49.9991 4.65381C62.1116 4.65381 73.4992 9.3703 82.064 17.9351C90.6287 26.5006 95.346 37.8875 95.346 49.9999C95.346 62.1123 90.6287 73.4999 82.064 82.0647C73.4992 90.6295 62.1116 95.3467 49.9991 95.3467V95.3467Z" fill="#FC3952"/>
<path d="M56.1148 93.7318C29.3654 93.7318 7.68066 72.0471 7.68066 45.2977C7.68066 30.943 13.9277 18.049 23.8486 9.17969C10.1307 17.7316 1 32.9523 1 50.308C1 77.0574 22.6848 98.7422 49.4342 98.7422C61.8289 98.7422 73.134 94.0842 81.7004 86.426C74.2758 91.0547 65.5086 93.7318 56.1148 93.7318Z" fill="#D5354E"/>
<path d="M58.3602 48.1574C53.4156 52.0225 53.3255 54.7195 53.3255 59.3947C53.3255 61.1022 52.4268 63.0805 48.0216 63.0805C44.3358 63.0805 43.077 61.7316 43.077 57.0571C43.077 49.3255 46.4934 45.6405 49.1004 43.3929C52.0667 40.8759 57.1013 38.0889 57.1013 33.2343C57.1013 29.0984 53.5056 27.1209 49.0103 27.1209C39.8406 27.1209 41.8181 34.043 36.9643 34.043C34.5366 34.043 31.5703 32.4248 31.5703 28.9184C31.5703 24.0645 37.1436 16.8723 49.2804 16.8723C60.7871 16.8723 68.4287 23.2551 68.4287 31.7054C68.4287 40.1565 60.7871 46.2691 58.3602 48.1574V48.1574ZM55.0338 76.2054C55.0338 79.8911 51.9774 83.1275 48.1116 83.1275C44.2458 83.1275 41.2795 79.8911 41.2795 76.2054C41.2795 72.4296 44.3358 69.2832 48.1116 69.2832C51.8866 69.2832 55.0338 72.4296 55.0338 76.2054Z" fill="#FFA4AF"/>
<path d="M95.8254 29.9688C93.1502 23.8566 89.3338 18.4143 84.4826 13.793C83.857 13.1965 82.8656 13.2207 82.2688 13.8467C81.6725 14.4729 81.6965 15.4641 82.3227 16.0605C91.7027 24.9961 96.8686 37.0494 96.8686 50C96.8686 75.8434 75.8436 96.8686 50 96.8686C24.1564 96.8686 3.13145 75.8434 3.13145 50C3.13145 24.1566 24.1566 3.13145 50 3.13145C59.2445 3.13145 68.1855 5.81895 75.857 10.9033C76.5781 11.3814 77.5496 11.1842 78.0273 10.4633C78.5053 9.74238 78.308 8.7707 77.5873 8.29316C69.4012 2.86758 59.8615 0 50 0C36.6445 0 24.0885 5.20098 14.6447 14.6447C5.20098 24.0885 0 36.6445 0 50C0 63.3555 5.20098 75.9115 14.6447 85.3553C24.0885 94.799 36.6445 100 50 100C63.3555 100 75.9115 94.799 85.3553 85.3553C94.7992 75.9115 100 63.3555 100 50C100 43.0365 98.5955 36.2971 95.8254 29.9688Z" fill="black"/>
<path d="M48.1118 67.7979C43.5257 67.7979 39.7942 71.5698 39.7942 76.2054C39.7942 80.8411 43.5257 84.613 48.1118 84.613C50.3632 84.613 52.4834 83.7173 54.0818 82.09C55.6305 80.513 56.5193 78.3684 56.5193 76.2054C56.5193 73.983 55.6382 71.8781 54.039 70.2782C52.4391 68.679 50.3342 67.7979 48.1118 67.7979ZM48.1118 81.6429C45.163 81.6429 42.7643 79.2038 42.7643 76.2054C42.7643 73.2071 45.163 70.768 48.1118 70.768C51.059 70.768 53.5485 73.2582 53.5485 76.2054C53.5485 79.1527 51.059 81.6429 48.1118 81.6429V81.6429Z" fill="black"/>
<path d="M62.4229 44.6037C63.0417 45.1438 63.9793 45.0797 64.5187 44.4618C68.0977 40.3617 69.9127 36.0694 69.9127 31.7047C69.9127 27.1018 67.8451 22.9293 64.0915 19.9561C60.318 16.9677 55.1971 15.3884 49.2813 15.3884C41.9632 15.3884 37.4366 17.8588 34.9289 19.931C31.8962 22.4365 30.085 25.7964 30.085 28.9184C30.085 30.9478 30.9158 32.7354 32.4249 33.9523C33.667 34.954 35.321 35.5285 36.9644 35.5285C39.7957 35.5285 41.037 33.6982 42.0341 32.2273C43.2975 30.3649 44.49 28.6056 49.0104 28.6056C50.56 28.6056 55.616 28.9398 55.616 33.2336C55.616 36.4745 52.6199 38.7748 49.9763 40.8042C49.3232 41.3047 48.7068 41.7785 48.1315 42.2668C45.0874 44.8905 41.5924 48.9433 41.5924 57.0571C41.5924 61.5638 42.6857 64.566 48.0224 64.566C50.386 64.566 52.1705 64.0304 53.3264 62.9745C54.2968 62.088 54.8103 60.8497 54.8103 59.3932C54.8103 55.0155 54.8103 52.8182 59.275 49.3263L59.3513 49.2668C59.5482 49.1134 59.7755 48.9356 60.0258 48.7335C60.6643 48.2185 60.7643 47.2839 60.2493 46.6453C59.7343 46.0067 58.7997 45.9068 58.1611 46.4218C57.9239 46.6133 57.7095 46.7803 57.5241 46.9253L57.4455 46.9863C52.1003 51.1672 51.8402 54.2701 51.8402 59.394C51.8402 60.0524 51.8402 61.5959 48.0224 61.5959C46.1578 61.5959 45.5902 61.206 45.3041 60.8657C44.8051 60.2729 44.5625 59.027 44.5625 57.0571C44.5625 50.1899 47.3472 46.8643 50.0618 44.5243C50.5737 44.0902 51.1619 43.6385 51.7852 43.1602C54.8149 40.834 58.5869 37.9386 58.5869 33.2336C58.5869 28.6178 54.8279 25.6355 49.0104 25.6355C42.9161 25.6355 40.9858 28.482 39.5759 30.5602C38.6123 31.9816 38.1729 32.5584 36.9644 32.5584C35.3935 32.5584 33.0558 31.5887 33.0558 28.9184C33.0558 27.1842 34.0446 24.5139 36.821 22.2206C38.9541 20.4589 42.8466 18.3578 49.282 18.3578C59.6809 18.3578 66.9426 23.8464 66.9426 31.7047C66.9426 35.3301 65.3747 38.9648 62.2818 42.5086C61.7416 43.1266 61.8057 44.0643 62.4229 44.6037V44.6037Z" fill="black"/>
</svg>
