<svg width="100" height="100" viewBox="0 0 100 100" fill="none" xmlns="http://www.w3.org/2000/svg">
<path d="M98.5145 49.9999C98.5145 76.7943 76.7936 98.5152 49.9992 98.5152C23.2055 98.5152 1.48462 76.7943 1.48462 49.9999C1.48462 23.2062 23.2055 1.48535 49.9992 1.48535C76.7936 1.48535 98.5145 23.2062 98.5145 49.9999Z" fill="#170F45"/>
<path d="M49.9991 95.3467C37.8867 95.3467 26.4991 90.6295 17.9343 82.0647C9.36957 73.4999 4.65308 62.1131 4.65308 49.9999C4.65308 37.8875 9.36957 26.4998 17.9343 17.9351C26.4991 9.3703 37.8867 4.65381 49.9991 4.65381C62.1116 4.65381 73.4992 9.3703 82.064 17.9351C90.6287 26.5006 95.346 37.8875 95.346 49.9999C95.346 62.1123 90.6287 73.4999 82.064 82.0647C73.4992 90.6295 62.1116 95.3467 49.9991 95.3467V95.3467Z" fill="#261973"/>
<path d="M56.1148 93.7318C29.3654 93.7318 7.68066 72.0471 7.68066 45.2977C7.68066 30.943 13.9277 18.049 23.8486 9.17969C10.1307 17.7316 1 32.9523 1 50.308C1 77.0574 22.6848 98.7422 49.4342 98.7422C61.8289 98.7422 73.134 94.0842 81.7004 86.426C74.2758 91.0547 65.5086 93.7318 56.1148 93.7318Z" fill="#170F45"/>
<path d="M95.8254 29.9688C93.1502 23.8566 89.3338 18.4143 84.4826 13.793C83.857 13.1965 82.8656 13.2207 82.2688 13.8467C81.6725 14.4729 81.6965 15.4641 82.3227 16.0605C91.7027 24.9961 96.8686 37.0494 96.8686 50C96.8686 75.8434 75.8436 96.8686 50 96.8686C24.1564 96.8686 3.13145 75.8434 3.13145 50C3.13145 24.1566 24.1566 3.13145 50 3.13145C59.2445 3.13145 68.1855 5.81895 75.857 10.9033C76.5781 11.3814 77.5496 11.1842 78.0273 10.4633C78.5053 9.74238 78.308 8.7707 77.5873 8.29316C69.4012 2.86758 59.8615 0 50 0C36.6445 0 24.0885 5.20098 14.6447 14.6447C5.20098 24.0885 0 36.6445 0 50C0 63.3555 5.20098 75.9115 14.6447 85.3553C24.0885 94.799 36.6445 100 50 100C63.3555 100 75.9115 94.799 85.3553 85.3553C94.7992 75.9115 100 63.3555 100 50C100 43.0365 98.5955 36.2971 95.8254 29.9688Z" fill="black"/>
<path d="M63.8457 40.8901C63.8457 40.8901 79.8442 46.8025 74.1772 68.015C73.7862 69.4783 72.082 70.1331 70.8196 69.296C68.5372 67.7824 65.5012 65.7583 65.5012 65.7583L63.8457 40.8901Z" fill="#3E3D42"/>
<path d="M36.1543 40.8901C36.1543 40.8901 20.1557 46.8025 25.8228 68.015C26.2137 69.4783 27.918 70.1331 29.1803 69.296C31.4628 67.7824 34.4988 65.7583 34.4988 65.7583L36.1543 40.8901Z" fill="#2D2D30"/>
<path d="M29.4887 69.0913C31.7267 67.6063 34.499 65.7582 34.499 65.7582L35.8819 44.9844C32.8313 47.5198 23.9798 56.3014 29.4887 69.0913Z" fill="#1D1D1F"/>
<path d="M70.5113 69.0913C68.2734 67.6063 65.5011 65.7582 65.5011 65.7582L64.1182 44.9844C67.1688 47.5198 76.0203 56.3014 70.5113 69.0913Z" fill="#2D2D30"/>
<path d="M65.4136 41.4544V36.2927C65.4136 27.7798 58.5127 20.8789 49.9998 20.8789C41.487 20.8789 34.5861 27.7798 34.5861 36.2927V41.4542C34.5861 43.8619 33.9326 46.2219 32.7097 48.296C30.952 51.2772 29.9431 54.7524 29.9431 58.4638C29.943 69.5306 39.0821 78.6007 50.1487 78.5203C61.1572 78.4402 70.0565 69.4915 70.0565 58.464C70.0565 54.7527 69.0477 51.2775 67.29 48.2964C66.0671 46.2222 65.4136 43.8621 65.4136 41.4544Z" fill="#57565C"/>
<path d="M42.2566 59.5894C42.2566 55.8781 43.2654 52.4029 45.0231 49.4216C45.419 48.7503 45.8274 47.6699 46.137 46.7563C46.4604 45.8021 47.1237 45.0064 47.9841 44.4822C48.97 43.8815 50.1871 42.7737 50.4423 40.8902L46.8994 38.2938C46.6737 30.3212 51.3157 24.8309 57.4402 22.7915C55.2342 21.5731 52.6983 20.8789 49.9998 20.8789C41.487 20.8789 34.5861 27.7798 34.5861 36.2927V41.4542C34.5861 43.8619 33.9326 46.2219 32.7097 48.296C30.952 51.2772 29.9431 54.7524 29.9431 58.4637C29.943 69.5305 39.0821 78.6006 50.1487 78.5202C51.6273 78.5094 53.0676 78.3372 54.4536 78.0229C47.3112 74.9435 42.2564 67.8192 42.2566 59.5894Z" fill="#3E3D42"/>
<path d="M49.9998 74.192C57.5838 74.192 63.7318 68.044 63.7318 60.46C63.7318 52.8761 57.5838 46.728 49.9998 46.728C42.4158 46.728 36.2678 52.8761 36.2678 60.46C36.2678 68.044 42.4158 74.192 49.9998 74.192Z" fill="#E9F6FF"/>
<path d="M42.2568 59.5894C42.2568 55.8781 43.2656 52.4029 45.0233 49.4217C45.3372 48.8893 45.6587 48.0999 45.9329 47.3403C40.3343 49.0738 36.2673 54.292 36.2673 60.4603C36.2673 67.551 41.6418 73.3859 48.5391 74.1152C44.6793 70.4528 42.2568 65.2863 42.2568 59.5894Z" fill="#CAE7FC"/>
<path d="M52.1148 70.4958C51.9742 70.0313 52.2367 69.5406 52.7012 69.3999C54.7649 68.7749 56.5653 67.4369 57.7706 65.6323C58.0402 65.2287 58.586 65.1199 58.9896 65.3896C59.3933 65.6592 59.502 66.205 59.2323 66.6086C57.8015 68.7509 55.6405 70.2694 53.2107 71.0823C52.6151 71.2816 52.2298 70.8755 52.1148 70.4958Z" fill="#CAE7FC"/>
<path d="M41.582 79.121H34.3663C32.5079 79.121 30.9875 77.6005 30.9875 75.7423C30.9875 73.8839 32.5081 72.3635 34.3663 72.3635H41.582C43.4403 72.3635 44.9607 73.884 44.9607 75.7423C44.9607 77.6005 43.4402 79.121 41.582 79.121Z" fill="#FFB864"/>
<path d="M36.7052 75.7423C36.7052 73.8839 38.2257 72.3635 40.084 72.3635H34.3663C32.5079 72.3635 30.9875 73.884 30.9875 75.7423C30.9875 77.6005 32.5081 79.121 34.3663 79.121H40.084C38.2257 79.121 36.7052 77.6005 36.7052 75.7423Z" fill="#F4A651"/>
<path d="M65.6346 79.121H58.4188C56.5604 79.121 55.04 77.6005 55.04 75.7423C55.04 73.8839 56.5605 72.3635 58.4188 72.3635H65.6345C67.4928 72.3635 69.0132 73.884 69.0132 75.7423C69.0133 77.6005 67.4928 79.121 65.6346 79.121Z" fill="#FFB864"/>
<path d="M60.7577 75.742C60.7577 73.8837 62.2782 72.3633 64.1365 72.3633H58.4188C56.5604 72.3633 55.04 73.8838 55.04 75.742C55.04 77.6003 56.5604 79.1209 58.4188 79.1209H64.1365C62.2781 79.1209 60.7577 77.6004 60.7577 75.742Z" fill="#F4A651"/>
<path d="M50.0141 43.4867C51.8588 43.4867 53.3542 42.3241 53.3542 40.8898C53.3542 39.4556 51.8588 38.293 50.0141 38.293C48.1695 38.293 46.6741 39.4556 46.6741 40.8898C46.6741 42.3241 48.1695 43.4867 50.0141 43.4867Z" fill="#EF943A"/>
<path d="M50.0141 38.2937C48.1695 38.2937 46.6741 39.4561 46.6741 40.8901C46.6741 42.1295 47.7917 43.1654 49.2859 43.4238C48.9229 42.0212 50.0008 41.168 50.0008 41.168L50.0141 38.2937Z" fill="#E28027"/>
<path d="M54.3506 41.1679C55.4153 41.1679 55.8456 39.808 54.9828 39.1843C53.8628 38.3747 52.048 37.8484 49.9998 37.8484C47.9516 37.8484 46.137 38.3746 45.0169 39.1843C44.154 39.808 44.5845 41.1679 45.6491 41.1679H54.3506Z" fill="#FFB864"/>
<path d="M49.3542 39.1846C50.0569 38.6767 51.0331 38.2805 52.1685 38.0556C51.4938 37.922 50.7631 37.8486 49.9998 37.8486C47.9516 37.8486 46.137 38.3748 45.0169 39.1846C44.154 39.8082 44.5845 41.1682 45.6491 41.1682H49.9866C48.9218 41.1681 48.4915 39.8082 49.3542 39.1846Z" fill="#F4A651"/>
<path d="M59.4519 34.1533C58.9665 34.1533 58.573 34.5468 58.573 35.0322V36.4912C58.573 36.9766 58.9665 37.3701 59.4519 37.3701C59.9373 37.3701 60.3308 36.9766 60.3308 36.4912V35.0322C60.3308 34.5468 59.9373 34.1533 59.4519 34.1533Z" fill="black"/>
<path d="M40.548 34.4175C39.6179 34.4175 38.7434 34.8718 38.2085 35.6328C37.9115 36.0554 38.0133 36.6389 38.436 36.936C38.8586 37.2329 39.442 37.1312 39.7391 36.7085C39.9268 36.4414 40.2217 36.2883 40.5482 36.2883C40.8746 36.2883 41.1622 36.4467 41.3572 36.7085C41.8056 37.3106 42.4968 37.0508 42.6603 36.936C43.083 36.6389 43.1849 36.0554 42.8878 35.6328C42.3527 34.8718 41.4782 34.4175 40.548 34.4175Z" fill="black"/>
<path d="M49.9998 36.9697C47.8269 36.9697 45.8229 37.5173 44.502 38.4722C43.7917 38.9856 43.5066 39.8548 43.7758 40.6864C44.0432 41.513 44.7785 42.047 45.649 42.047H46.0361C46.616 43.3962 48.1798 44.3654 50.0139 44.3654C51.848 44.3654 53.4116 43.396 53.9917 42.047H54.3506C55.2211 42.047 55.9564 41.513 56.2239 40.6864C56.4929 39.8548 56.2079 38.9856 55.4977 38.4721C54.1767 37.5173 52.1728 36.9697 49.9998 36.9697ZM50.0139 42.6076C49.3122 42.6076 48.6696 42.3887 48.2163 42.047H51.8114C51.3581 42.3888 50.7156 42.6076 50.0139 42.6076ZM54.3506 40.2892H45.649C45.3763 40.2892 45.3823 39.994 45.5317 39.8968C46.5793 39.2153 48.2149 38.7275 49.9998 38.7275C51.7847 38.7275 53.4516 39.1693 54.4679 39.8968C54.6039 39.9941 54.6657 40.2892 54.3506 40.2892Z" fill="black"/>
<path d="M73.6817 48.738C71.4593 44.6935 68.2858 42.3209 66.2927 41.1384V36.2927C66.2927 32.957 65.2916 29.7502 63.3976 27.0189C63.121 26.6201 62.5734 26.5209 62.1745 26.7976C61.7756 27.0741 61.6765 27.6217 61.9531 28.0206C63.6422 30.4564 64.5349 33.3168 64.5349 36.2927V41.4543C64.5349 44.0052 65.2258 46.5255 66.5331 48.7425C68.2633 51.6771 69.1779 55.0386 69.1779 58.4639C69.1779 63.3336 67.3715 67.9302 64.0788 71.4845H59.5785C62.6597 68.8037 64.6107 64.8557 64.6107 60.4603C64.6107 52.4037 58.0561 45.8491 49.9995 45.8491C44.6135 45.8491 39.6806 48.7977 37.1257 53.5444C36.8957 53.9718 37.0557 54.5047 37.483 54.7349C37.9103 54.9649 38.4434 54.805 38.6735 54.3776C40.9215 50.2013 45.2613 47.607 49.9995 47.607C57.0868 47.607 62.8529 53.3731 62.8529 60.4604C62.8529 67.5478 57.0868 73.3139 49.9995 73.3139C42.9121 73.3139 37.1461 67.5478 37.1461 60.4604C37.1461 59.4804 37.2566 58.5042 37.4747 57.559C37.5838 57.086 37.2889 56.6141 36.8159 56.505C36.3428 56.3957 35.871 56.6907 35.7619 57.1638C35.5141 58.2384 35.3883 59.3476 35.3883 60.4604C35.3883 64.8558 37.3394 68.8038 40.4206 71.4846H35.9705C32.648 67.9128 30.8219 63.304 30.822 58.4639C30.822 55.0385 31.7366 51.677 33.4668 48.7425C34.774 46.5256 35.465 44.0052 35.465 41.4543V36.2928C35.4652 28.2781 41.9855 21.7578 50 21.7578C53.5745 21.7578 57.0103 23.0673 59.6744 25.445C60.0367 25.7681 60.5922 25.7366 60.9154 25.3744C61.2386 25.0123 61.2071 24.4566 60.8449 24.1334C57.8583 21.468 54.0068 20 50 20C41.0162 20 33.7074 27.3089 33.7074 36.2927V41.1384C31.7144 42.3209 28.5409 44.6934 26.3186 48.7377C23.3916 54.0639 22.9393 60.626 24.9738 68.2418C25.235 69.2192 25.9261 69.9849 26.8702 70.3425C27.2299 70.4787 28.5011 70.7298 29.6662 70.0283C30.3422 69.6213 31.0435 69.114 31.7357 68.6538C32.3031 69.6608 32.9567 70.6255 33.693 71.5383C31.6642 71.8622 30.1088 73.6237 30.1088 75.7422C30.1088 78.09 32.0188 80 34.3666 80H41.5822C42.7833 80 43.869 79.4993 44.6439 78.6965C46.389 79.1635 48.1876 79.3997 50.0033 79.3997C50.0541 79.3997 50.1048 79.3995 50.1554 79.3992C51.9217 79.3863 53.6709 79.1507 55.3638 78.7033C56.1382 79.5021 57.2212 80 58.419 80H65.6348C67.9825 80 69.8926 78.09 69.8926 75.7422C69.8926 73.6376 68.3571 71.8856 66.3477 71.5454C67.078 70.6362 67.7261 69.6746 68.2886 68.6699C68.9735 69.1253 69.6771 69.6083 70.3341 70.0284C71.4602 70.7483 72.7706 70.4788 73.1301 70.3426C74.0742 69.9849 74.7653 69.2194 75.0266 68.2419C77.0608 60.6261 76.6085 54.0641 73.6817 48.738ZM28.6947 68.5635C28.3345 68.8024 27.8964 68.8515 27.4928 68.6987C27.0845 68.544 26.7852 68.2121 26.672 67.7882C24.7583 60.6247 25.1576 54.5001 27.859 49.5843C29.5338 46.5367 31.8018 44.5295 33.5653 43.3152C33.325 44.9045 32.7803 46.446 31.9527 47.8496C30.0631 51.0543 29.0644 54.7246 29.0643 58.4637C29.0643 61.4709 29.7098 64.3957 30.933 67.0765C30.19 67.5708 29.406 68.0917 28.6947 68.5635ZM41.5821 78.2421H34.3664C32.988 78.2421 31.8665 77.1206 31.8665 75.7421C31.8665 74.3636 32.988 73.2422 34.3664 73.2422H41.5821C42.9606 73.2422 44.0821 74.3636 44.0821 75.7421C44.0821 77.1206 42.9605 78.2421 41.5821 78.2421ZM50.1424 77.6413C48.6102 77.6529 47.0893 77.4791 45.6075 77.1263C45.7573 76.692 45.8398 76.2267 45.8398 75.7421C45.8398 75.2737 45.7627 74.8231 45.6223 74.4013C47.0049 74.8364 48.4753 75.0713 49.9997 75.0713C51.5248 75.0713 52.9957 74.836 54.3789 74.4007C54.2384 74.8228 54.1611 75.2735 54.1611 75.7421C54.1611 76.229 54.2443 76.6967 54.3956 77.1328C53.0074 77.4582 51.5815 77.6307 50.1424 77.6413ZM68.1344 75.7421C68.1344 77.1206 67.0129 78.2421 65.6345 78.2421H58.4188C57.0403 78.2421 55.9189 77.1206 55.9189 75.7421C55.9189 74.3636 57.0403 73.2422 58.4188 73.2422H65.6346C67.0129 73.2423 68.1344 74.3638 68.1344 75.7421ZM73.328 67.7882C73.2148 68.2121 72.9155 68.544 72.5073 68.6987C72.1034 68.8515 71.6654 68.8023 71.3054 68.5635C70.6005 68.096 69.8243 67.5803 69.0873 67.0901C70.2982 64.414 70.9357 61.4871 70.9357 58.4639C70.9357 54.7249 69.9369 51.0546 68.0472 47.8498C67.2197 46.4461 66.675 44.9045 66.4346 43.3152C68.1982 44.5295 70.4663 46.5368 72.1412 49.5845C74.8424 54.5003 75.2418 60.6248 73.328 67.7882Z" fill="black"/>
</svg>
