<svg width="100" height="100" viewBox="0 0 100 100" fill="none" xmlns="http://www.w3.org/2000/svg">
<g clip-path="url(#clip0)">
<path d="M64.3837 96.6672L58.328 80.0044H41.6652L35.6021 96.6672H28.3301V99.9997H71.6533V96.6672H64.3837Z" fill="#E0E0DE"/>
<path d="M60.1448 85.0032L58.328 80.0044H41.6652L39.8459 85.0032H60.1448Z" fill="#D6D6D4"/>
<path d="M91.6567 15.0195H8.34284C4.66206 15.0195 1.67773 18.0039 1.67773 21.6846V68.3404H98.3218V21.6846C98.3218 18.0039 95.3383 15.0195 91.6567 15.0195Z" fill="#348FD9"/>
<path d="M1.66626 68.3403V73.3392C1.66626 77.0208 4.65059 80.0043 8.33137 80.0043H91.6566C95.3382 80.0043 98.3218 77.0208 98.3218 73.3392V68.3403H1.66626Z" fill="#E0E0DE"/>
<path d="M10.009 15.0195H15.0079V68.3404H10.009V15.0195Z" fill="#3086CD"/>
<path d="M84.9917 15.0195H89.9905V68.3404H84.9917V15.0195Z" fill="#3086CD"/>
<path d="M78.3264 1.68921H21.6729C17.9921 1.68921 15.0078 4.67354 15.0078 8.35432V68.3403H84.9915V8.35432C84.9915 4.67354 82.008 1.68921 78.3264 1.68921V1.68921Z" fill="#5AC6D4"/>
<path d="M78.3264 1.68921L15.0078 65.0078V68.3403H84.9915V8.35432C84.9915 4.67354 82.008 1.68921 78.3264 1.68921V1.68921Z" fill="#3FB7C7"/>
<path d="M21.6729 6.68823H25.0054V10.0208H21.6729V6.68823Z" fill="#2A8EBD"/>
<path d="M28.3381 6.68823H31.6707V10.0208H28.3381V6.68823Z" fill="#2A8EBD"/>
<path d="M35.0029 6.68823H38.3355V10.0208H35.0029V6.68823Z" fill="#2A8EBD"/>
<path d="M21.6729 13.3535H78.3263V16.6861H21.6729V13.3535Z" fill="#2A8EBD"/>
<path d="M78.3263 40.0136H43.3345C42.4143 40.0136 41.6682 39.2675 41.6682 38.3473V23.3508H45.0008V36.6811H78.3263V40.0136Z" fill="#2A8EBD"/>
<path d="M44.3345 34.6822L42.3354 32.016L49.0006 27.0171C49.5058 26.6404 50.1795 26.5794 50.7449 26.8585L56.332 29.6549L62.1469 23.8392C62.7474 23.2387 63.7033 23.1858 64.3664 23.7163L71.5319 29.4498L77.1418 23.8392L79.498 26.1954L72.8329 32.8605C72.2324 33.4618 71.2765 33.5146 70.6134 32.9842L63.4487 27.2506L57.838 32.8605C57.3311 33.3682 56.5566 33.4943 55.9155 33.1737L50.1665 30.3017L44.3345 34.6822Z" fill="#2A8EBD"/>
<path d="M78.3263 60.009H43.3345C42.4143 60.009 41.6682 59.2629 41.6682 58.3427V43.3462H45.0008V56.6764H78.3263V60.009Z" fill="#2A8EBD"/>
<path d="M44.6362 54.3854L42.0334 52.3025L48.6986 43.9711C48.9947 43.6017 49.4341 43.3747 49.9076 43.3487C50.3811 43.3227 50.8424 43.4992 51.1776 43.8344L56.9933 49.6501L62.5853 46.8538C63.0539 46.6194 63.6056 46.6194 64.075 46.8538L69.6621 49.6501L75.477 43.8344L77.8332 46.1907L71.1681 52.8558C70.6612 53.3635 69.8866 53.4896 69.2455 53.169L63.3297 50.2083L57.4099 53.178C56.768 53.4977 55.9934 53.3716 55.4865 52.8647L50.1378 47.5152L44.6362 54.3854Z" fill="#2A8EBD"/>
<path d="M36.4515 30.0713C35.7176 27.1064 33.0587 25.0228 30.0044 25.0171V31.6822L36.4515 30.0713Z" fill="#FFB531"/>
<path d="M30.0045 31.6822V25.0171C26.3237 25.0171 23.3394 28.0014 23.3394 31.6822C23.3394 35.3638 26.3237 38.3473 30.0045 38.3473C33.6861 38.3473 36.6696 35.3638 36.6696 31.6822C36.6639 31.1387 36.5906 30.5968 36.4515 30.0713L30.0045 31.6822Z" fill="#2A8EBD"/>
<path d="M31.6162 58.1248C34.581 57.3909 36.6646 54.732 36.6695 51.6777H30.0044L31.6162 58.1248Z" fill="#FFB531"/>
<path d="M30.0045 45.0125C26.3237 45.0125 23.3394 47.9968 23.3394 51.6776C23.3394 55.3592 26.3237 58.3427 30.0045 58.3427C30.5488 58.337 31.0898 58.2637 31.6162 58.1246L30.0045 51.6776H36.6696C36.6696 47.9968 33.6861 45.0125 30.0045 45.0125Z" fill="#2A8EBD"/>
<path d="M91.6567 13.3533H89.9904V16.6858H91.6567C94.4181 16.6858 96.6555 18.9241 96.6555 21.6847V66.6742H3.34395V21.6847C3.34395 18.9241 5.58219 16.6858 8.34278 16.6858H10.0091V13.3533H8.34278C3.74424 13.359 0.0170859 17.0861 0.0113906 21.6847L0 68.3404V73.3393C0.0056953 77.9386 3.73204 81.6658 8.33139 81.6707H39.2861L33.8373 96.6672H28.3381V99.9997H71.6614V96.6672H66.163L60.7142 81.6707H91.6567C96.256 81.6658 99.9832 77.9386 99.9881 73.3393V68.3404L100 21.6847C99.9946 17.0812 96.2609 13.3525 91.6567 13.3533V13.3533ZM62.6091 96.6672H37.3749L42.8351 81.6707H57.1652L62.6091 96.6672ZM91.6567 78.3381H8.34278C5.58219 78.3381 3.34395 76.1007 3.34395 73.3393V70.0067H96.6555V73.3393C96.6555 76.1007 94.4181 78.3381 91.6567 78.3381Z" fill="black"/>
<path d="M86.6578 63.3418V8.35458C86.6529 3.75605 82.9257 0.0288886 78.3264 0.0231934H21.6729C17.0744 0.0288886 13.3472 3.75605 13.3416 8.35458V63.3418H16.6741V8.35458C16.6741 5.594 18.9124 3.35575 21.6729 3.35575H78.3264C81.0878 3.35575 83.3252 5.594 83.3252 8.35458V63.3418H86.6578Z" fill="black"/>
<path d="M21.6729 6.68799H25.0054V10.0205H21.6729V6.68799Z" fill="black"/>
<path d="M28.3381 6.68799H31.6707V10.0205H28.3381V6.68799Z" fill="black"/>
<path d="M35.0034 6.68799H38.336V10.0205H35.0034V6.68799Z" fill="black"/>
<path d="M21.6616 13.3533H78.3151V16.6858H21.6616V13.3533Z" fill="black"/>
<path d="M50.1664 30.3018L55.9203 33.1828C56.5614 33.5025 57.3359 33.3764 57.8428 32.8695L63.4535 27.2589L70.6182 32.9924C71.2813 33.5229 72.2373 33.47 72.8377 32.8695L79.5028 26.2044L77.1466 23.8482L71.5384 29.4499L64.3729 23.7164C63.7098 23.1859 62.7538 23.2388 62.1533 23.8392L56.3385 29.6549L50.7465 26.8586C50.181 26.5787 49.5057 26.6397 49.0005 27.0172L45.0008 30.0162V23.3511H41.6682V38.3476C41.6682 39.2678 42.4143 40.0139 43.3345 40.0139H78.3263V36.6813H45.0008V34.1819L50.1664 30.3018Z" fill="black"/>
<path d="M43.3345 60.0091H78.3263V56.6765H45.0008V53.9306L50.1379 47.512L55.4866 52.8607C55.9935 53.3684 56.768 53.4945 57.41 53.1739L63.3298 50.2083L69.2505 53.178C69.8916 53.4977 70.6662 53.3716 71.173 52.8647L77.8381 46.1996L75.4819 43.8434L69.667 49.6583L64.0751 46.8627C63.6056 46.6284 63.054 46.6284 62.5854 46.8627L56.9983 49.6501L51.1826 43.8344C50.8482 43.4992 50.3861 43.3227 49.9125 43.3487C49.4398 43.3747 48.9997 43.6017 48.7035 43.9711L45.0008 48.5916V43.3463H41.6682V58.3428C41.6682 59.263 42.4143 60.0091 43.3345 60.0091V60.0091Z" fill="black"/>
<path d="M30.0042 23.3511C25.4033 23.3511 21.6729 27.0815 21.6729 31.6825C21.6729 36.2843 25.4033 40.0139 30.0042 40.0139C34.606 40.0139 38.3356 36.2843 38.3356 31.6825C38.3307 27.0839 34.6036 23.3568 30.0042 23.3511ZM31.6705 26.9904C32.6916 27.3484 33.5679 28.0269 34.1699 28.9251L31.6705 29.5484V26.9904ZM30.0042 36.6813C27.5724 36.6862 25.4919 34.9361 25.0803 32.5392C24.6678 30.1431 26.0444 27.7983 28.338 26.9904V31.6825C28.3388 32.1959 28.5747 32.68 28.9791 32.9956C29.3835 33.3113 29.9099 33.4228 30.4078 33.2991L34.9551 32.1625C34.7134 34.7181 32.5712 36.6732 30.0042 36.6813Z" fill="black"/>
<path d="M30.0042 43.3464C25.4033 43.3464 21.6729 47.0768 21.6729 51.6778C21.6729 56.2796 25.4033 60.0092 30.0042 60.0092C34.606 60.0092 38.3356 56.2796 38.3356 51.6778C38.3307 47.0793 34.6036 43.3521 30.0042 43.3464ZM32.7624 55.8435L32.1392 53.3441H34.6972C34.3392 54.3652 33.6606 55.2414 32.7624 55.8435ZM30.0042 50.0115C29.4917 50.0124 29.0076 50.2483 28.6919 50.6527C28.3762 51.057 28.2639 51.5834 28.3884 52.0814L29.525 56.6286C27.059 56.396 25.138 54.388 25.0144 51.9138C24.8907 49.4404 26.6017 47.251 29.0328 46.7734C31.463 46.2958 33.8754 47.6748 34.6972 50.0115H30.0042Z" fill="black"/>
</g>
<defs>
<clipPath id="clip0">
<rect width="100" height="100" fill="white"/>
</clipPath>
</defs>
</svg>
