<svg width="100" height="100" viewBox="0 0 100 100" fill="none" xmlns="http://www.w3.org/2000/svg">
<g clip-path="url(#clip0)">
<path d="M74.7421 80H25.258C23.0014 80 20.8977 78.8582 19.668 76.9661C18.4384 75.0732 18.2496 72.6872 19.1667 70.625L21.6667 65V35C21.6667 23.9543 30.621 15 41.6667 15H58.3334C69.3791 15 78.3334 23.9543 78.3334 35V65L80.8334 70.625C81.7505 72.6872 81.5617 75.0732 80.3321 76.9661C79.1024 78.8582 76.9988 80 74.7421 80V80Z" fill="#FFB531"/>
<path d="M80.8333 70.6251L78.3333 65.0001V35.0001C78.3349 30.5649 76.8538 26.2558 74.1268 22.7581C63.2918 53.6964 39.7135 71.3331 24.3546 79.9399C24.6541 79.9797 24.956 80.0001 25.2579 80.0001H74.742C76.9987 80.0001 79.1023 78.8583 80.332 76.9662C81.5616 75.0733 81.7505 72.6873 80.8333 70.6251V70.6251Z" fill="#FFA912"/>
<path d="M35.8333 24.8984L34.1666 22.0134C35.3418 21.3339 36.604 20.8163 37.9183 20.4753L38.7516 23.7021C37.7286 23.9657 36.7472 24.3678 35.8333 24.8984Z" fill="#FFCB73"/>
<path d="M30 41.6667H26.6667V35C26.6553 30.9432 28.3008 27.0581 31.2215 24.2432L33.5433 26.6333C31.2712 28.8232 29.9919 31.8449 30 35V41.6667Z" fill="#FFCB73"/>
<path d="M58.3333 15.0001H41.6667L35 1.66675H65L58.3333 15.0001Z" fill="#FFB531"/>
<path d="M53.3333 41.6666H46.6667C44.8258 41.6666 43.3333 40.1741 43.3333 38.3333C43.3333 36.4924 44.8258 34.9999 46.6667 34.9999H58.3333V31.6666H51.6667V28.3333H48.3333V31.6666H46.6667C42.985 31.6666 40 34.6516 40 38.3333C40 42.0149 42.985 44.9999 46.6667 44.9999H53.3333C55.1742 44.9999 56.6667 46.4924 56.6667 48.3333C56.6667 50.1741 55.1742 51.6666 53.3333 51.6666H41.6667V54.9999H48.3333V58.3332H51.6667V54.9999H53.3333C57.015 54.9999 60 52.0149 60 48.3333C60 44.6516 57.015 41.6666 53.3333 41.6666Z" fill="#F58F00"/>
<path d="M84.3668 67.8419C75.7764 61.1598 63.8851 60.6878 54.7916 66.6668H41.6666C37.985 66.6668 35 69.6518 35 73.3334C35 77.0151 37.985 80.0001 41.6666 80.0001H38.3333L12.373 67.0004C9.90719 65.7651 6.95472 66.0312 4.7485 67.6865L4.66468 67.7483C2.77665 69.1594 1.665 71.3795 1.66663 73.7371V73.9121C1.66826 76.6391 3.15833 79.1472 5.55335 80.4518L33.8582 95.892C36.7952 97.4936 40.0879 98.3335 43.4334 98.3335H85V68.3334L84.3668 67.8419Z" fill="#FEC9A3"/>
<path d="M85 68.3333H98.3333V98.3333H85V68.3333Z" fill="#348FD9"/>
<path d="M85 88.3333H98.3333V98.3333H85V88.3333Z" fill="#3086CD"/>
<path d="M90 88.3333H93.3333V91.6666H90V88.3333Z" fill="#1A5485"/>
<path d="M61.6667 81.6666H41.6667C40.7463 81.6666 40 80.9203 40 79.9999C40 79.0795 40.7463 78.3333 41.6667 78.3333H61.6667C62.5871 78.3333 63.3333 79.0795 63.3333 79.9999C63.3333 80.9203 62.5871 81.6666 61.6667 81.6666Z" fill="#FEB784"/>
<path d="M80 58.3334V35C80.0236 24.0365 71.8319 14.7941 60.9448 13.5002L66.4998 2.41132C66.7586 1.89374 66.7301 1.27851 66.4241 0.786159C66.1182 0.294623 65.5794 -0.0032288 65 2.64106e-05H35C34.4222 2.64106e-05 33.8859 0.298692 33.5815 0.790228C33.278 1.28095 33.2503 1.89456 33.5083 2.41132L39.0568 13.5002C28.1877 14.8283 20.0138 24.0503 20 35V65H23.3333V35C23.3455 24.8796 31.5462 16.6789 41.6667 16.6667H58.3333C63.1974 16.6594 67.8654 18.5889 71.3045 22.0288C74.7445 25.468 76.674 30.1359 76.6667 35V58.3334H80ZM57.3031 13.3334H42.6969L37.6969 3.33336H62.3031L57.3031 13.3334Z" fill="black"/>
<path d="M35.8334 24.8984C36.7456 24.3686 37.7263 23.9657 38.7484 23.7021L37.9151 20.4753C36.6008 20.8163 35.3386 21.3339 34.1635 22.0134L35.8334 24.8984Z" fill="black"/>
<path d="M26.6667 41.6667H30V35C29.9919 31.8449 31.2712 28.8232 33.5433 26.6333L31.2215 24.2432C28.3008 27.0581 26.6553 30.9432 26.6667 35V41.6667Z" fill="black"/>
<path d="M4.75342 81.9132L33.0485 97.3454C36.2329 99.0861 39.8039 99.9992 43.4334 100H98.3333C99.2538 100 100 99.2537 100 98.3333V68.3333C100 67.4129 99.2538 66.6667 98.3333 66.6667H85.5786L85.3882 66.5185C83.431 64.9902 81.2671 63.7467 78.9616 62.8231C70.8748 59.5231 61.6919 60.3345 54.3083 65H41.6667C39.0129 64.9992 36.5169 66.263 34.9463 68.4025C33.3765 70.542 32.9191 73.3016 33.715 75.8333L13.112 65.5102C10.0521 63.9738 6.38266 64.3245 3.67025 66.4136C1.36394 68.1413 0.0048896 70.852 6.7917e-06 73.7337V73.9168C-0.00406221 77.2526 1.82048 80.3231 4.75342 81.9132V81.9132ZM86.6667 70H96.6667V96.6666H86.6667V70ZM3.33334 73.7337C3.34555 71.8677 4.24154 70.1172 5.7487 69.0169C7.44548 67.7368 9.7225 67.5325 11.6203 68.4904L37.5887 81.4901C37.819 81.6064 38.0746 81.6666 38.3333 81.6666H63.3333V78.3333H41.6667C38.9054 78.3333 36.6667 76.0945 36.6667 73.3333C36.6667 70.5721 38.9054 68.3333 41.6667 68.3333H54.7998C55.1261 68.3325 55.4452 68.2373 55.7186 68.0583C62.2485 63.7581 70.4802 62.9557 77.7181 65.9147C79.7323 66.722 81.6227 67.8084 83.3333 69.1414V96.6666H43.4334C40.3622 96.6658 37.3413 95.8927 34.6468 94.4197L6.34359 78.9852C4.48487 77.9769 3.32927 76.0311 3.33334 73.9168V73.7337Z" fill="black"/>
<path d="M90 88.3333H93.3333V91.6666H90V88.3333Z" fill="black"/>
<path d="M51.6667 58.3332V54.9999H53.3333C57.015 54.9999 60 52.0149 60 48.3333C60 44.6516 57.015 41.6666 53.3333 41.6666H46.6667C44.8258 41.6666 43.3333 40.1741 43.3333 38.3333C43.3333 36.4924 44.8258 34.9999 46.6667 34.9999H58.3333V31.6666H51.6667V28.3333H48.3333V31.6666H46.6667C42.985 31.6666 40 34.6516 40 38.3333C40 42.0149 42.985 44.9999 46.6667 44.9999H53.3333C55.1742 44.9999 56.6667 46.4924 56.6667 48.3333C56.6667 50.1741 55.1742 51.6666 53.3333 51.6666H41.6667V54.9999H48.3333V58.3332H51.6667Z" fill="black"/>
</g>
<defs>
<clipPath id="clip0">
<rect width="100" height="100" fill="white"/>
</clipPath>
</defs>
</svg>
