<svg width="100" height="100" viewBox="0 0 100 100" fill="none" xmlns="http://www.w3.org/2000/svg">
<g clip-path="url(#clip0)">
<path d="M30.0001 23.3333C30.0001 32.1638 28.5767 40.9374 25.7838 49.3147L25.0001 51.6666H15.0001L14.2164 49.3147C11.4234 40.9374 10.0001 32.1638 10.0001 23.3333H1.66675V25.1667C1.66838 32.7986 2.73446 40.3938 4.83325 47.7319L8.33341 59.9999V98.3333H16.6667V73.3333H23.3334V98.3333H31.6667V59.9999L35.1669 47.7319C37.2657 40.3938 38.3318 32.7986 38.3334 25.1667V23.3333H30.0001Z" fill="#348FD9"/>
<path d="M19.9999 30C23.6816 30 26.6666 32.985 26.6666 36.6667V38.3333C26.6666 42.015 23.6816 45 19.9999 45C16.3183 45 13.3333 42.015 13.3333 38.3333V36.6667C13.3333 32.985 16.3183 30 19.9999 30Z" fill="#348FD9"/>
<path d="M8.33325 71.5518V98.5514H16.6666V73.5514H23.3333V98.5514H31.6666V60.218L35.1667 47.9483C35.7584 45.8764 36.2597 43.7817 36.6869 41.6731C30.8267 54.5125 20.8479 65.0276 8.33325 71.5518V71.5518Z" fill="#3086CD"/>
<path d="M90.0001 23.3333C90.0001 32.1638 88.5767 40.9374 85.7838 49.3147L85.0001 51.6666H75.0001L74.2164 49.3147C71.4234 40.9374 70.0001 32.1638 70.0001 23.3333H61.6667V25.1667C61.6684 32.801 62.7336 40.3979 64.8333 47.7384L68.3334 59.9999V98.3333H76.6667V73.3333H83.3334V98.3333H91.6667V59.9999L95.1669 47.7319C97.2657 40.3938 98.3318 32.7986 98.3334 25.1667V23.3333H90.0001Z" fill="#348FD9"/>
<path d="M79.9999 30C83.6816 30 86.6666 32.985 86.6666 36.6667V38.3333C86.6666 42.015 83.6816 45 79.9999 45C76.3183 45 73.3333 42.015 73.3333 38.3333V36.6667C73.3333 32.985 76.3183 30 79.9999 30Z" fill="#348FD9"/>
<path d="M68.3333 71.342V98.3333H76.6666V73.3333H83.3333V98.3333H91.6666V60L95.1667 47.7319C95.7584 45.6584 96.2597 43.5653 96.6869 41.4551C90.8284 54.2969 80.8495 64.8153 68.3333 71.342V71.342Z" fill="#3086CD"/>
<path d="M61.6667 23.3333C61.6667 32.1239 59.8218 40.817 56.2516 48.85L55 51.6666H45L43.7484 48.85C40.1782 40.817 38.3333 32.1239 38.3333 23.3333H30C30 32.1565 31.5169 40.9138 34.4849 49.2236L38.3333 59.9999V98.3333H46.6667V73.3333H53.3333V98.3333H61.6667V59.9999L65.5151 49.2236C68.4831 40.9138 70 32.1565 70 23.3333H61.6667Z" fill="#4DB7E5"/>
<path d="M49.9999 30C53.6816 30 56.6666 32.985 56.6666 36.6667V38.3333C56.6666 42.015 53.6816 45 49.9999 45C46.3183 45 43.3333 42.015 43.3333 38.3333V36.6667C43.3333 32.985 46.3183 30 49.9999 30Z" fill="#4DB7E5"/>
<path d="M48.3333 11.6667H51.6666V23.3334H48.3333V11.6667Z" fill="#F7A116"/>
<path d="M43.3333 21.6667H56.6666V25.0001H43.3333V21.6667Z" fill="#FFB531"/>
<path d="M47.2916 12.1867L39.2919 10.5566C36.6186 10.0057 34.7932 7.52523 35.0609 4.80957C35.3287 2.09391 37.6041 0.0179036 40.3336 0H43.3332V3.33333H40.3336C39.3163 3.3488 38.4732 4.12516 38.3739 5.13672C38.2738 6.14909 38.9493 7.07438 39.9429 7.28841L45.3336 8.3667L47.2916 12.1867Z" fill="#F7A116"/>
<path d="M52.1868 12.2917L54.6664 8.3667L60.0554 7.28841C61.0491 7.07438 61.7245 6.14909 61.6253 5.13753C61.5252 4.12598 60.6829 3.34961 59.6664 3.33333H56.6668V0H59.6664C62.3967 0.0154623 64.6746 2.09066 64.9439 4.80713C65.2133 7.5236 63.3871 10.0049 60.7138 10.5566L52.1868 12.2917Z" fill="#F7A116"/>
<path d="M43.3333 0H56.6666V6.66667C56.6666 10.3483 53.6816 13.3333 49.9999 13.3333C46.3183 13.3333 43.3333 10.3483 43.3333 6.66667V0Z" fill="#FFB531"/>
<path d="M53.3333 0V6.66667C53.3276 9.69889 51.2711 12.3438 48.3333 13.0965C48.8761 13.2471 49.4368 13.326 49.9999 13.3333C53.6816 13.3333 56.6666 10.3483 56.6666 6.66667V0H53.3333Z" fill="#F7A116"/>
<path d="M24.5947 3.28369L25.402 0.0512695L32.0687 1.71794L31.2606 4.95036L24.5947 3.28369Z" fill="#FFB531"/>
<path d="M24.5947 10.0514L31.2614 8.38306L32.0703 11.6147L25.4036 13.283L24.5947 10.0514Z" fill="#FFB531"/>
<path d="M67.9272 1.71712L74.5931 0.0488281L75.402 3.28044L68.7362 4.94873L67.9272 1.71712Z" fill="#FFB531"/>
<path d="M67.929 11.6169L68.7371 8.38452L75.4029 10.0512L74.5948 13.2836L67.929 11.6169Z" fill="#FFB531"/>
<path d="M38.3333 71.6399V98.3334H46.6666V73.3334H53.3333V98.3334H61.6666V60.0001L65.5151 49.2237C66.433 46.6358 67.2118 44.0007 67.8482 41.3298C60.1 55.2003 47.9801 65.2621 38.3333 71.6399V71.6399Z" fill="#48ADD9"/>
<path d="M98.3333 21.6667H90C89.0796 21.6667 88.3333 22.413 88.3333 23.3334C88.3317 26.7205 88.116 30.1034 87.688 33.4636C86.3924 30.363 83.3602 28.3448 80 28.3448C76.6398 28.3448 73.6076 30.363 72.312 33.4636C71.884 30.1034 71.6683 26.7205 71.6667 23.3334C71.6667 22.413 70.9204 21.6667 70 21.6667H61.6667C60.7463 21.6667 60 22.413 60 23.3334C59.9984 28.0909 59.4385 32.8321 58.3333 37.4602V36.6667C58.3333 32.0647 54.602 28.3334 50 28.3334C45.3979 28.3334 41.6667 32.0647 41.6667 36.6667V37.4602C40.5615 32.8321 40.0024 28.0909 40 23.3334C40 22.413 39.2537 21.6667 38.3333 21.6667H30C29.0796 21.6667 28.3333 22.413 28.3333 23.3334C28.3317 26.7205 28.116 30.1034 27.688 33.4636C26.3924 30.363 23.3602 28.3448 20 28.3448C16.6398 28.3448 13.6076 30.363 12.312 33.4636C11.884 30.1034 11.6683 26.7205 11.6667 23.3334C11.6667 22.413 10.9204 21.6667 10 21.6667H1.66667C0.746256 21.6667 0 22.413 0 23.3334V25.1669C0.0016276 32.9542 1.08887 40.7032 3.22998 48.1902L6.66667 60.2336V98.3334C6.66667 99.2538 7.41292 100 8.33333 100H16.6667C17.5871 100 18.3333 99.2538 18.3333 98.3334V75.0001H21.6667V98.3334C21.6667 99.2538 22.4129 100 23.3333 100H31.6667C32.5871 100 33.3333 99.2538 33.3333 98.3334V60.2336L34.8047 55.0782L36.6667 60.2882V98.3334C36.6667 99.2538 37.4129 100 38.3333 100H46.6667C47.5871 100 48.3333 99.2538 48.3333 98.3334V75.0001H51.6667V98.3334C51.6667 99.2538 52.4129 100 53.3333 100H61.6667C62.5871 100 63.3333 99.2538 63.3333 98.3334V60.2882L65.1953 55.0782L66.6667 60.2336V98.3334C66.6667 99.2538 67.4129 100 68.3333 100H76.6667C77.5871 100 78.3333 99.2538 78.3333 98.3334V75.0001H81.6667V98.3334C81.6667 99.2538 82.4129 100 83.3333 100H91.6667C92.5871 100 93.3333 99.2538 93.3333 98.3334V60.2336L96.77 48.1902C98.9111 40.7032 99.9984 32.9542 100 25.1669V23.3334C100 22.413 99.2537 21.6667 98.3333 21.6667V21.6667ZM75 36.6667C75 33.9055 77.2388 31.6667 80 31.6667C82.7612 31.6667 85 33.9055 85 36.6667V38.3334C85 41.0946 82.7612 43.3334 80 43.3334C77.2388 43.3334 75 41.0946 75 38.3334V36.6667ZM80 46.6667C82.0174 46.6586 83.9624 45.914 85.4679 44.572C85.0798 45.9848 84.668 47.3935 84.2017 48.7883L83.798 50.0001H76.202L75.7983 48.7883C75.332 47.3935 74.9202 45.9848 74.5321 44.572C76.0376 45.914 77.9826 46.6586 80 46.6667ZM45 36.6667C45 33.9055 47.2388 31.6667 50 31.6667C52.7612 31.6667 55 33.9055 55 36.6667V38.3334C55 41.0946 52.7612 43.3334 50 43.3334C47.2388 43.3334 45 41.0946 45 38.3334V36.6667ZM50 46.6667C52.6074 46.6578 55.0586 45.4233 56.6187 43.3334C56.0531 44.9618 55.4354 46.5764 54.7282 48.1666L53.9168 50.0001H46.0832L45.2718 48.1666C44.5646 46.5764 43.9486 44.9618 43.3813 43.3334C44.9414 45.4224 47.3926 46.657 50 46.6667V46.6667ZM15 36.6667C15 33.9055 17.2388 31.6667 20 31.6667C22.7612 31.6667 25 33.9055 25 36.6667V38.3334C25 41.0946 22.7612 43.3334 20 43.3334C17.2388 43.3334 15 41.0946 15 38.3334V36.6667ZM20 46.6667C22.0174 46.6586 23.9624 45.914 25.4679 44.572C25.0798 45.9848 24.668 47.3935 24.2017 48.7883L23.798 50.0001H16.202L15.7983 48.7883C15.332 47.3935 14.9202 45.9848 14.5321 44.572C16.0376 45.914 17.9826 46.6586 20 46.6667ZM30.0651 59.5435C30.022 59.6917 30 59.8455 30 60.0001V96.6668H25V73.3334C25 72.413 24.2537 71.6668 23.3333 71.6668H16.6667C15.7463 71.6668 15 72.413 15 73.3334V96.6668H10V60.0001C10 59.8455 9.97803 59.6917 9.9349 59.5435L6.43473 47.2755C4.37907 40.0855 3.33496 32.6441 3.33333 25.1669V25.0001H8.34961C8.51318 33.4506 9.95768 41.8271 12.6351 49.843L13.418 52.1933C13.645 52.8744 14.2822 53.3334 15 53.3334H25C25.7178 53.3334 26.355 52.8744 26.582 52.1933L27.3649 49.843C28.4733 46.5113 29.3709 43.1121 30.0513 39.6664C30.7731 43.0657 31.7196 46.4128 32.8849 49.6868L30.0651 59.5435ZM63.9453 48.6671L60.0968 59.4434C60.0334 59.6225 60.0008 59.8105 60 60.0001V96.6668H55V73.3334C55 72.413 54.2537 71.6668 53.3333 71.6668H46.6667C45.7463 71.6668 45 72.413 45 73.3334V96.6668H40V60.0001C40 59.8097 39.9674 59.62 39.9032 59.4402L36.0547 48.6671C33.335 41.0645 31.8587 33.073 31.6854 25.0001H36.6854C36.8921 33.462 38.7744 41.7986 42.2217 49.5281L43.4733 52.343C43.741 52.9469 44.34 53.335 45 53.3334H55C55.6592 53.3334 56.2557 52.9452 56.5234 52.343L57.7751 49.5281C61.2223 41.7986 63.1038 33.462 63.3114 25.0001H68.3114C68.1388 33.0722 66.6642 41.0637 63.9453 48.6671V48.6671ZM96.6667 25.1669C96.665 32.6441 95.6209 40.0855 93.5653 47.2755L90.0651 59.5435C90.022 59.6917 90 59.8455 90 60.0001V96.6668H85V73.3334C85 72.413 84.2537 71.6668 83.3333 71.6668H76.6667C75.7463 71.6668 75 72.413 75 73.3334V96.6668H70V60.0001C70 59.8455 69.978 59.6917 69.9349 59.5435L67.1183 49.6819C68.2837 46.408 69.2301 43.0608 69.952 39.6615C70.6323 43.1088 71.5299 46.5097 72.6383 49.843L73.422 52.1933C73.6483 52.8728 74.2839 53.3318 75 53.3334H85C85.7178 53.3334 86.355 52.8744 86.582 52.1933L87.3649 49.843C90.0423 41.8271 91.4868 33.4506 91.6504 25.0001H96.6667V25.1669Z" fill="black"/>
<path d="M56.9166 11.3053L60.6999 10.5518C63.3602 9.99105 65.1734 7.51872 64.9081 4.81283C64.6436 2.10693 62.3853 0.0341796 59.6664 0H40.3337C37.6164 0.0333658 35.3589 2.10449 35.092 4.80876C34.8251 7.51302 36.6333 9.98535 39.292 10.5501L43.0835 11.3053C44.3034 13.1242 46.1882 14.3913 48.3334 14.8332V21.6667H43.3334V25H56.6667V21.6667H51.6667V14.8332C53.8119 14.3913 55.6967 13.1242 56.9166 11.3053V11.3053ZM58.3334 6.66667V3.33333H59.6664C60.6731 3.36182 61.5007 4.1333 61.6008 5.13509C61.7001 6.13688 61.0393 7.05648 60.0587 7.2819L58.2349 7.64486C58.287 7.32096 58.3204 6.99463 58.3334 6.66667V6.66667ZM39.9333 7.28027C38.9543 7.05078 38.2976 6.13118 38.3993 5.13102C38.5002 4.13086 39.3287 3.361 40.3337 3.33333H41.6667V6.66667C41.6797 6.99463 41.7131 7.32096 41.7652 7.64486L39.9333 7.28027ZM50.0001 11.6667C47.2388 11.6667 45 9.4279 45 6.66667V3.33333H55.0001V6.66667C55.0001 9.4279 52.7613 11.6667 50.0001 11.6667Z" fill="black"/>
<path d="M24.5947 3.28296L25.4036 0.0505371L32.0695 1.71883L31.2606 4.95125L24.5947 3.28296Z" fill="black"/>
<path d="M24.5947 10.0514L31.2614 8.38306L32.0703 11.6147L25.4036 13.283L24.5947 10.0514Z" fill="black"/>
<path d="M67.9272 1.71712L74.5931 0.0488281L75.402 3.28044L68.7362 4.94873L67.9272 1.71712Z" fill="black"/>
<path d="M67.929 11.6154L68.7379 8.38379L75.4037 10.0513L74.5948 13.2837L67.929 11.6154Z" fill="black"/>
</g>
<defs>
<clipPath id="clip0">
<rect width="100" height="100" fill="white"/>
</clipPath>
</defs>
</svg>
