<svg width="100" height="100" viewBox="0 0 100 100" fill="none" xmlns="http://www.w3.org/2000/svg">
<rect x="1" y="1" width="97.6562" height="97.6562" rx="48.8281" fill="#9C5A90"/>
<path d="M50.3461 95.6929C38.2336 95.6929 26.846 90.9756 18.2812 82.4109C9.71649 73.8461 5 62.4593 5 50.3461C5 38.2336 9.71649 26.846 18.2812 18.2812C26.846 9.71649 38.2336 5 50.3461 5C62.4585 5 73.8461 9.71649 82.4109 18.2812C90.9756 26.8468 95.6929 38.2336 95.6929 50.3461C95.6929 62.4585 90.9756 73.8461 82.4109 82.4109C73.8461 90.9756 62.4585 95.6929 50.3461 95.6929V95.6929Z" fill="#6F1C5F"/>
<path d="M77.0285 34H24.9715C21.6733 34 19 36.679 19 39.9836V59.6242C19 62.9291 21.6738 65.6078 24.9715 65.6078H49.7458L60.7256 72L58.5329 65.6078H77.0285C80.3267 65.6078 83 62.9289 83 59.6242V39.9836C83.0002 36.6788 80.3265 34 77.0285 34Z" fill="#9C5A90"/>
<path d="M28.4886 63C28.4796 63 28.471 63 28.4622 62.9998C27.7439 62.9913 27.0753 62.6347 26.6713 62.0447C26.0333 61.1126 25.0979 58.9638 23.5159 50.5503C22.6679 46.0408 22.0305 41.794 22.0242 41.7517C21.8457 40.5591 22.6744 39.4489 23.875 39.2716C25.0748 39.094 26.1933 39.9172 26.3719 41.11C26.3779 41.1515 27.0011 45.3011 27.8302 49.7155C28.3092 52.2653 28.7189 54.1675 29.0592 55.5828C31.1315 51.7893 33.661 46.6879 34.7745 44.384C35.1822 43.5407 36.0854 43.049 37.0211 43.1621C37.9565 43.2751 38.7148 43.9676 38.9072 44.8836C39.2711 46.6128 40.2141 50.2135 41.5536 53.4817C42.0477 48.835 43.0038 42.9381 44.8266 39.2264C45.3586 38.1428 46.6745 37.6929 47.7653 38.2215C48.8562 38.7502 49.3092 40.0571 48.777 41.1406C45.8787 47.0426 45.4447 60.487 45.4405 60.6222C45.4145 61.4931 44.8698 62.2651 44.0547 62.5862C43.2394 62.9076 42.3101 62.7169 41.6898 62.1009C39.7208 60.145 37.9259 56.7744 36.3546 52.0828C36.2867 51.8799 36.2207 51.679 36.1564 51.4807C34.2299 55.2892 31.6974 60.1146 30.2757 62.0882C29.8625 62.6605 29.1968 63 28.4886 63Z" fill="white"/>
<path d="M62.1176 43.954C61.2011 42.0827 59.6271 40.7888 57.5707 40.2135C55.2249 39.559 52.6839 40.4295 50.7722 42.5455C48.5031 45.0515 46.8478 49.7486 49.0052 55.4088C50.4829 59.2881 52.8068 60 54.3085 60C54.4706 60 54.6219 59.9911 54.7623 59.9781C58.7588 59.5967 62.1155 54.2803 62.7621 50.6348C63.2269 48.0229 63.0099 45.7746 62.1176 43.954ZM58.4301 49.8566C58.2261 50.9961 57.518 52.5037 56.6215 53.6962C55.7006 54.9239 54.7973 55.5301 54.3479 55.5719C54.0739 55.5983 53.5653 55.0076 53.1159 53.8261C52.2126 51.4589 51.9101 47.8617 54.0279 45.5209C54.6593 44.8222 55.3938 44.4276 56.0252 44.4276C56.1523 44.4276 56.2751 44.443 56.3913 44.4761C58.7479 45.1353 58.8004 47.7649 58.4301 49.8566Z" fill="white"/>
<path d="M79.1196 43.954C78.6592 43.0195 78.0364 42.2259 77.2735 41.5978C76.5061 40.9696 75.5984 40.5023 74.57 40.2135C72.2261 39.559 69.6851 40.4295 67.771 42.5455C65.5039 45.0515 63.8485 49.7486 66.0037 55.4088C67.4816 59.2881 69.8057 60 71.3075 60C71.4697 60 71.6233 59.9911 71.7635 59.9781C75.7583 59.5967 79.115 54.2803 79.7619 50.6348C80.2269 48.0229 80.0097 45.7746 79.1196 43.954ZM75.4295 49.8566C75.2278 50.9961 74.5173 52.5037 73.6228 53.6962C72.6997 54.9239 71.7964 55.5301 71.3469 55.5719C71.075 55.5983 70.5643 55.0076 70.1148 53.8261C69.2136 51.4589 68.9112 47.8617 71.0269 45.5209C71.6606 44.8222 72.3951 44.4276 73.0244 44.4276C73.1515 44.4276 73.2743 44.443 73.3926 44.4761C75.7497 45.1353 75.8 47.7649 75.4295 49.8566Z" fill="white"/>
<path d="M57.1148 92.5521C30.3654 92.5521 8.68066 70.8674 8.68066 44.118C8.68066 29.7633 14.9277 16.8693 24.8486 8C11.1307 16.552 2 31.7727 2 49.1283C2 75.8777 23.6848 97.5625 50.4342 97.5625C62.8289 97.5625 74.134 92.9045 82.7004 85.2463C75.2758 89.875 66.5086 92.5521 57.1148 92.5521Z" fill="#9C5A90"/>
<path d="M95.8254 29.9688C93.1502 23.8566 89.3338 18.4143 84.4826 13.793C83.857 13.1965 82.8656 13.2207 82.2688 13.8467C81.6725 14.4729 81.6965 15.4641 82.3227 16.0605C91.7027 24.9961 96.8686 37.0494 96.8686 50C96.8686 75.8434 75.8436 96.8686 50 96.8686C24.1564 96.8686 3.13145 75.8434 3.13145 50C3.13145 24.1566 24.1566 3.13145 50 3.13145C59.2445 3.13145 68.1855 5.81895 75.857 10.9033C76.5781 11.3814 77.5496 11.1842 78.0273 10.4633C78.5053 9.74238 78.308 8.7707 77.5873 8.29316C69.4012 2.86758 59.8615 0 50 0C36.6445 0 24.0885 5.20098 14.6447 14.6447C5.20098 24.0885 0 36.6445 0 50C0 63.3555 5.20098 75.9115 14.6447 85.3553C24.0885 94.799 36.6445 100 50 100C63.3555 100 75.9115 94.799 85.3553 85.3553C94.7992 75.9115 100 63.3555 100 50C100 43.0365 98.5955 36.2971 95.8254 29.9688Z" fill="black"/>
<rect x="19" y="34" width="65" height="32" rx="6" stroke="black" stroke-width="2"/>
<line x1="50.1931" y1="65.7983" x2="61.0579" y2="72.1362" stroke="black" stroke-width="2"/>
<line x1="59.7133" y1="65.5143" x2="61.5241" y2="72.7575" stroke="black" stroke-width="2"/>
</svg>
