<svg width="100" height="100" viewBox="0 0 100 100" fill="none" xmlns="http://www.w3.org/2000/svg">
<path d="M11.6667 21.6667H88.3333C92.015 21.6667 95 24.6518 95 28.3334V80.0001C95 82.7613 92.7612 85.0001 90 85.0001H10C7.23877 85.0001 5 82.7613 5 80.0001V28.3334C5 24.6518 7.98503 21.6667 11.6667 21.6667Z" fill="#348FD9"/>
<path d="M13.3333 86.6666V14.9999C13.3333 11.3183 16.3183 8.33325 19.9999 8.33325H73.3332L86.6666 21.6666V86.6666" fill="#60D1E0"/>
<path d="M13.3333 86.6666V14.9999C13.3333 11.3183 16.3183 8.33325 19.9999 8.33325H73.3332L86.6666 21.6666V86.6666" fill="#5AC6D4"/>
<path d="M76.6666 11.6667L13.3333 75.0001V86.6667H86.6666L86.665 21.6667L76.6666 11.6667Z" fill="#52BECC"/>
<path d="M76.6666 21.6666H86.6666L73.3333 8.33325V18.3333C73.3333 20.1741 74.8258 21.6666 76.6666 21.6666Z" fill="#9FE4ED"/>
<path d="M19.9983 13.3333H23.3316V16.6666H19.9983V13.3333Z" fill="#3A9CC9"/>
<path d="M26.665 13.3333H29.9984V16.6666H26.665V13.3333Z" fill="#3A9CC9"/>
<path d="M33.3315 13.3333H36.6649V16.6666H33.3315V13.3333Z" fill="#3A9CC9"/>
<path d="M20 20H68.3333V23.3333H20V20Z" fill="#3A9CC9"/>
<path d="M20 28.3333H80V74.9999H20V28.3333Z" fill="#E0E0DE"/>
<path d="M40 28.3333H50V33.3333C50 36.0945 47.7612 38.3333 45 38.3333C42.2388 38.3333 40 36.0945 40 33.3333V28.3333Z" fill="#E94F4F"/>
<path d="M60 28.3333H70V33.3333C70 36.0945 67.7612 38.3333 65 38.3333C62.2388 38.3333 60 36.0945 60 33.3333V28.3333Z" fill="#E94F4F"/>
<path d="M50 28.3333H60V33.3333C60 36.0945 57.7612 38.3333 55 38.3333C52.2388 38.3333 50 36.0945 50 33.3333V28.3333Z" fill="#FFB531"/>
<path d="M70 28.3333H80V33.3333C80 36.0945 77.7612 38.3333 75 38.3333C72.2388 38.3333 70 36.0945 70 33.3333V28.3333Z" fill="#FFB531"/>
<path d="M30 28.3333H40V33.3333C40 36.0945 37.7612 38.3333 35 38.3333C32.2388 38.3333 30 36.0945 30 33.3333V28.3333Z" fill="#FFB531"/>
<path d="M20 28.3333H30V33.3333C30 36.0945 27.7612 38.3333 25 38.3333C22.2388 38.3333 20 36.0945 20 33.3333V28.3333Z" fill="#E94F4F"/>
<path d="M26.6667 45H53.3334V68.3333H26.6667V45Z" fill="#4DB7E5"/>
<path d="M60 45H73.3333V75H60V45Z" fill="#4DB7E5"/>
<path d="M60 45H73.3333V48.3333H60V45Z" fill="#3EA8D6"/>
<path d="M30.4883 53.8216L35.4891 48.8208L37.8459 51.1784L32.8459 56.1784L30.4883 53.8216Z" fill="#79C6E8"/>
<path d="M33.8208 60.489L43.82 50.489L46.1768 52.8458L36.1776 62.8458L33.8208 60.489Z" fill="#79C6E8"/>
<path d="M42.1558 62.1541L47.1558 57.1541L49.5133 59.5108L44.5125 64.5116L42.1558 62.1541Z" fill="#79C6E8"/>
<path d="M90.0001 81.6667V21.9019C89.4565 21.753 88.8966 21.6741 88.3334 21.6667H86.6667V81.6667H90.0001Z" fill="#3086CD"/>
<path d="M10 81.6667V21.9019C10.5436 21.753 11.1035 21.6741 11.6667 21.6667H13.3333V81.6667H10Z" fill="#3086CD"/>
<path d="M60.0001 83.3334C58.9332 84.4003 57.4854 85.0001 55.9766 85.0001H44.0235C42.5147 85.0001 41.067 84.4003 40.0001 83.3334C38.9332 82.2665 37.4854 81.6667 35.9766 81.6667H1.66675V86.6668C1.66675 89.428 3.90552 91.6668 6.66675 91.6668H93.3334C96.0946 91.6668 98.3334 89.428 98.3334 86.6668V81.6667H64.0235C62.5147 81.6667 61.067 82.2665 60.0001 83.3334Z" fill="#E0E0DE"/>
<path d="M88.3333 81.6667V86.6668C88.3333 89.428 86.0945 91.6668 83.3333 91.6668H93.3333C96.0945 91.6668 98.3333 89.428 98.3333 86.6668V81.6667H88.3333Z" fill="#D6D6D4"/>
<path d="M26.6667 45H53.3334V48.3333H26.6667V45Z" fill="#3EA8D6"/>
<path d="M98.3333 80.0001H96.6667V28.3334C96.6667 25.9417 95.6396 23.6654 93.8468 22.0834L91.6398 24.5834C92.7165 25.5323 93.3333 26.8987 93.3333 28.3334V80.0001H64.0234C62.0719 79.9952 60.1986 80.7699 58.8216 82.1534C58.0688 82.9111 57.0443 83.3359 55.9766 83.3334H44.0234C42.9557 83.3359 41.9312 82.9111 41.1784 82.1534C39.8014 80.7699 37.9281 79.9952 35.9766 80.0001H6.66667V28.3334C6.67074 26.5471 7.62207 24.8975 9.16667 23.9999L7.5 21.115C4.92513 22.6083 3.33903 25.3573 3.33333 28.3334V80.0001H1.66667C0.746256 80.0001 0 80.7463 0 81.6668V86.6668C0 90.3484 2.98503 93.3334 6.66667 93.3334H93.3333C97.015 93.3334 100 90.3484 100 86.6668V81.6668C100 80.7463 99.2537 80.0001 98.3333 80.0001ZM96.6667 86.6668C96.6667 88.5076 95.1742 90.0001 93.3333 90.0001H6.66667C4.82585 90.0001 3.33333 88.5076 3.33333 86.6668V83.3334H35.9766C37.0443 83.331 38.0688 83.7558 38.8216 84.5134C40.1969 85.8953 42.0671 86.67 44.0169 86.6668H55.9831C57.9329 86.67 59.8031 85.8953 61.1784 84.5134C61.9312 83.7558 62.9557 83.331 64.0234 83.3334H96.6667V86.6668Z" fill="black"/>
<path d="M85.0001 76.6667H88.3334V21.6667C88.3334 21.6318 88.3147 21.6 88.3131 21.565C88.3041 21.4177 88.2748 21.2721 88.2268 21.1321C88.2081 21.0784 88.1951 21.0287 88.1715 20.9766C88.0909 20.7952 87.9778 20.63 87.8386 20.4884L74.5053 7.15503C74.3645 7.01506 74.1993 6.90194 74.0186 6.82137C73.9649 6.79696 73.912 6.78312 73.8518 6.76359C73.7159 6.7172 73.5751 6.68953 73.4319 6.67977C73.4034 6.68709 73.37 6.66675 73.3334 6.66675H20.0001C15.3997 6.67244 11.6724 10.3997 11.6667 15.0001V76.6667H15.0001V15.0001C15.0001 12.2389 17.2389 10.0001 20.0001 10.0001H71.6668V18.3334C71.6668 21.0946 73.9055 23.3334 76.6668 23.3334H85.0001V76.6667ZM76.6668 20.0001C75.7463 20.0001 75.0001 19.2538 75.0001 18.3334V12.3569L82.6417 20.0001H76.6668Z" fill="black"/>
<path d="M19.9983 13.3333H23.3316V16.6666H19.9983V13.3333Z" fill="black"/>
<path d="M26.665 13.3333H29.9984V16.6666H26.665V13.3333Z" fill="black"/>
<path d="M33.3318 13.3333H36.6651V16.6666H33.3318V13.3333Z" fill="black"/>
<path d="M20 20H68.3333V23.3333H20V20Z" fill="black"/>
<path d="M18.3333 28.3334V75.0001C18.3333 75.9205 19.0795 76.6667 19.9999 76.6667H79.9999C80.9203 76.6667 81.6666 75.9205 81.6666 75.0001V28.3334C81.6666 27.413 80.9203 26.6667 79.9999 26.6667H19.9999C19.0795 26.6667 18.3333 27.413 18.3333 28.3334ZM71.6666 73.3334H61.6666V46.6667H71.6666V73.3334ZM71.6666 30.0001H78.3332V33.3334C78.3332 35.1742 76.8407 36.6667 74.9999 36.6667C73.1591 36.6667 71.6666 35.1742 71.6666 33.3334V30.0001ZM61.6666 30.0001H68.3332V33.3334C68.3332 35.1742 66.8407 36.6667 64.9999 36.6667C63.1591 36.6667 61.6666 35.1742 61.6666 33.3334V30.0001ZM51.6666 30.0001H58.3332V33.3334C58.3332 35.1742 56.8407 36.6667 54.9999 36.6667C53.1591 36.6667 51.6666 35.1742 51.6666 33.3334V30.0001ZM41.6666 30.0001H48.3332V33.3334C48.3332 35.1742 46.8407 36.6667 44.9999 36.6667C43.1591 36.6667 41.6666 35.1742 41.6666 33.3334V30.0001ZM31.6666 30.0001H38.3333V33.3334C38.3333 35.1742 36.8407 36.6667 34.9999 36.6667C33.1591 36.6667 31.6666 35.1742 31.6666 33.3334V30.0001ZM21.6666 30.0001H28.3333V33.3334C28.3333 35.1742 26.8407 36.6667 24.9999 36.6667C23.1591 36.6667 21.6666 35.1742 21.6666 33.3334V30.0001ZM21.6666 39.0732C24.4075 40.713 27.932 40.1311 29.9999 37.697C31.2499 39.1586 33.0769 40.0001 34.9999 40.0001C36.9229 40.0001 38.7499 39.1586 39.9999 37.697C41.2499 39.1586 43.0769 40.0001 44.9999 40.0001C46.9229 40.0001 48.7499 39.1586 49.9999 37.697C51.2499 39.1586 53.0769 40.0001 54.9999 40.0001C56.9229 40.0001 58.7499 39.1586 59.9999 37.697C61.2499 39.1586 63.0769 40.0001 64.9999 40.0001C66.9229 40.0001 68.7499 39.1586 69.9999 37.697C72.0678 40.1311 75.5924 40.713 78.3332 39.0732V73.3334H74.9999V45.0001C74.9999 44.0797 74.2537 43.3334 73.3332 43.3334H59.9999C59.0795 43.3334 58.3332 44.0797 58.3332 45.0001V73.3334H21.6666V39.0732Z" fill="black"/>
<path d="M53.3333 43.3333H26.6667C25.7463 43.3333 25 44.0795 25 44.9999V68.3333C25 69.2537 25.7463 69.9999 26.6667 69.9999H53.3333C54.2537 69.9999 55 69.2537 55 68.3333V44.9999C55 44.0795 54.2537 43.3333 53.3333 43.3333ZM51.6667 66.6666H28.3333V46.6666H51.6667V66.6666Z" fill="black"/>
<path d="M30.4883 53.8216L35.4891 48.8208L37.8459 51.1784L32.8459 56.1784L30.4883 53.8216Z" fill="black"/>
<path d="M33.8208 60.489L43.82 50.489L46.1768 52.8458L36.1776 62.8458L33.8208 60.489Z" fill="black"/>
<path d="M42.1558 62.1541L47.1558 57.1541L49.5133 59.5108L44.5125 64.5116L42.1558 62.1541Z" fill="black"/>
</svg>
