<svg width="100" height="100" viewBox="0 0 100 100" fill="none" xmlns="http://www.w3.org/2000/svg">
<path d="M95.0225 10.7698H88.5088V25.3186H95.0225C96.9612 25.3186 98.5326 23.747 98.5326 21.8085V14.2799C98.5326 12.3413 96.9612 10.7698 95.0225 10.7698Z" fill="#546F7A"/>
<path d="M95.0225 20.4272H88.5088V25.319H95.0225C96.9612 25.319 98.5326 23.7473 98.5326 21.8088V16.917C98.5326 18.8555 96.9612 20.4272 95.0225 20.4272Z" fill="#3C5156"/>
<path d="M88.5089 10.7698H80.637V25.3181H88.5089V10.7698Z" fill="#FF6137"/>
<path d="M88.5089 20.4207H80.637V25.3203H88.5089V20.4207Z" fill="#E04F32"/>
<path d="M1.46753 18.0442L16.664 25.3112V10.7773L1.46753 18.0442Z" fill="#FFC89F"/>
<path d="M1.46753 18.0443L16.664 25.3113V20.4195L6.58238 15.5984L1.46753 18.0443Z" fill="#F7B081"/>
<path d="M30.615 10.7776H16.6636V25.3122H30.615V10.7776Z" fill="#FFD039"/>
<path d="M80.6386 10.7698H70.8296V25.3181H80.6386V10.7698Z" fill="#FFD039"/>
<path d="M30.615 20.4207H16.6636V25.3125H30.615V20.4207Z" fill="#FFAE47"/>
<path d="M80.6386 20.4268H70.8296V25.3186H80.6386V20.4268Z" fill="#FFAE47"/>
<path d="M38.2373 23.3587V18.021C38.2373 13.8112 34.8248 10.3987 30.615 10.3987V41.2935C30.615 44.1419 31.805 46.8609 33.8978 48.7935L36.6099 51.298V98.4594H64.6076V51.2982L67.6414 47.5509C69.6836 45.0282 70.7979 41.8812 70.7979 38.6356V23.3589C70.7977 23.3589 38.2373 23.3589 38.2373 23.3587Z" fill="#F7B081"/>
<path d="M65.9061 23.3586V38.6354C65.9061 41.8811 64.792 45.0282 62.7496 47.5507L59.7158 51.298V98.4594H64.6076V51.2982L67.6414 47.5509C69.6836 45.0282 70.7979 41.8811 70.7979 38.6356V23.3588C70.7979 23.3588 65.9061 23.3588 65.9061 23.3586Z" fill="#DD9A76"/>
<path d="M41.2646 23.3586L45.359 28.3413C47.1768 29.0622 49.0717 30.0469 50.6867 31.3821C52.2166 31.3299 53.591 30.6549 54.5627 29.6016C55.5748 30.6985 57.0229 31.3872 58.6293 31.3872C60.2358 31.3872 61.6842 30.6987 62.6959 29.6016C63.7078 30.6985 65.1561 31.3872 66.7625 31.3872C68.3526 31.3872 69.7872 30.7122 70.7977 29.6346V23.3586C70.7977 23.3586 41.2646 23.3586 41.2646 23.3586Z" fill="#DD9A76"/>
<path d="M42.3625 26.7892C40.1166 26.7892 38.2959 24.9685 38.2959 22.7226V7.48678C38.2959 5.24087 40.1166 3.42017 42.3625 3.42017C44.6084 3.42017 46.4291 5.24087 46.4291 7.48678V22.7226C46.4291 24.9685 44.6084 26.7892 42.3625 26.7892Z" fill="#FFC89F"/>
<path d="M42.3626 3.42017C41.8444 3.42017 41.3507 3.52095 40.895 3.69751C42.4147 4.28677 43.494 5.75884 43.494 7.48678V22.7226C43.494 24.4503 42.4147 25.9228 40.895 26.512C41.3507 26.6888 41.8444 26.7894 42.3626 26.7894C44.6085 26.7894 46.4292 24.9687 46.4292 22.7227V7.48678C46.4292 5.24087 44.6085 3.42017 42.3626 3.42017Z" fill="#F7B081"/>
<path d="M58.6294 26.7892C56.3835 26.7892 54.5627 24.9685 54.5627 22.7226V7.48678C54.5627 5.24087 56.3835 3.42017 58.6294 3.42017C60.8753 3.42017 62.696 5.24087 62.696 7.48678V22.7226C62.6962 24.9685 60.8753 26.7892 58.6294 26.7892Z" fill="#FFC89F"/>
<path d="M58.6292 3.42017C58.111 3.42017 57.6173 3.52095 57.1616 3.69751C58.6814 4.28677 59.7607 5.75884 59.7607 7.48678V22.7226C59.7607 24.4503 58.6814 25.9228 57.1616 26.512C57.6173 26.6888 58.111 26.7894 58.6292 26.7894C60.8751 26.7894 62.6958 24.9687 62.6958 22.7227V7.48678C62.696 5.24087 60.8753 3.42017 58.6292 3.42017Z" fill="#F7B081"/>
<path d="M66.7627 26.789C64.5168 26.789 62.696 24.9683 62.696 22.7224V11.6804C62.696 9.43448 64.5168 7.61377 66.7627 7.61377C69.0086 7.61377 70.8293 9.43448 70.8293 11.6804V22.7222C70.8293 24.9683 69.0086 26.789 66.7627 26.789Z" fill="#FFC89F"/>
<path d="M66.7625 7.61401C66.2443 7.61401 65.7506 7.7146 65.2949 7.89136C66.8146 8.48062 67.8939 9.95269 67.8939 11.6808V22.7226C67.8939 24.4504 66.8146 25.9228 65.2949 26.5121C65.7506 26.6889 66.2443 26.7894 66.7625 26.7894C69.0084 26.7894 70.8291 24.9687 70.8291 22.7228V11.6806C70.8291 9.43453 69.0084 7.61401 66.7625 7.61401Z" fill="#F7B081"/>
<path d="M50.496 26.7888C48.2501 26.7888 46.4294 24.9681 46.4294 22.7222V5.60689C46.4294 3.36099 48.2501 1.54028 50.496 1.54028C52.7419 1.54028 54.5626 3.36099 54.5626 5.60689V22.7222C54.5626 24.9681 52.7419 26.7888 50.496 26.7888Z" fill="#FFC89F"/>
<path d="M50.4961 1.54004C49.978 1.54004 49.4842 1.64063 49.0286 1.81738C50.5483 2.40664 51.6276 3.87872 51.6276 5.60684V22.7221C51.6276 24.4498 50.5483 25.9223 49.0286 26.5116C49.4842 26.6883 49.978 26.7889 50.4961 26.7889C52.7421 26.7889 54.5628 24.9682 54.5628 22.7223V5.60704C54.5628 3.36075 52.7421 1.54004 50.4961 1.54004Z" fill="#F7B081"/>
<path d="M1.46753 18.0443L8.55934 21.4357V14.6531L1.46753 18.0443Z" fill="#3C5156"/>
<path d="M70.7977 35.1875C69.987 35.1875 69.3301 35.8445 69.3301 36.6551V38.6357C69.3301 41.5356 68.3253 44.3738 66.5006 46.6276L63.4668 50.3746C63.2553 50.6358 63.1399 50.9619 63.1399 51.2981V62.377C63.1399 63.1876 63.7967 63.8446 64.6075 63.8446C65.418 63.8446 66.0751 63.1876 66.0751 62.377V51.8178L68.7819 48.4746C71.028 45.7 72.2653 42.2059 72.2653 38.6357V36.6551C72.2653 35.8445 71.6085 35.1875 70.7977 35.1875Z" fill="black"/>
<path d="M64.6079 66.7795C63.7971 66.7795 63.1403 67.4366 63.1403 68.2471V96.9921H38.0777V89.4114C38.0777 88.6009 37.4209 87.9438 36.6102 87.9438C35.7994 87.9438 35.1426 88.6009 35.1426 89.4114V98.4597C35.1426 99.2702 35.7994 99.9273 36.6102 99.9273H64.6079C65.4184 99.9273 66.0755 99.2702 66.0755 98.4597V68.2469C66.0753 67.4366 65.4182 66.7795 64.6079 66.7795Z" fill="black"/>
<path d="M95.0225 9.30221H88.509H80.6377H71.7589C70.8679 7.43756 68.9634 6.14615 66.7626 6.14615C65.8068 6.14615 64.9072 6.38971 64.1216 6.81803C63.7904 4.08072 61.4544 1.9522 58.629 1.9522C57.4161 1.9522 56.2939 2.34556 55.3808 3.00982C54.4487 1.26392 52.6091 0.0725098 50.4958 0.0725098C48.3823 0.0725098 46.5427 1.26372 45.6106 3.00982C44.6975 2.34556 43.5755 1.9522 42.3624 1.9522C39.3106 1.9522 36.8282 4.43482 36.8282 7.48639V11.395C35.2016 9.86882 33.0163 8.93112 30.6149 8.93112C30.237 8.93112 29.8938 9.07507 29.6337 9.30964H16.6641C16.643 9.30964 16.6223 9.31198 16.6012 9.31276C16.5827 9.31354 16.5643 9.31413 16.5457 9.3155C16.4971 9.3194 16.4491 9.32565 16.402 9.33425C16.3948 9.33561 16.3873 9.3362 16.3801 9.33757C16.3221 9.34889 16.2657 9.36374 16.2102 9.38171C16.2028 9.38405 16.1955 9.38718 16.1883 9.38972C16.141 9.40593 16.0948 9.42448 16.0496 9.44557C16.0434 9.44831 16.0369 9.45026 16.0309 9.45319L0.834572 16.7202C0.324415 16.9639 0 17.4788 0 18.044C0 18.6091 0.324415 19.1241 0.834572 19.3679L7.92638 22.7593C7.92658 22.7595 7.92677 22.7595 7.92697 22.7595L16.0311 26.6347C16.0379 26.638 16.0451 26.6401 16.0522 26.6433C16.0866 26.6591 16.1217 26.6733 16.1575 26.6864C16.1713 26.6915 16.1852 26.697 16.1991 26.7017C16.236 26.714 16.2739 26.7243 16.3121 26.7337C16.325 26.7368 16.3379 26.7407 16.351 26.7437C16.391 26.7524 16.4323 26.7587 16.4735 26.7642C16.4846 26.7655 16.4955 26.7681 16.5067 26.7692C16.5582 26.7747 16.6108 26.7778 16.6639 26.7778H29.1475V41.2929C29.1475 44.541 30.5161 47.6675 32.902 49.871L35.1421 51.9398V83.5404C35.1421 84.351 35.7989 85.008 36.6096 85.008C37.4204 85.008 38.0772 84.351 38.0772 83.5404V51.298C38.0772 50.8884 37.9061 50.4976 37.6053 50.2199L34.8932 47.7154C33.1069 46.0656 32.0827 43.7249 32.0827 41.2937V25.311V12.0432C34.77 12.703 36.7698 15.1329 36.7698 18.021V26.496C36.7698 27.2442 37.3341 27.873 38.0776 27.9548C38.1173 27.9593 42.1038 28.4146 45.9974 30.2097C50.9034 32.472 53.3911 35.7331 53.3911 39.9023C53.3911 40.7128 54.048 41.3699 54.8587 41.3699C55.6694 41.3699 56.3263 40.7128 56.3263 39.9023C56.3263 34.5411 53.1562 30.2571 47.1587 27.5132C46.7362 27.3198 46.3147 27.1425 45.8972 26.9769C46.0856 26.8202 46.2632 26.6507 46.4294 26.4706C47.4413 27.5675 48.8896 28.2562 50.496 28.2562C52.1024 28.2562 53.5507 27.5677 54.5624 26.4706C55.5745 27.5675 57.0226 28.2562 58.629 28.2562C60.2355 28.2562 61.6839 27.5677 62.6956 26.4706C63.7075 27.5675 65.1558 28.2562 66.7622 28.2562C67.6888 28.2562 68.5621 28.0263 69.3296 27.622V30.7847C69.3296 31.5952 69.9865 32.2523 70.7972 32.2523C71.608 32.2523 72.2648 31.5952 72.2648 30.7847V26.786H80.6373H88.5086H95.0221C97.7666 26.786 99.9996 24.553 99.9996 21.8083V14.28C100 11.5352 97.7672 9.30221 95.0225 9.30221ZM15.1965 22.9825L10.0268 20.5104V15.5778L15.1965 13.1057V22.9825ZM29.1477 23.8435H18.1317V12.2448H29.1477V23.8435ZM44.9618 22.7222C44.9618 24.1552 43.7958 25.3212 42.3628 25.3212C40.9298 25.3212 39.7638 24.1554 39.7638 22.7222V7.48659C39.7638 6.05358 40.9298 4.88756 42.3628 4.88756C43.7958 4.88756 44.9618 6.05358 44.9618 7.48659V22.7222ZM53.095 7.48659V22.7224C53.095 24.1554 51.9292 25.3214 50.4962 25.3214C49.063 25.3214 47.8972 24.1556 47.8972 22.7224V7.48659V5.6069C47.8972 4.17389 49.0632 3.00787 50.4962 3.00787C51.9292 3.00787 53.095 4.17389 53.095 5.6069V7.48659ZM61.2284 11.6803V22.7222C61.2284 24.1552 60.0624 25.3212 58.6294 25.3212C57.1964 25.3212 56.0304 24.1554 56.0304 22.7222V7.48659C56.0304 6.05358 57.1964 4.88756 58.6294 4.88756C60.0624 4.88756 61.2284 6.05358 61.2284 7.48659V11.6803ZM66.7626 25.3212C65.3294 25.3212 64.1636 24.1554 64.1636 22.7222V11.6801C64.1636 10.2469 65.3296 9.08112 66.7626 9.08112C68.1956 9.08112 69.3617 10.2471 69.3617 11.6801V22.722C69.3617 24.1554 68.1958 25.3212 66.7626 25.3212ZM79.1701 23.8511H72.2968V22.722V12.2374H79.1701V23.8511ZM87.0414 23.8511H82.1052V12.2374H87.0414V23.8511ZM97.065 21.8085C97.065 22.9349 96.1486 23.8511 95.0227 23.8511H89.9767V12.2374H95.0228C96.1492 12.2374 97.0652 13.1538 97.0652 14.28V21.8085H97.065Z" fill="black"/>
</svg>
