<svg width="100" height="100" viewBox="0 0 100 100" fill="none" xmlns="http://www.w3.org/2000/svg">
<path d="M98.5145 49.9999C98.5145 76.7943 76.7936 98.5152 49.9992 98.5152C23.2055 98.5152 1.48462 76.7943 1.48462 49.9999C1.48462 23.2062 23.2055 1.48535 49.9992 1.48535C76.7936 1.48535 98.5145 23.2062 98.5145 49.9999Z" fill="#C13199"/>
<path d="M49.9991 95.3467C37.8867 95.3467 26.4991 90.6295 17.9343 82.0647C9.36957 73.4999 4.65308 62.1131 4.65308 49.9999C4.65308 37.8875 9.36957 26.4998 17.9343 17.9351C26.4991 9.3703 37.8867 4.65381 49.9991 4.65381C62.1116 4.65381 73.4992 9.3703 82.064 17.9351C90.6287 26.5006 95.346 37.8875 95.346 49.9999C95.346 62.1123 90.6287 73.4999 82.064 82.0647C73.4992 90.6295 62.1116 95.3467 49.9991 95.3467V95.3467Z" fill="#FC39C5"/>
<path d="M56.1148 93.7318C29.3654 93.7318 7.68066 72.0471 7.68066 45.2977C7.68066 30.943 13.9277 18.049 23.8486 9.17969C10.1307 17.7316 1 32.9523 1 50.308C1 77.0574 22.6848 98.7422 49.4342 98.7422C61.8289 98.7422 73.134 94.0842 81.7004 86.426C74.2758 91.0547 65.5086 93.7318 56.1148 93.7318Z" fill="#C13199"/>
<path d="M95.8254 29.9688C93.1502 23.8566 89.3338 18.4143 84.4826 13.793C83.857 13.1965 82.8656 13.2207 82.2688 13.8467C81.6725 14.4729 81.6965 15.4641 82.3227 16.0605C91.7027 24.9961 96.8686 37.0494 96.8686 50C96.8686 75.8434 75.8436 96.8686 50 96.8686C24.1564 96.8686 3.13145 75.8434 3.13145 50C3.13145 24.1566 24.1566 3.13145 50 3.13145C59.2445 3.13145 68.1855 5.81895 75.857 10.9033C76.5781 11.3814 77.5496 11.1842 78.0273 10.4633C78.5053 9.74238 78.308 8.7707 77.5873 8.29316C69.4012 2.86758 59.8615 0 50 0C36.6445 0 24.0885 5.20098 14.6447 14.6447C5.20098 24.0885 0 36.6445 0 50C0 63.3555 5.20098 75.9115 14.6447 85.3553C24.0885 94.799 36.6445 100 50 100C63.3555 100 75.9115 94.799 85.3553 85.3553C94.7992 75.9115 100 63.3555 100 50C100 43.0365 98.5955 36.2971 95.8254 29.9688Z" fill="black"/>
<path d="M74.8906 70.8281C74.8906 75.3154 63.5229 78.9531 49.5 78.9531C35.4771 78.9531 24.1094 75.3154 24.1094 70.8281V28.1719H74.8906V70.8281Z" fill="#FDB62F"/>
<path d="M30.2031 31.2188V52.5469C30.2031 53.8937 30.7381 55.1853 31.6905 56.1377C32.6428 57.09 33.9344 57.625 35.2812 57.625C35.9481 57.625 36.6085 57.4936 37.2246 57.2384C37.8407 56.9832 38.4005 56.6092 38.872 56.1377C39.3436 55.6661 39.7176 55.1063 39.9728 54.4902C40.228 53.8741 40.3594 53.2137 40.3594 52.5469V46.4531C40.3594 45.3757 40.7874 44.3424 41.5493 43.5805C42.3111 42.8186 43.3444 42.3906 44.4219 42.3906V42.3906C45.4993 42.3906 46.5326 42.8186 47.2945 43.5805C48.0564 44.3424 48.4844 45.3757 48.4844 46.4531V48.4844C48.4844 49.8312 49.0194 51.1228 49.9717 52.0752C50.9241 53.0275 52.2157 53.5625 53.5625 53.5625C54.2294 53.5625 54.8897 53.4311 55.5058 53.1759C56.1219 52.9207 56.6817 52.5467 57.1533 52.0752C57.6248 51.6036 57.9989 51.0438 58.2541 50.4277C58.5093 49.8116 58.6406 49.1512 58.6406 48.4844V46.4531C58.6406 45.3757 59.0686 44.3424 59.8305 43.5805C60.5924 42.8186 61.6257 42.3906 62.7031 42.3906V42.3906C63.7806 42.3906 64.8139 41.9626 65.5757 41.2007C66.3376 40.4389 66.7656 39.4056 66.7656 38.3281V31.2188H30.2031Z" fill="#FF421D"/>
<path d="M49.5 36.2969C63.5229 36.2969 74.8906 32.6592 74.8906 28.1719C74.8906 23.6846 63.5229 20.0469 49.5 20.0469C35.4771 20.0469 24.1094 23.6846 24.1094 28.1719C24.1094 32.6592 35.4771 36.2969 49.5 36.2969Z" fill="#FADBB7"/>
<path d="M74.8906 47.0498C71.6919 53.3676 66.2638 58.2745 59.6562 60.8213V60.6719H39.3438V60.8213C32.7362 58.2745 27.3081 53.3676 24.1094 47.0498V51.0481C27.7626 56.5708 33.108 60.7603 39.3438 62.988V64.7344H59.6562V62.9874C65.892 60.7596 71.2374 56.5702 74.8906 51.0474V47.0498Z" fill="#F29706"/>
<path d="M69.2921 23.0847C60.3151 30.7842 48.9228 35.0929 37.0974 35.2609C40.7664 35.9196 44.9939 36.2969 49.5007 36.2969C63.5236 36.2969 74.8914 32.6591 74.8914 28.1719C74.8907 26.2457 72.7918 24.4775 69.2921 23.0847Z" fill="#F4C08E"/>
<path d="M49.5 32.2344C60.1574 32.2344 68.7969 30.4155 68.7969 28.1719C68.7969 25.9282 60.1574 24.1094 49.5 24.1094C38.8426 24.1094 30.2031 25.9282 30.2031 28.1719C30.2031 30.4155 38.8426 32.2344 49.5 32.2344Z" fill="#6CBBC7"/>
<path d="M65.6248 25.9431C62.0218 28.5029 58.0991 30.5799 53.9568 32.121C62.4619 31.697 68.7969 30.0919 68.7969 28.1718C68.7969 27.3484 67.625 26.5832 65.6248 25.9431Z" fill="#56959F"/>
<path d="M59.6562 64.7344H39.3438V68.7969H59.6562V64.7344Z" fill="#6CBBC7"/>
<path d="M52.7073 64.7344C51.0919 66.5381 49.0698 67.9307 46.8086 68.7969H59.6562V64.7344H52.7073Z" fill="#56959F"/>
<path d="M36.5805 32.2175C40.1724 32.883 44.7606 33.25 49.5 33.25C54.2394 33.25 58.8276 32.883 62.4195 32.2175C67.3944 31.2949 69.8125 29.9721 69.8125 28.1719C69.8125 24.1635 57.0443 23.0938 49.5 23.0938C41.9557 23.0938 29.1875 24.1635 29.1875 28.1719C29.1875 29.9721 31.6056 31.2949 36.5805 32.2175ZM49.5 25.125C60.7577 25.125 67.3568 27.1145 67.7727 28.1592C67.6755 28.3141 66.8653 29.3271 62.0496 30.2196C58.5756 30.8642 54.1189 31.2188 49.5 31.2188C44.8811 31.2188 40.4244 30.8642 36.9504 30.22C32.1219 29.3247 31.3185 28.307 31.2283 28.1838C31.6773 27.1046 38.2695 25.125 49.5 25.125Z" fill="black"/>
<path d="M79.9688 33.25C79.9688 32.9806 79.8617 32.7223 79.6713 32.5318C79.4808 32.3414 79.2225 32.2344 78.9531 32.2344H75.9062V28.1719C75.9062 22.2348 62.3009 19.0312 49.5 19.0312C36.6991 19.0312 23.0938 22.2348 23.0938 28.1719V32.2344H20.0469C19.7775 32.2344 19.5192 32.3414 19.3287 32.5318C19.1383 32.7223 19.0312 32.9806 19.0312 33.25V38.3281C19.0335 43.6563 20.4344 48.8906 23.0938 53.5077V70.8281C23.0938 76.7652 36.6991 79.9688 49.5 79.9688C62.3009 79.9688 75.9062 76.7652 75.9062 70.8281V53.5077C78.5656 48.8906 79.9665 43.6563 79.9688 38.3281V33.25ZM40.3594 65.75H58.6406V67.7812H40.3594V65.75ZM60.6211 64.4805C60.5678 64.2644 60.444 64.0722 60.2692 63.9342C60.0945 63.7963 59.8788 63.7205 59.6562 63.7188H39.3438C39.1212 63.7205 38.9055 63.7963 38.7308 63.9342C38.556 64.0722 38.4322 64.2644 38.3789 64.4805C32.8593 62.1254 28.2219 58.0914 25.125 52.9512V31.8251C26.1213 32.6637 27.482 33.4357 29.1875 34.1284V52.5469C29.1875 54.163 29.8295 55.713 30.9723 56.8558C32.1151 57.9986 33.6651 58.6406 35.2812 58.6406C36.8974 58.6406 38.4474 57.9986 39.5902 56.8558C40.733 55.713 41.375 54.163 41.375 52.5469V46.4531C41.375 45.645 41.696 44.8701 42.2674 44.2987C42.8388 43.7273 43.6138 43.4062 44.4219 43.4062C45.23 43.4062 46.0049 43.7273 46.5763 44.2987C47.1477 44.8701 47.4688 45.645 47.4688 46.4531V48.4844C47.4688 50.1005 48.1108 51.6505 49.2536 52.7933C50.3964 53.9361 51.9463 54.5781 53.5625 54.5781C55.1787 54.5781 56.7286 53.9361 57.8714 52.7933C59.0142 51.6505 59.6562 50.1005 59.6562 48.4844V46.4531C59.6572 45.6453 59.9785 44.8709 60.5497 44.2997C61.1209 43.7285 61.8953 43.4072 62.7031 43.4062C64.0494 43.4047 65.3402 42.8691 66.2922 41.9172C67.2441 40.9652 67.7797 39.6744 67.7812 38.3281V34.873C70.4669 34.0132 72.5097 32.9984 73.875 31.8575V52.9512C70.7781 58.0914 66.1407 62.1254 60.6211 64.4805V64.4805ZM49.5 37.3125C55.4481 37.3125 61.1467 36.6523 65.75 35.4535V38.3281C65.7491 39.1359 65.4278 39.9104 64.8566 40.4816C64.2854 41.0528 63.5109 41.3741 62.7031 41.375C61.3568 41.3766 60.0661 41.9121 59.1141 42.8641C58.1621 43.8161 57.6266 45.1068 57.625 46.4531V48.4844C57.625 49.5618 57.197 50.5951 56.4351 51.357C55.6733 52.1189 54.6399 52.5469 53.5625 52.5469C52.4851 52.5469 51.4517 52.1189 50.6899 51.357C49.928 50.5951 49.5 49.5618 49.5 48.4844V46.4531C49.5 45.1063 48.965 43.8147 48.0127 42.8623C47.0603 41.91 45.7687 41.375 44.4219 41.375C43.0751 41.375 41.7834 41.91 40.8311 42.8623C39.8788 43.8147 39.3438 45.1063 39.3438 46.4531V52.5469C39.3438 53.6243 38.9157 54.6576 38.1539 55.4195C37.392 56.1814 36.3587 56.6094 35.2812 56.6094C34.2038 56.6094 33.1705 56.1814 32.4086 55.4195C31.6468 54.6576 31.2188 53.6243 31.2188 52.5469V34.861C36.0734 36.4213 42.6181 37.3125 49.5 37.3125ZM49.5 21.0625C63.8645 21.0625 73.875 24.8091 73.875 28.1719C73.875 29.8887 71.0399 31.7979 66.4766 33.1538C61.8561 34.5255 55.8273 35.2812 49.5 35.2812C42.1903 35.2812 35.2867 34.2666 30.5592 32.4982C27.1562 31.2257 25.125 29.608 25.125 28.1719C25.125 24.8091 35.1355 21.0625 49.5 21.0625ZM21.0625 34.2656H23.0938V48.8471C21.7561 45.5012 21.0668 41.9315 21.0625 38.3281V34.2656ZM49.5 77.9375C35.1355 77.9375 25.125 74.1909 25.125 70.8281V56.5624C28.5086 61.0829 33.0787 64.5774 38.3281 66.6577V68.7969C38.3281 69.0662 38.4351 69.3246 38.6256 69.515C38.8161 69.7055 39.0744 69.8125 39.3438 69.8125H59.6562C59.9256 69.8125 60.1839 69.7055 60.3744 69.515C60.5649 69.3246 60.6719 69.0662 60.6719 68.7969V66.6577C65.9213 64.5774 70.4914 61.0829 73.875 56.5624V70.8281C73.875 74.1909 63.8645 77.9375 49.5 77.9375ZM77.9375 38.3281C77.9333 41.9315 77.2439 45.5013 75.9062 48.8472V34.2656H77.9375V38.3281Z" fill="black"/>
</svg>
