<svg width="100" height="100" viewBox="0 0 100 100" fill="none" xmlns="http://www.w3.org/2000/svg">
<g clip-path="url(#clip0)">
<path d="M60.518 59.1501L49.6228 48.2548L74.7184 26.0363C79.4211 0.913269 39.7712 -8.75351 15.7312 15.2865C-2.8873 33.9052 -2.8873 64.0919 15.7312 82.7104C34.3497 101.329 71.1686 106.154 83.1551 82.7104C92.0024 65.4063 76.794 57.7749 72.4731 45.6466L60.518 59.1501Z" fill="#546F7A"/>
<path d="M69.8535 26.0362C69.8535 26.0362 68.8627 28.285 68.0929 31.9018L74.7183 26.0362C77.6812 10.2079 63.0383 0.515731 45.7861 1.52217C60.8131 2.42491 72.533 11.7214 69.8535 26.0362Z" fill="#475D63"/>
<path d="M72.473 45.6465L68.9167 49.6633C73.3323 58.8388 86.0224 67.5873 78.2899 82.7103C73.0122 93.0325 62.92 97.8722 51.6873 98.4696C64.8085 99.1419 77.1241 94.505 83.1548 82.7103C92.0022 65.4062 76.794 57.7748 72.473 45.6465Z" fill="#475D63"/>
<path d="M43.7762 26.2253C47.7116 26.2253 50.9018 23.035 50.9018 19.0997C50.9018 15.1643 47.7116 11.9741 43.7762 11.9741C39.8409 11.9741 36.6506 15.1643 36.6506 19.0997C36.6506 23.035 39.8409 26.2253 43.7762 26.2253Z" fill="#00B76C"/>
<path d="M22.2638 41.3742C26.1991 41.3742 29.3893 38.184 29.3893 34.2486C29.3893 30.3133 26.1991 27.123 22.2638 27.123C18.3284 27.123 15.1382 30.3133 15.1382 34.2486C15.1382 38.184 18.3284 41.3742 22.2638 41.3742Z" fill="#39A4FA"/>
<path d="M19.3487 66.5883C23.2841 66.5883 26.4743 63.3981 26.4743 59.4627C26.4743 55.5274 23.2841 52.3372 19.3487 52.3372C15.4134 52.3372 12.2231 55.5274 12.2231 59.4627C12.2231 63.3981 15.4134 66.5883 19.3487 66.5883Z" fill="#FF434D"/>
<path d="M62.9498 85.9196C66.8851 85.9196 70.0754 82.7294 70.0754 78.794C70.0754 74.8587 66.8851 71.6685 62.9498 71.6685C59.0144 71.6685 55.8242 74.8587 55.8242 78.794C55.8242 82.7294 59.0144 85.9196 62.9498 85.9196Z" fill="#FFD039"/>
<path d="M60.5181 59.1501L49.6228 48.2548L90.9843 11.6354C92.7098 10.1076 95.3264 10.1871 96.9559 11.8168C98.5856 13.4465 98.6651 16.0631 97.1374 17.7885L60.5181 59.1501Z" fill="#FFD039"/>
<path d="M96.9562 11.8167C96.2904 11.1509 95.4587 10.7481 94.5915 10.604C94.8003 11.8591 94.4634 13.1905 93.5601 14.211L56.9404 55.5725L60.5182 59.1502L97.1374 17.7888C98.6653 16.063 98.5859 13.4464 96.9562 11.8167Z" fill="#FFAE47"/>
<path d="M51.4152 65.8756L42.8975 57.3576L49.6228 48.2549L60.5181 59.1502L51.4152 65.8756Z" fill="#FFAE47"/>
<path d="M47.8379 62.2978L49.0264 63.4863L51.4152 65.8754L60.5181 59.15L56.9404 55.5723L47.8379 62.2978Z" fill="#E29440"/>
<path d="M52.6051 67.0633L41.71 56.1682L37.2615 60.6167L48.1566 71.5118L52.6051 67.0633Z" fill="#546F7A"/>
<path d="M52.6051 67.0633L41.71 56.1682L37.2615 60.6167L48.1566 71.5118L52.6051 67.0633Z" fill="#E0E0E0"/>
<path d="M52.6051 67.0633L41.71 56.1682L37.2615 60.6167L48.1566 71.5118L52.6051 67.0633Z" fill="#E0E0E0"/>
<path d="M52.6063 67.0636L49.0288 63.4861L44.5803 67.9346L48.1578 71.5121L52.6063 67.0636Z" fill="#C6C5CA"/>
<path d="M45.7426 69.0987L39.6739 63.03C37.2405 62.5526 34.6214 63.2561 32.736 65.1413C29.7274 68.1499 26.6694 82.103 26.6694 82.103C26.6694 82.103 40.6225 79.0452 43.6311 76.0364C45.5165 74.1512 46.22 71.5323 45.7426 69.0987Z" fill="#FF6137"/>
<path d="M44.5782 67.9346L42.165 65.5215C42.6423 67.9549 41.9388 70.574 40.0536 72.4594C38.1986 74.3142 32.1839 76.1877 27.8435 77.3519C27.1197 80.0511 26.6697 82.1033 26.6697 82.1033C26.6697 82.1033 40.6228 79.0455 43.6314 76.0367C45.5165 74.1515 46.22 71.5322 45.7427 69.0988L44.5782 67.9346Z" fill="#E04F32"/>
<path d="M76.0875 89.5968C72.5428 92.7837 68.1041 94.9886 62.8951 96.1507C57.9502 97.2536 52.552 97.3763 46.8494 96.5151C35.4338 94.7909 24.4679 89.3831 16.763 81.6784C9.24152 74.157 4.65598 64.6042 3.50207 54.0531C2.38137 43.8062 4.73879 33.3685 10.1401 24.6627C10.5651 23.9777 10.3544 23.0779 9.66944 22.6531C8.98429 22.2281 8.08488 22.4389 7.65988 23.1238C1.91634 32.3814 -0.590691 43.4781 0.600517 54.3703C1.19563 59.8111 2.67766 65.0681 5.00559 69.9954C7.41457 75.0941 10.6759 79.7193 14.6991 83.7425C22.8354 91.8786 34.3948 97.5862 46.4135 99.4015C49.0559 99.8005 51.6409 100 54.1555 100C57.408 100 60.5428 99.6665 63.5305 98.9999C69.235 97.7272 74.1164 95.294 78.0392 91.7675C78.6386 91.2286 78.6877 90.3058 78.1488 89.7064C77.6101 89.1069 76.6873 89.0577 76.0875 89.5968Z" fill="black"/>
<path d="M43.776 27.6805C45.9744 27.6805 48.1729 26.8438 49.8465 25.17C53.1938 21.8227 53.1938 16.3765 49.8465 13.029C46.4992 9.68174 41.053 9.68174 37.7055 13.029C34.3583 16.3763 34.3583 21.8225 37.7055 25.17C39.3791 26.8436 41.5778 27.6805 43.776 27.6805ZM39.7696 15.0929C40.8741 13.9884 42.3252 13.4358 43.776 13.4358C45.227 13.4358 46.6779 13.9882 47.7824 15.0929C49.9914 17.302 49.9914 20.8968 47.7824 23.1059C45.5733 25.3151 41.9785 25.3151 39.7694 23.1059C37.5604 20.8969 37.5604 17.3022 39.7696 15.0929Z" fill="black"/>
<path d="M28.3333 40.3184C31.6806 36.9712 31.6806 31.5249 28.3333 28.1774C24.9861 24.8302 19.5396 24.8302 16.1923 28.1774C12.8451 31.5247 12.8451 36.971 16.1923 40.3184C17.8662 41.9923 20.064 42.829 22.2628 42.829C24.4609 42.829 26.6599 41.9919 28.3333 40.3184ZM18.2562 38.2546C16.047 36.0456 16.047 32.4507 18.2562 30.2415C19.3607 29.137 20.8119 28.5847 22.2626 28.5847C23.7138 28.5847 25.1646 29.137 26.2691 30.2415C28.4782 32.4507 28.4782 36.0454 26.2691 38.2546C24.0601 40.4634 20.4654 40.4635 18.2562 38.2546Z" fill="black"/>
<path d="M13.279 65.5328C14.9526 67.2064 17.151 68.0433 19.3495 68.0433C21.5481 68.0433 23.7463 67.2066 25.4202 65.5328C28.7674 62.1855 28.7674 56.7392 25.4202 53.3918C22.0729 50.0445 16.6266 50.0445 13.2792 53.3918C9.93172 56.739 9.93172 62.1855 13.279 65.5328ZM15.3428 55.4558C16.4473 54.3514 17.8985 53.7988 19.3493 53.7988C20.8002 53.7988 22.2512 54.3512 23.3557 55.4558C25.5647 57.665 25.5647 61.2597 23.3557 63.4689C21.1467 65.6781 17.552 65.6781 15.3426 63.4689C13.1339 61.2597 13.1339 57.665 15.3428 55.4558Z" fill="black"/>
<path d="M69.02 84.8638C72.3673 81.5166 72.3673 76.0701 69.02 72.7228C65.6728 69.3754 60.2263 69.3758 56.8789 72.7228C53.5316 76.0701 53.5316 81.5164 56.8789 84.8638C58.5525 86.5375 60.7511 87.3744 62.9495 87.3744C65.1478 87.3744 67.3464 86.5377 69.02 84.8638ZM58.9429 82.8C56.7335 80.5908 56.7335 76.9961 58.9429 74.7869C60.0474 73.6824 61.4984 73.1299 62.9493 73.1299C64.4003 73.1299 65.8511 73.6822 66.9556 74.7869C69.165 76.9961 69.165 80.5908 66.9556 82.8C64.747 85.0095 61.1521 85.0093 58.9429 82.8Z" fill="black"/>
<path d="M97.9879 10.7848C95.817 8.6137 92.3154 8.50725 90.0166 10.5428L76.5572 22.459C76.6309 18.9988 75.8748 15.7682 74.2893 12.8192C72.3098 9.13714 69.0371 6.01702 64.825 3.79632C58.1444 0.273479 49.2934 -0.867143 40.5425 0.667033C30.8202 2.37133 21.8837 7.06976 14.6992 14.2545C13.5144 15.4393 12.3802 16.6943 11.3275 17.985C10.8181 18.6096 10.9115 19.5291 11.5361 20.0383C12.1603 20.5477 13.08 20.4543 13.5894 19.8297C14.58 18.615 15.6478 17.4336 16.7632 16.3184C25.3013 7.7805 34.6812 4.65804 41.0466 3.54203C49.1733 2.11762 57.3442 3.15082 63.4639 6.37796C67.1604 8.32698 70.0151 11.0321 71.7184 14.2012C73.4844 17.4858 74.0389 21.2115 73.3692 25.2814L61.342 35.9297C60.7383 36.464 60.6823 37.3863 61.2166 37.9898C61.2514 38.0291 61.2881 38.066 61.326 38.1006C61.3383 38.1119 61.3518 38.1216 61.3641 38.1322C61.3905 38.1547 61.4164 38.1769 61.444 38.197C61.4598 38.2088 61.4762 38.2189 61.4924 38.2299C61.518 38.2472 61.5432 38.2642 61.5696 38.2799C61.5875 38.2904 61.6057 38.2996 61.6239 38.3091C61.6497 38.3228 61.675 38.3361 61.7014 38.3482C61.7209 38.3572 61.7405 38.365 61.7604 38.373C61.7864 38.3836 61.812 38.3937 61.8383 38.4025C61.859 38.4095 61.8797 38.4158 61.9006 38.4218C61.9268 38.4295 61.9528 38.4365 61.9791 38.4427C62.0006 38.4478 62.0219 38.4521 62.0436 38.456C62.07 38.4609 62.0963 38.465 62.1229 38.4685C62.145 38.4713 62.1666 38.4738 62.1887 38.4758C62.2153 38.4779 62.2418 38.4791 62.2686 38.4799C62.2825 38.4802 62.2961 38.482 62.3102 38.482C62.3196 38.482 62.3289 38.481 62.3381 38.4808C62.3569 38.4804 62.3754 38.4795 62.3944 38.4783C62.4207 38.4767 62.4471 38.4748 62.4735 38.4716C62.4924 38.4695 62.5108 38.467 62.5297 38.4642C62.5561 38.4603 62.5819 38.4554 62.608 38.45C62.6266 38.4461 62.645 38.4422 62.6633 38.4375C62.6895 38.4308 62.7153 38.4234 62.7411 38.4154C62.759 38.4099 62.7766 38.4045 62.7944 38.3982C62.8205 38.389 62.8461 38.3785 62.8719 38.3679C62.8887 38.3609 62.9055 38.3543 62.9221 38.3465C62.9485 38.3341 62.9743 38.3205 63 38.3066C63.0155 38.2984 63.0309 38.2908 63.0459 38.2818C63.0737 38.2654 63.1006 38.2476 63.1274 38.2293C63.1397 38.2209 63.1524 38.2134 63.1643 38.2047C63.2028 38.1767 63.2407 38.1468 63.277 38.1148L91.9515 12.7279C93.097 11.7139 94.8424 11.7666 95.9238 12.8487C97.0058 13.9307 97.059 15.6756 96.0447 16.8211L60.4532 57.0214L51.7512 48.3195L58.8161 42.0646C59.4198 41.5302 59.4758 40.608 58.9415 40.0045C58.4073 39.4007 57.4848 39.3447 56.8813 39.8791L48.6553 47.1619C48.6247 47.189 48.596 47.2183 48.5678 47.2476C48.5618 47.2539 48.5551 47.2595 48.5493 47.2658C48.5143 47.3037 48.4815 47.3437 48.451 47.3847C48.4505 47.3855 48.4497 47.3863 48.4489 47.3873L42.7304 55.1273C42.1597 54.5673 41.2432 54.5701 40.6768 55.1367L36.229 59.5845C35.9552 59.8581 35.8015 60.2294 35.8015 60.6165C35.8015 60.9999 35.9526 61.3675 36.2216 61.6406C34.5354 62.0099 32.963 62.8505 31.7044 64.1091C28.4866 67.3269 25.5667 80.3194 25.2443 81.7903C25.1378 82.2763 25.2861 82.7829 25.638 83.1348C25.9148 83.4116 26.2872 83.5624 26.67 83.5624C26.7739 83.5624 26.8786 83.5512 26.9823 83.5286C28.4532 83.2061 41.4456 80.2862 44.6636 77.0685C45.9223 75.8099 46.763 74.2374 47.1323 72.5513C47.4051 72.8202 47.7727 72.9714 48.1563 72.9714C48.5434 72.9714 48.9147 72.8177 49.1883 72.5438L53.6362 68.096C54.2028 67.5294 54.2055 66.6132 53.6456 66.0425L61.3854 60.324C61.3864 60.3232 61.3873 60.3222 61.3885 60.3214C61.4293 60.2911 61.4686 60.2587 61.5063 60.2241C61.5164 60.2148 61.5254 60.2042 61.535 60.1948C61.561 60.1697 61.5868 60.1448 61.6108 60.1175L72.0201 48.3605C73.4744 51.4505 75.5006 54.2619 77.4727 56.9978C80.1193 60.6697 82.6189 64.1378 83.7707 68.1306C85.0504 72.5661 84.4418 76.988 81.8559 82.046C81.2412 83.2483 80.5418 84.3999 79.7772 85.4684C79.3082 86.1241 79.4594 87.0354 80.1148 87.5046C80.3721 87.6887 80.6691 87.7772 80.9629 87.7772C81.4178 87.7772 81.8662 87.5651 82.151 87.1669C82.9992 85.9809 83.7744 84.7052 84.4547 83.3745C87.3592 77.6938 88.0527 72.4429 86.5752 67.3214C85.2828 62.8417 82.5164 59.0032 79.8406 55.291C77.5984 52.1802 75.4733 49.2283 74.1524 45.9519L98.2302 18.7559C100.265 16.4574 100.159 12.9561 97.9879 10.7848ZM42.5993 75.0046C40.8913 76.7126 33.8716 78.8601 28.6234 80.1491C29.9118 74.9017 32.0589 67.8825 33.7681 66.1734C34.9517 64.9898 36.5411 64.3443 38.1825 64.3443C38.4456 64.3443 38.7101 64.3609 38.9745 64.3945L44.3782 69.7982C44.6216 71.7116 43.9725 73.6313 42.5993 75.0046ZM48.1559 69.4482L46.7747 68.0669L40.7057 61.998C40.7056 61.9978 40.7054 61.9976 40.7052 61.9974L39.3245 60.6167L41.7085 58.2327L44.7046 61.2288L50.3831 66.9075C50.3837 66.9081 50.3844 66.9087 50.385 66.9093L50.5397 67.064L48.1559 69.4482ZM51.5587 63.9548L48.1884 60.5845L44.818 57.2142L49.7893 50.4855L58.2874 58.9835L51.5587 63.9548Z" fill="black"/>
</g>
<defs>
<clipPath id="clip0">
<rect width="100" height="100" fill="white"/>
</clipPath>
</defs>
</svg>
