<svg width="100" height="100" viewBox="0 0 100 100" fill="none" xmlns="http://www.w3.org/2000/svg">
<path d="M98.5114 1.46533H53.2209V55.7157H98.5114V1.46533Z" fill="#E0E0E0"/>
<path d="M98.5113 1.46533H93.627V55.7157H98.5113V1.46533Z" fill="#C6C5CA"/>
<path d="M98.3939 62.1028H53.1035V98.5348H98.3939V62.1028Z" fill="#E0E0E0"/>
<path d="M98.3939 62.1028H93.5095V98.5348H98.3939V62.1028Z" fill="#C6C5CA"/>
<path d="M75.7479 93.9396C83.2709 93.9396 89.3696 87.841 89.3696 80.318C89.3696 72.7949 83.2709 66.6963 75.7479 66.6963C68.2249 66.6963 62.1262 72.7949 62.1262 80.318C62.1262 87.841 68.2249 93.9396 75.7479 93.9396Z" fill="#FF434D"/>
<path d="M75.7479 66.6956C74.9137 66.6956 74.0984 66.7745 73.3057 66.918C79.6631 68.0694 84.4861 73.6286 84.4861 80.318C84.4861 87.0075 79.6631 92.5667 73.3057 93.718C74.0984 93.8616 74.9137 93.9405 75.7479 93.9405C83.2715 93.9405 89.3705 87.8415 89.3705 80.3178C89.3705 72.7948 83.2715 66.6956 75.7479 66.6956Z" fill="#DD3646"/>
<path d="M46.7792 1.46533H1.48877V98.5229H46.7792V1.46533Z" fill="#E0E0E0"/>
<path d="M46.7794 1.46533H41.895V98.5229H46.7794V1.46533Z" fill="#C6C5CA"/>
<path d="M91.4291 10.1267H60.3035V31.6613H91.4291V10.1267Z" fill="#39A4FA"/>
<path d="M80.7683 18.8364L74.4243 24.4972L82.4536 31.6612H91.4284V28.3483L80.7683 18.8364Z" fill="#008950"/>
<path d="M60.3035 28.5558V31.6611H82.4539L69.6384 20.2263L60.3035 28.5558Z" fill="#00B76C"/>
<path d="M74.5071 18.5118C75.8667 18.5118 76.9688 17.4097 76.9688 16.0501C76.9688 14.6905 75.8667 13.5884 74.5071 13.5884C73.1476 13.5884 72.0454 14.6905 72.0454 16.0501C72.0454 17.4097 73.1476 18.5118 74.5071 18.5118Z" fill="#FFD039"/>
<path d="M46.7792 67.2753C45.9698 67.2753 45.3139 67.9313 45.3139 68.7407V97.0573H2.95415V30.4735C2.95415 29.6644 2.2981 29.0083 1.48892 29.0083C0.679541 29.0083 0.0236816 29.6644 0.0236816 30.4735V98.5228C0.0236816 99.3319 0.679541 99.988 1.48892 99.988H46.7792C47.5885 99.988 48.2444 99.3319 48.2444 98.5228V68.7407C48.2444 67.9312 47.5883 67.2753 46.7792 67.2753Z" fill="black"/>
<path d="M46.7791 0H1.48867C0.679297 0 0.0234375 0.656055 0.0234375 1.46523V24.6119C0.0234375 25.4211 0.679297 26.0771 1.48867 26.0771C2.29785 26.0771 2.95391 25.4211 2.95391 24.6119V2.93066H45.3137V62.8793C45.3137 63.6885 45.9695 64.3447 46.7789 64.3447C47.5883 64.3447 48.2441 63.6887 48.2441 62.8793V1.46523C48.2443 0.656055 47.5883 0 46.7791 0Z" fill="black"/>
<path d="M98.511 28.4246C99.3204 28.4246 99.9765 27.7686 99.9765 26.9592V1.46523C99.9765 0.656055 99.3206 0 98.511 0H53.2206C52.4112 0 51.7554 0.656055 51.7554 1.46523V55.715C51.7554 56.5242 52.4112 57.1805 53.2206 57.1805H98.511C99.3204 57.1805 99.9765 56.5244 99.9765 55.715V32.8205C99.9765 32.0113 99.3206 31.3553 98.511 31.3553C97.7019 31.3553 97.0458 32.0113 97.0458 32.8205V54.2496H54.6858V2.93066H97.0456V26.9594C97.0456 27.7686 97.7019 28.4246 98.511 28.4246Z" fill="black"/>
<path d="M98.3933 60.6367H53.1026C52.2933 60.6367 51.6372 61.2928 51.6372 62.102V98.5346C51.6372 99.3438 52.2931 99.9998 53.1026 99.9998H98.3933C99.2026 99.9998 99.8585 99.3438 99.8585 98.5346V62.1022C99.8585 61.2926 99.2024 60.6367 98.3933 60.6367ZM96.9278 97.0693H54.5679V63.5674H96.9278V97.0693Z" fill="black"/>
<path d="M75.7478 95.4062C84.0673 95.4062 90.8358 88.6376 90.8358 80.3181C90.8358 71.9985 84.0673 65.23 75.7478 65.23C67.4282 65.23 60.6597 71.9985 60.6597 80.3181C60.6601 88.6378 67.4282 95.4062 75.7478 95.4062ZM75.7478 68.161C82.4513 68.161 87.9052 73.6147 87.9052 80.3185C87.9052 87.0218 82.4515 92.4759 75.7478 92.4759C69.044 92.4759 63.5903 87.0222 63.5903 80.3185C63.5907 73.6147 69.0444 68.161 75.7478 68.161Z" fill="black"/>
<path d="M92.8937 28.3483V10.1269C92.8937 9.31768 92.2377 8.66162 91.4285 8.66162H60.3033C59.4939 8.66162 58.8379 9.31768 58.8379 10.1269V28.5558V31.6612C58.8379 32.4704 59.4937 33.1265 60.3033 33.1265H82.4537H91.4287C92.2379 33.1265 92.8939 32.4704 92.8939 31.6612V28.3481H92.8937V28.3483ZM89.9631 11.5923V25.0772L81.7438 17.7435C81.1881 17.2476 80.3482 17.2476 79.7928 17.7435L74.4244 22.5335L70.6141 19.1335C70.0584 18.6376 69.2186 18.6376 68.6631 19.1335L61.7689 25.2849V11.5923H89.9631ZM61.7686 29.2122L69.6381 22.1905L73.4475 25.5896C73.4478 25.5899 73.448 25.5901 73.4484 25.5905L78.6102 30.196H61.7684V29.2122H61.7686ZM89.9631 30.1958H83.0121L76.6252 24.4968L80.7682 20.8001L89.9633 29.0044L89.9631 30.1958Z" fill="black"/>
<path d="M74.5067 19.9781C76.6721 19.9781 78.4338 18.2164 78.4338 16.0509C78.4338 13.8855 76.6721 12.1238 74.5067 12.1238C72.3411 12.1238 70.5793 13.8855 70.5793 16.0509C70.5793 18.2164 72.3411 19.9781 74.5067 19.9781ZM74.5067 15.0546C75.0561 15.0546 75.5032 15.5017 75.5032 16.0511C75.5032 16.6005 75.0561 17.0476 74.5067 17.0476C73.9571 17.0476 73.51 16.6005 73.51 16.0511C73.51 15.5015 73.9571 15.0546 74.5067 15.0546Z" fill="black"/>
<path d="M71.2389 81.7833H74.2826V84.8271C74.2826 85.6362 74.9385 86.2925 75.7479 86.2925C76.5572 86.2925 77.2133 85.6364 77.2133 84.8271V81.7833H80.257C81.0664 81.7833 81.7225 81.1272 81.7225 80.3181C81.7225 79.5089 81.0666 78.8526 80.257 78.8526H77.2133V75.8087C77.2133 74.9995 76.5574 74.3433 75.7479 74.3433C74.9383 74.3433 74.2826 74.9993 74.2826 75.8087V78.8526H71.2389C70.4295 78.8526 69.7734 79.5087 69.7734 80.3181C69.7734 81.1274 70.4295 81.7833 71.2389 81.7833Z" fill="black"/>
<path d="M91.4285 36.9722H60.3033C59.4939 36.9722 58.8379 37.6282 58.8379 38.4374C58.8379 39.2466 59.4937 39.9026 60.3033 39.9026H91.4287C92.2379 39.9026 92.8939 39.2466 92.8939 38.4374C92.8937 37.6282 92.2379 36.9722 91.4285 36.9722Z" fill="black"/>
<path d="M91.4285 44.416H60.3033C59.4939 44.416 58.8379 45.0721 58.8379 45.8812C58.8379 46.6904 59.4937 47.3467 60.3033 47.3467H91.4287C92.2379 47.3467 92.8939 46.6906 92.8939 45.8812C92.8937 45.0721 92.2379 44.416 91.4285 44.416Z" fill="black"/>
<path d="M7.1062 41.892C7.1062 42.7012 7.76206 43.3572 8.57144 43.3572H39.6966C40.506 43.3572 41.1619 42.7012 41.1619 41.892C41.1619 41.0828 40.506 40.4268 39.6966 40.4268H8.57144C7.76226 40.4268 7.1062 41.0828 7.1062 41.892Z" fill="black"/>
<path d="M8.57144 50.8013H39.6966C40.506 50.8013 41.1619 50.1452 41.1619 49.3358C41.1619 48.5265 40.506 47.8706 39.6966 47.8706H8.57144C7.76206 47.8706 7.1062 48.5267 7.1062 49.3358C7.1062 50.145 7.76226 50.8013 8.57144 50.8013Z" fill="black"/>
<path d="M8.57144 58.2456H39.6966C40.506 58.2456 41.1619 57.5895 41.1619 56.7804C41.1619 55.9712 40.506 55.3149 39.6966 55.3149H8.57144C7.76206 55.3149 7.1062 55.971 7.1062 56.7804C7.1062 57.5897 7.76226 58.2456 8.57144 58.2456Z" fill="black"/>
<path d="M8.57144 65.6895H39.6966C40.506 65.6895 41.1619 65.0334 41.1619 64.224C41.1619 63.4147 40.506 62.7588 39.6966 62.7588H8.57144C7.76206 62.7588 7.1062 63.4148 7.1062 64.224C7.1062 65.0332 7.76226 65.6895 8.57144 65.6895Z" fill="black"/>
<path d="M8.57144 73.1335H39.6966C40.506 73.1335 41.1619 72.4774 41.1619 71.6681C41.1619 70.8587 40.506 70.2026 39.6966 70.2026H8.57144C7.76206 70.2026 7.1062 70.8587 7.1062 71.6681C7.1062 72.4774 7.76226 73.1335 8.57144 73.1335Z" fill="black"/>
<path d="M8.57144 80.5776H39.6966C40.506 80.5776 41.1619 79.9216 41.1619 79.1124C41.1619 78.3032 40.506 77.647 39.6966 77.647H8.57144C7.76206 77.647 7.1062 78.303 7.1062 79.1124C7.1062 79.9218 7.76226 80.5776 8.57144 80.5776Z" fill="black"/>
<path d="M8.57144 88.022H39.6966C40.506 88.022 41.1619 87.3659 41.1619 86.5565C41.1619 85.7472 40.506 85.0913 39.6966 85.0913H8.57144C7.76206 85.0913 7.1062 85.7474 7.1062 86.5565C7.1062 87.3657 7.76226 88.022 8.57144 88.022Z" fill="black"/>
<path d="M35.0199 18.5089C35.8292 18.5089 36.4851 17.8529 36.4851 17.0437V13.5812C36.4851 12.772 35.8292 12.116 35.0199 12.116H24.1337H13.2482C12.4388 12.116 11.783 12.772 11.783 13.5812V17.0437C11.783 17.8529 12.4388 18.5089 13.2482 18.5089C14.0576 18.5089 14.7134 17.8529 14.7134 17.0437V15.0466H22.6687V32.4148H19.7722C18.9628 32.4148 18.307 33.0708 18.307 33.88C18.307 34.6892 18.9628 35.3455 19.7722 35.3455H24.1339H28.496C29.3054 35.3455 29.9615 34.6894 29.9615 33.88C29.9615 33.0707 29.3056 32.4148 28.496 32.4148H25.5994V15.0466H33.5548V17.0437C33.5546 17.8529 34.2107 18.5089 35.0199 18.5089Z" fill="black"/>
</svg>
