<svg width="100" height="100" viewBox="0 0 100 100" fill="none" xmlns="http://www.w3.org/2000/svg">
<g clip-path="url(#clip0)">
<path d="M28.6452 57.3028L31.3653 54.5827C31.3422 54.2383 31.3262 53.8918 31.3262 53.5416C31.3262 45.0694 38.1942 38.2014 46.6665 38.2014C55.1387 38.2014 62.0067 45.0694 62.0067 53.5416C62.0067 62.0139 55.1387 68.8821 46.6665 68.8821C46.2922 68.8821 45.9223 68.8639 45.5549 68.8375L35.5075 78.885C36.9665 79.5276 38.4887 80.0524 40.0665 80.4383L41.3104 89.2012H52.0227L53.2667 80.4383C56.0372 79.7608 58.6448 78.6682 61.0182 77.2272L68.0944 82.5442L75.669 74.9694L70.352 67.8932C71.7932 65.52 72.8856 62.9124 73.5631 60.1416L82.326 58.8977V48.1854L73.5631 46.9415C72.8856 44.1709 71.7932 41.5633 70.352 39.1899L75.669 32.1137L68.0944 24.5389L61.0182 29.8559C58.6452 28.4149 56.0374 27.3223 53.2667 26.6448L52.0227 17.8821H41.3104L40.0665 26.645C37.2959 27.3225 34.6883 28.4149 32.3149 29.8561L25.2387 24.5391L17.6639 32.1139L22.9809 39.1901C21.5399 41.5633 20.4473 44.1709 19.7698 46.9417L11.0071 48.1856V58.8979L19.7698 60.1418C20.1508 61.7006 20.668 63.2053 21.3 64.6481L24.4877 61.4604" fill="#FF434D"/>
<path d="M65.4704 39.1903C66.9116 41.5635 68.004 44.1711 68.6815 46.9418L73.5932 47.6391V46.9461L73.5627 46.9418C72.8852 44.1713 71.7928 41.5637 70.3516 39.1903L75.6686 32.1141L68.094 24.5393L65.3069 26.6336L70.7874 32.1141L65.4704 39.1903Z" fill="#DD3646"/>
<path d="M73.5627 60.1418L73.5932 60.1375V59.4446L68.6815 60.1418C68.004 62.9126 66.9116 65.52 65.4704 67.8934L70.7874 74.9696L65.3069 80.4501L68.094 82.5444L75.6686 74.9696L70.3516 67.8934C71.7928 65.5202 72.8852 62.9124 73.5627 60.1418Z" fill="#DD3646"/>
<path d="M77.4443 47.4927V48.1855V58.8978V59.5907L82.3256 58.8978V48.1855L77.4443 47.4927Z" fill="#DD3646"/>
<path d="M96.9473 10.5829L89.5877 3.22334C87.6926 1.32822 84.6201 1.32822 82.7252 3.22334L76.3574 9.59072L90.5795 23.8128L96.9473 17.4454C98.8422 15.5503 98.8422 12.4778 96.9473 10.5829Z" fill="#546F7A"/>
<path d="M1.63452 98.5353L23.6089 90.7687L9.40151 76.561L1.63452 98.5353Z" fill="#FFC89F"/>
<path d="M20.1142 87.2744L3.54507 93.1307L1.63452 98.5359L23.6089 90.7693L20.1142 87.2744Z" fill="#F7B081"/>
<path d="M90.5801 23.8125L76.3584 9.59082L68.6641 17.2851L82.8858 31.5068L90.5801 23.8125Z" fill="#FF6137"/>
<path d="M47.7075 38.2407L9.39404 76.554L23.6161 90.7761L61.962 52.4302C61.4167 44.8218 55.3257 38.7519 47.7075 38.2407Z" fill="#FFD039"/>
<path d="M68.6629 17.2852L57.7725 28.1756C58.8941 28.667 59.9795 29.2262 61.0178 29.8564L68.0939 24.5395L75.6686 32.1143L70.3516 39.1904C70.9721 40.2121 71.5234 41.2799 72.0094 42.3828L82.885 31.5072L68.6629 17.2852Z" fill="#FFD039"/>
<path d="M96.9472 10.5829L93.433 7.0686C95.3277 8.96372 95.3277 12.036 93.4328 13.9309L87.0652 20.2983L90.5796 23.8127L96.9472 17.4454C98.8422 15.5502 98.8422 12.4778 96.9472 10.5829Z" fill="#475D63"/>
<path d="M82.8856 31.507L90.5798 23.8127L87.0653 20.2982L79.3711 27.9925L82.8856 31.507Z" fill="#E04F32"/>
<path d="M79.3705 27.9927L75.6686 32.1142L70.3516 39.1903C70.9721 40.212 71.5234 41.2798 72.0094 42.3827L82.885 31.5071L79.3705 27.9927Z" fill="#FFA304"/>
<path d="M1.69604 19.8041L5.25952 21.4012C6.7355 22.0627 7.91636 23.2436 8.57788 24.7195L10.175 28.283L11.772 24.7195C12.4335 23.2436 13.6144 22.0627 15.0904 21.4012L18.6539 19.8041L15.0904 18.207C13.6144 17.5455 12.4335 16.3646 11.772 14.8887L10.175 11.3252L8.57788 14.8887C7.91655 16.3645 6.7355 17.5455 5.25952 18.207L1.69604 19.8041Z" fill="#FFD039"/>
<path d="M78.8838 83.995L82.4473 85.5921C83.9232 86.2536 85.1041 87.4345 85.7656 88.9104L87.3627 92.4739L88.9598 88.9104C89.6213 87.4345 90.8022 86.2536 92.2781 85.5921L95.8416 83.995L92.2781 82.398C90.8022 81.7364 89.6213 80.5556 88.9598 79.0796L87.3627 75.5161L85.7656 79.0796C85.1043 80.5556 83.9232 81.7364 82.4473 82.398L78.8838 83.995Z" fill="#FFD039"/>
<path d="M49.8748 8.99854L53.0414 10.4177C54.3527 11.0054 55.4021 12.0548 55.9898 13.3663L57.4089 16.5329L58.8283 13.3663C59.416 12.055 60.4654 11.0056 61.7769 10.4177L64.9435 8.99854L61.7769 7.57939C60.4656 6.9917 59.4162 5.94229 58.8283 4.63096L57.4089 1.46436L55.9898 4.63096C55.4021 5.94229 54.3527 6.9917 53.0414 7.57939L49.8748 8.99854Z" fill="#FFD039"/>
<path d="M1.63452 98.5355L11.8894 94.911L5.25913 88.2808L1.63452 98.5355Z" fill="#3C5156"/>
<path d="M58.4477 48.9156L20.1018 87.2615L23.6163 90.7759L61.9622 52.43C61.8182 50.4214 61.2864 48.521 60.4428 46.8015L58.4477 48.9156Z" fill="#FFA304"/>
<path d="M48.3851 80.438L47.1414 89.2009H52.0226L53.2664 80.438H48.3851Z" fill="#DD3646"/>
<path d="M47.1414 17.8826H52.0226L53.2664 26.6453H48.3851L47.1414 17.8826Z" fill="#DD3646"/>
<path d="M1.09731 21.1402L4.66079 22.7373C5.81001 23.2525 6.72681 24.1691 7.24165 25.3184L8.83872 28.8818C9.07485 29.4084 9.5981 29.7475 10.175 29.7475C10.7522 29.7475 11.2752 29.4088 11.5114 28.8818L13.1084 25.3184C13.6235 24.1691 14.5401 23.2525 15.6893 22.7373L19.2528 21.1402C19.7793 20.9043 20.1184 20.3809 20.1184 19.8039C20.1184 19.227 19.7795 18.7035 19.2528 18.4676L15.6895 16.8705C14.5403 16.3553 13.6235 15.4387 13.1086 14.2895L11.5116 10.726C11.2754 10.1994 10.7522 9.86035 10.1752 9.86035C9.5981 9.86035 9.07505 10.199 8.83892 10.726L7.24185 14.2895C6.72681 15.4387 5.81001 16.3553 4.66099 16.8705L1.09731 18.468C0.570752 18.7039 0.231689 19.2273 0.231689 19.8043C0.231689 20.3813 0.570752 20.9045 1.09731 21.1402ZM5.85864 19.5434C7.6647 18.7338 9.10493 17.2938 9.9145 15.4877L10.1752 14.9059L10.436 15.4877C11.2456 17.2936 12.6858 18.734 14.4918 19.5434L15.0737 19.8043L14.4918 20.0652C12.686 20.8748 11.2456 22.3148 10.436 24.1209L10.1752 24.7027L9.9145 24.1209C9.10493 22.315 7.66489 20.8746 5.85864 20.0652L5.27681 19.8043L5.85864 19.5434Z" fill="black"/>
<path d="M96.4407 82.659L92.8772 81.0619C91.728 80.5467 90.8114 79.6301 90.2961 78.4809L88.6991 74.9174C88.4631 74.3908 87.9397 74.0518 87.3627 74.0518C86.7858 74.0518 86.2624 74.3904 86.0264 74.9174L84.4294 78.4809C83.9141 79.6301 82.9977 80.5467 81.8485 81.0619L78.2848 82.659C77.7583 82.8949 77.4192 83.4184 77.4192 83.9953C77.4192 84.5723 77.7579 85.0957 78.2848 85.3316L81.8485 86.9287C82.9977 87.4439 83.9141 88.3605 84.4294 89.5098L86.0264 93.0732C86.2624 93.5998 86.7858 93.9389 87.3627 93.9389C87.9397 93.9389 88.4631 93.6002 88.6991 93.0732L90.2961 89.5098C90.8114 88.3605 91.728 87.4439 92.8772 86.9287L96.4407 85.3316C96.9672 85.0957 97.3063 84.5723 97.3063 83.9953C97.3063 83.4184 96.9674 82.8947 96.4407 82.659ZM91.6794 84.2559C89.8735 85.0654 88.4331 86.5055 87.6237 88.3117L87.3627 88.8935L87.1018 88.3117C86.2924 86.5059 84.8524 85.0654 83.0463 84.2559L82.4645 83.9949L83.0463 83.734C84.8522 82.9244 86.2924 81.4844 87.1018 79.6783L87.3627 79.0965L87.6237 79.6783C88.4333 81.4842 89.8733 82.9246 91.6794 83.734L92.2612 83.9949L91.6794 84.2559Z" fill="black"/>
<path d="M49.2758 10.335L52.4422 11.7543C53.4268 12.1957 54.2122 12.9811 54.6534 13.9654L56.0725 17.132C56.3085 17.6586 56.8319 17.9977 57.4088 17.9977C57.9858 17.9977 58.5092 17.659 58.7452 17.132L60.1645 13.9656C60.6059 12.9811 61.3913 12.1957 62.3758 11.7543L65.5424 10.335C66.069 10.099 66.4081 9.57559 66.4081 8.99863C66.4081 8.42148 66.0692 7.89824 65.5424 7.6623L62.376 6.24316C61.3915 5.80176 60.6061 5.01641 60.1647 4.03203L58.7456 0.865625C58.5096 0.338672 57.986 0 57.409 0C56.8321 0 56.3086 0.338672 56.0727 0.865625L54.6536 4.03223C54.2124 5.0166 53.427 5.80195 52.4426 6.24316L49.276 7.6623C48.7495 7.89844 48.4104 8.42168 48.4104 8.99883C48.4104 9.57559 48.7493 10.099 49.2758 10.335ZM53.6405 8.91582C55.2815 8.17988 56.5905 6.8709 57.326 5.22988L57.409 5.04492L57.492 5.23008C58.2278 6.87109 59.5368 8.18008 61.178 8.91582L61.3627 8.99863L61.1778 9.08164C59.5368 9.81738 58.2278 11.1264 57.492 12.7676L57.409 12.9525L57.326 12.7676C56.5905 11.1266 55.2815 9.81758 53.6403 9.08164L53.4555 8.99863L53.6405 8.91582Z" fill="black"/>
<path d="M97.9827 9.54722L90.6233 2.18784C88.1602 -0.274854 84.1528 -0.274854 81.6897 2.18784C81.1178 2.75991 81.1178 3.68706 81.6897 4.25913C82.2618 4.83081 83.1889 4.83081 83.7608 4.25913C85.0819 2.93804 87.2307 2.93804 88.5522 4.25913L95.9116 11.6183C97.2327 12.9396 97.2327 15.089 95.9118 16.4101L90.5795 21.7421L78.4284 9.59077L79.4868 8.53257C80.0588 7.96069 80.0588 7.03335 79.4869 6.46167C78.9151 5.8898 77.9877 5.8896 77.4161 6.46147L75.3237 8.55366C75.3231 8.55425 75.3223 8.55483 75.3217 8.55542L67.6274 16.25L57.4323 26.4449C56.4995 26.0744 55.5485 25.7494 54.5795 25.4769L53.4725 17.6773C53.37 16.9552 52.752 16.4187 52.0225 16.4187H41.3106C40.5813 16.4187 39.9631 16.9552 39.8606 17.6773L38.7536 25.4771C36.5432 26.0988 34.4192 26.9785 32.4172 28.1017L26.1188 23.3695C25.536 22.9314 24.7194 22.9892 24.2036 23.5046L16.6288 31.0792C16.1131 31.5951 16.0553 32.4115 16.4934 32.9945L21.2258 39.2931C20.1026 41.2947 19.2227 43.4185 18.601 45.6292L10.801 46.7365C10.0789 46.839 9.54242 47.4572 9.54242 48.1865V58.8988C9.54242 59.6281 10.0789 60.246 10.801 60.3488L18.6016 61.4558C18.8727 62.4152 19.1967 63.3691 19.5702 64.3074L8.35844 75.5189C8.16625 75.7111 8.0348 75.9515 7.97211 76.2113L3.87855 87.7931L3.87836 87.7933L0.253945 98.0478C0.0658593 98.5796 0.200234 99.1722 0.599062 99.5714C0.878555 99.8507 1.25297 100 1.6348 100C1.79828 100 1.96312 99.9728 2.1227 99.9164L23.9592 92.1982C24.2129 92.1373 24.4538 92.0095 24.6518 91.8117L35.8475 80.616C36.803 80.9986 37.7748 81.33 38.753 81.6062L39.8602 89.4068C39.9627 90.1289 40.5809 90.6654 41.3102 90.6654H52.0225C52.7518 90.6654 53.3698 90.1289 53.4725 89.4068L54.5795 81.607C56.7901 80.9853 58.9139 80.1056 60.9159 78.9824L67.2145 83.7146C67.7971 84.1525 68.6137 84.0947 69.1297 83.5794L76.7043 76.0044C77.22 75.4888 77.2776 74.6724 76.8395 74.0894L72.1071 67.791C73.2305 65.7888 74.1104 63.665 74.7319 61.4546L82.5317 60.3476C83.2537 60.2451 83.7903 59.6271 83.7903 58.8976V48.1853C83.7903 47.4562 83.2537 46.838 82.5317 46.7353L74.7319 45.6281C74.4539 44.6404 74.1219 43.671 73.7424 42.721L83.9211 32.5423L91.6155 24.848L97.983 18.4804C100.446 16.0181 100.446 12.0105 97.9827 9.54722ZM82.8854 29.4363L70.7342 17.2853L76.3575 11.6619L88.5086 23.8132L82.8854 29.4363ZM20.9313 90.1623L12.2721 93.2228L6.9475 87.8984L10.008 79.2392L15.4696 84.7007L20.9313 90.1623ZM4.03676 96.1333L5.86586 90.9585L9.21176 94.3044L4.03676 96.1333ZM80.8614 49.457V57.6269L73.3571 58.6919C72.7643 58.7761 72.2825 59.2124 72.1403 59.7941C71.5067 62.3847 70.484 64.854 69.1 67.1333C68.7893 67.6451 68.8213 68.2943 69.1811 68.7728L73.7342 74.8326L67.9575 80.6095L61.8977 76.0564C61.419 75.6966 60.7702 75.6646 60.2582 75.9753C57.9793 77.3591 55.5102 78.382 52.919 79.0156C52.3373 79.1578 51.901 79.6394 51.8168 80.2322L50.7518 87.7365H42.5819L41.5168 80.2322C41.4327 79.6394 40.9963 79.1576 40.4147 79.0156C39.6475 78.8279 38.8819 78.6021 38.1241 78.3398L46.1282 70.3359C46.3153 70.3427 46.4928 70.3462 46.667 70.3462C55.933 70.3462 63.4715 62.8078 63.4715 53.5417C63.4715 53.1357 63.452 52.7343 63.4235 52.3353C63.4233 52.332 63.4235 52.3289 63.4233 52.3255C63.4225 52.3154 63.4211 52.3054 63.4204 52.2953C63.402 52.0462 63.3789 51.799 63.3498 51.5531C63.3496 51.5517 63.3494 51.5503 63.3493 51.549C62.4059 43.6048 55.9016 37.3458 47.8483 36.7832C47.834 36.7822 47.8202 36.7802 47.8059 36.7792C47.8028 36.7791 47.7998 36.7792 47.7967 36.7791C47.4229 36.7541 47.0469 36.7369 46.6668 36.7369C37.4008 36.7369 29.8623 44.2753 29.8623 53.5414C29.8623 53.6923 29.8649 53.8462 29.8702 54.0072L27.6104 56.2669C27.5746 56.3027 27.5411 56.3398 27.5098 56.3783C27.2909 56.6468 27.1815 56.9746 27.1815 57.3027C27.1815 57.6775 27.3245 58.0523 27.6104 58.338C27.6461 58.3738 27.6832 58.4072 27.7217 58.4386C28.1434 58.7824 28.7121 58.8562 29.1971 58.6597C29.3735 58.5882 29.5385 58.481 29.6815 58.3382L48.259 39.7605C54.5991 40.4886 59.6815 45.5464 60.4399 51.8824L55.8553 56.4667C55.2834 57.0388 55.2834 57.966 55.8553 58.5378C56.1414 58.8238 56.5162 58.9665 56.8909 58.9665C57.2655 58.9665 57.6405 58.8236 57.9264 58.5378L60.2889 56.1753C59.2194 61.7179 54.843 66.0943 49.3002 67.164L53.7688 62.6957C54.3407 62.1236 54.3407 61.1964 53.7688 60.6246C53.1967 60.0529 52.2696 60.0529 51.6977 60.6246L44.5204 67.8021C44.5202 67.8023 44.52 67.8023 44.52 67.8025L34.4725 77.8499C34.4721 77.8503 34.4719 77.8507 34.4715 77.8509L23.6168 88.7058L17.5411 82.6302L11.4653 76.5542L25.5235 62.4962C25.6664 62.3533 25.7739 62.188 25.8452 62.0119C25.9166 61.8355 25.9524 61.6482 25.9524 61.4609C25.9524 61.0863 25.8094 60.7113 25.5235 60.4253C25.3805 60.2824 25.2153 60.1751 25.0391 60.1039C24.5985 59.9251 24.0883 59.9699 23.6823 60.2378C23.601 60.2914 23.5239 60.354 23.4524 60.4255L21.8489 62.0289C21.5948 61.2888 21.3754 60.5421 21.1924 59.7945C21.0502 59.213 20.5684 58.7765 19.9758 58.6923L12.4715 57.6273V49.4574L19.9758 48.3921C20.5684 48.308 21.0502 47.8716 21.1924 47.2904C21.8262 44.6988 22.8491 42.2296 24.2327 39.9511C24.5434 39.4394 24.5114 38.7902 24.1516 38.3115L19.5983 32.2517L25.3754 26.4748L31.4352 31.0279C31.9139 31.3876 32.5631 31.4195 33.0748 31.1089C35.3538 29.725 37.8231 28.7023 40.4139 28.0687C40.9955 27.9263 41.4317 27.4449 41.5161 26.8519L42.5811 19.3476H50.751L51.8161 26.8517C51.9002 27.4443 52.3366 27.9261 52.9178 28.0683C54.3821 28.4263 55.8053 28.9132 57.1793 29.5148C57.1811 29.5156 57.1827 29.5166 57.1844 29.5173C57.4522 29.6347 57.717 29.756 57.9789 29.8808C57.9838 29.8832 57.9887 29.8855 57.9936 29.8878C58.2416 30.0064 58.4864 30.1285 58.7284 30.2531C58.794 30.2871 58.8588 30.3226 58.9243 30.3572C59.1112 30.4556 59.2973 30.5548 59.4801 30.657C59.7414 30.8037 60.001 30.9533 60.2577 31.1089C60.3856 31.1867 60.5223 31.2429 60.6625 31.2779C61.0834 31.3832 61.5387 31.2974 61.8973 31.0277L67.9573 26.4746L73.734 32.2511L69.1809 38.3111C69.001 38.5503 68.9032 38.8322 68.8889 39.1185C68.8748 39.4046 68.9444 39.6949 69.0998 39.9509C69.2543 40.2052 69.4024 40.4626 69.5479 40.7216C69.6453 40.8962 69.7401 41.0736 69.8344 41.2519C69.8725 41.3236 69.9112 41.3949 69.9485 41.4667C70.0682 41.6984 70.1854 41.9324 70.2989 42.1695C70.3039 42.1802 70.3092 42.1908 70.3143 42.2013C70.4362 42.4562 70.5549 42.7138 70.6694 42.974C70.6703 42.9763 70.6719 42.9785 70.6731 42.981C71.2844 44.3699 71.7782 45.8091 72.1405 47.2904C72.2827 47.872 72.7643 48.3083 73.3573 48.3925L80.8614 49.457ZM43.9409 39.9365L33.061 50.8165C34.1547 45.3476 38.4721 41.0302 43.9409 39.9365ZM72.1071 39.2925L76.8393 32.9939C77.2772 32.4111 77.2196 31.5945 76.7041 31.0787L69.1295 23.5041C68.6135 22.9884 67.7969 22.9304 67.2143 23.3689L60.9157 28.1013C60.7014 27.981 60.4852 27.865 60.2682 27.7505L68.6627 19.3562L80.8139 31.5074L72.4307 39.8906C72.325 39.6904 72.2182 39.4904 72.1071 39.2925Z" fill="black"/>
</g>
<defs>
<clipPath id="clip0">
<rect width="100" height="100" fill="white"/>
</clipPath>
</defs>
</svg>
