<svg width="100" height="100" viewBox="0 0 100 100" fill="none" xmlns="http://www.w3.org/2000/svg">
<g clip-path="url(#clip0)">
<path d="M16.4888 16.4888H89.9659V73.4619L73.4611 89.9657H16.4888V16.4888Z" fill="#E0E0E0"/>
<path d="M21.5802 21.3845H89.9659V16.4888H16.4888V89.9659H21.5802V21.3845Z" fill="#C6C5CA"/>
<path d="M16.4885 1.46875H1.46875V98.5307H16.4885V1.46875Z" fill="#FFD039"/>
<path d="M16.4883 1.46875H11.5928V98.5307H16.4883V1.46875Z" fill="#FFA304"/>
<path d="M98.5307 1.46875H1.46875V16.4885H98.5307V1.46875Z" fill="#FFD039"/>
<path d="M98.5307 11.5928H1.46875V16.4883H98.5307V11.5928Z" fill="#FFA304"/>
<path d="M16.4885 1.46875H1.46875V16.4885H16.4885V1.46875Z" fill="#FF6137"/>
<path d="M62.1974 16.4883H16.4883V62.1974H62.1974V16.4883Z" fill="white"/>
<path d="M21.5802 21.3845H62.1973V16.4888H16.4888V62.1973H21.5802V21.3845Z" fill="#E0E0E0"/>
<path d="M73.4612 73.4609H89.9659L73.4612 89.9655V73.4609Z" fill="#919191"/>
<path d="M98.5313 0H70.2636C69.4525 0 68.7949 0.657619 68.7949 1.46875C68.7949 2.27989 69.4525 2.93751 70.2636 2.93751H97.0629V15.0201H91.4346V10.8686C91.4346 10.0574 90.7769 9.39982 89.9658 9.39982C89.1547 9.39982 88.4971 10.0574 88.4971 10.8686V15.02H82.1783V10.8686C82.1783 10.0574 81.5207 9.39982 80.7095 9.39982C79.8984 9.39982 79.2408 10.0574 79.2408 10.8686V15.02H72.922V10.8686C72.922 10.0574 72.2644 9.39982 71.4533 9.39982C70.6421 9.39982 69.9845 10.0574 69.9845 10.8686V15.02H63.6658V10.8686C63.6658 10.0574 63.0081 9.39982 62.197 9.39982C61.3859 9.39982 60.7283 10.0574 60.7283 10.8686V15.02H54.4095V10.8686C54.4095 10.0574 53.7519 9.39982 52.9407 9.39982C52.1296 9.39982 51.472 10.0574 51.472 10.8686V15.02H45.1532V10.8686C45.1532 10.0574 44.4956 9.39982 43.6845 9.39982C42.8733 9.39982 42.2157 10.0574 42.2157 10.8686V15.02H35.897V10.8686C35.897 10.0574 35.2393 9.39982 34.4282 9.39982C33.6171 9.39982 32.9594 10.0574 32.9594 10.8686V15.02H26.6407V10.8686C26.6407 10.0574 25.9831 9.39982 25.1719 9.39982C24.3608 9.39982 23.7032 10.0574 23.7032 10.8686V15.02H17.9575V2.93731H64.3888C65.1999 2.93731 65.8576 2.27969 65.8576 1.46856C65.8576 0.657423 65.1997 0 64.3888 0H16.4887H1.46875C0.657619 0 0 0.657619 0 1.46875V16.4889V33.5635C0 34.3747 0.657619 35.0323 1.46875 35.0323C2.27989 35.0323 2.93751 34.3747 2.93751 33.5635V17.9575H15.0201V23.704H10.8686C10.0574 23.704 9.39982 24.3616 9.39982 25.1727C9.39982 25.9838 10.0574 26.6415 10.8686 26.6415H15.02V32.9602H10.8686C10.0574 32.9602 9.39982 33.6178 9.39982 34.429C9.39982 35.2401 10.0574 35.8977 10.8686 35.8977H15.02V42.2165H10.8686C10.0574 42.2165 9.39982 42.8741 9.39982 43.6852C9.39982 44.4964 10.0574 45.154 10.8686 45.154H15.02V51.4728H10.8686C10.0574 51.4728 9.39982 52.1304 9.39982 52.9415C9.39982 53.7526 10.0574 54.4103 10.8686 54.4103H15.02V60.729H10.8686C10.0574 60.729 9.39982 61.3866 9.39982 62.1978C9.39982 63.0089 10.0574 63.6665 10.8686 63.6665H15.02V69.9853H10.8686C10.0574 69.9853 9.39982 70.6429 9.39982 71.4541C9.39982 72.2652 10.0574 72.9228 10.8686 72.9228H15.02V79.2416H10.8686C10.0574 79.2416 9.39982 79.8992 9.39982 80.7103C9.39982 81.5215 10.0574 82.1791 10.8686 82.1791H15.02V88.4978H10.8686C10.0574 88.4978 9.39982 89.1555 9.39982 89.9666C9.39982 90.7777 10.0574 91.4353 10.8686 91.4353H15.02V97.0637H2.93731V39.438C2.93731 38.6268 2.27969 37.9692 1.46856 37.9692C0.657423 37.9692 0 38.6268 0 39.438V98.5315C0 99.3426 0.657619 100 1.46875 100H16.4889C17.3 100 17.9577 99.3426 17.9577 98.5315V91.4344H73.4611C73.4671 91.4344 73.473 91.4336 73.4789 91.4334C73.521 91.4328 73.5628 91.4312 73.6046 91.4271C73.6271 91.425 73.6496 91.4205 73.6718 91.4174C73.6966 91.4139 73.722 91.4111 73.7466 91.4062C73.7697 91.4017 73.7925 91.3949 73.8154 91.3892C73.8388 91.3834 73.8627 91.3785 73.8857 91.3717C73.9068 91.3652 73.9273 91.357 73.9482 91.3496C73.9724 91.341 73.9972 91.3334 74.0211 91.3236C74.0388 91.3162 74.056 91.3072 74.0738 91.299C74.0996 91.2871 74.1259 91.276 74.1513 91.2623C74.1671 91.2539 74.182 91.2439 74.1976 91.235C74.2236 91.2199 74.25 91.2055 74.2752 91.1885C74.2923 91.1769 74.3084 91.1639 74.3254 91.1516C74.3474 91.1353 74.3703 91.1201 74.3916 91.1025C74.4291 91.0719 74.4654 91.0391 74.4998 91.0045L91.0043 74.5005C91.0523 74.4525 91.0951 74.4009 91.1355 74.3474C91.143 74.3375 91.1504 74.3275 91.1576 74.3175C91.234 74.2111 91.2955 74.0955 91.3406 73.9732C91.3455 73.9603 91.3502 73.9472 91.3547 73.9339C91.3957 73.8136 91.4209 73.6882 91.4295 73.5597C91.4307 73.5435 91.4312 73.5273 91.4318 73.5109C91.4324 73.4945 91.4342 73.4783 91.4342 73.4617V59.9232C91.4342 59.112 90.7766 58.4544 89.9654 58.4544C89.1543 58.4544 88.4967 59.112 88.4967 59.9232V71.9921H73.4607C72.6496 71.9921 71.9919 72.6498 71.9919 73.4609V88.4969H17.9575V17.9575H60.7286V19.4262C60.7286 20.2373 61.3863 20.895 62.1974 20.895C63.0085 20.895 63.6661 20.2373 63.6661 19.4262V17.9575H88.4971V54.0487C88.4971 54.8599 89.1547 55.5175 89.9658 55.5175C90.7769 55.5175 91.4346 54.8599 91.4346 54.0487V17.9575H98.5316C99.3428 17.9575 100 17.2998 100 16.4887V1.46875C100 0.657619 99.3426 0 98.5313 0ZM74.9296 74.9296H86.4199L74.9296 86.4199V74.9296ZM2.93731 2.93731H15.02V15.02H2.93731V2.93731Z" fill="black"/>
<path d="M62.1973 57.1223C61.3861 57.1223 60.7285 57.7799 60.7285 58.5911V61.5284C60.7285 62.3395 61.3861 62.9971 62.1973 62.9971C63.0084 62.9971 63.666 62.3395 63.666 61.5284V58.5911C63.666 57.7797 63.0084 57.1223 62.1973 57.1223Z" fill="black"/>
<path d="M63.666 50.1704C63.666 49.3593 63.0084 48.7017 62.1973 48.7017C61.3861 48.7017 60.7285 49.3593 60.7285 50.1704V53.1077C60.7285 53.9188 61.3861 54.5765 62.1973 54.5765C63.0084 54.5765 63.666 53.9188 63.666 53.1077V50.1704Z" fill="black"/>
<path d="M46.0254 60.7285C45.2143 60.7285 44.5566 61.3861 44.5566 62.1973C44.5566 63.0084 45.2143 63.666 46.0254 63.666H48.9627C49.7738 63.666 50.4315 63.0084 50.4315 62.1973C50.4315 61.3861 49.7738 60.7285 48.9627 60.7285H46.0254Z" fill="black"/>
<path d="M20.7644 60.7285C19.9533 60.7285 19.2957 61.3861 19.2957 62.1973C19.2957 63.0084 19.9533 63.666 20.7644 63.666H23.7017C24.5129 63.666 25.1705 63.0084 25.1705 62.1973C25.1705 61.3861 24.5129 60.7285 23.7017 60.7285H20.7644Z" fill="black"/>
<path d="M29.1848 60.7285C28.3737 60.7285 27.7161 61.3861 27.7161 62.1973C27.7161 63.0084 28.3737 63.666 29.1848 63.666H32.1221C32.9333 63.666 33.5909 63.0084 33.5909 62.1973C33.5909 61.3861 32.9333 60.7285 32.1221 60.7285H29.1848Z" fill="black"/>
<path d="M37.605 60.7285C36.7938 60.7285 36.1362 61.3861 36.1362 62.1973C36.1362 63.0084 36.7938 63.666 37.605 63.666H40.5423C41.3534 63.666 42.011 63.0084 42.011 62.1973C42.011 61.3861 41.3534 60.7285 40.5423 60.7285H37.605Z" fill="black"/>
<path d="M54.446 60.7285C53.6349 60.7285 52.9773 61.3861 52.9773 62.1973C52.9773 63.0084 53.6349 63.666 54.446 63.666H57.3834C58.1945 63.666 58.8521 63.0084 58.8521 62.1973C58.8521 61.3861 58.1945 60.7285 57.3834 60.7285H54.446Z" fill="black"/>
<path d="M63.666 41.75C63.666 40.9389 63.0084 40.2812 62.1973 40.2812C61.3861 40.2812 60.7285 40.9389 60.7285 41.75V44.6873C60.7285 45.4984 61.3861 46.1561 62.1973 46.1561C63.0084 46.1561 63.666 45.4984 63.666 44.6873V41.75Z" fill="black"/>
<path d="M63.666 24.9092C63.666 24.098 63.0084 23.4404 62.1973 23.4404C61.3861 23.4404 60.7285 24.098 60.7285 24.9092V27.8465C60.7285 28.6576 61.3861 29.3152 62.1973 29.3152C63.0084 29.3152 63.666 28.6576 63.666 27.8465V24.9092Z" fill="black"/>
<path d="M63.666 33.3296C63.666 32.5185 63.0084 31.8608 62.1973 31.8608C61.3861 31.8608 60.7285 32.5185 60.7285 33.3296V36.2669C60.7285 37.078 61.3861 37.7357 62.1973 37.7357C63.0084 37.7357 63.666 37.078 63.666 36.2669V33.3296Z" fill="black"/>
</g>
<defs>
<clipPath id="clip0">
<rect width="100" height="100" fill="white"/>
</clipPath>
</defs>
</svg>
