<svg width="100" height="100" viewBox="0 0 100 100" fill="none" xmlns="http://www.w3.org/2000/svg">
<path d="M98.5145 49.9999C98.5145 76.7943 76.7936 98.5152 49.9992 98.5152C23.2055 98.5152 1.48462 76.7943 1.48462 49.9999C1.48462 23.2062 23.2055 1.48535 49.9992 1.48535C76.7936 1.48535 98.5145 23.2062 98.5145 49.9999Z" fill="#B5B5B5"/>
<path d="M49.9991 95.3467C37.8867 95.3467 26.4991 90.6295 17.9343 82.0647C9.36957 73.4999 4.65308 62.1131 4.65308 49.9999C4.65308 37.8875 9.36957 26.4998 17.9343 17.9351C26.4991 9.3703 37.8867 4.65381 49.9991 4.65381C62.1116 4.65381 73.4992 9.3703 82.064 17.9351C90.6287 26.5006 95.346 37.8875 95.346 49.9999C95.346 62.1123 90.6287 73.4999 82.064 82.0647C73.4992 90.6295 62.1116 95.3467 49.9991 95.3467V95.3467Z" fill="#E4E4E4"/>
<path d="M56.1148 93.7318C29.3654 93.7318 7.68066 72.0471 7.68066 45.2977C7.68066 30.943 13.9277 18.049 23.8486 9.17969C10.1307 17.7316 1 32.9523 1 50.308C1 77.0574 22.6848 98.7422 49.4342 98.7422C61.8289 98.7422 73.134 94.0842 81.7004 86.426C74.2758 91.0547 65.5086 93.7318 56.1148 93.7318Z" fill="#B5B5B5"/>
<path d="M95.8254 29.9688C93.1502 23.8566 89.3338 18.4143 84.4826 13.793C83.857 13.1965 82.8656 13.2207 82.2688 13.8467C81.6725 14.4729 81.6965 15.4641 82.3227 16.0605C91.7027 24.9961 96.8686 37.0494 96.8686 50C96.8686 75.8434 75.8436 96.8686 50 96.8686C24.1564 96.8686 3.13145 75.8434 3.13145 50C3.13145 24.1566 24.1566 3.13145 50 3.13145C59.2445 3.13145 68.1855 5.81895 75.857 10.9033C76.5781 11.3814 77.5496 11.1842 78.0273 10.4633C78.5053 9.74238 78.308 8.7707 77.5873 8.29316C69.4012 2.86758 59.8615 0 50 0C36.6445 0 24.0885 5.20098 14.6447 14.6447C5.20098 24.0885 0 36.6445 0 50C0 63.3555 5.20098 75.9115 14.6447 85.3553C24.0885 94.799 36.6445 100 50 100C63.3555 100 75.9115 94.799 85.3553 85.3553C94.7992 75.9115 100 63.3555 100 50C100 43.0365 98.5955 36.2971 95.8254 29.9688Z" fill="black"/>
<path d="M31.7045 54.3203L18.7676 56.6008C20.0594 63.945 23.9007 70.598 29.6153 75.3887L38.0531 65.3329C34.7066 62.5238 32.4584 58.624 31.7045 54.3203V54.3203Z" fill="#FF421D"/>
<path d="M50 32.5C52.1681 32.5042 54.3186 32.8893 56.3534 33.6376L60.8471 21.2919C53.8415 18.7364 46.1585 18.7364 39.1528 21.2919L43.6465 33.6376C45.6814 32.8893 47.8319 32.5042 50 32.5V32.5Z" fill="#FDB62F"/>
<path d="M61.9475 65.3323L70.3854 75.3887C76.0996 70.5979 79.9407 63.9449 81.2324 56.6008L68.2955 54.3203C67.5416 58.6237 65.2937 62.5232 61.9475 65.3323Z" fill="#0071BC"/>
<path d="M31.4063 51.0937C31.4061 47.8304 32.2699 44.6252 33.9097 41.8039L24.4283 36.3298C20.9507 42.3392 19.7086 49.3843 20.9216 56.2206L31.7045 54.3202C31.5116 53.2554 31.4118 52.1758 31.4063 51.0937V51.0937Z" fill="#E86110"/>
<path d="M68.5938 51.0937C68.5883 52.1758 68.4885 53.2554 68.2956 54.3203L79.0785 56.2207C80.2915 49.3842 79.0495 42.3391 75.5718 36.3296L66.0903 41.8037C67.7303 44.6251 68.594 47.8303 68.5938 51.0937V51.0937Z" fill="#00A99D"/>
<path d="M66.0904 41.804L75.5718 36.33C72.0972 30.3201 66.6222 25.7216 60.1026 23.3372L56.3535 33.6377C60.4562 35.1341 63.9025 38.0246 66.0904 41.804V41.804Z" fill="#39B54A"/>
<path d="M43.6465 33.6377L39.8974 23.3372C33.3778 25.7216 27.9028 30.3201 24.4282 36.33L33.9097 41.804C36.0975 38.0246 39.5439 35.1341 43.6465 33.6377V33.6377Z" fill="#F7931E"/>
<path d="M38.0523 65.3323L31.0203 73.7131C36.3323 78.1857 43.0557 80.6342 49.9998 80.625V69.6875C45.628 69.6922 41.3955 68.1494 38.0523 65.3323V65.3323Z" fill="#C1272D"/>
<path d="M50 69.6875V80.625C56.9442 80.6341 63.6676 78.1854 68.9796 73.7127L61.9476 65.3318C58.6044 68.1491 54.3719 69.6921 50 69.6875V69.6875Z" fill="#662D91"/>
<path d="M47.3838 43.9058L43.6465 33.6382C39.5439 35.1346 36.0975 38.0251 33.9097 41.8045L43.3746 47.269C44.2754 45.7126 45.6945 44.5222 47.3838 43.9058V43.9058Z" fill="#FABE78"/>
<path d="M42.4667 52.4221L31.7043 54.3203C32.4581 58.624 34.706 62.5237 38.0523 65.3329L45.0804 56.9572C43.7025 55.8003 42.777 54.1943 42.4667 52.4221V52.4221Z" fill="#FF8E77"/>
<path d="M56.6252 47.2686L66.0901 41.804C63.9023 38.0246 60.456 35.1341 56.3533 33.6377L52.616 43.9053C54.3054 44.5217 55.7244 45.7121 56.6252 47.2686V47.2686Z" fill="#88D392"/>
<path d="M49.9999 43.4375C50.8927 43.4393 51.7782 43.5979 52.616 43.9059L56.3534 33.6384C52.2536 32.1215 47.7463 32.1215 43.6465 33.6384L47.3838 43.9059C48.2217 43.5979 49.1072 43.4393 49.9999 43.4375V43.4375Z" fill="#FED382"/>
<path d="M42.3439 51.0937C42.3438 49.75 42.6995 48.4302 43.3747 47.2685L33.9098 41.804C31.7 45.5773 30.9174 50.0183 31.7046 54.3197L42.4667 52.4221C42.3873 51.9837 42.3462 51.5392 42.3439 51.0937V51.0937Z" fill="#F1A06F"/>
<path d="M45.0803 56.9568L38.053 65.3325C41.3961 68.1494 45.6282 69.6922 49.9999 69.6876V58.7501C48.1997 58.7521 46.4569 58.1168 45.0803 56.9568Z" fill="#DA7D81"/>
<path d="M66.0902 41.804L56.6252 47.2685C57.5354 48.8224 57.8576 50.6514 57.5333 52.4228L68.2954 54.3204C69.0826 50.019 68.3001 45.578 66.0902 41.8046V41.804Z" fill="#66CBC4"/>
<path d="M50 58.7501V69.6876C54.3719 69.6924 58.6043 68.1495 61.9476 65.3325L54.9202 56.9568C53.5435 58.117 51.8004 58.7523 50 58.7501V58.7501Z" fill="#A381BD"/>
<path d="M54.9194 56.9567L61.9468 65.3323C65.2932 62.5234 67.5414 58.6239 68.2954 54.3203L57.5331 52.4221C57.2227 54.1941 56.2972 55.7999 54.9194 56.9567V56.9567Z" fill="#66AAD7"/>
<path d="M81.4224 55.5235L80.3242 55.3299C81.2681 48.5716 79.9285 41.6916 76.5179 35.7811C73.1072 29.8707 67.8208 25.2682 61.4971 22.7037L61.8748 21.6658C61.9741 21.3932 61.9611 21.0924 61.8386 20.8294C61.7161 20.5665 61.4942 20.363 61.2216 20.2637C53.9741 17.6201 46.0259 17.6201 38.7784 20.2637C38.5059 20.363 38.284 20.5665 38.1615 20.8293C38.039 21.0922 38.026 21.393 38.1252 21.6655L38.5029 22.7035C32.1723 25.2587 26.8792 29.8595 23.4671 35.7725C20.055 41.6855 18.7203 48.5705 19.6758 55.3301L18.5777 55.5235C18.2917 55.575 18.0379 55.7377 17.8717 55.976C17.7055 56.2144 17.6405 56.5088 17.691 56.795C19.0331 64.3886 23.0052 71.2675 28.911 76.2258C29.1082 76.3916 29.3576 76.4825 29.6152 76.4825C29.6467 76.4825 29.6786 76.4811 29.7109 76.4784C29.8541 76.4658 29.9933 76.4252 30.1207 76.3589C30.2482 76.2926 30.3613 76.2018 30.4536 76.0917L31.1699 75.2382C36.5487 79.4381 43.1771 81.7193 50.0014 81.7193C56.8256 81.7193 63.4541 79.4381 68.8329 75.2382L69.5234 76.0612C69.6503 76.217 69.8151 76.3375 70.002 76.4112C70.1247 76.4583 70.255 76.4824 70.3864 76.4825C70.6438 76.4824 70.8929 76.3917 71.09 76.2261C76.9955 71.2675 80.9672 64.3885 82.309 56.795C82.3594 56.5088 82.2945 56.2144 82.1283 55.9761C81.9621 55.7378 81.7083 55.575 81.4224 55.5235V55.5235ZM32.5 51.0938C32.5032 48.3933 33.1328 45.7304 34.3393 43.3145L41.9351 47.6999C41.4817 48.7739 41.2487 49.928 41.25 51.0938C41.25 51.238 41.254 51.3809 41.2609 51.524L32.6218 53.0474C32.5421 52.3992 32.5015 51.7468 32.5 51.0938ZM67.3782 53.0474L58.7391 51.524C58.746 51.3814 58.75 51.238 58.75 51.0938C58.7512 49.9282 58.5182 48.7742 58.0649 47.7004L65.6607 43.3145C66.8672 45.7304 67.4968 48.3933 67.5 51.0938C67.4985 51.7468 67.4579 52.3992 67.3782 53.0474V53.0474ZM50.5986 57.6296C49.255 57.7528 47.9061 57.4589 46.7355 56.7879C45.565 56.117 44.6297 55.1016 44.0569 53.88C43.4842 52.6583 43.3018 51.2899 43.5347 49.9609C43.7676 48.632 44.4044 47.4071 45.3584 46.453C46.3125 45.499 47.5374 44.8621 48.8663 44.6292C50.1953 44.3963 51.5637 44.5786 52.7853 45.1513C54.007 45.724 55.0224 46.6593 55.6934 47.8299C56.3644 49.0004 56.6583 50.3493 56.5352 51.6929C56.3939 53.2197 55.7231 54.649 54.6389 55.7333C53.5547 56.8175 52.1254 57.4884 50.5986 57.6296V57.6296ZM56.9673 45.8082C56.1745 44.7661 55.1594 43.9138 53.9958 43.3134L56.9951 35.0725C60.0743 36.4204 62.7017 38.6241 64.5651 41.4216L56.9673 45.8082ZM51.9414 42.5634C50.6642 42.2706 49.3372 42.2706 48.06 42.5634L45.0606 34.3228C48.2834 33.3584 51.718 33.3584 54.9407 34.3228L51.9414 42.5634ZM43.0056 35.0725L46.0049 43.3134C44.8413 43.9138 43.8262 44.7661 43.0334 45.8082L35.4356 41.4216C37.2988 38.6242 39.926 36.4206 43.0049 35.0725H43.0056ZM41.6399 53.6778C42.0289 54.9287 42.6938 56.0763 43.5856 57.036L37.9405 63.7636C35.5071 61.4424 33.7937 58.4695 33.0049 55.2004L41.6399 53.6778ZM45.2607 58.4427C46.3601 59.1552 47.6063 59.61 48.9063 59.773V68.5588C45.5482 68.3452 42.3227 67.1692 39.6153 65.1713L45.2607 58.4427ZM51.0938 59.773C52.3936 59.6102 53.6399 59.1557 54.7394 58.4434L60.3848 65.1713C57.6773 67.1692 54.4518 68.3452 51.0938 68.5588V59.773ZM62.0596 63.7643L56.4144 57.0367C57.3063 56.0768 57.9712 54.9289 58.3601 53.6778L66.9951 55.2004C66.2064 58.4698 64.493 61.4429 62.0596 63.7643V63.7643ZM78.1702 54.9503L69.5363 53.4278C69.6356 52.6538 69.6861 51.8742 69.6875 51.0938C69.6842 48.0095 68.9551 44.9693 67.5592 42.219L75.1539 37.8341C77.9288 43.0822 78.984 49.0698 78.1702 54.9503V54.9503ZM74.0587 35.9406L66.4634 40.3257C64.3377 37.0854 61.3055 34.5421 57.7447 33.0129L60.749 24.7592C66.2403 27.0116 70.8927 30.9201 74.0587 35.9406V35.9406ZM50 20.4688C53.2053 20.4673 56.3907 20.9716 59.4388 21.963L55.6898 32.263C51.9826 31.1207 48.0174 31.1207 44.3102 32.263L40.5612 21.963C43.6093 20.9716 46.7947 20.4673 50 20.4688V20.4688ZM39.251 24.7592L42.2553 33.0129C38.6945 34.5421 35.6623 37.0854 33.5366 40.3257L25.9413 35.9406C29.1073 30.9201 33.7597 27.0116 39.251 24.7592V24.7592ZM24.8461 37.8341L32.4408 42.219C31.0449 44.9693 30.3158 48.0095 30.3125 51.0938C30.3139 51.8742 30.3644 52.6538 30.4637 53.4278L21.8298 54.9503C21.016 49.0698 22.0712 43.0822 24.8461 37.8341V37.8341ZM29.4922 73.8318C24.7043 69.5115 21.4012 63.7912 20.0529 57.4848L30.8464 55.5817C31.73 59.3566 33.7076 62.787 36.5314 65.4434L29.4922 73.8318ZM38.206 66.8503C41.3113 69.1749 45.0334 70.5317 48.9063 70.7507V79.5101C42.9754 79.2785 37.2652 77.1989 32.5745 73.5621L38.206 66.8503ZM51.0938 79.5101V70.7507C54.9664 70.5316 58.6884 69.1748 61.7936 66.8503L67.4255 73.5621C62.7348 77.1989 57.0246 79.2785 51.0938 79.5101ZM70.5078 73.8318L63.469 65.4434C66.293 62.787 68.2706 59.3566 69.1543 55.5817L79.9478 57.4848C78.5993 63.7913 75.2959 69.5116 70.5078 73.8318V73.8318Z" fill="black"/>
</svg>
