<svg width="100" height="100" viewBox="0 0 100 100" fill="none" xmlns="http://www.w3.org/2000/svg">
<path d="M85.3436 38.0324L56.7815 30.7881L64.026 59.3501L76.0178 62.4021L82.2068 56.213L88.3959 50.024L85.3436 38.0324ZM74.677 48.6837C73.6553 49.7054 71.9992 49.7054 70.9776 48.6837C69.9559 47.6621 69.9559 46.006 70.9776 44.9843C71.9992 43.9627 73.6553 43.9627 74.677 44.9843C75.6985 46.006 75.6985 47.6621 74.677 48.6837Z" fill="#FFD039"/>
<path d="M47.7955 1.45264H4.79443V27.8916H14.146L18.1501 15.9798H38.8942V86.8003H22.0678V98.547H47.7955H73.5232V86.8003H56.6969V15.9798H77.441L81.4451 27.8916H90.7966V1.45264H47.7955Z" fill="#FF434D"/>
<path d="M90.7977 1.45264H85.9551V27.8915H90.7977V1.45264Z" fill="#DD3646"/>
<path d="M13.3076 15.9797L9.30347 27.8916H14.146L18.1501 15.9797H13.3076Z" fill="#DD3646"/>
<path d="M56.6978 15.9805H51.8552V86.8012H56.6978V15.9805Z" fill="#DD3646"/>
<path d="M73.523 86.8013H68.6804V98.5475H73.523V86.8013Z" fill="#DD3646"/>
<path d="M79.0587 69.2121L95.2058 53.0649L90.2797 48.1389L74.1326 64.286L79.0587 69.2121Z" fill="#546F7A"/>
<path d="M67.9002 55.4761L61.9721 32.1047L56.7815 30.7881L64.026 59.3501L76.0178 62.4021L79.8918 58.5281L67.9002 55.4761Z" fill="#FFA304"/>
<path d="M82.9329 65.3367L78.0068 60.4106L74.1334 64.2841L79.0595 69.2102L82.9329 65.3367Z" fill="#475D63"/>
<path d="M60.2931 68.8877H53.2712V75.9096H60.2931V68.8877Z" fill="#FFD039"/>
<path d="M73.5233 85.6486C72.7208 85.6486 72.0706 86.2988 72.0706 87.1013V97.0943H23.5207V88.2533H38.8941C39.6966 88.2533 40.3468 87.6031 40.3468 86.8005V65.9352C40.3468 65.1328 39.6966 64.4824 38.8941 64.4824C38.0916 64.4824 37.4414 65.1328 37.4414 65.9352V85.348H22.068C21.2654 85.348 20.6152 85.9982 20.6152 86.8007V98.5472C20.6152 99.3497 21.2654 99.9999 22.068 99.9999H73.5233C74.3259 99.9999 74.9761 99.3497 74.9761 98.5472V87.1015C74.9761 86.2992 74.3259 85.6486 73.5233 85.6486Z" fill="black"/>
<path d="M37.4413 60.1241C37.4413 60.9266 38.0915 61.5768 38.8941 61.5768C39.6966 61.5768 40.3468 60.9266 40.3468 60.1241V15.9798C40.3468 15.1773 39.6966 14.5271 38.8941 14.5271H18.1502C17.5259 14.5271 16.9718 14.9255 16.773 15.5169L13.1017 26.4386H6.24726V20.4833C6.24726 19.6808 5.59707 19.0306 4.79453 19.0306C3.99199 19.0306 3.3418 19.6808 3.3418 20.4833V27.8913C3.3418 28.6939 3.99199 29.3441 4.79453 29.3441H14.1459C14.7699 29.3441 15.3242 28.9456 15.523 28.3542L19.1945 17.4326H37.4413V60.1241Z" fill="black"/>
<path d="M96.2328 52.0378L91.3065 47.1114C90.7389 46.5442 89.8192 46.5442 89.2518 47.1114L89.1733 47.1899L86.7512 37.6739C86.6198 37.1577 86.2166 36.755 85.7004 36.6241L74.4887 33.7806C73.7104 33.5824 72.9208 34.0536 72.7235 34.8316C72.526 35.6093 72.9967 36.3997 73.7745 36.5968L84.1487 39.2279L86.7834 49.5796L75.5733 60.7895L65.2216 58.155L59.4876 35.5488L69.1157 45.1769C68.4507 46.6716 68.7262 48.4864 69.9501 49.7106C70.7432 50.5038 71.7852 50.9003 72.8272 50.9003C73.8692 50.9003 74.9112 50.5038 75.7044 49.7106C76.4727 48.9421 76.896 47.9204 76.896 46.8335C76.896 45.7468 76.4725 44.7249 75.7044 43.9562C74.4803 42.7321 72.6653 42.4569 71.1708 43.1218L61.5427 33.4937L67.9794 35.1263C68.7561 35.3236 69.5473 34.8533 69.7446 34.0753C69.9419 33.2976 69.4714 32.5072 68.6936 32.3101L58.1499 29.6359V17.4328H76.3969L80.0682 28.3544C80.267 28.946 80.8213 29.3443 81.4454 29.3443H90.7967C91.5992 29.3443 92.2494 28.6941 92.2494 27.8915V1.45273C92.2494 0.650389 91.5992 0 90.7967 0H4.79453C3.99199 0 3.3418 0.650389 3.3418 1.45273V14.6722C3.3418 15.4748 3.99199 16.125 4.79453 16.125C5.59707 16.125 6.24726 15.4748 6.24726 14.6722V2.90566H89.3438V26.4388H82.4897L78.8184 15.5172C78.6196 14.9256 78.0653 14.5273 77.4413 14.5273H56.697C55.8944 14.5273 55.2442 15.1775 55.2442 15.98V67.4354H53.2708C52.4683 67.4354 51.8181 68.0856 51.8181 68.8881V75.9098C51.8181 76.7123 52.4683 77.3625 53.2708 77.3625H60.2923C61.0948 77.3625 61.745 76.7123 61.745 75.9098V68.8881C61.745 68.0856 61.0948 67.4354 60.2923 67.4354H58.1499V42.0921L62.6177 59.7073C62.7485 60.2235 63.1514 60.6266 63.6675 60.7581L73.1833 63.18L73.1048 63.2585C72.5374 63.826 72.5374 64.7458 73.1048 65.3132L78.0311 70.2395C78.3149 70.5231 78.6868 70.6649 79.0584 70.6649C79.4301 70.6649 79.802 70.5231 80.0858 70.2395L96.2324 54.0929C96.8 53.5249 96.8 52.6052 96.2328 52.0378ZM58.8391 74.4571H54.7233V70.3411H58.8391V74.4571ZM73.6495 46.0114C74.1032 46.4649 74.1032 47.2026 73.6495 47.6562C73.1962 48.1099 72.4583 48.1097 72.0049 47.6564C71.5514 47.2026 71.5514 46.4649 72.0049 46.0114C72.2247 45.7915 72.5167 45.6706 72.8272 45.6706C73.138 45.6708 73.4299 45.7917 73.6495 46.0114ZM79.0586 67.1573L76.187 64.2856L77.0253 63.4473C77.0317 63.4411 77.0385 63.4356 77.045 63.4296L89.4229 51.0517C89.4278 51.0468 89.4317 51.0411 89.4362 51.0364L90.2787 50.1937L93.1504 53.0653L79.0586 67.1573Z" fill="black"/>
</svg>
