<svg width="100" height="100" viewBox="0 0 100 100" fill="none" xmlns="http://www.w3.org/2000/svg">
<path d="M50.0001 20.3125C43.8102 20.3076 37.7739 22.2392 32.7367 25.8366C27.6995 29.434 23.9139 34.5171 21.9101 40.3736C19.9062 46.2302 19.7847 52.5669 21.5624 58.496C23.3401 64.4251 26.928 69.6495 31.8235 73.4375H34.1594L65.111 24.4781C60.5415 21.7532 55.3204 20.3139 50.0001 20.3125Z" fill="#C6C6C6"/>
<path d="M65.1109 24.4775L34.1594 73.4369H68.1765C72.0064 70.4773 75.0528 66.6245 77.0493 62.2152C79.0457 57.806 79.9314 52.9748 79.629 48.1441C79.3265 43.3135 77.845 38.6305 75.3141 34.5048C72.7833 30.379 69.2801 26.9363 65.1109 24.4775Z" fill="#A4A4A4"/>
<path d="M50 4.6875C41.0382 4.68956 32.2783 7.34843 24.8273 12.328C17.3764 17.3076 11.569 24.3844 8.13913 32.6638C4.7093 40.9432 3.81102 50.0536 5.55783 58.8435C7.30465 67.6333 11.6181 75.708 17.9531 82.0469L24.5937 75.4062C19.5662 70.3809 16.142 63.9775 14.7541 57.0059C13.3662 50.0343 14.077 42.8077 16.7966 36.24C19.5162 29.6724 24.1224 24.0589 30.0326 20.1093C35.9428 16.1598 42.8916 14.0517 50 14.0517C57.1084 14.0517 64.0571 16.1598 69.9674 20.1093C75.8776 24.0589 80.4838 29.6724 83.2033 36.24C85.9229 42.8077 86.6337 50.0343 85.2458 57.0059C83.8579 63.9775 80.4337 70.3809 75.4062 75.4062L82.0468 82.0469C88.3818 75.708 92.6953 67.6333 94.4421 58.8435C96.1889 50.0536 95.2906 40.9432 91.8608 32.6638C88.431 24.3844 82.6235 17.3076 75.1726 12.328C67.7217 7.34843 58.9617 4.68956 50 4.6875Z" fill="#FFCD00"/>
<path d="M68.7501 79.6875H31.2501V95.3125H68.7501V79.6875Z" fill="url(#paint0_linear)"/>
<path d="M52.1673 56.2232C53.6307 55.4448 54.725 54.117 55.2095 52.5318C55.6939 50.9466 55.5288 49.2339 54.7505 47.7704C53.1301 44.7225 40.4282 34.1514 40.4282 34.1514C40.4282 34.1514 42.0942 50.5921 43.7146 53.64C44.493 55.1034 45.8208 56.1977 47.406 56.6822C48.9912 57.1666 50.7039 57.0015 52.1673 56.2232ZM48.4988 49.3257C48.7717 49.1806 49.0814 49.1197 49.3889 49.1506C49.6964 49.1815 49.9878 49.3029 50.2263 49.4994C50.4648 49.696 50.6396 49.9588 50.7287 50.2547C50.8178 50.5507 50.8172 50.8663 50.7269 51.1619C50.6365 51.4574 50.4606 51.7196 50.2213 51.9151C49.982 52.1107 49.6901 52.2309 49.3825 52.2605C49.0749 52.2902 48.7654 52.2279 48.4932 52.0817C48.2209 51.9355 47.9981 51.7118 47.853 51.4389C47.6585 51.0731 47.6172 50.6449 47.7383 50.2486C47.8594 49.8523 48.133 49.5203 48.4988 49.3257Z" fill="#D51134"/>
<path d="M48.7755 52.2001C49.6007 52.4523 50.4742 51.9877 50.7264 51.1624C50.9786 50.3372 50.514 49.4637 49.6887 49.2115C48.8635 48.9593 47.99 49.4239 47.7378 50.2492C47.4856 51.0744 47.9502 51.9479 48.7755 52.2001Z" fill="#57A4FF"/>
<path d="M68.7501 96.875H31.2501C30.8357 96.875 30.4382 96.7104 30.1452 96.4174C29.8522 96.1243 29.6876 95.7269 29.6876 95.3125V79.6875C29.6876 79.2731 29.8522 78.8757 30.1452 78.5826C30.4382 78.2896 30.8357 78.125 31.2501 78.125H68.7501C69.1645 78.125 69.5619 78.2896 69.8549 78.5826C70.1479 78.8757 70.3126 79.2731 70.3126 79.6875V95.3125C70.3126 95.7269 70.1479 96.1243 69.8549 96.4174C69.5619 96.7104 69.1645 96.875 68.7501 96.875ZM32.8126 93.75H67.1876V81.25H32.8126V93.75Z" fill="black"/>
<path d="M71.0782 60.3656C70.7195 60.1617 70.2947 60.1079 69.8965 60.216C69.4983 60.3241 69.1591 60.5854 68.9528 60.9427C68.7465 61.3 68.6899 61.7244 68.7953 62.1233C68.9008 62.5222 69.1598 62.8632 69.5157 63.0719L74.9095 66.1859L74.9204 66.1969C75.2793 66.4041 75.7057 66.4602 76.106 66.353C76.5063 66.2457 76.8476 65.9839 77.0548 65.625C79.8054 60.875 81.2564 55.4843 81.2618 49.9953C81.2671 44.5063 79.8266 39.1128 77.0852 34.3574C74.3438 29.6021 70.3983 25.6527 65.6456 22.9066C60.8929 20.1606 55.5008 18.7148 50.0118 18.7148C44.5228 18.7148 39.1307 20.1606 34.378 22.9066C29.6253 25.6527 25.6797 29.6021 22.9384 34.3574C20.197 39.1128 18.7565 44.5063 18.7618 49.9953C18.7672 55.4843 20.2182 60.875 22.9688 65.625C23.1773 65.983 23.5195 66.2435 23.92 66.3493C24.3206 66.455 24.7467 66.3974 25.1048 66.1891C25.1204 66.1891 25.1282 66.1656 25.1438 66.1547L30.4923 63.0672C30.6714 62.9653 30.8286 62.8291 30.9549 62.6662C31.0811 62.5034 31.1739 62.3171 31.2279 62.1183C31.2819 61.9194 31.296 61.7118 31.2695 61.5075C31.2429 61.3031 31.1762 61.1061 31.0731 60.9276C30.9701 60.7492 30.8328 60.5929 30.6691 60.4677C30.5054 60.3425 30.3186 60.251 30.1194 60.1983C29.9201 60.1456 29.7125 60.1329 29.5083 60.1608C29.3042 60.1887 29.1075 60.2567 28.9298 60.3609L24.9266 62.6719C23.1671 59.2169 22.1454 55.4336 21.9266 51.5625H26.5626C26.977 51.5625 27.3744 51.3979 27.6674 51.1049C27.9605 50.8118 28.1251 50.4144 28.1251 50C28.1251 49.5856 27.9605 49.1882 27.6674 48.8951C27.3744 48.6021 26.977 48.4375 26.5626 48.4375H21.9548C22.1614 44.5683 23.1725 40.7846 24.9235 37.3281L28.9188 39.6344C29.0966 39.7386 29.2932 39.8066 29.4974 39.8345C29.7015 39.8624 29.9092 39.8497 30.1084 39.797C30.3076 39.7444 30.4945 39.6528 30.6582 39.5276C30.8219 39.4025 30.9592 39.2462 31.0622 39.0677C31.1652 38.8892 31.232 38.6922 31.2585 38.4878C31.2851 38.2835 31.271 38.0759 31.217 37.877C31.163 37.6782 31.0702 37.492 30.9439 37.3291C30.8177 37.1662 30.6605 37.03 30.4813 36.9281L26.4798 34.6172C28.607 31.3779 31.376 28.6094 34.6157 26.4828L36.9251 30.4844C37.0269 30.6635 37.1632 30.8207 37.3261 30.947C37.4889 31.0732 37.6751 31.166 37.874 31.22C38.0729 31.274 38.2804 31.2881 38.4848 31.2616C38.6891 31.235 38.8862 31.1683 39.0647 31.0653C39.2431 30.9622 39.3994 30.8249 39.5246 30.6612C39.6498 30.4975 39.7413 30.3107 39.794 30.1115C39.8467 29.9123 39.8594 29.7046 39.8315 29.5004C39.8036 29.2963 39.7355 29.0996 39.6313 28.9219L37.3282 24.9266C40.7847 23.1755 44.5684 22.1644 48.4376 21.9578V26.5625C48.4376 26.9769 48.6022 27.3743 48.8952 27.6674C49.1882 27.9604 49.5857 28.125 50.0001 28.125C50.4145 28.125 50.8119 27.9604 51.1049 27.6674C51.398 27.3743 51.5626 26.9769 51.5626 26.5625V21.9547C55.4318 22.1613 59.2154 23.1724 62.672 24.9234L60.3657 28.9219C60.2615 29.0996 60.1935 29.2963 60.1655 29.5004C60.1376 29.7046 60.1504 29.9123 60.203 30.1115C60.2557 30.3107 60.3473 30.4975 60.4724 30.6612C60.5976 30.8249 60.7539 30.9622 60.9324 31.0653C61.1108 31.1683 61.3079 31.235 61.5122 31.2616C61.7166 31.2881 61.9242 31.274 62.123 31.22C62.3219 31.166 62.5081 31.0732 62.671 30.947C62.8338 30.8207 62.9701 30.6635 63.072 30.4844L65.3813 26.4828C68.621 28.6094 71.39 31.3779 73.5173 34.6172L69.5157 36.9281C69.3366 37.03 69.1793 37.1662 69.0531 37.3291C68.9268 37.492 68.8341 37.6782 68.7801 37.877C68.7261 38.0759 68.7119 38.2835 68.7385 38.4878C68.7651 38.6922 68.8318 38.8892 68.9348 39.0677C69.0379 39.2462 69.1752 39.4025 69.3389 39.5276C69.5025 39.6528 69.6894 39.7444 69.8886 39.797C70.0878 39.8497 70.2955 39.8624 70.4996 39.8345C70.7038 39.8066 70.9004 39.7386 71.0782 39.6344L75.0735 37.3281C76.8246 40.7846 77.8356 44.5683 78.0423 48.4375H73.4376C73.0232 48.4375 72.6257 48.6021 72.3327 48.8951C72.0397 49.1882 71.8751 49.5856 71.8751 50C71.8751 50.4144 72.0397 50.8118 72.3327 51.1049C72.6257 51.3979 73.0232 51.5625 73.4376 51.5625H78.0735C77.8565 55.4348 76.841 59.2203 75.0907 62.6813L71.0782 60.3656Z" fill="black"/>
<path d="M50.0001 3.125C40.729 3.12638 31.6665 5.87648 23.9582 11.0276C16.2499 16.1788 10.2419 23.4997 6.69368 32.0649C3.14548 40.6301 2.21641 50.0551 4.02392 59.1482C5.83143 68.2414 10.2944 76.5945 16.8485 83.1516C17.1415 83.4445 17.5389 83.609 17.9532 83.609C18.3675 83.609 18.7649 83.4445 19.0579 83.1516L25.6985 76.5109C25.7861 76.4281 25.8539 76.3266 25.897 76.2141C26.0857 75.9204 26.1691 75.5713 26.1333 75.2241C26.0975 74.8769 25.9448 74.5521 25.7001 74.3031C20.8899 69.4968 17.6132 63.3718 16.2845 56.703C14.9559 50.0341 15.635 43.121 18.2359 36.8382C20.8369 30.5553 25.2428 25.185 30.8963 21.4066C36.5499 17.6282 43.197 15.6114 49.997 15.6114C56.7969 15.6114 63.4441 17.6282 69.0976 21.4066C74.7512 25.185 79.1571 30.5553 81.758 36.8382C84.3589 43.121 85.038 50.0341 83.7094 56.703C82.3808 63.3718 79.1041 69.4968 74.2938 74.3031C74.0492 74.5521 73.8964 74.8769 73.8606 75.2241C73.8249 75.5713 73.9082 75.9204 74.097 76.2141C74.14 76.3266 74.2079 76.4281 74.2954 76.5109L80.936 83.1516C81.229 83.4445 81.6264 83.609 82.0407 83.609C82.455 83.609 82.8524 83.4445 83.1454 83.1516C89.6992 76.5948 94.162 68.2423 95.9697 59.1497C97.7774 50.0572 96.8489 40.6328 93.3014 32.0678C89.754 23.5029 83.747 16.1819 76.0396 11.0302C68.3323 5.87861 59.2706 3.12762 50.0001 3.125ZM82.0204 79.8094L77.5876 75.3781C82.5221 70.0187 85.7887 63.338 86.9882 56.1524C88.1878 48.9667 87.2683 41.5872 84.3422 34.9156C81.4161 28.244 76.6101 22.5691 70.5113 18.5844C64.4126 14.5997 57.2852 12.4777 50.0001 12.4777C42.715 12.4777 35.5876 14.5997 29.4889 18.5844C23.3901 22.5691 18.5841 28.244 15.658 34.9156C12.7318 41.5872 11.8124 48.9667 13.0119 56.1524C14.2115 63.338 17.4781 70.0187 22.4126 75.3781L17.9798 79.8094C13.1221 74.5919 9.61293 68.2663 7.75766 61.3832C5.90239 54.5001 5.75721 47.2678 7.33475 40.3158C8.91229 33.3637 12.1648 26.9025 16.8091 21.4942C21.4535 16.086 27.3492 11.8945 33.983 9.28465C40.6169 6.67477 47.788 5.7255 54.8725 6.51942C61.9569 7.31335 68.74 9.82643 74.6316 13.84C80.5232 17.8535 85.3448 23.246 88.6769 29.5481C92.009 35.8503 93.7505 42.8712 93.7501 50C93.7807 61.068 89.5853 71.7302 82.0204 79.8094Z" fill="black"/>
<path d="M68.7501 71.875H31.2501C30.8357 71.875 30.4382 72.0396 30.1452 72.3326C29.8522 72.6257 29.6876 73.0231 29.6876 73.4375C29.6876 73.8519 29.8522 74.2493 30.1452 74.5424C30.4382 74.8354 30.8357 75 31.2501 75H68.7501C69.1645 75 69.5619 74.8354 69.8549 74.5424C70.1479 74.2493 70.3126 73.8519 70.3126 73.4375C70.3126 73.0231 70.1479 72.6257 69.8549 72.3326C69.5619 72.0396 69.1645 71.875 68.7501 71.875Z" fill="black"/>
<path d="M51.9916 49.2378C51.8005 48.8726 51.539 48.5489 51.2223 48.2852C50.9056 48.0215 50.5398 47.8231 50.1461 47.7014C49.7524 47.5796 49.3384 47.5369 48.9282 47.5758C48.5179 47.6147 48.1193 47.7343 47.7555 47.9278C47.3916 48.1214 47.0696 48.385 46.808 48.7034C46.5464 49.0219 46.3504 49.389 46.2313 49.7835C46.1122 50.178 46.0722 50.5922 46.1138 51.0022C46.1554 51.4123 46.2777 51.81 46.4736 52.1726C46.7296 52.6581 47.1104 53.0665 47.577 53.3556C48.1604 53.72 48.8478 53.8817 49.5325 53.8157C50.2172 53.7496 50.861 53.4595 51.364 52.9903C51.8671 52.5211 52.2012 51.899 52.3147 51.2206C52.4282 50.5421 52.3146 49.8451 51.9916 49.2378Z" fill="black"/>
<path d="M56.13 47.0363C54.4164 43.8103 42.7512 34.0508 41.4275 32.9494C41.1892 32.7521 40.8977 32.6301 40.59 32.5986C40.2823 32.5672 39.9721 32.6278 39.6988 32.7727C39.4256 32.9177 39.2015 33.1405 39.055 33.413C38.9085 33.6854 38.8461 33.9952 38.8758 34.3031C39.0493 36.0161 40.624 51.1433 42.3384 54.3679C42.9768 55.5779 43.9236 56.5977 45.0829 57.3241C45.665 57.6867 46.292 57.9719 46.948 58.1723C48.4253 58.6235 50.0031 58.6267 51.4822 58.1814C52.9613 57.7361 54.2752 56.8624 55.2579 55.6706C56.2405 54.4789 56.8479 53.0225 57.0031 51.4857C57.1583 49.9489 56.8545 48.4005 56.13 47.0363ZM51.4363 54.8449C50.8927 55.1346 50.2973 55.3144 49.6842 55.3739C49.0711 55.4334 48.4522 55.3714 47.863 55.1916C47.2739 55.0117 46.7259 54.7175 46.2505 54.3258C45.7751 53.934 45.3816 53.4524 45.0925 52.9085C44.2229 51.2599 43.1284 43.9255 42.4096 37.8831C47.0193 41.8553 52.4965 46.863 53.3694 48.5063C53.9531 49.6033 54.0774 50.8872 53.7149 52.0757C53.3525 53.2643 52.5329 54.2603 51.4363 54.8449Z" fill="black"/>
<defs>
<linearGradient id="paint0_linear" x1="50.0001" y1="79.6875" x2="50.0001" y2="95.3125" gradientUnits="userSpaceOnUse">
<stop stop-color="#36D1DC"/>
<stop offset="1" stop-color="#5B86E5"/>
</linearGradient>
</defs>
</svg>
