<svg width="100" height="100" viewBox="0 0 100 100" fill="none" xmlns="http://www.w3.org/2000/svg">
<path d="M23.4375 29.6875H95.3125V95.3125H23.4375V29.6875Z" fill="#C6C6C6"/>
<path d="M37.4578 95.3125H95.3125V29.6875H95.2703C94.5 61.9812 70.0234 88.7359 37.4578 95.3125Z" fill="#A4A4A4"/>
<path d="M89.0001 78.3433H89.0079C89.8063 78.1251 90.4864 77.6006 90.9004 76.8839C91.3144 76.1671 91.4288 75.3159 91.2188 74.5152L80.886 35.334C79.4961 37.1807 77.4717 38.4476 75.2032 38.8902L85.1876 76.1246C85.4003 76.9235 85.9209 77.6056 86.6355 78.0215C87.3501 78.4373 88.2003 78.5531 89.0001 78.3433Z" fill="#5EAC24"/>
<path d="M57.8674 78.3404H57.8752C58.6749 78.5502 59.5251 78.4344 60.2397 78.0186C60.9543 77.6027 61.4749 76.9206 61.6877 76.1217L71.672 38.8873C69.4035 38.4446 67.3791 37.1778 65.9892 35.3311L55.6564 74.5154C55.4474 75.3157 55.5623 76.166 55.9762 76.8821C56.3901 77.5982 57.0696 78.1222 57.8674 78.3404Z" fill="#5EAC24"/>
<path d="M76.5625 20.8578V7.8125C76.5564 6.98559 76.2252 6.1943 75.6404 5.60957C75.0557 5.02484 74.2644 4.69363 73.4375 4.6875C72.6095 4.68997 71.816 5.02001 71.2305 5.60552C70.645 6.19104 70.315 6.98446 70.3125 7.8125V20.8578C72.3324 20.1307 74.5426 20.1307 76.5625 20.8578Z" fill="#5EAC24"/>
<path d="M54.6875 4.6875H48.4375H42.1875H35.9375H29.6875H23.4375H17.1875H10.9375H4.6875V23.4375H60.9375V4.6875H54.6875Z" fill="#FFCD00"/>
<path d="M10.9376 78.125L17.1876 84.375V45.3125H10.9376V78.125Z" fill="#FFCD00"/>
<path d="M10.9375 45.3125H4.6875V84.375L10.9375 78.125V45.3125Z" fill="#5EAC24"/>
<path d="M4.6875 45.3125H10.9375H17.1875V39.0625H4.6875V45.3125Z" fill="url(#paint0_linear)"/>
<path d="M10.9375 29.6875C9.2799 29.6875 7.69018 30.346 6.51808 31.5181C5.34598 32.6902 4.6875 34.2799 4.6875 35.9375V39.0625H17.1875V35.9375C17.1875 34.2799 16.529 32.6902 15.3569 31.5181C14.1848 30.346 12.5951 29.6875 10.9375 29.6875Z" fill="#D80027"/>
<path d="M82.8126 29.6879C82.8193 31.8842 82.0438 34.0112 80.6251 35.6879C79.2122 37.3713 77.2512 38.503 75.0867 38.8842C72.9222 39.2653 70.6926 38.8715 68.7896 37.772C66.8866 36.6725 65.432 34.9375 64.6812 32.8719C63.9304 30.8063 63.9315 28.5422 64.6843 26.4773C65.4371 24.4125 66.8935 22.679 68.7976 21.5813C70.7016 20.4836 72.9316 20.092 75.0957 20.4753C77.2599 20.8585 79.2197 21.9922 80.631 23.677C82.0423 25.3618 82.8147 27.4901 82.8126 29.6879Z" fill="#FFCD00"/>
<path d="M73.4375 32.8125C75.1634 32.8125 76.5625 31.4134 76.5625 29.6875C76.5625 27.9616 75.1634 26.5625 73.4375 26.5625C71.7116 26.5625 70.3125 27.9616 70.3125 29.6875C70.3125 31.4134 71.7116 32.8125 73.4375 32.8125Z" fill="url(#paint1_linear)"/>
<path d="M32.8125 39.0625H48.4375V51.5625H32.8125V39.0625Z" fill="#56CCF2"/>
<path d="M32.8125 59.375H48.4375V71.875H32.8125V59.375Z" fill="#D80027"/>
<path d="M14.7969 88.5578L17.1875 84.375L10.9375 78.125L4.6875 84.375L7.07813 88.5578C8.24638 87.8653 9.57943 87.4999 10.9375 87.4999C12.2956 87.4999 13.6286 87.8653 14.7969 88.5578Z" fill="#D1D3D4"/>
<path d="M14.7968 88.5579C13.6286 87.8654 12.2955 87.5 10.9375 87.5C9.5794 87.5 8.24634 87.8654 7.07809 88.5579L10.9375 95.3126L14.7968 88.5579Z" fill="#58595B"/>
<path d="M60.9376 3.125H4.68762C4.27322 3.125 3.87579 3.28962 3.58277 3.58265C3.28974 3.87567 3.12512 4.2731 3.12512 4.6875V23.4375C3.12512 23.8519 3.28974 24.2493 3.58277 24.5424C3.87579 24.8354 4.27322 25 4.68762 25H60.9376C61.352 25 61.7494 24.8354 62.0425 24.5424C62.3355 24.2493 62.5001 23.8519 62.5001 23.4375V4.6875C62.5001 4.2731 62.3355 3.87567 62.0425 3.58265C61.7494 3.28962 61.352 3.125 60.9376 3.125ZM59.3751 21.875H6.25012V6.25H9.37512V12.5H12.5001V6.25H15.6251V12.5H18.7501V6.25H21.8751V12.5H25.0001V6.25H28.1251V12.5H31.2501V6.25H34.3751V12.5H37.5001V6.25H40.6251V12.5H43.7501V6.25H46.8751V12.5H50.0001V6.25H53.1251V12.5H56.2501V6.25H59.3751V21.875Z" fill="#231F20"/>
<path d="M48.4376 53.125H32.8126C32.3982 53.125 32.0008 52.9604 31.7077 52.6674C31.4147 52.3743 31.2501 51.9769 31.2501 51.5625V39.0625C31.2501 38.6481 31.4147 38.2507 31.7077 37.9576C32.0008 37.6646 32.3982 37.5 32.8126 37.5H48.4376C48.852 37.5 49.2494 37.6646 49.5424 37.9576C49.8355 38.2507 50.0001 38.6481 50.0001 39.0625V51.5625C50.0001 51.9769 49.8355 52.3743 49.5424 52.6674C49.2494 52.9604 48.852 53.125 48.4376 53.125ZM34.3751 50H46.8751V40.625H34.3751V50Z" fill="#231F20"/>
<path d="M48.4376 73.4375H32.8126C32.3982 73.4375 32.0008 73.2729 31.7077 72.9799C31.4147 72.6868 31.2501 72.2894 31.2501 71.875V59.375C31.2501 58.9606 31.4147 58.5632 31.7077 58.2701C32.0008 57.9771 32.3982 57.8125 32.8126 57.8125H48.4376C48.852 57.8125 49.2494 57.9771 49.5424 58.2701C49.8355 58.5632 50.0001 58.9606 50.0001 59.375V71.875C50.0001 72.2894 49.8355 72.6868 49.5424 72.9799C49.2494 73.2729 48.852 73.4375 48.4376 73.4375ZM34.3751 70.3125H46.8751V60.9375H34.3751V70.3125Z" fill="#231F20"/>
<path d="M48.4376 81.25H32.8126C32.3982 81.25 32.0008 81.0854 31.7077 80.7924C31.4147 80.4993 31.2501 80.1019 31.2501 79.6875C31.2501 79.2731 31.4147 78.8757 31.7077 78.5826C32.0008 78.2896 32.3982 78.125 32.8126 78.125H48.4376C48.852 78.125 49.2494 78.2896 49.5424 78.5826C49.8355 78.8757 50.0001 79.2731 50.0001 79.6875C50.0001 80.1019 49.8355 80.4993 49.5424 80.7924C49.2494 81.0854 48.852 81.25 48.4376 81.25Z" fill="#231F20"/>
<path d="M48.4376 87.5H32.8126C32.3982 87.5 32.0008 87.3354 31.7077 87.0424C31.4147 86.7493 31.2501 86.3519 31.2501 85.9375C31.2501 85.5231 31.4147 85.1257 31.7077 84.8326C32.0008 84.5396 32.3982 84.375 32.8126 84.375H48.4376C48.852 84.375 49.2494 84.5396 49.5424 84.8326C49.8355 85.1257 50.0001 85.5231 50.0001 85.9375C50.0001 86.3519 49.8355 86.7493 49.5424 87.0424C49.2494 87.3354 48.852 87.5 48.4376 87.5Z" fill="#231F20"/>
<path d="M10.9375 28.125C8.86628 28.1275 6.88058 28.9514 5.41599 30.416C3.9514 31.8806 3.1275 33.8663 3.12502 35.9375V84.375C3.12357 84.6491 3.19473 84.9186 3.33127 85.1562L9.58127 96.0938C9.71799 96.3327 9.91543 96.5313 10.1536 96.6695C10.3918 96.8076 10.6622 96.8804 10.9375 96.8804C11.2128 96.8804 11.4833 96.8076 11.7215 96.6695C11.9596 96.5313 12.1571 96.3327 12.2938 96.0938L18.5438 85.1562C18.6803 84.9186 18.7515 84.6491 18.75 84.375V35.9375C18.7475 33.8663 17.9236 31.8806 16.4591 30.416C14.9945 28.9514 13.0088 28.1275 10.9375 28.125ZM15.625 43.75H6.25002V40.625H15.625V43.75ZM6.25002 46.875H9.37502V77.4781L6.25002 80.6031V46.875ZM10.9375 80.3344L15.2391 84.6359L14.1547 86.5328C12.0741 85.7906 9.80091 85.7906 7.72034 86.5328L6.63596 84.6359L10.9375 80.3344ZM12.5 77.4781V46.875H15.625V80.6031L12.5 77.4781ZM6.25002 35.9375C6.25002 34.6943 6.74388 33.502 7.62296 32.6229C8.50204 31.7439 9.69432 31.25 10.9375 31.25C12.1807 31.25 13.373 31.7439 14.2521 32.6229C15.1312 33.502 15.625 34.6943 15.625 35.9375V37.5H6.25002V35.9375ZM10.9375 92.1625L9.2969 89.2922C10.3724 89.0094 11.5027 89.0094 12.5781 89.2922L10.9375 92.1625Z" fill="#231F20"/>
<path d="M73.4376 34.375C74.3647 34.375 75.271 34.1001 76.0419 33.585C76.8127 33.0699 77.4135 32.3379 77.7683 31.4813C78.1231 30.6248 78.2159 29.6823 78.0351 28.773C77.8542 27.8637 77.4077 27.0285 76.7522 26.3729C76.0966 25.7174 75.2614 25.2709 74.3521 25.0901C73.4428 24.9092 72.5003 25.002 71.6438 25.3568C70.7873 25.7116 70.0552 26.3124 69.5401 27.0833C69.025 27.8541 68.7501 28.7604 68.7501 29.6875C68.7501 30.9307 69.244 32.123 70.1231 33.0021C71.0021 33.8811 72.1944 34.375 73.4376 34.375ZM73.4376 28.125C73.7467 28.125 74.0487 28.2166 74.3057 28.3883C74.5627 28.56 74.7629 28.804 74.8812 29.0896C74.9994 29.3751 75.0304 29.6892 74.9701 29.9923C74.9098 30.2954 74.761 30.5738 74.5425 30.7924C74.324 31.0109 74.0456 31.1597 73.7425 31.22C73.4394 31.2803 73.1252 31.2493 72.8397 31.1311C72.5542 31.0128 72.3101 30.8125 72.1385 30.5556C71.9668 30.2986 71.8751 29.9965 71.8751 29.6875C71.8751 29.2731 72.0397 28.8757 72.3328 28.5826C72.6258 28.2896 73.0232 28.125 73.4376 28.125Z" fill="#231F20"/>
<path d="M95.3126 28.125H84.2501C83.9903 26.344 83.2955 24.6544 82.2272 23.2059C81.1589 21.7574 79.75 20.5946 78.1251 19.8203V7.8125C78.119 6.5712 77.6231 5.38249 76.7454 4.50474C75.8676 3.627 74.6789 3.13116 73.4376 3.125C72.1944 3.125 71.0021 3.61886 70.1231 4.49794C69.244 5.37701 68.7501 6.5693 68.7501 7.8125V19.8203C67.1253 20.5946 65.7164 21.7574 64.648 23.2059C63.5797 24.6544 62.8849 26.344 62.6251 28.125H23.4376C23.0232 28.125 22.6258 28.2896 22.3328 28.5826C22.0397 28.8757 21.8751 29.2731 21.8751 29.6875V95.3125C21.8751 95.7269 22.0397 96.1243 22.3328 96.4174C22.6258 96.7104 23.0232 96.875 23.4376 96.875H95.3126C95.727 96.875 96.1245 96.7104 96.4175 96.4174C96.7105 96.1243 96.8751 95.7269 96.8751 95.3125V29.6875C96.8751 29.2731 96.7105 28.8757 96.4175 28.5826C96.1245 28.2896 95.727 28.125 95.3126 28.125ZM88.6111 76.8281H88.6017C88.2032 76.9337 87.7792 76.8775 87.422 76.6719C87.2453 76.5692 87.0908 76.4323 86.9676 76.2692C86.8445 76.1061 86.7551 75.92 86.7048 75.7219L77.1111 39.9766C78.1214 39.6146 79.0728 39.1055 79.9345 38.4656L89.7079 74.9141C89.8118 75.3132 89.7551 75.7371 89.55 76.0949C89.345 76.4527 89.0079 76.7159 88.6111 76.8281ZM73.4376 51.5625C73.0232 51.5625 72.6258 51.7271 72.3328 52.0202C72.0397 52.3132 71.8751 52.7106 71.8751 53.125V54.5938C70.9664 54.5393 70.0614 54.435 69.1642 54.2813L72.8329 40.5969C73.0345 40.6078 73.2329 40.6281 73.4376 40.6281C73.6423 40.6281 73.8408 40.6078 74.0423 40.5969L77.7111 54.2813C76.8138 54.435 75.9088 54.5393 75.0001 54.5938V53.125C75.0001 52.7106 74.8355 52.3132 74.5425 52.0202C74.2495 51.7271 73.852 51.5625 73.4376 51.5625ZM71.8751 7.8125C71.8751 7.3981 72.0397 7.00067 72.3328 6.70765C72.6258 6.41462 73.0232 6.25 73.4376 6.25C73.6459 6.24933 73.8521 6.29141 74.0435 6.37365C74.2348 6.4559 74.4073 6.57654 74.5501 6.72813C74.6944 6.86916 74.8087 7.03794 74.886 7.2243C74.9633 7.41066 75.0022 7.61074 75.0001 7.8125V18.875C73.9651 18.7083 72.9101 18.7083 71.8751 18.875V7.8125ZM73.4376 21.875C74.9828 21.875 76.4933 22.3332 77.778 23.1916C79.0628 24.0501 80.0641 25.2702 80.6554 26.6978C81.2467 28.1253 81.4015 29.6962 81.1 31.2116C80.7986 32.7271 80.0545 34.1192 78.9619 35.2118C77.8693 36.3044 76.4772 37.0484 74.9618 37.3499C73.4463 37.6513 71.8755 37.4966 70.4479 36.9053C69.0204 36.314 67.8002 35.3127 66.9418 34.0279C66.0833 32.7431 65.6251 31.2327 65.6251 29.6875C65.6276 27.6163 66.4515 25.6306 67.9161 24.166C69.3807 22.7014 71.3664 21.8775 73.4376 21.875ZM66.9407 38.4656C67.8024 39.1055 68.7538 39.6146 69.7642 39.9766L60.1767 75.7297C60.0695 76.1251 59.8113 76.4627 59.4577 76.6696C59.1041 76.8765 58.6833 76.9362 58.2861 76.8359H58.272C57.8751 76.7254 57.5372 76.4638 57.3308 76.1072C57.1243 75.7507 57.0656 75.3274 57.1673 74.9281L66.9407 38.4656ZM93.7501 93.75H25.0001V31.25H62.6251C62.8589 32.8993 63.4689 34.4726 64.4079 35.8484L54.1454 74.1172C53.9031 75.0497 53.954 76.0341 54.2912 76.9366C54.6284 77.8391 55.2355 78.6158 56.0298 79.1609L54.7407 83.9703C54.6876 84.1685 54.674 84.3753 54.7007 84.5788C54.7275 84.7822 54.794 84.9784 54.8966 85.1562C54.9992 85.3339 55.1358 85.4897 55.2986 85.6147C55.4614 85.7396 55.6472 85.8313 55.8454 85.8844C55.9775 85.9195 56.1135 85.9373 56.2501 85.9375C56.5941 85.9376 56.9284 85.8241 57.2013 85.6148C57.4742 85.4054 57.6704 85.1119 57.7595 84.7797L59.0501 79.9625C60.0163 79.9026 60.9385 79.5374 61.6838 78.9196C62.429 78.3018 62.9589 77.4633 63.197 76.525L68.3407 57.3438C69.5087 57.5598 70.6892 57.7012 71.8751 57.7672V59.375C71.8751 59.7894 72.0397 60.1868 72.3328 60.4799C72.6258 60.7729 73.0232 60.9375 73.4376 60.9375C73.852 60.9375 74.2495 60.7729 74.5425 60.4799C74.8355 60.1868 75.0001 59.7894 75.0001 59.375V57.7672C76.186 57.7023 77.3665 57.5619 78.5345 57.3469L83.6767 76.5203C83.914 77.4593 84.4438 78.2985 85.1896 78.9165C85.9354 79.5344 86.8584 79.8991 87.8251 79.9578L89.1157 84.7766C89.2042 85.1094 89.4002 85.4036 89.6731 85.6135C89.9461 85.8235 90.2808 85.9374 90.6251 85.9375C90.7617 85.9373 90.8978 85.9195 91.0298 85.8844C91.228 85.8313 91.4139 85.7396 91.5767 85.6147C91.7395 85.4897 91.8761 85.3339 91.9786 85.1562C92.0812 84.9784 92.1478 84.7822 92.1745 84.5788C92.2013 84.3753 92.1877 84.1685 92.1345 83.9703L90.8454 79.1625C91.6382 78.6144 92.2433 77.8357 92.5787 76.9321C92.9141 76.0285 92.9636 75.0436 92.7204 74.1109L82.4673 35.8484C83.4063 34.4726 84.0163 32.8993 84.2501 31.25H93.7501V93.75Z" fill="#231F20"/>
<defs>
<linearGradient id="paint0_linear" x1="10.9375" y1="39.0625" x2="10.9375" y2="45.3125" gradientUnits="userSpaceOnUse">
<stop stop-color="#56CCF2"/>
<stop offset="1" stop-color="#2F80ED"/>
</linearGradient>
<linearGradient id="paint1_linear" x1="73.4375" y1="26.5625" x2="73.4375" y2="32.8125" gradientUnits="userSpaceOnUse">
<stop stop-color="#56CCF2"/>
<stop offset="1" stop-color="#2F80ED"/>
</linearGradient>
</defs>
</svg>
