<svg width="100" height="100" viewBox="0 0 100 100" fill="none" xmlns="http://www.w3.org/2000/svg">
<path d="M82.8125 18.75H79.6875V23.4375H95.3125V12.5H82.8125V18.75Z" fill="#FF5023"/>
<path d="M28.125 74.2188L23.4375 67.1875L18.75 74.2188L9.375 88.2812L4.6875 95.3125H17.1875L29.6875 76.5625L28.125 74.2188Z" fill="#7E7E7E"/>
<path d="M46.875 64.8391V64.8438V64.8391L42.1875 57.8125L37.5 64.8438L29.6875 76.5625L17.1875 95.3125H39.0625L51.5141 71.7938L46.875 64.8391Z" fill="#A4A4A4"/>
<path d="M51.5156 71.7969L51.5141 71.7938L39.0625 95.3125H95.3125L67.1875 42.1875L51.5141 71.7938L51.5156 71.7969Z" fill="#C6C6C6"/>
<path d="M82.8125 12.5V7.8125H67.1875V18.75H79.6875H82.8125V12.5Z" fill="#FF5023"/>
<path d="M9.37499 45.3123L39.9312 14.7561L43.2469 18.0701L44.3516 5.91699L32.1984 7.02168L35.5125 10.3357L4.95624 40.8936L9.37499 45.3123Z" fill="#D80027"/>
<path d="M51.5625 28.125H46.875V64.8391L51.5141 71.7938L51.5625 71.7016L56.25 62.8469V28.125H51.5625Z" fill="url(#paint0_linear)"/>
<path d="M32.8125 43.75H28.125V74.2187L29.6875 76.5625L32.8125 71.875L37.5 64.8437V43.75H32.8125Z" fill="#FF9811"/>
<path d="M14.0625 56.25H9.375V88.2813L14.0625 81.25L18.75 74.2188V56.25H14.0625Z" fill="#FFCD00"/>
<path d="M28.125 43.75V74.2187L29.6875 76.5625L32.8125 71.875V43.75H28.125Z" fill="#CC7400"/>
<path d="M9.375 56.25V88.2813L14.0625 81.25V56.25H9.375Z" fill="#CCA400"/>
<path d="M79.6875 25H95.3125C95.7269 25 96.1243 24.8354 96.4174 24.5424C96.7104 24.2493 96.875 23.8519 96.875 23.4375V12.5C96.875 12.0856 96.7104 11.6882 96.4174 11.3951C96.1243 11.1021 95.7269 10.9375 95.3125 10.9375H84.375V7.8125C84.375 7.3981 84.2104 7.00067 83.9174 6.70765C83.6243 6.41462 83.2269 6.25 82.8125 6.25H68.75V4.6875C68.75 4.2731 68.5854 3.87567 68.2924 3.58265C67.9993 3.28962 67.6019 3.125 67.1875 3.125C66.7731 3.125 66.3757 3.28962 66.0827 3.58265C65.7896 3.87567 65.625 4.2731 65.625 4.6875V41.8L57.8125 56.5625V28.125C57.8125 27.7106 57.6479 27.3132 57.3549 27.0201C57.0618 26.7271 56.6644 26.5625 56.25 26.5625H46.875C46.4606 26.5625 46.0632 26.7271 45.7702 27.0201C45.4771 27.3132 45.3125 27.7106 45.3125 28.125V59.6875L43.4875 56.9516C43.3363 56.7495 43.1401 56.5854 42.9145 56.4724C42.6888 56.3594 42.4399 56.3005 42.1875 56.3005C41.9351 56.3005 41.6862 56.3594 41.4606 56.4724C41.2349 56.5854 41.0387 56.7495 40.8875 56.9516L39.0625 59.6875V43.75C39.0625 43.3356 38.8979 42.9382 38.6049 42.6451C38.3118 42.3521 37.9144 42.1875 37.5 42.1875H28.125C27.7106 42.1875 27.3132 42.3521 27.0202 42.6451C26.7271 42.9382 26.5625 43.3356 26.5625 43.75V69.0625L24.7375 66.325C24.5863 66.1229 24.3901 65.9588 24.1645 65.8458C23.9388 65.7328 23.6899 65.674 23.4375 65.674C23.1851 65.674 22.9362 65.7328 22.7106 65.8458C22.4849 65.9588 22.2887 66.1229 22.1375 66.325L20.3125 69.0625V56.25C20.3125 55.8356 20.1479 55.4382 19.8549 55.1452C19.5618 54.8521 19.1644 54.6875 18.75 54.6875H9.37502C8.96062 54.6875 8.56319 54.8521 8.27017 55.1452C7.97714 55.4382 7.81252 55.8356 7.81252 56.25V87.8125L3.38752 94.4453C3.23052 94.6806 3.14035 94.9542 3.12663 95.2367C3.1129 95.5193 3.17614 95.8002 3.30959 96.0496C3.44304 96.2991 3.64171 96.5076 3.88438 96.6529C4.12706 96.7983 4.40464 96.8751 4.68752 96.875H95.3125C95.582 96.8751 95.8469 96.8055 96.0815 96.6729C96.3161 96.5404 96.5125 96.3494 96.6515 96.1186C96.7905 95.8877 96.8674 95.6248 96.8748 95.3555C96.8822 95.0861 96.8199 94.8194 96.6938 94.5813L68.75 41.8V20.3125H78.125V23.4375C78.125 23.8519 78.2896 24.2493 78.5826 24.5424C78.8757 24.8354 79.2731 25 79.6875 25ZM48.4375 29.6875H54.6875V62.4594L51.3594 68.75L48.4375 64.375V29.6875ZM29.6875 45.3125H35.9375V64.375L29.6875 73.75V45.3125ZM10.9375 57.8125H17.1875V73.75L10.9375 83.125V57.8125ZM23.4375 70L27.8125 76.5625L16.3516 93.75H7.60158L23.4375 70ZM30.9891 77.4219V77.4125L42.1875 60.625L49.6969 71.875L38.125 93.75H20.1063L30.9891 77.4219ZM92.7172 93.75H41.6578L67.1875 45.5266L92.7172 93.75ZM84.375 18.75V14.0625H93.75V21.875H81.25V20.3125H82.8125C83.2269 20.3125 83.6243 20.1479 83.9174 19.8549C84.2104 19.5618 84.375 19.1644 84.375 18.75ZM68.75 17.1875V9.375H81.25V17.1875H68.75Z" fill="#231F20"/>
<path d="M9.37502 46.8748C8.96065 46.8748 8.56329 46.7101 8.27033 46.417L3.85158 41.9967C3.55866 41.7037 3.3941 41.3064 3.3941 40.892C3.3941 40.4777 3.55866 40.0804 3.85158 39.7873L33.3016 10.3358L31.0938 8.12485C30.8852 7.91463 30.7406 7.64945 30.677 7.36023C30.6133 7.07101 30.6332 6.76965 30.7342 6.49128C30.8352 6.2129 31.0133 5.96897 31.2476 5.78791C31.482 5.60684 31.763 5.49611 32.0578 5.4686L44.211 4.36392C44.4391 4.34305 44.669 4.37261 44.8844 4.45048C45.0999 4.52836 45.2955 4.65265 45.4576 4.81456C45.6197 4.97647 45.7441 5.17203 45.8222 5.38739C45.9003 5.60275 45.93 5.83265 45.9094 6.06079L44.8047 18.2139C44.7772 18.5088 44.6665 18.7898 44.4854 19.0241C44.3043 19.2584 44.0604 19.4365 43.782 19.5375C43.5037 19.6386 43.2023 19.6584 42.9131 19.5948C42.6239 19.5311 42.3587 19.3866 42.1485 19.178L39.9391 16.9686L10.4797 46.417C10.1867 46.7101 9.78939 46.8748 9.37502 46.8748ZM7.16564 40.892L9.37502 43.103L38.8281 13.6514C39.1212 13.3585 39.5185 13.1939 39.9328 13.1939C40.3471 13.1939 40.7445 13.3585 41.0375 13.6514L41.9922 14.6061L42.625 7.64204L35.661 8.2811L36.6172 9.23579C36.9101 9.5288 37.0747 9.92616 37.0747 10.3405C37.0747 10.7548 36.9101 11.1522 36.6172 11.4452L7.16564 40.892Z" fill="#231F20"/>
<defs>
<linearGradient id="paint0_linear" x1="51.5625" y1="28.125" x2="51.5625" y2="71.7938" gradientUnits="userSpaceOnUse">
<stop stop-color="#36D1DC"/>
<stop offset="1" stop-color="#5B86E5"/>
</linearGradient>
</defs>
</svg>
