<svg width="100" height="100" viewBox="0 0 100 100" fill="none" xmlns="http://www.w3.org/2000/svg">
<path d="M56.25 71.8746V51.8308C56.2764 50.2445 55.7155 48.7044 54.6752 47.5066C53.6348 46.3088 52.1884 45.5377 50.614 45.3418C49.7457 45.256 48.869 45.3531 48.0404 45.6267C47.2118 45.9003 46.4497 46.3443 45.8031 46.9303C45.1565 47.5162 44.6397 48.2311 44.2861 49.0288C43.9325 49.8265 43.7499 50.6895 43.75 51.5621V56.7496L38.2187 51.2183C38.4066 52.4947 38.2736 53.7978 37.8317 55.0099C37.3898 56.222 36.6529 57.3049 35.6876 58.1609C34.7223 59.0168 33.559 59.6189 32.3028 59.9126C31.0465 60.2063 29.7369 60.1825 28.4922 59.8433L24.1781 72.7871C23.701 74.2166 23.7565 75.7703 24.3344 77.1621L31.25 93.7496V96.8746H56.25V92.1871L57.6968 89.2933C58.7122 87.2624 59.2728 85.0345 59.3394 82.7648C59.4061 80.4951 58.9772 78.2382 58.0828 76.1511L56.25 71.8746Z" fill="#FFBCAB"/>
<path d="M60.328 51.2188L59.9843 51.5625H60.2968C60.3124 51.4484 60.3124 51.3328 60.328 51.2188Z" fill="#57A4FF"/>
<path d="M62.5313 57.8438C61.7165 57.028 61.0934 56.0411 60.7072 54.9547C60.321 53.8683 60.1814 52.7095 60.2984 51.5625H59.9859L56.25 55.2969V65.625C56.25 67.697 57.0731 69.6841 58.5382 71.1493C60.0034 72.6144 61.9905 73.4375 64.0625 73.4375H65.625C66.4538 73.4375 67.2487 73.1083 67.8347 72.5222C68.4208 71.9362 68.75 71.1413 68.75 70.3125V60.0625C67.6141 60.1727 66.4678 60.0309 65.3929 59.6474C64.318 59.2639 63.3409 58.6481 62.5313 57.8438Z" fill="#E5A99A"/>
<path d="M66.9532 44.5928L78 33.5303L68.0625 23.5928C67.8203 25.2678 67.0418 26.8192 65.8438 28.0146C64.3688 29.4604 62.3857 30.2702 60.3203 30.2702C58.2549 30.2702 56.2719 29.4604 54.7969 28.0146C53.7723 26.9874 53.0536 25.6954 52.7211 24.2831C52.3887 22.8708 52.4556 21.3938 52.9144 20.0174C53.3732 18.6409 54.2059 17.4192 55.3192 16.4888C56.4325 15.5584 57.7827 14.9561 59.2188 14.749L49.2813 4.81152L38.2188 15.8584C38.4515 14.235 38.1674 12.5795 37.4067 11.1265C36.6461 9.67356 35.4475 8.49682 33.9808 7.76304C32.5141 7.02926 30.8537 6.77566 29.2348 7.03817C27.6159 7.30068 26.1207 8.06599 24.961 9.22566C23.8014 10.3853 23.0361 11.8805 22.7736 13.4994C22.511 15.1183 22.7646 16.7787 23.4984 18.2454C24.2322 19.7121 25.4089 20.9107 26.8619 21.6714C28.3149 22.432 29.9704 22.7161 31.5938 22.4834L20.5469 33.5303L31.5938 44.5928C29.9704 44.3601 28.3149 44.6442 26.8619 45.4048C25.4089 46.1654 24.2322 47.364 23.4984 48.8307C22.7646 50.2975 22.511 51.9579 22.7736 53.5768C23.0361 55.1956 23.8014 56.6908 24.961 57.8505C26.1207 59.0102 27.6159 59.7755 29.2348 60.038C30.8537 60.3005 32.5141 60.0469 33.9808 59.3131C35.4475 58.5793 36.6461 57.4026 37.4067 55.9496C38.1674 54.4967 38.4515 52.8412 38.2188 51.2178L43.75 56.749V51.5615C43.75 49.9039 44.4085 48.3142 45.5806 47.1421C46.7527 45.97 48.3424 45.3115 50 45.3115C51.6576 45.3115 53.2473 45.97 54.4194 47.1421C55.5915 48.3142 56.25 49.9039 56.25 51.5615V55.2959L60.3282 51.2178C60.0955 52.8412 60.3796 54.4967 61.1402 55.9496C61.9008 57.4026 63.0994 58.5793 64.5661 59.3131C66.0328 60.0469 67.6933 60.3005 69.3121 60.038C70.931 59.7755 72.4262 59.0102 73.5859 57.8505C74.7456 56.6908 75.5109 55.1956 75.7734 53.5768C76.0359 51.9579 75.7823 50.2975 75.0485 48.8307C74.3147 47.364 73.138 46.1654 71.685 45.4048C70.2321 44.6442 68.5766 44.3601 66.9532 44.5928Z" fill="url(#paint0_linear)"/>
<path d="M79.1047 32.426L69.1672 22.4885C68.9625 22.2821 68.7042 22.1369 68.4214 22.0692C68.1386 22.0016 67.8426 22.0141 67.5666 22.1055C67.2906 22.197 67.0455 22.3636 66.8591 22.5866C66.6726 22.8097 66.552 23.0804 66.511 23.3682C66.3467 24.5172 65.8657 25.5976 65.1219 26.4886C64.3781 27.3796 63.401 28.0459 62.2999 28.4128C61.1988 28.7798 60.0173 28.8328 58.8877 28.5661C57.7582 28.2994 56.7252 27.7235 55.9045 26.9028C55.0838 26.0821 54.5079 25.0491 54.2412 23.9196C53.9745 22.79 54.0276 21.6085 54.3945 20.5074C54.7614 19.4063 55.4277 18.4292 56.3187 17.6854C57.2097 16.9416 58.2902 16.4607 59.4391 16.2963C59.7269 16.2553 59.9976 16.1347 60.2207 15.9483C60.4438 15.7618 60.6104 15.5167 60.7018 15.2407C60.7932 14.9647 60.8058 14.6687 60.7381 14.3859C60.6704 14.1031 60.5252 13.8448 60.3188 13.6401L50.3813 3.7026C50.0883 3.40967 49.6909 3.24512 49.2766 3.24512C48.8623 3.24512 48.4649 3.40967 48.1719 3.7026L39.5422 12.3292C39.1173 10.7388 38.2812 9.2884 37.1178 8.12376C35.9545 6.95911 34.5051 6.12129 32.9152 5.69457C31.3254 5.26784 29.6512 5.26725 28.061 5.69285C26.4709 6.11845 25.0208 6.95523 23.8567 8.11906C22.6926 9.28288 21.8554 10.7327 21.4293 12.3227C21.0033 13.9128 21.0035 15.587 21.4297 17.1769C21.856 18.7669 22.6935 20.2166 23.8578 21.3802C25.0221 22.5438 26.4723 23.3804 28.0625 23.8057L19.4422 32.426C19.1493 32.719 18.9847 33.1164 18.9847 33.5307C18.9847 33.945 19.1493 34.3424 19.4422 34.6354L28.0657 43.2698C26.1726 43.7783 24.4866 44.8674 23.2447 46.3839C22.0028 47.9004 21.2674 49.768 21.1421 51.7242C21.0167 53.6803 21.5076 55.6265 22.5458 57.2891C23.5839 58.9518 25.1171 60.2472 26.9297 60.9932L23.2813 71.5167C22.7966 72.6086 22.5688 73.7971 22.6154 74.9909C22.662 76.1846 22.9817 77.3518 23.55 78.4026L29.0344 91.3713C29.0547 91.4212 29.0782 91.4698 29.1047 91.5167C29.4888 92.2206 29.6893 93.01 29.6875 93.812V95.312C29.6875 95.7264 29.8522 96.1238 30.1452 96.4168C30.4382 96.7099 30.8356 96.8745 31.25 96.8745C31.6644 96.8745 32.0619 96.7099 32.3549 96.4168C32.6479 96.1238 32.8125 95.7264 32.8125 95.312V93.812C32.8109 92.5121 32.4889 91.2327 31.875 90.087L26.3891 77.1182C26.3673 77.0646 26.3423 77.0125 26.3141 76.962C25.956 76.3084 25.7569 75.5796 25.733 74.8347C25.7091 74.0897 25.8611 73.3497 26.1766 72.6745L29.9985 61.6745C30.1625 61.6745 30.3235 61.6979 30.4891 61.6979C32.5513 61.6997 34.5564 61.0203 36.1927 59.7651C37.829 58.51 39.0048 56.7495 39.5375 54.7573L42.1875 57.3963V73.437C42.1875 73.8514 42.3522 74.2488 42.6452 74.5418C42.9382 74.8349 43.3356 74.9995 43.75 74.9995C44.1644 74.9995 44.5619 74.8349 44.8549 74.5418C45.1479 74.2488 45.3125 73.8514 45.3125 73.437V51.562C45.3125 50.3188 45.8064 49.1265 46.6855 48.2474C47.5645 47.3683 48.7568 46.8745 50 46.8745C51.2432 46.8745 52.4355 47.3683 53.3146 48.2474C54.1937 49.1265 54.6875 50.3188 54.6875 51.562V70.4854C54.6903 72.6682 55.1983 74.8208 56.1719 76.7745L56.7438 77.9213C57.4998 79.4408 57.8933 81.1148 57.8933 82.812C57.8933 84.5091 57.4998 86.1832 56.7438 87.7026L55.1813 90.8276C54.8569 91.479 54.6879 92.1968 54.6875 92.9245V95.312C54.6875 95.7264 54.8522 96.1238 55.1452 96.4168C55.4382 96.7099 55.8356 96.8745 56.25 96.8745C56.6644 96.8745 57.0619 96.7099 57.3549 96.4168C57.6479 96.1238 57.8125 95.7264 57.8125 95.312V92.9245C57.8109 92.6828 57.8644 92.444 57.9688 92.226L59.5313 89.101C60.5032 87.1473 61.009 84.9949 61.009 82.8128C61.009 80.6306 60.5032 78.4782 59.5313 76.5245L58.9594 75.3776C58.3992 74.2524 58.0361 73.0396 57.886 71.7917C58.9008 72.8101 60.107 73.6179 61.4352 74.1684C62.7633 74.7189 64.1873 75.0014 65.625 74.9995C66.8682 74.9995 68.0605 74.5056 68.9396 73.6265C69.8187 72.7475 70.3125 71.5552 70.3125 70.312V61.4057C72.3292 60.9067 74.1227 59.7514 75.4109 58.1215C76.699 56.4916 77.4087 54.4796 77.4282 52.4022C77.4477 50.3248 76.7759 48.2999 75.5186 46.6461C74.2613 44.9923 72.4898 43.8034 70.4828 43.2667L79.1047 34.6323C79.3967 34.3394 79.5606 33.9427 79.5606 33.5292C79.5606 33.1156 79.3967 32.7189 79.1047 32.426ZM65.625 71.8745C63.5538 71.872 61.5681 71.0481 60.1035 69.5835C58.6389 68.1189 57.815 66.1332 57.8125 64.062V55.937L59.0063 54.7432C59.4987 56.5936 60.5474 58.2481 62.0105 59.4833C63.4737 60.7184 65.2808 61.4745 67.1875 61.6495V70.312C67.1875 70.7264 67.0229 71.1238 66.7299 71.4168C66.4369 71.7099 66.0394 71.8745 65.625 71.8745ZM65.8485 43.4885C65.614 43.7203 65.4588 44.0204 65.4052 44.3457C65.3516 44.6711 65.4023 45.005 65.5501 45.2998C65.6978 45.5946 65.935 45.8351 66.2277 45.9868C66.5204 46.1386 66.8537 46.1939 67.1797 46.1448C68.4779 45.9611 69.8009 46.1902 70.9616 46.7998C72.1223 47.4094 73.062 48.3686 73.6475 49.5417C74.2331 50.7147 74.435 52.0422 74.2245 53.3363C74.0141 54.6303 73.402 55.8255 72.475 56.7525C71.5479 57.6796 70.3528 58.2917 69.0587 58.5021C67.7646 58.7125 66.4371 58.5107 65.2641 57.9251C64.0911 57.3395 63.1319 56.3999 62.5223 55.2392C61.9127 54.0785 61.6835 52.7554 61.8672 51.4573C61.9163 51.1312 61.861 50.798 61.7093 50.5053C61.5575 50.2126 61.317 49.9754 61.0222 49.8276C60.7275 49.6799 60.3935 49.6292 60.0682 49.6828C59.7428 49.7364 59.4428 49.8915 59.211 50.126L57.8125 51.5276C57.808 49.4556 56.9805 47.4703 55.5121 46.0084C54.0438 44.5465 52.0549 43.7277 49.9828 43.7323C47.9108 43.7368 45.9255 44.5643 44.4636 46.0327C43.0017 47.501 42.183 49.49 42.1875 51.562V52.9776L39.3235 50.1135C39.0917 49.8791 38.7916 49.7239 38.4663 49.6703C38.1409 49.6167 37.807 49.6674 37.5122 49.8151C37.2174 49.9629 36.9769 50.2001 36.8252 50.4928C36.6734 50.7855 36.6181 51.1187 36.6672 51.4448C36.8509 52.7429 36.6218 54.066 36.0122 55.2267C35.4026 56.3874 34.4434 57.327 33.2703 57.9126C32.0973 58.4982 30.7698 58.7 29.4757 58.4896C28.1817 58.2792 26.9865 57.6671 26.0595 56.74C25.1324 55.813 24.5204 54.6178 24.3099 53.3238C24.0995 52.0297 24.3013 50.7022 24.8869 49.5292C25.4725 48.3561 26.4121 47.3969 27.5728 46.7873C28.7335 46.1777 30.0566 45.9486 31.3547 46.1323C31.6809 46.1818 32.0144 46.1268 32.3074 45.9752C32.6004 45.8236 32.8379 45.5831 32.9859 45.2882C33.1338 44.9934 33.1847 44.6592 33.1311 44.3337C33.0775 44.0081 32.9222 43.7079 32.6875 43.476L22.7547 33.5307L32.6985 23.5932C32.933 23.3614 33.0881 23.0614 33.1417 22.736C33.1953 22.4107 33.1446 22.0767 32.9969 21.782C32.8491 21.4872 32.6119 21.2467 32.3192 21.0949C32.0265 20.9431 31.6933 20.8879 31.3672 20.937C30.0708 21.1182 28.7502 20.8877 27.5918 20.2782C26.4333 19.6686 25.4955 18.7107 24.9106 17.5396C24.3258 16.3685 24.1234 15.0433 24.332 13.751C24.5407 12.4587 25.1498 11.2645 26.0735 10.337C27.2647 9.20213 28.8469 8.56911 30.4922 8.56911C32.1375 8.56911 33.7197 9.20213 34.911 10.337C35.5947 11.0225 36.1099 11.8576 36.4157 12.7763C36.7216 13.6949 36.8098 14.6721 36.6735 15.6307C36.6244 15.9568 36.6796 16.29 36.8314 16.5827C36.9832 16.8754 37.2237 17.1126 37.5185 17.2604C37.8132 17.4081 38.1472 17.4588 38.4725 17.4052C38.7979 17.3516 39.0979 17.1965 39.3297 16.962L49.2813 7.02135L56.2828 14.0245C54.9295 14.6708 53.7509 15.6325 52.8461 16.8287C51.9414 18.0248 51.3368 19.4206 51.0831 20.8988C50.8295 22.3771 50.9343 23.8946 51.3886 25.3239C51.8429 26.7533 52.6335 28.0528 53.694 29.1133C54.7545 30.1738 56.054 30.9644 57.4834 31.4187C58.9128 31.8731 60.4303 31.9778 61.9085 31.7242C63.3867 31.4705 64.7825 30.866 65.9787 29.9612C67.1748 29.0564 68.1365 27.8779 68.7828 26.5245L75.786 33.526L65.8485 43.4885Z" fill="#231F20"/>
<path d="M95.3125 35.9375H85.9375C85.5231 35.9375 85.1257 35.7729 84.8326 35.4799C84.5396 35.1868 84.375 34.7894 84.375 34.375C84.375 33.9606 84.5396 33.5632 84.8326 33.2701C85.1257 32.9771 85.5231 32.8125 85.9375 32.8125H95.3125C95.7269 32.8125 96.1243 32.9771 96.4174 33.2701C96.7104 33.5632 96.875 33.9606 96.875 34.375C96.875 34.7894 96.7104 35.1868 96.4174 35.4799C96.1243 35.7729 95.7269 35.9375 95.3125 35.9375Z" fill="#231F20"/>
<path d="M84.2485 17.9675C83.9045 17.9675 83.5702 17.854 83.2973 17.6446C83.0245 17.4352 82.8283 17.1416 82.7393 16.8094C82.6503 16.4772 82.6734 16.1248 82.805 15.8071C82.9366 15.4893 83.1694 15.2238 83.4672 15.0519L91.5922 10.3644C91.9509 10.1604 92.3757 10.1066 92.7739 10.2147C93.1721 10.3229 93.5114 10.5841 93.7177 10.9414C93.924 11.2987 93.9806 11.7231 93.8751 12.122C93.7697 12.5209 93.5107 12.8619 93.1547 13.0706L85.0297 17.7581C84.7924 17.8958 84.5229 17.9681 84.2485 17.9675Z" fill="#231F20"/>
<path d="M92.3656 58.5931C92.0912 58.5937 91.8216 58.5214 91.5843 58.3837L83.4593 53.6962C83.2802 53.5944 83.1229 53.4581 82.9967 53.2952C82.8704 53.1324 82.7776 52.9461 82.7237 52.7473C82.6697 52.5484 82.6555 52.3408 82.6821 52.1365C82.7087 51.9322 82.7754 51.7351 82.8784 51.5566C82.9814 51.3782 83.1188 51.2219 83.2825 51.0967C83.4461 50.9715 83.633 50.88 83.8322 50.8273C84.0314 50.7746 84.2391 50.7619 84.4432 50.7898C84.6474 50.8177 84.844 50.8857 85.0218 50.9899L93.1468 55.6774C93.4447 55.8494 93.6775 56.1149 93.8091 56.4327C93.9407 56.7504 93.9638 57.1028 93.8747 57.435C93.7857 57.7672 93.5896 58.0608 93.3167 58.2702C93.0438 58.4796 92.7095 58.5931 92.3656 58.5931Z" fill="#231F20"/>
<path d="M14.0625 35.9375H4.6875C4.2731 35.9375 3.87567 35.7729 3.58265 35.4799C3.28962 35.1868 3.125 34.7894 3.125 34.375C3.125 33.9606 3.28962 33.5632 3.58265 33.2701C3.87567 32.9771 4.2731 32.8125 4.6875 32.8125H14.0625C14.4769 32.8125 14.8743 32.9771 15.1674 33.2701C15.4604 33.5632 15.625 33.9606 15.625 34.375C15.625 34.7894 15.4604 35.1868 15.1674 35.4799C14.8743 35.7729 14.4769 35.9375 14.0625 35.9375Z" fill="#231F20"/>
<path d="M15.7515 17.9675C15.4772 17.9681 15.2076 17.8958 14.9703 17.7581L6.84528 13.0706C6.48933 12.8619 6.23037 12.5209 6.1249 12.122C6.01944 11.7231 6.07604 11.2987 6.28235 10.9414C6.48865 10.5841 6.82792 10.3229 7.22611 10.2147C7.6243 10.1066 8.04909 10.1604 8.40778 10.3644L16.5328 15.0519C16.8306 15.2238 17.0634 15.4893 17.195 15.8071C17.3267 16.1248 17.3497 16.4772 17.2607 16.8094C17.1717 17.1416 16.9755 17.4352 16.7027 17.6446C16.4298 17.854 16.0955 17.9675 15.7515 17.9675Z" fill="#231F20"/>
<path d="M7.63436 58.5931C7.29041 58.5931 6.95608 58.4796 6.68322 58.2702C6.41035 58.0608 6.21419 57.7672 6.12517 57.435C6.03615 57.1028 6.05924 56.7504 6.19085 56.4327C6.32247 56.1149 6.55525 55.8494 6.85311 55.6774L14.9781 50.9899C15.1559 50.8857 15.3525 50.8177 15.5567 50.7898C15.7608 50.7619 15.9685 50.7746 16.1677 50.8273C16.3669 50.88 16.5538 50.9715 16.7175 51.0967C16.8811 51.2219 17.0185 51.3782 17.1215 51.5566C17.2245 51.7351 17.2912 51.9322 17.3178 52.1365C17.3444 52.3408 17.3302 52.5484 17.2763 52.7473C17.2223 52.9461 17.1295 53.1324 17.0032 53.2952C16.877 53.4581 16.7197 53.5944 16.5406 53.6962L8.41561 58.3837C8.17831 58.5214 7.90872 58.5937 7.63436 58.5931Z" fill="#231F20"/>
<defs>
<linearGradient id="paint0_linear" x1="49.2735" y1="4.81152" x2="49.2735" y2="60.1387" gradientUnits="userSpaceOnUse">
<stop stop-color="#36D1DC"/>
<stop offset="1" stop-color="#5B86E5"/>
</linearGradient>
</defs>
</svg>
