<svg width="100" height="100" viewBox="0 0 100 100" fill="none" xmlns="http://www.w3.org/2000/svg">
<path d="M57.8125 4.6875H10.9375C7.48572 4.6875 4.6875 7.48572 4.6875 10.9375V89.0625C4.6875 92.5143 7.48572 95.3125 10.9375 95.3125H57.8125C61.2643 95.3125 64.0625 92.5143 64.0625 89.0625V10.9375C64.0625 7.48572 61.2643 4.6875 57.8125 4.6875Z" fill="url(#paint0_linear)"/>
<path d="M59.375 79.6875C59.375 80.1019 59.2104 80.4994 58.9174 80.7924C58.6243 81.0854 58.2269 81.25 57.8125 81.25H10.9375C10.5231 81.25 10.1257 81.0854 9.83265 80.7924C9.53962 80.4994 9.375 80.1019 9.375 79.6875V10.9375C9.375 10.5231 9.53962 10.1257 9.83265 9.83266C10.1257 9.53964 10.5231 9.37502 10.9375 9.37502H20.2031C20.7169 9.37333 21.223 9.49957 21.6758 9.74235C22.1287 9.98512 22.5139 10.3368 22.7969 10.7656L24.0781 12.6719C24.3611 13.1007 24.7463 13.4524 25.1992 13.6952C25.652 13.938 26.1581 14.0642 26.6719 14.0625H42.0781C42.5919 14.0642 43.098 13.938 43.5508 13.6952C44.0037 13.4524 44.3889 13.1007 44.6719 12.6719L45.9531 10.7656C46.2361 10.3368 46.6213 9.98512 47.0742 9.74235C47.527 9.49957 48.0331 9.37333 48.5469 9.37502H57.8125C58.2269 9.37502 58.6243 9.53964 58.9174 9.83266C59.2104 10.1257 59.375 10.5231 59.375 10.9375V79.6875Z" fill="#C6C6C6"/>
<path d="M10.7407 81.2094C10.8052 81.2277 10.871 81.2413 10.9376 81.25H57.8126C58.227 81.25 58.6244 81.0854 58.9174 80.7924C59.2104 80.4993 59.3751 80.1019 59.3751 79.6875V23.4375C59.3751 54.8625 37.7422 80.3734 10.7407 81.2094Z" fill="#A4A4A4"/>
<path d="M89.0625 18.75H53.125C51.4674 18.75 49.8777 19.4085 48.7056 20.5806C47.5335 21.7527 46.875 23.3424 46.875 25V34.375C46.875 36.0326 47.5335 37.6223 48.7056 38.7944C49.8777 39.9665 51.4674 40.625 53.125 40.625H79.6875L85.9375 46.875V40.625H89.0625C90.7201 40.625 92.3098 39.9665 93.4819 38.7944C94.654 37.6223 95.3125 36.0326 95.3125 34.375V25C95.3125 23.3424 94.654 21.7527 93.4819 20.5806C92.3098 19.4085 90.7201 18.75 89.0625 18.75Z" fill="#5EAC24"/>
<path d="M64.0625 53.125H35.9375L29.6875 46.875V53.125H25C23.3424 53.125 21.7527 53.7835 20.5806 54.9556C19.4085 56.1277 18.75 57.7174 18.75 59.375V68.75C18.75 70.4076 19.4085 71.9973 20.5806 73.1694C21.7527 74.3415 23.3424 75 25 75H64.0625C65.7201 75 67.3098 74.3415 68.4819 73.1694C69.654 71.9973 70.3125 70.4076 70.3125 68.75V59.375C70.3125 57.7174 69.654 56.1277 68.4819 54.9556C67.3098 53.7835 65.7201 53.125 64.0625 53.125Z" fill="#FFCD00"/>
<path d="M39.0625 85.9375H29.6875C28.8246 85.9375 28.125 86.6371 28.125 87.5V89.0625C28.125 89.9254 28.8246 90.625 29.6875 90.625H39.0625C39.9254 90.625 40.625 89.9254 40.625 89.0625V87.5C40.625 86.6371 39.9254 85.9375 39.0625 85.9375Z" fill="#231F20"/>
<path d="M85.9375 62.5C88.5263 62.5 90.625 60.4013 90.625 57.8125C90.625 55.2237 88.5263 53.125 85.9375 53.125C83.3487 53.125 81.25 55.2237 81.25 57.8125C81.25 60.4013 83.3487 62.5 85.9375 62.5Z" fill="#FFCD00"/>
<path d="M89.0625 62.5H82.8125C81.1549 62.5 79.5652 63.1585 78.3931 64.3306C77.221 65.5027 76.5625 67.0924 76.5625 68.75V73.4375H95.3125V68.75C95.3125 67.0924 94.654 65.5027 93.4819 64.3306C92.3098 63.1585 90.7201 62.5 89.0625 62.5Z" fill="#FFCD00"/>
<path d="M28.125 29.6875C30.7138 29.6875 32.8125 27.5888 32.8125 25C32.8125 22.4112 30.7138 20.3125 28.125 20.3125C25.5362 20.3125 23.4375 22.4112 23.4375 25C23.4375 27.5888 25.5362 29.6875 28.125 29.6875Z" fill="#D80027"/>
<path d="M31.25 29.6875H25C23.3424 29.6875 21.7527 30.346 20.5806 31.5181C19.4085 32.6902 18.75 34.2799 18.75 35.9375V40.625H37.5V35.9375C37.5 34.2799 36.8415 32.6902 35.6694 31.5181C34.4973 30.346 32.9076 29.6875 31.25 29.6875Z" fill="#D80027"/>
<path d="M89.0625 17.1875H65.625V10.9375C65.6225 8.86626 64.7986 6.88056 63.334 5.41597C61.8694 3.95138 59.8837 3.12748 57.8125 3.125H10.9375C8.86626 3.12748 6.88056 3.95138 5.41597 5.41597C3.95138 6.88056 3.12748 8.86626 3.125 10.9375V89.0625C3.12748 91.1337 3.95138 93.1194 5.41597 94.584C6.88056 96.0486 8.86626 96.8725 10.9375 96.875H57.8125C59.8837 96.8725 61.8694 96.0486 63.334 94.584C64.7986 93.1194 65.6225 91.1337 65.625 89.0625V76.4062C67.3884 76.0436 68.9729 75.0841 70.1114 73.6895C71.2499 72.2948 71.8727 70.5503 71.875 68.75V59.375C71.8727 57.5747 71.2499 55.8302 70.1114 54.4355C68.9729 53.0409 67.3884 52.0814 65.625 51.7187V42.1875H79.0406L84.8328 47.9797C85.0513 48.1981 85.3297 48.3469 85.6328 48.4072C85.9358 48.4674 86.2499 48.4365 86.5354 48.3182C86.8209 48.2 87.0649 47.9998 87.2366 47.7429C87.4083 47.486 87.4999 47.184 87.5 46.875V42.1875H89.0625C91.1337 42.185 93.1194 41.3611 94.584 39.8965C96.0486 38.4319 96.8725 36.4462 96.875 34.375V25C96.8725 22.9288 96.0486 20.9431 94.584 19.4785C93.1194 18.0139 91.1337 17.19 89.0625 17.1875ZM57.8125 93.75H10.9375C9.6943 93.75 8.50201 93.2561 7.62294 92.3771C6.74386 91.498 6.25 90.3057 6.25 89.0625V10.9375C6.25 9.6943 6.74386 8.50201 7.62294 7.62294C8.50201 6.74386 9.6943 6.25 10.9375 6.25H57.8125C59.0557 6.25 60.248 6.74386 61.1271 7.62294C62.0061 8.50201 62.5 9.6943 62.5 10.9375V17.1875H60.9375V10.9375C60.9375 10.1087 60.6083 9.31384 60.0222 8.72779C59.4362 8.14174 58.6413 7.8125 57.8125 7.8125H48.5469C47.7769 7.80993 47.0184 7.99879 46.3396 8.36208C45.6607 8.72538 45.0828 9.25171 44.6578 9.89375L43.3672 11.8109C43.2264 12.0237 43.0348 12.1982 42.8098 12.3184C42.5847 12.4387 42.3333 12.5011 42.0781 12.5H26.6719C26.4145 12.5007 26.161 12.437 25.9345 12.3147C25.708 12.1925 25.5157 12.0155 25.375 11.8L24.1 9.90469C23.6751 9.25991 23.0965 8.73104 22.4161 8.36579C21.7358 8.00054 20.9753 7.81039 20.2031 7.8125H10.9375C10.1087 7.8125 9.31384 8.14174 8.72779 8.72779C8.14174 9.31384 7.8125 10.1087 7.8125 10.9375V79.6875C7.8125 80.5163 8.14174 81.3112 8.72779 81.8972C9.31384 82.4833 10.1087 82.8125 10.9375 82.8125H57.8125C58.6413 82.8125 59.4362 82.4833 60.0222 81.8972C60.6083 81.3112 60.9375 80.5163 60.9375 79.6875V76.5625H62.5V89.0625C62.5 90.3057 62.0061 91.498 61.1271 92.3771C60.248 93.2561 59.0557 93.75 57.8125 93.75ZM53.125 17.1875C51.0538 17.19 49.0681 18.0139 47.6035 19.4785C46.1389 20.9431 45.315 22.9288 45.3125 25V34.375C45.315 36.4462 46.1389 38.4319 47.6035 39.8965C49.0681 41.3611 51.0538 42.185 53.125 42.1875H57.8125V51.5625H36.5844L30.7922 45.7703C30.5737 45.5519 30.2953 45.4031 29.9922 45.3428C29.6892 45.2826 29.3751 45.3135 29.0896 45.4318C28.8041 45.55 28.5601 45.7502 28.3884 46.0071C28.2167 46.264 28.1251 46.566 28.125 46.875V51.5625H25C22.9288 51.565 20.9431 52.3889 19.4785 53.8535C18.0139 55.3181 17.19 57.3038 17.1875 59.375V68.75C17.19 70.8212 18.0139 72.8069 19.4785 74.2715C20.9431 75.7361 22.9288 76.56 25 76.5625H57.8125V79.6875H10.9375V10.9375H20.2031C20.4605 10.9368 20.714 11.0005 20.9405 11.1228C21.167 11.245 21.3593 11.422 21.5 11.6375L22.775 13.5328C23.1999 14.1776 23.7785 14.7065 24.4589 15.0717C25.1392 15.437 25.8997 15.6271 26.6719 15.625H42.0781C42.8481 15.6276 43.6066 15.4387 44.2854 15.0754C44.9643 14.7121 45.5422 14.1858 45.9672 13.5438L47.2578 11.6266C47.3986 11.4138 47.5902 11.2393 47.8152 11.1191C48.0403 10.9988 48.2917 10.9364 48.5469 10.9375H57.8125V17.1875H53.125ZM68.75 59.375V68.75C68.75 69.9932 68.2561 71.1855 67.3771 72.0646C66.498 72.9436 65.3057 73.4375 64.0625 73.4375H25C23.7568 73.4375 22.5645 72.9436 21.6854 72.0646C20.8064 71.1855 20.3125 69.9932 20.3125 68.75V59.375C20.3125 58.1318 20.8064 56.9395 21.6854 56.0604C22.5645 55.1814 23.7568 54.6875 25 54.6875H29.6875C30.1019 54.6875 30.4993 54.5229 30.7924 54.2299C31.0854 53.9368 31.25 53.5394 31.25 53.125V50.6469L34.8328 54.2297C35.1258 54.5227 35.5231 54.6874 35.9375 54.6875H64.0625C65.3057 54.6875 66.498 55.1814 67.3771 56.0604C68.2561 56.9395 68.75 58.1318 68.75 59.375ZM62.5 51.5625H60.9375V42.1875H62.5V51.5625ZM93.75 34.375C93.75 35.6182 93.2561 36.8105 92.3771 37.6896C91.498 38.5686 90.3057 39.0625 89.0625 39.0625H85.9375C85.5231 39.0625 85.1257 39.2271 84.8326 39.5201C84.5396 39.8132 84.375 40.2106 84.375 40.625V43.1031L80.7922 39.5203C80.4992 39.2273 80.1019 39.0626 79.6875 39.0625H53.125C51.8818 39.0625 50.6895 38.5686 49.8104 37.6896C48.9314 36.8105 48.4375 35.6182 48.4375 34.375V25C48.4375 23.7568 48.9314 22.5645 49.8104 21.6854C50.6895 20.8064 51.8818 20.3125 53.125 20.3125H89.0625C90.3057 20.3125 91.498 20.8064 92.3771 21.6854C93.2561 22.5645 93.75 23.7568 93.75 25V34.375Z" fill="#231F20"/>
<path d="M29.6875 10.9375H31.25C31.6644 10.9375 32.0618 10.7729 32.3549 10.4799C32.6479 10.1868 32.8125 9.7894 32.8125 9.375C32.8125 8.9606 32.6479 8.56317 32.3549 8.27015C32.0618 7.97712 31.6644 7.8125 31.25 7.8125H29.6875C29.2731 7.8125 28.8757 7.97712 28.5826 8.27015C28.2896 8.56317 28.125 8.9606 28.125 9.375C28.125 9.7894 28.2896 10.1868 28.5826 10.4799C28.8757 10.7729 29.2731 10.9375 29.6875 10.9375Z" fill="#231F20"/>
<path d="M37.5 10.9375H39.0625C39.4769 10.9375 39.8743 10.7729 40.1674 10.4799C40.4604 10.1868 40.625 9.7894 40.625 9.375C40.625 8.9606 40.4604 8.56317 40.1674 8.27015C39.8743 7.97712 39.4769 7.8125 39.0625 7.8125H37.5C37.0856 7.8125 36.6882 7.97712 36.3951 8.27015C36.1021 8.56317 35.9375 8.9606 35.9375 9.375C35.9375 9.7894 36.1021 10.1868 36.3951 10.4799C36.6882 10.7729 37.0856 10.9375 37.5 10.9375Z" fill="#231F20"/>
<path d="M39.0625 84.375H29.6875C28.8587 84.375 28.0638 84.7042 27.4778 85.2903C26.8917 85.8763 26.5625 86.6712 26.5625 87.5V89.0625C26.5625 89.8913 26.8917 90.6862 27.4778 91.2722C28.0638 91.8583 28.8587 92.1875 29.6875 92.1875H39.0625C39.8913 92.1875 40.6862 91.8583 41.2722 91.2722C41.8583 90.6862 42.1875 89.8913 42.1875 89.0625V87.5C42.1875 86.6712 41.8583 85.8763 41.2722 85.2903C40.6862 84.7042 39.8913 84.375 39.0625 84.375ZM29.6875 89.0625V87.5H39.0625V89.0625H29.6875Z" fill="#231F20"/>
<path d="M51.5625 85.9375H48.4375C48.0231 85.9375 47.6257 86.1021 47.3326 86.3951C47.0396 86.6882 46.875 87.0856 46.875 87.5C46.875 87.9144 47.0396 88.3118 47.3326 88.6049C47.6257 88.8979 48.0231 89.0625 48.4375 89.0625H51.5625C51.9769 89.0625 52.3743 88.8979 52.6674 88.6049C52.9604 88.3118 53.125 87.9144 53.125 87.5C53.125 87.0856 52.9604 86.6882 52.6674 86.3951C52.3743 86.1021 51.9769 85.9375 51.5625 85.9375Z" fill="#231F20"/>
<path d="M20.3125 85.9375H17.1875C16.7731 85.9375 16.3757 86.1021 16.0826 86.3951C15.7896 86.6882 15.625 87.0856 15.625 87.5C15.625 87.9144 15.7896 88.3118 16.0826 88.6049C16.3757 88.8979 16.7731 89.0625 17.1875 89.0625H20.3125C20.7269 89.0625 21.1243 88.8979 21.4174 88.6049C21.7104 88.3118 21.875 87.9144 21.875 87.5C21.875 87.0856 21.7104 86.6882 21.4174 86.3951C21.1243 86.1021 20.7269 85.9375 20.3125 85.9375Z" fill="#231F20"/>
<path d="M59.375 25H56.25C55.8356 25 55.4382 25.1646 55.1451 25.4576C54.8521 25.7507 54.6875 26.1481 54.6875 26.5625C54.6875 26.9769 54.8521 27.3743 55.1451 27.6674C55.4382 27.9604 55.8356 28.125 56.25 28.125H59.375C59.7894 28.125 60.1868 27.9604 60.4799 27.6674C60.7729 27.3743 60.9375 26.9769 60.9375 26.5625C60.9375 26.1481 60.7729 25.7507 60.4799 25.4576C60.1868 25.1646 59.7894 25 59.375 25Z" fill="#231F20"/>
<path d="M85.9375 25H65.625C65.2106 25 64.8132 25.1646 64.5201 25.4576C64.2271 25.7507 64.0625 26.1481 64.0625 26.5625C64.0625 26.9769 64.2271 27.3743 64.5201 27.6674C64.8132 27.9604 65.2106 28.125 65.625 28.125H85.9375C86.3519 28.125 86.7493 27.9604 87.0424 27.6674C87.3354 27.3743 87.5 26.9769 87.5 26.5625C87.5 26.1481 87.3354 25.7507 87.0424 25.4576C86.7493 25.1646 86.3519 25 85.9375 25Z" fill="#231F20"/>
<path d="M59.375 31.25H56.25C55.8356 31.25 55.4382 31.4146 55.1451 31.7076C54.8521 32.0007 54.6875 32.3981 54.6875 32.8125C54.6875 33.2269 54.8521 33.6243 55.1451 33.9174C55.4382 34.2104 55.8356 34.375 56.25 34.375H59.375C59.7894 34.375 60.1868 34.2104 60.4799 33.9174C60.7729 33.6243 60.9375 33.2269 60.9375 32.8125C60.9375 32.3981 60.7729 32.0007 60.4799 31.7076C60.1868 31.4146 59.7894 31.25 59.375 31.25Z" fill="#231F20"/>
<path d="M85.9375 31.25H65.625C65.2106 31.25 64.8132 31.4146 64.5201 31.7076C64.2271 32.0007 64.0625 32.3981 64.0625 32.8125C64.0625 33.2269 64.2271 33.6243 64.5201 33.9174C64.8132 34.2104 65.2106 34.375 65.625 34.375H85.9375C86.3519 34.375 86.7493 34.2104 87.0424 33.9174C87.3354 33.6243 87.5 33.2269 87.5 32.8125C87.5 32.3981 87.3354 32.0007 87.0424 31.7076C86.7493 31.4146 86.3519 31.25 85.9375 31.25Z" fill="#231F20"/>
<path d="M31.25 59.375H28.125C27.7106 59.375 27.3132 59.5396 27.0201 59.8326C26.7271 60.1257 26.5625 60.5231 26.5625 60.9375C26.5625 61.3519 26.7271 61.7493 27.0201 62.0424C27.3132 62.3354 27.7106 62.5 28.125 62.5H31.25C31.6644 62.5 32.0618 62.3354 32.3549 62.0424C32.6479 61.7493 32.8125 61.3519 32.8125 60.9375C32.8125 60.5231 32.6479 60.1257 32.3549 59.8326C32.0618 59.5396 31.6644 59.375 31.25 59.375Z" fill="#231F20"/>
<path d="M60.9375 59.375H37.5C37.0856 59.375 36.6882 59.5396 36.3951 59.8326C36.1021 60.1257 35.9375 60.5231 35.9375 60.9375C35.9375 61.3519 36.1021 61.7493 36.3951 62.0424C36.6882 62.3354 37.0856 62.5 37.5 62.5H60.9375C61.3519 62.5 61.7493 62.3354 62.0424 62.0424C62.3354 61.7493 62.5 61.3519 62.5 60.9375C62.5 60.5231 62.3354 60.1257 62.0424 59.8326C61.7493 59.5396 61.3519 59.375 60.9375 59.375Z" fill="#231F20"/>
<path d="M31.25 65.625H28.125C27.7106 65.625 27.3132 65.7896 27.0201 66.0826C26.7271 66.3757 26.5625 66.7731 26.5625 67.1875C26.5625 67.6019 26.7271 67.9993 27.0201 68.2924C27.3132 68.5854 27.7106 68.75 28.125 68.75H31.25C31.6644 68.75 32.0618 68.5854 32.3549 68.2924C32.6479 67.9993 32.8125 67.6019 32.8125 67.1875C32.8125 66.7731 32.6479 66.3757 32.3549 66.0826C32.0618 65.7896 31.6644 65.625 31.25 65.625Z" fill="#231F20"/>
<path d="M60.9375 65.625H37.5C37.0856 65.625 36.6882 65.7896 36.3951 66.0826C36.1021 66.3757 35.9375 66.7731 35.9375 67.1875C35.9375 67.6019 36.1021 67.9993 36.3951 68.2924C36.6882 68.5854 37.0856 68.75 37.5 68.75H60.9375C61.3519 68.75 61.7493 68.5854 62.0424 68.2924C62.3354 67.9993 62.5 67.6019 62.5 67.1875C62.5 66.7731 62.3354 66.3757 62.0424 66.0826C61.7493 65.7896 61.3519 65.625 60.9375 65.625Z" fill="#231F20"/>
<path d="M91.1453 61.2505C91.7701 60.3089 92.128 59.2154 92.1807 58.0866C92.2334 56.9577 91.9791 55.8356 91.4448 54.8398C90.9104 53.844 90.1161 53.0117 89.1463 52.4315C88.1765 51.8513 87.0676 51.5449 85.9375 51.5449C84.8074 51.5449 83.6985 51.8513 82.7287 52.4315C81.7589 53.0117 80.9646 53.844 80.4302 54.8398C79.8959 55.8356 79.6416 56.9577 79.6943 58.0866C79.747 59.2154 80.1049 60.3089 80.7297 61.2505C79.0866 61.7034 77.637 62.6817 76.6024 64.0361C75.5677 65.3904 75.0049 67.0462 75 68.7505V73.438C75 73.8524 75.1646 74.2499 75.4576 74.5429C75.7507 74.8359 76.1481 75.0005 76.5625 75.0005H95.3125C95.7269 75.0005 96.1243 74.8359 96.4174 74.5429C96.7104 74.2499 96.875 73.8524 96.875 73.438V68.7505C96.8701 67.0462 96.3073 65.3904 95.2726 64.0361C94.238 62.6817 92.7884 61.7034 91.1453 61.2505ZM85.9375 54.688C86.5556 54.688 87.1598 54.8713 87.6737 55.2147C88.1876 55.5581 88.5881 56.0461 88.8246 56.6171C89.0611 57.1882 89.123 57.8165 89.0025 58.4227C88.8819 59.0289 88.5843 59.5857 88.1472 60.0227C87.7102 60.4598 87.1534 60.7574 86.5472 60.878C85.941 60.9986 85.3126 60.9367 84.7416 60.7001C84.1706 60.4636 83.6825 60.0631 83.3392 59.5492C82.9958 59.0353 82.8125 58.4311 82.8125 57.813C82.8125 56.9842 83.1417 56.1894 83.7278 55.6033C84.3138 55.0173 85.1087 54.688 85.9375 54.688ZM93.75 71.8755H78.125V68.7505C78.125 67.5073 78.6189 66.315 79.4979 65.436C80.377 64.5569 81.5693 64.063 82.8125 64.063H89.0625C90.3057 64.063 91.498 64.5569 92.3771 65.436C93.2561 66.315 93.75 67.5073 93.75 68.7505V71.8755Z" fill="#231F20"/>
<path d="M33.3328 28.438C33.9576 27.4964 34.3155 26.4029 34.3682 25.2741C34.4209 24.1452 34.1666 23.0231 33.6323 22.0273C33.0979 21.0315 32.3036 20.1992 31.3338 19.619C30.3641 19.0388 29.2551 18.7324 28.125 18.7324C26.9949 18.7324 25.8859 19.0388 24.9162 19.619C23.9464 20.1992 23.1521 21.0315 22.6177 22.0273C22.0834 23.0231 21.8291 24.1452 21.8818 25.2741C21.9345 26.4029 22.2924 27.4964 22.9172 28.438C21.2741 28.8909 19.8245 29.8692 18.7899 31.2236C17.7552 32.5779 17.1924 34.2337 17.1875 35.938V40.6255C17.1875 41.0399 17.3521 41.4374 17.6451 41.7304C17.9382 42.0234 18.3356 42.188 18.75 42.188H37.5C37.9144 42.188 38.3118 42.0234 38.6049 41.7304C38.8979 41.4374 39.0625 41.0399 39.0625 40.6255V35.938C39.0576 34.2337 38.4948 32.5779 37.4601 31.2236C36.4255 29.8692 34.9759 28.8909 33.3328 28.438ZM28.125 21.8755C28.7431 21.8755 29.3473 22.0588 29.8612 22.4022C30.3751 22.7456 30.7756 23.2336 31.0121 23.8046C31.2486 24.3757 31.3105 25.004 31.19 25.6102C31.0694 26.2164 30.7717 26.7732 30.3347 27.2102C29.8977 27.6473 29.3408 27.9449 28.7347 28.0655C28.1285 28.1861 27.5001 28.1242 26.9291 27.8876C26.3581 27.6511 25.87 27.2506 25.5267 26.7367C25.1833 26.2228 25 25.6186 25 25.0005C25 24.1717 25.3292 23.3769 25.9153 22.7908C26.5013 22.2048 27.2962 21.8755 28.125 21.8755ZM35.9375 39.063H20.3125V35.938C20.3125 34.6948 20.8064 33.5025 21.6854 32.6235C22.5645 31.7444 23.7568 31.2505 25 31.2505H31.25C32.4932 31.2505 33.6855 31.7444 34.5646 32.6235C35.4436 33.5025 35.9375 34.6948 35.9375 35.938V39.063Z" fill="#231F20"/>
<defs>
<linearGradient id="paint0_linear" x1="34.375" y1="4.6875" x2="34.375" y2="95.3125" gradientUnits="userSpaceOnUse">
<stop stop-color="#36D1DC"/>
<stop offset="1" stop-color="#5B86E5"/>
</linearGradient>
</defs>
</svg>
