<svg width="100" height="100" viewBox="0 0 100 100" fill="none" xmlns="http://www.w3.org/2000/svg">
<path d="M73.4375 95.3125H4.6875V20.3125L20.3125 4.6875H73.4375V95.3125Z" fill="#C6C6C6"/>
<path d="M7.8125 95.3125H73.4375V35.9375C73.4375 68.75 44.0859 95.3125 7.8125 95.3125Z" fill="#A4A4A4"/>
<path d="M20.3125 4.6875L4.6875 20.3125H20.3125V4.6875Z" fill="#7E7E7E"/>
<path d="M71.875 59.1564C67.5925 61.6272 62.6736 62.7727 57.7402 62.448C52.8067 62.1234 48.0803 60.3432 44.1585 57.3326C40.2367 54.322 37.2956 50.2161 35.7071 45.5341C34.1187 40.8522 33.9541 35.8043 35.2343 31.0288C36.5144 26.2533 39.1818 21.9646 42.8992 18.7049C46.6166 15.4453 51.2171 13.3611 56.1189 12.7158C61.0207 12.0705 66.0038 12.8932 70.4381 15.0798C74.8725 17.2664 78.5589 20.7187 81.0313 25.0002C84.341 30.745 85.2358 37.5685 83.5191 43.9725C81.8024 50.3764 77.6145 55.8374 71.875 59.1564Z" fill="#FFCD00"/>
<path d="M75.6124 28.1244C73.7049 24.8105 70.8285 22.16 67.3701 20.5291C63.9116 18.8982 60.0368 18.3651 56.2664 19.0014C52.496 19.6377 49.0108 21.4129 46.2791 24.0885C43.5474 26.7641 41.7003 30.2118 40.9859 33.9682L50.8437 43.1869L40.9859 33.9682C40.4154 36.9388 40.5726 40.0035 41.4439 42.9002C42.3153 45.7969 43.875 48.4396 45.9897 50.6025C48.1044 52.7655 50.7113 54.3843 53.5877 55.3207C56.464 56.2572 59.5243 56.4833 62.5071 55.9799C65.4899 55.4766 68.3064 54.2586 70.7162 52.43C73.1259 50.6015 75.0571 48.2168 76.3449 45.4797C77.6326 42.7425 78.2386 39.7343 78.1111 36.712C77.9835 33.6898 77.1262 30.7433 75.6124 28.1244ZM55.2062 42.9963C55.7441 43.4853 56.0939 44.1472 56.1949 44.8671C56.2958 45.5871 56.1416 46.3197 55.7589 46.9378C55.3763 47.5559 54.7893 48.0206 54.0998 48.2512C53.4104 48.4818 52.662 48.4638 51.9844 48.2003C51.3069 47.9368 50.7429 47.4444 50.3904 46.8086C50.0379 46.1728 49.9191 45.4337 50.0546 44.7194C50.19 44.0052 50.5712 43.3609 51.1321 42.8983C51.6929 42.4357 52.398 42.184 53.1249 42.1869C53.8951 42.1892 54.6368 42.4777 55.2062 42.9963L63.7031 32.14L55.2062 42.9963ZM65.6249 32.8119C65.0069 32.8119 64.4027 32.6286 63.8888 32.2853C63.3749 31.9419 62.9743 31.4538 62.7378 30.8828C62.5013 30.3118 62.4394 29.6835 62.56 29.0773C62.6806 28.4711 62.9782 27.9143 63.4152 27.4772C63.8523 27.0402 64.4091 26.7425 65.0153 26.622C65.6215 26.5014 66.2498 26.5633 66.8208 26.7998C67.3919 27.0363 67.8799 27.4369 68.2233 27.9508C68.5667 28.4647 68.75 29.0689 68.75 29.6869C68.75 30.5157 68.4207 31.3106 67.8347 31.8966C67.2486 32.4827 66.4538 32.8119 65.6249 32.8119Z" fill="#57A4FF"/>
<path d="M82.7562 65.499L80.0499 67.0615L74.6374 70.1865L71.9312 71.749L73.4374 74.3568L82.7343 90.46C83.5631 91.8954 84.9282 92.9428 86.5293 93.3718C88.1304 93.8008 89.8363 93.5762 91.2718 92.7475C92.7073 91.9186 93.7547 90.5535 94.1837 88.9525C94.6127 87.3514 94.3881 85.6455 93.5593 84.21L82.7562 65.499Z" fill="url(#paint0_linear)"/>
<path d="M17.1875 48.4375C18.9134 48.4375 20.3125 47.0384 20.3125 45.3125C20.3125 43.5866 18.9134 42.1875 17.1875 42.1875C15.4616 42.1875 14.0625 43.5866 14.0625 45.3125C14.0625 47.0384 15.4616 48.4375 17.1875 48.4375Z" fill="#D80027"/>
<path d="M29.6875 26.5625C31.4134 26.5625 32.8125 25.1634 32.8125 23.4375C32.8125 21.7116 31.4134 20.3125 29.6875 20.3125C27.9616 20.3125 26.5625 21.7116 26.5625 23.4375C26.5625 25.1634 27.9616 26.5625 29.6875 26.5625Z" fill="#D80027"/>
<path d="M29.6875 73.4375H35.9375V89.0625H29.6875V73.4375Z" fill="#FF9811"/>
<path d="M54.6875 73.4375H60.9375V89.0625H54.6875V73.4375Z" fill="url(#paint1_linear)"/>
<path d="M42.1875 67.1875H48.4375V89.0625H42.1875V67.1875Z" fill="#5EAC24"/>
<path d="M17.1875 79.6875H23.4375V89.0625H17.1875V79.6875Z" fill="#D80027"/>
<path d="M75.6125 28.1252C73.7583 24.9135 70.9934 22.3239 67.6674 20.6837C64.3414 19.0435 60.6038 18.4264 56.927 18.9104C53.2503 19.3945 49.7997 20.9579 47.0116 23.4031C44.2235 25.8483 42.223 29.0653 41.2633 32.6474C40.3035 36.2295 40.4275 40.0157 41.6196 43.5273C42.8117 47.0389 45.0184 50.1182 47.9605 52.3757C50.9027 54.6331 54.4482 55.9675 58.1487 56.2099C61.8492 56.4523 65.5385 55.592 68.75 53.7377C73.0523 51.2473 76.191 47.1521 77.4775 42.3505C78.764 37.5488 78.0933 32.4329 75.6125 28.1252Z" fill="#C6C6C6"/>
<path d="M74.3266 57.5195C72.7612 58.7111 71.0506 59.6987 69.236 60.4586L69.0797 60.5508L74.6422 70.1867L80.0547 67.0617L74.4922 57.4258L74.3266 57.5195Z" fill="#FF5023"/>
<path d="M50 45.3126C49.9975 45.8347 50.1257 46.349 50.373 46.8088C50.6204 47.2685 50.979 47.6589 51.416 47.9444C51.8531 48.2299 52.3547 48.4013 52.8751 48.4431C53.3955 48.4848 53.918 48.3955 54.395 48.1834C54.872 47.9712 55.2882 47.643 55.6057 47.2286C55.9232 46.8142 56.1318 46.3268 56.2125 45.8111C56.2931 45.2953 56.2433 44.7675 56.0676 44.276C55.8918 43.7844 55.5957 43.3447 55.2063 42.997C54.7593 42.5907 54.2038 42.3231 53.6074 42.2271C53.011 42.1311 52.3996 42.2106 51.8476 42.4561C51.2957 42.7016 50.8271 43.1024 50.499 43.6096C50.171 44.1168 49.9976 44.7086 50 45.3126Z" fill="#D80027"/>
<path d="M65.625 32.8125C67.3509 32.8125 68.75 31.4134 68.75 29.6875C68.75 27.9616 67.3509 26.5625 65.625 26.5625C63.8991 26.5625 62.5 27.9616 62.5 29.6875C62.5 31.4134 63.8991 32.8125 65.625 32.8125Z" fill="#D80027"/>
<path d="M49.1553 19.7129C45.6762 21.7218 42.871 24.7172 41.0943 28.3203C39.3177 31.9235 38.6494 35.9726 39.1739 39.9556C39.6984 43.9386 41.3923 47.6766 44.0412 50.6969C46.6902 53.7172 50.1753 55.8843 54.0558 56.9239C57.9363 57.9636 62.038 57.8292 65.8421 56.5378C69.6463 55.2464 72.9821 52.8559 75.4277 49.6687C77.8732 46.4815 79.3188 42.6406 79.5815 38.6318C79.8443 34.6231 78.9124 30.6264 76.9037 27.1472C74.2053 22.4866 69.7685 19.0866 64.5666 17.6929C59.3646 16.2992 53.8223 17.0256 49.1553 19.7129ZM74.1959 28.7097C75.5272 31.0014 76.3105 33.5698 76.4845 36.2144C76.6586 38.8589 76.2188 41.5079 75.1994 43.9543C74.18 46.4007 72.6087 48.5782 70.6082 50.3166C68.6078 52.0551 66.2324 53.3073 63.6678 53.9756C61.1031 54.6438 58.4187 54.7099 55.8243 54.1687C53.2299 53.6275 50.7957 52.4936 48.7122 50.8557C46.6286 49.2178 44.952 47.1203 43.8135 44.727C42.6749 42.3338 42.1053 39.7096 42.149 37.0597L48.7678 43.2472C48.4433 43.9799 48.312 44.7834 48.3865 45.5812C48.4609 46.379 48.7387 47.1444 49.1931 47.8043C49.6476 48.4642 50.2637 48.9966 50.9824 49.3506C51.7012 49.7047 52.4988 49.8685 53.2989 49.8266C54.0991 49.7847 54.8752 49.5384 55.553 49.1111C56.2309 48.6839 56.7879 48.0901 57.1709 47.3863C57.554 46.6825 57.7502 45.8923 57.7409 45.0911C57.7316 44.2899 57.517 43.5044 57.1178 42.8097L64.0787 33.916C64.5553 34.0839 65.0562 34.1725 65.5615 34.1785C66.4886 34.1785 67.3949 33.9036 68.1657 33.3885C68.9366 32.8734 69.5374 32.1413 69.8922 31.2848C70.247 30.4283 70.3398 29.4858 70.1589 28.5765C69.9781 27.6672 69.5316 26.832 68.8761 26.1764C68.2205 25.5209 67.3853 25.0744 66.476 24.8936C65.5667 24.7127 64.6242 24.8055 63.7677 25.1603C62.9112 25.5151 62.1791 26.1159 61.664 26.8868C61.1489 27.6576 60.874 28.5639 60.874 29.491C60.8768 30.378 61.1338 31.2456 61.6146 31.991L54.7568 40.7519C54.1396 40.502 53.4747 40.3918 52.8098 40.4293C52.1449 40.4669 51.4967 40.6512 50.9115 40.9691L42.6303 33.23C43.4394 29.8951 45.2291 26.8791 47.7686 24.5711C50.3081 22.263 53.4809 20.7688 56.8778 20.2811C60.2746 19.7935 63.7396 20.3347 66.8259 21.8351C69.9122 23.3355 72.4781 25.7262 74.1928 28.6988L74.1959 28.7097ZM54.624 45.116C54.624 45.425 54.5324 45.7271 54.3607 45.9841C54.189 46.241 53.945 46.4413 53.6594 46.5595C53.3739 46.6778 53.0598 46.7088 52.7567 46.6485C52.4536 46.5882 52.1752 46.4394 51.9567 46.2208C51.7381 46.0023 51.5893 45.7239 51.529 45.4208C51.4687 45.1177 51.4997 44.8036 51.6179 44.518C51.7362 44.2325 51.9365 43.9885 52.1934 43.8168C52.4504 43.6451 52.7525 43.5535 53.0615 43.5535C53.4759 43.5535 53.8733 43.7181 54.1664 44.0111C54.4594 44.3042 54.624 44.7016 54.624 45.116ZM63.999 29.491C63.999 29.182 64.0906 28.8799 64.2623 28.6229C64.434 28.366 64.6781 28.1657 64.9636 28.0474C65.2491 27.9292 65.5632 27.8982 65.8663 27.9585C66.1694 28.0188 66.4478 28.1676 66.6664 28.3861C66.8849 28.6047 67.0337 28.8831 67.094 29.1862C67.1543 29.4893 67.1233 29.8034 67.0051 30.0889C66.8868 30.3744 66.6865 30.6185 66.4296 30.7902C66.1726 30.9618 65.8705 31.0535 65.5615 31.0535C65.1471 31.0535 64.7497 30.8889 64.4567 30.5958C64.1636 30.3028 63.999 29.9054 63.999 29.491Z" fill="black"/>
<path d="M94.9125 83.4375L84.1094 64.7156C83.9022 64.3568 83.5609 64.0949 83.1606 63.9877C82.7604 63.8804 82.3339 63.9366 81.975 64.1437L80.6219 64.925L76.4953 57.7797C79.5761 55.1876 82.0262 51.928 83.6597 48.2481C85.2932 44.5682 86.0673 40.5646 85.9232 36.541C85.779 32.5174 84.7206 28.5795 82.8279 25.0258C80.9353 21.4722 78.2584 18.3963 75 16.0312V4.6875C75 4.2731 74.8354 3.87567 74.5424 3.58265C74.2493 3.28962 73.8519 3.125 73.4375 3.125H20.3125C19.8981 3.12509 19.5008 3.28977 19.2078 3.58281L3.58281 19.2078C3.28977 19.5008 3.12509 19.8981 3.125 20.3125V95.3125C3.125 95.7269 3.28962 96.1243 3.58265 96.4174C3.87567 96.7104 4.2731 96.875 4.6875 96.875H73.4375C73.8519 96.875 74.2493 96.7104 74.5424 96.4174C74.8354 96.1243 75 95.7269 75 95.3125V80.1891L81.3812 91.25C81.8905 92.1457 82.5719 92.9318 83.3861 93.563C84.2004 94.1943 85.1315 94.6583 86.1258 94.9282C87.1202 95.1982 88.1581 95.2688 89.1798 95.136C90.2015 95.0032 91.1869 94.6696 92.0791 94.1544C92.9714 93.6392 93.753 92.9527 94.3788 92.1342C95.0046 91.3158 95.4624 90.3816 95.7258 89.3855C95.9891 88.3894 96.0528 87.3511 95.9133 86.3303C95.7737 85.3095 95.4336 84.3263 94.9125 83.4375ZM77.9156 66.4875L75.2094 68.05L71.2781 61.2406C71.7469 61.0078 72.2031 60.7719 72.6562 60.5047C73.1094 60.2375 73.5344 59.9406 73.9703 59.6547L77.9156 66.4875ZM79.6719 25.7812C82.3992 30.4909 83.4083 36.0009 82.527 41.3715C81.6457 46.7421 78.9287 51.6406 74.8392 55.2317C70.7497 58.8228 65.5411 60.884 60.1016 61.0638C54.6622 61.2436 49.3288 59.5308 45.0111 56.2177C40.6934 52.9045 37.6588 48.1961 36.4247 42.8954C35.1907 37.5947 35.8337 32.0301 38.2441 27.1506C40.6545 22.2711 44.683 18.3789 49.6426 16.1377C54.6021 13.8966 60.1855 13.4453 65.4406 14.8609C71.4435 16.4725 76.5617 20.4 79.6719 25.7812ZM18.75 8.45937V18.75H8.45937L18.75 8.45937ZM71.875 93.75H6.25V21.875H20.3125C20.7269 21.875 21.1243 21.7104 21.4174 21.4174C21.7104 21.1243 21.875 20.7269 21.875 20.3125V6.25H71.875V14.0828C70.0911 13.1249 68.204 12.3732 66.25 11.8422C60.1856 10.209 53.7381 10.7842 48.0586 13.4651C42.3791 16.146 37.8372 20.7581 35.2438 26.4781L33.9828 25.3031C34.3215 24.5352 34.4479 23.6905 34.3487 22.8571C34.2495 22.0237 33.9283 21.2322 33.4187 20.5653C32.9092 19.8984 32.2299 19.3806 31.4519 19.0658C30.6739 18.7511 29.8256 18.651 28.9957 18.7761C28.1658 18.9011 27.3846 19.2467 26.7339 19.7767C26.0831 20.3067 25.5866 21.0017 25.2962 21.7891C25.0057 22.5766 24.932 23.4275 25.0828 24.2532C25.2335 25.0788 25.6032 25.8488 26.1531 26.4828L18.0125 40.7016C17.7402 40.6522 17.4642 40.6266 17.1875 40.625C16.2604 40.625 15.3541 40.8999 14.5833 41.415C13.8124 41.9301 13.2116 42.6621 12.8568 43.5187C12.502 44.3752 12.4092 45.3177 12.5901 46.227C12.7709 47.1363 13.2174 47.9715 13.8729 48.6271C14.5285 49.2826 15.3637 49.7291 16.273 49.9099C17.1823 50.0908 18.1248 49.998 18.9813 49.6432C19.8379 49.2884 20.5699 48.6876 21.085 47.9167C21.6001 47.1459 21.875 46.2396 21.875 45.3125C21.8707 44.1915 21.4611 43.1099 20.7219 42.2672L28.8625 28.0484C29.1348 28.0978 29.4108 28.1234 29.6875 28.125C30.4384 28.1198 31.1768 27.9322 31.8391 27.5781L34.0484 29.6344C32.979 33.0459 32.6111 36.6386 32.9669 40.1961C33.3228 43.7536 34.3949 47.2023 36.1189 50.3344C37.8428 53.4666 40.1829 56.2174 42.9982 58.4212C45.8134 60.625 49.0456 62.2362 52.5 63.1578C54.7558 63.7639 57.0814 64.0717 59.4172 64.0734C62.4766 64.0699 65.5119 63.5316 68.3859 62.4828L72.5 69.6141L71.1484 70.3953C70.7896 70.6025 70.5277 70.9438 70.4205 71.3441C70.3132 71.7443 70.3694 72.1708 70.5766 72.5297L71.875 74.775V93.75ZM28.125 23.4375C28.125 23.1285 28.2166 22.8264 28.3883 22.5694C28.56 22.3125 28.804 22.1122 29.0896 21.9939C29.3751 21.8757 29.6892 21.8447 29.9923 21.905C30.2954 21.9653 30.5738 22.1141 30.7924 22.3326C31.0109 22.5512 31.1597 22.8296 31.22 23.1327C31.2803 23.4358 31.2493 23.7499 31.1311 24.0354C31.0128 24.321 30.8125 24.565 30.5556 24.7367C30.2986 24.9084 29.9965 25 29.6875 25C29.2731 25 28.8757 24.8354 28.5826 24.5424C28.2896 24.2493 28.125 23.8519 28.125 23.4375ZM18.75 45.3125C18.75 45.6215 18.6584 45.9236 18.4867 46.1806C18.315 46.4375 18.071 46.6378 17.7854 46.7561C17.4999 46.8743 17.1858 46.9053 16.8827 46.845C16.5796 46.7847 16.3012 46.6359 16.0826 46.4174C15.8641 46.1988 15.7153 45.9204 15.655 45.6173C15.5947 45.3142 15.6257 45.0001 15.7439 44.7146C15.8622 44.4291 16.0625 44.185 16.3194 44.0133C16.5764 43.8416 16.8785 43.75 17.1875 43.75C17.6019 43.75 17.9993 43.9146 18.2924 44.2076C18.5854 44.5007 18.75 44.8981 18.75 45.3125ZM92.675 88.5484C92.4363 89.4458 91.9364 90.252 91.2389 90.8649C90.5413 91.4777 89.6774 91.8696 88.7568 91.9908C87.8362 92.112 86.9003 91.957 86.0679 91.5456C85.2355 91.1341 84.5441 90.4847 84.0813 89.6797L74.0625 72.3203L82.1875 67.6328L92.2063 85C92.5143 85.5314 92.7142 86.1185 92.7947 86.7274C92.8751 87.3364 92.8345 87.9553 92.675 88.5484Z" fill="black"/>
<path d="M64.0625 87.5H62.5V73.4375C62.5 73.0231 62.3354 72.6257 62.0424 72.3326C61.7493 72.0396 61.3519 71.875 60.9375 71.875H54.6875C54.2731 71.875 53.8757 72.0396 53.5826 72.3326C53.2896 72.6257 53.125 73.0231 53.125 73.4375V87.5H50V67.1875C50 66.7731 49.8354 66.3757 49.5424 66.0826C49.2493 65.7896 48.8519 65.625 48.4375 65.625H42.1875C41.7731 65.625 41.3757 65.7896 41.0826 66.0826C40.7896 66.3757 40.625 66.7731 40.625 67.1875V87.5H37.5V73.4375C37.5 73.0231 37.3354 72.6257 37.0424 72.3326C36.7493 72.0396 36.3519 71.875 35.9375 71.875H29.6875C29.2731 71.875 28.8757 72.0396 28.5826 72.3326C28.2896 72.6257 28.125 73.0231 28.125 73.4375V87.5H25V79.6875C25 79.2731 24.8354 78.8757 24.5424 78.5826C24.2493 78.2896 23.8519 78.125 23.4375 78.125H17.1875C16.7731 78.125 16.3757 78.2896 16.0826 78.5826C15.7896 78.8757 15.625 79.2731 15.625 79.6875V87.5H14.0625C13.6481 87.5 13.2507 87.6646 12.9576 87.9576C12.6646 88.2507 12.5 88.6481 12.5 89.0625C12.5 89.4769 12.6646 89.8743 12.9576 90.1674C13.2507 90.4604 13.6481 90.625 14.0625 90.625H64.0625C64.4769 90.625 64.8743 90.4604 65.1674 90.1674C65.4604 89.8743 65.625 89.4769 65.625 89.0625C65.625 88.6481 65.4604 88.2507 65.1674 87.9576C64.8743 87.6646 64.4769 87.5 64.0625 87.5ZM18.75 87.5V81.25H21.875V87.5H18.75ZM31.25 87.5V75H34.375V87.5H31.25ZM43.75 87.5V68.75H46.875V87.5H43.75ZM56.25 87.5V75H59.375V87.5H56.25Z" fill="black"/>
<path d="M12.5 59.375H31.25C31.6644 59.375 32.0618 59.2104 32.3549 58.9174C32.6479 58.6243 32.8125 58.2269 32.8125 57.8125C32.8125 57.3981 32.6479 57.0007 32.3549 56.7076C32.0618 56.4146 31.6644 56.25 31.25 56.25H12.5C12.0856 56.25 11.6882 56.4146 11.3951 56.7076C11.1021 57.0007 10.9375 57.3981 10.9375 57.8125C10.9375 58.2269 11.1021 58.6243 11.3951 58.9174C11.6882 59.2104 12.0856 59.375 12.5 59.375Z" fill="black"/>
<path d="M31.25 65.625C31.6644 65.625 32.0618 65.4604 32.3549 65.1674C32.6479 64.8743 32.8125 64.4769 32.8125 64.0625C32.8125 63.6481 32.6479 63.2507 32.3549 62.9576C32.0618 62.6646 31.6644 62.5 31.25 62.5H12.5C12.0856 62.5 11.6882 62.6646 11.3951 62.9576C11.1021 63.2507 10.9375 63.6481 10.9375 64.0625C10.9375 64.4769 11.1021 64.8743 11.3951 65.1674C11.6882 65.4604 12.0856 65.625 12.5 65.625H31.25Z" fill="black"/>
<defs>
<linearGradient id="paint0_linear" x1="83.1639" y1="65.499" x2="83.1639" y2="93.5848" gradientUnits="userSpaceOnUse">
<stop stop-color="#36D1DC"/>
<stop offset="1" stop-color="#5B86E5"/>
</linearGradient>
<linearGradient id="paint1_linear" x1="57.8125" y1="73.4375" x2="57.8125" y2="89.0625" gradientUnits="userSpaceOnUse">
<stop stop-color="#36D1DC"/>
<stop offset="1" stop-color="#5B86E5"/>
</linearGradient>
</defs>
</svg>
