<svg width="100" height="100" viewBox="0 0 100 100" fill="none" xmlns="http://www.w3.org/2000/svg">
<path d="M85.9375 57.8125H26.5625C21.3848 57.8125 17.1875 62.0098 17.1875 67.1875V85.9375C17.1875 91.1152 21.3848 95.3125 26.5625 95.3125H85.9375C91.1152 95.3125 95.3125 91.1152 95.3125 85.9375V67.1875C95.3125 62.0098 91.1152 57.8125 85.9375 57.8125Z" fill="url(#paint0_linear)"/>
<path d="M95.3125 14.0625V39.0625C95.3125 41.5489 94.3248 43.9335 92.5666 45.6916C90.8085 47.4498 88.4239 48.4375 85.9375 48.4375H23.4375L4.6875 67.1875V14.0625C4.6875 11.5761 5.67522 9.19153 7.43337 7.43337C9.19153 5.67522 11.5761 4.6875 14.0625 4.6875H85.9375C88.4239 4.6875 90.8085 5.67522 92.5666 7.43337C94.3248 9.19153 95.3125 11.5761 95.3125 14.0625Z" fill="#C6C6C6"/>
<path d="M26.5625 39.0625C33.4661 39.0625 39.0625 33.4661 39.0625 26.5625C39.0625 19.6589 33.4661 14.0625 26.5625 14.0625C19.6589 14.0625 14.0625 19.6589 14.0625 26.5625C14.0625 33.4661 19.6589 39.0625 26.5625 39.0625Z" fill="#FFEB99"/>
<path d="M76.5625 89.0625C83.4661 89.0625 89.0625 83.4661 89.0625 76.5625C89.0625 69.6589 83.4661 64.0625 76.5625 64.0625C69.6589 64.0625 64.0625 69.6589 64.0625 76.5625C64.0625 83.4661 69.6589 89.0625 76.5625 89.0625Z" fill="#FFEB99"/>
<path d="M28.125 28.125H25C23.3424 28.125 21.7527 28.7835 20.5806 29.9556C19.4085 31.1277 18.75 32.7174 18.75 34.375V36.3125C20.9649 38.0924 23.7211 39.0626 26.5625 39.0626C29.4039 39.0626 32.1601 38.0924 34.375 36.3125V34.375C34.375 32.7174 33.7165 31.1277 32.5444 29.9556C31.3723 28.7835 29.7826 28.125 28.125 28.125Z" fill="#D80027"/>
<path d="M26.5625 25C28.2884 25 29.6875 23.6009 29.6875 21.875C29.6875 20.1491 28.2884 18.75 26.5625 18.75C24.8366 18.75 23.4375 20.1491 23.4375 21.875C23.4375 23.6009 24.8366 25 26.5625 25Z" fill="#D80027"/>
<path d="M78.125 78.125H75C73.3424 78.125 71.7527 78.7835 70.5806 79.9556C69.4085 81.1277 68.75 82.7174 68.75 84.375V86.3125C70.9649 88.0924 73.7211 89.0626 76.5625 89.0626C79.4039 89.0626 82.1601 88.0924 84.375 86.3125V84.375C84.375 82.7174 83.7165 81.1277 82.5444 79.9556C81.3723 78.7835 79.7826 78.125 78.125 78.125Z" fill="#FFCD00"/>
<path d="M76.5625 75C78.2884 75 79.6875 73.6009 79.6875 71.875C79.6875 70.1491 78.2884 68.75 76.5625 68.75C74.8366 68.75 73.4375 70.1491 73.4375 71.875C73.4375 73.6009 74.8366 75 76.5625 75Z" fill="#FFCD00"/>
<path d="M56.8656 48.4375H85.9375C88.4239 48.4375 90.8085 47.4498 92.5666 45.6916C94.3248 43.9335 95.3125 41.5489 95.3125 39.0625V17.2344C90.7156 30.9609 76.2813 42.3797 56.8656 48.4375Z" fill="#A4A4A4"/>
<path d="M85.9375 3.125H14.0625C11.1627 3.12831 8.38264 4.28171 6.33217 6.33217C4.28171 8.38264 3.12831 11.1627 3.125 14.0625V67.1875C3.12507 67.4965 3.21674 67.7985 3.38844 68.0554C3.56013 68.3123 3.80413 68.5125 4.0896 68.6308C4.37507 68.749 4.68919 68.7799 4.99224 68.7197C5.29529 68.6594 5.57367 68.5106 5.79219 68.2922L24.0844 50H85.9375C88.8373 49.9967 91.6174 48.8433 93.6678 46.7928C95.7183 44.7424 96.8717 41.9623 96.875 39.0625V14.0625C96.8717 11.1627 95.7183 8.38264 93.6678 6.33217C91.6174 4.28171 88.8373 3.12831 85.9375 3.125ZM93.75 39.0625C93.7475 41.1337 92.9236 43.1194 91.459 44.584C89.9944 46.0486 88.0087 46.8725 85.9375 46.875H23.4375C23.0231 46.8751 22.6258 47.0398 22.3328 47.3328L6.25 63.4156V14.0625C6.25248 11.9913 7.07638 10.0056 8.54097 8.54097C10.0056 7.07638 11.9913 6.25248 14.0625 6.25H85.9375C88.0087 6.25248 89.9944 7.07638 91.459 8.54097C92.9236 10.0056 93.7475 11.9913 93.75 14.0625V39.0625Z" fill="#231F20"/>
<path d="M26.5625 12.5C23.7812 12.5 21.0623 13.3248 18.7498 14.87C16.4372 16.4152 14.6348 18.6114 13.5704 21.181C12.5061 23.7506 12.2276 26.5781 12.7702 29.306C13.3128 32.0338 14.6521 34.5395 16.6188 36.5062C18.5855 38.4729 21.0912 39.8122 23.819 40.3548C26.5469 40.8974 29.3744 40.6189 31.944 39.5546C34.5135 38.4902 36.7098 36.6878 38.255 34.3752C39.8002 32.0626 40.625 29.3438 40.625 26.5625C40.6204 22.8343 39.1374 19.2601 36.5011 16.6238C33.8649 13.9876 30.2907 12.5045 26.5625 12.5ZM20.3125 35.525V34.375C20.3125 33.1318 20.8063 31.9395 21.6854 31.0604C22.5645 30.1814 23.7568 29.6875 25 29.6875H28.125C29.3682 29.6875 30.5605 30.1814 31.4395 31.0604C32.3186 31.9395 32.8125 33.1318 32.8125 34.375V35.525C30.9818 36.8104 28.7993 37.5 26.5625 37.5C24.3256 37.5 22.1432 36.8104 20.3125 35.525ZM35.7015 32.5562C35.2937 30.8523 34.3249 29.3349 32.9508 28.2479C31.5767 27.1609 29.8771 26.5673 28.125 26.5625H25C23.2481 26.5672 21.5487 27.1606 20.1746 28.2473C18.8005 29.334 17.8316 30.851 17.4234 32.5547C16.3396 30.9054 15.7223 28.9936 15.6368 27.0219C15.5513 25.0502 16.0009 23.0922 16.9379 21.3553C17.8749 19.6184 19.2644 18.1673 20.9591 17.156C22.6538 16.1447 24.5905 15.6107 26.564 15.6107C28.5376 15.6107 30.4743 16.1447 32.169 17.156C33.8637 18.1673 35.2532 19.6184 36.1902 21.3553C37.1272 23.0922 37.5768 25.0502 37.4913 27.0219C37.4058 28.9936 36.7885 30.9054 35.7047 32.5547L35.7015 32.5562Z" fill="#231F20"/>
<path d="M31.25 21.875C31.25 20.9479 30.9751 20.0416 30.46 19.2708C29.9449 18.4999 29.2129 17.8991 28.3563 17.5443C27.4998 17.1895 26.5573 17.0967 25.648 17.2776C24.7387 17.4584 23.9035 17.9049 23.2479 18.5604C22.5924 19.216 22.1459 20.0512 21.9651 20.9605C21.7842 21.8698 21.877 22.8123 22.2318 23.6688C22.5866 24.5254 23.1874 25.2574 23.9583 25.7725C24.7291 26.2876 25.6354 26.5625 26.5625 26.5625C27.8057 26.5625 28.998 26.0686 29.8771 25.1896C30.7561 24.3105 31.25 23.1182 31.25 21.875ZM26.5625 23.4375C26.2535 23.4375 25.9514 23.3459 25.6944 23.1742C25.4375 23.0025 25.2372 22.7585 25.1189 22.4729C25.0007 22.1874 24.9697 21.8733 25.03 21.5702C25.0903 21.2671 25.2391 20.9887 25.4576 20.7701C25.6762 20.5516 25.9546 20.4028 26.2577 20.3425C26.5608 20.2822 26.8749 20.3132 27.1604 20.4314C27.446 20.5497 27.69 20.75 27.8617 21.0069C28.0334 21.2639 28.125 21.566 28.125 21.875C28.125 22.2894 27.9604 22.6868 27.6674 22.9799C27.3743 23.2729 26.9769 23.4375 26.5625 23.4375Z" fill="#231F20"/>
<path d="M76.5625 62.5C73.7812 62.5 71.0624 63.3248 68.7498 64.87C66.4372 66.4152 64.6348 68.6114 63.5705 71.181C62.5061 73.7506 62.2276 76.5781 62.7702 79.306C63.3128 82.0338 64.6521 84.5395 66.6188 86.5062C68.5855 88.4729 71.0912 89.8122 73.8191 90.3548C76.5469 90.8974 79.3744 90.6189 81.944 89.5546C84.5136 88.4902 86.7098 86.6878 88.2551 84.3752C89.8003 82.0626 90.625 79.3438 90.625 76.5625C90.6205 72.8343 89.1374 69.2601 86.5012 66.6238C83.8649 63.9876 80.2907 62.5045 76.5625 62.5ZM70.3125 85.525V84.375C70.3125 83.1318 70.8064 81.9395 71.6854 81.0604C72.5645 80.1814 73.7568 79.6875 75 79.6875H78.125C79.3682 79.6875 80.5605 80.1814 81.4396 81.0604C82.3187 81.9395 82.8125 83.1318 82.8125 84.375V85.525C80.9818 86.8104 78.7994 87.5 76.5625 87.5C74.3257 87.5 72.1432 86.8104 70.3125 85.525ZM85.7016 82.5563C85.2937 80.8523 84.3249 79.3349 82.9508 78.2479C81.5767 77.1609 79.8771 76.5673 78.125 76.5625H75C73.2481 76.5672 71.5487 77.1606 70.1746 78.2473C68.8006 79.334 67.8316 80.851 67.4234 82.5547C66.3397 80.9054 65.7223 78.9936 65.6368 77.0219C65.5514 75.0502 66.0009 73.0922 66.9379 71.3553C67.8749 69.6184 69.2644 68.1674 70.9591 67.156C72.6538 66.1447 74.5906 65.6107 76.5641 65.6107C78.5376 65.6107 80.4743 66.1447 82.169 67.156C83.8637 68.1674 85.2532 69.6184 86.1902 71.3553C87.1272 73.0922 87.5768 75.0502 87.4913 77.0219C87.4058 78.9936 86.7885 80.9054 85.7047 82.5547L85.7016 82.5563Z" fill="#231F20"/>
<path d="M81.25 71.875C81.25 70.9479 80.9751 70.0416 80.46 69.2708C79.9449 68.4999 79.2129 67.8991 78.3563 67.5443C77.4998 67.1895 76.5573 67.0967 75.648 67.2776C74.7387 67.4584 73.9035 67.9049 73.2479 68.5604C72.5924 69.216 72.1459 70.0512 71.9651 70.9605C71.7842 71.8698 71.877 72.8123 72.2318 73.6688C72.5866 74.5254 73.1874 75.2574 73.9583 75.7725C74.7291 76.2876 75.6354 76.5625 76.5625 76.5625C77.8057 76.5625 78.998 76.0686 79.8771 75.1896C80.7561 74.3105 81.25 73.1182 81.25 71.875ZM76.5625 73.4375C76.2535 73.4375 75.9514 73.3459 75.6944 73.1742C75.4375 73.0025 75.2372 72.7585 75.1189 72.4729C75.0007 72.1874 74.9697 71.8733 75.03 71.5702C75.0903 71.2671 75.2391 70.9887 75.4576 70.7701C75.6762 70.5516 75.9546 70.4028 76.2577 70.3425C76.5608 70.2822 76.8749 70.3132 77.1604 70.4314C77.446 70.5497 77.69 70.75 77.8617 71.0069C78.0334 71.2639 78.125 71.566 78.125 71.875C78.125 72.2894 77.9604 72.6868 77.6674 72.9799C77.3743 73.2729 76.9769 73.4375 76.5625 73.4375Z" fill="#231F20"/>
<path d="M85.9375 56.25H26.5625C23.6627 56.2533 20.8826 57.4067 18.8322 59.4572C16.7817 61.5076 15.6283 64.2877 15.625 67.1875V85.9375C15.6283 88.8373 16.7817 91.6174 18.8322 93.6678C20.8826 95.7183 23.6627 96.8717 26.5625 96.875H85.9375C88.8373 96.8717 91.6174 95.7183 93.6678 93.6678C95.7183 91.6174 96.8717 88.8373 96.875 85.9375V67.1875C96.8717 64.2877 95.7183 61.5076 93.6678 59.4572C91.6174 57.4067 88.8373 56.2533 85.9375 56.25ZM93.75 85.9375C93.7475 88.0087 92.9236 89.9944 91.459 91.459C89.9944 92.9236 88.0087 93.7475 85.9375 93.75H26.5625C24.4913 93.7475 22.5056 92.9236 21.041 91.459C19.5764 89.9944 18.7525 88.0087 18.75 85.9375V67.1875C18.7525 65.1163 19.5764 63.1306 21.041 61.666C22.5056 60.2014 24.4913 59.3775 26.5625 59.375H85.9375C88.0087 59.3775 89.9944 60.2014 91.459 61.666C92.9236 63.1306 93.7475 65.1163 93.75 67.1875V85.9375Z" fill="#231F20"/>
<path d="M85.9375 25H48.4375C48.0231 25 47.6257 25.1646 47.3326 25.4576C47.0396 25.7507 46.875 26.1481 46.875 26.5625C46.875 26.9769 47.0396 27.3743 47.3326 27.6674C47.6257 27.9604 48.0231 28.125 48.4375 28.125H85.9375C86.3519 28.125 86.7493 27.9604 87.0424 27.6674C87.3354 27.3743 87.5 26.9769 87.5 26.5625C87.5 26.1481 87.3354 25.7507 87.0424 25.4576C86.7493 25.1646 86.3519 25 85.9375 25Z" fill="#231F20"/>
<path d="M85.9375 31.25H48.4375C48.0231 31.25 47.6257 31.4146 47.3326 31.7076C47.0396 32.0007 46.875 32.3981 46.875 32.8125C46.875 33.2269 47.0396 33.6243 47.3326 33.9174C47.6257 34.2104 48.0231 34.375 48.4375 34.375H85.9375C86.3519 34.375 86.7493 34.2104 87.0424 33.9174C87.3354 33.6243 87.5 33.2269 87.5 32.8125C87.5 32.3981 87.3354 32.0007 87.0424 31.7076C86.7493 31.4146 86.3519 31.25 85.9375 31.25Z" fill="#231F20"/>
<path d="M54.6875 68.75H26.5625C26.1481 68.75 25.7507 68.9146 25.4576 69.2076C25.1646 69.5007 25 69.8981 25 70.3125C25 70.7269 25.1646 71.1243 25.4576 71.4174C25.7507 71.7104 26.1481 71.875 26.5625 71.875H54.6875C55.1019 71.875 55.4993 71.7104 55.7924 71.4174C56.0854 71.1243 56.25 70.7269 56.25 70.3125C56.25 69.8981 56.0854 69.5007 55.7924 69.2076C55.4993 68.9146 55.1019 68.75 54.6875 68.75Z" fill="#231F20"/>
<path d="M54.6875 75H26.5625C26.1481 75 25.7507 75.1646 25.4576 75.4576C25.1646 75.7507 25 76.1481 25 76.5625C25 76.9769 25.1646 77.3743 25.4576 77.6674C25.7507 77.9604 26.1481 78.125 26.5625 78.125H54.6875C55.1019 78.125 55.4993 77.9604 55.7924 77.6674C56.0854 77.3743 56.25 76.9769 56.25 76.5625C56.25 76.1481 56.0854 75.7507 55.7924 75.4576C55.4993 75.1646 55.1019 75 54.6875 75Z" fill="#231F20"/>
<path d="M54.6875 81.25H26.5625C26.1481 81.25 25.7507 81.4146 25.4576 81.7076C25.1646 82.0007 25 82.3981 25 82.8125C25 83.2269 25.1646 83.6243 25.4576 83.9174C25.7507 84.2104 26.1481 84.375 26.5625 84.375H54.6875C55.1019 84.375 55.4993 84.2104 55.7924 83.9174C56.0854 83.6243 56.25 83.2269 56.25 82.8125C56.25 82.3981 56.0854 82.0007 55.7924 81.7076C55.4993 81.4146 55.1019 81.25 54.6875 81.25Z" fill="#231F20"/>
<path d="M85.9375 18.75H48.4375C48.0231 18.75 47.6257 18.9146 47.3326 19.2076C47.0396 19.5007 46.875 19.8981 46.875 20.3125C46.875 20.7269 47.0396 21.1243 47.3326 21.4174C47.6257 21.7104 48.0231 21.875 48.4375 21.875H85.9375C86.3519 21.875 86.7493 21.7104 87.0424 21.4174C87.3354 21.1243 87.5 20.7269 87.5 20.3125C87.5 19.8981 87.3354 19.5007 87.0424 19.2076C86.7493 18.9146 86.3519 18.75 85.9375 18.75Z" fill="#231F20"/>
<defs>
<linearGradient id="paint0_linear" x1="56.25" y1="57.8125" x2="56.25" y2="95.3125" gradientUnits="userSpaceOnUse">
<stop stop-color="#36D1DC"/>
<stop offset="1" stop-color="#5B86E5"/>
</linearGradient>
</defs>
</svg>
