<svg width="100" height="100" viewBox="0 0 100 100" fill="none" xmlns="http://www.w3.org/2000/svg">
<path d="M89.0625 4.6875H10.9375C7.48572 4.6875 4.6875 7.48572 4.6875 10.9375V67.1875C4.6875 70.6393 7.48572 73.4375 10.9375 73.4375H89.0625C92.5143 73.4375 95.3125 70.6393 95.3125 67.1875V10.9375C95.3125 7.48572 92.5143 4.6875 89.0625 4.6875Z" fill="url(#paint0_linear)"/>
<path d="M10.9376 20.3125H89.0626V60.9375H10.9376V20.3125Z" fill="#C6C6C6"/>
<path d="M53.0265 25L54.7843 34.375H62.5V25H53.0312H53.0265Z" fill="#5EAC24"/>
<path d="M54.7813 34.375H46.4844L48.4375 42.1875H56.25L54.7844 34.375H54.7813Z" fill="#4E901E"/>
<path d="M54.7844 34.375L53.0266 25H44.1407L46.4844 34.375H54.7813H54.7844Z" fill="#5EAC24"/>
<path d="M70.2188 34.375H78.5157L76.5625 42.1875H68.75L70.2157 34.375H70.2188Z" fill="#4E901E"/>
<path d="M70.2157 34.375L71.9735 25H80.8595L78.5157 34.375H70.2188H70.2157Z" fill="#5EAC24"/>
<path d="M62.5001 34.375V42.1875H68.7501L70.2141 34.375H62.5001Z" fill="#4E901E"/>
<path d="M54.7843 34.375L56.25 42.1875H62.5V34.375H54.7843Z" fill="#4E901E"/>
<path d="M62.5001 25V34.375H70.2141L71.9719 25H71.9688H62.5001Z" fill="#5EAC24"/>
<path d="M50 70.3125C51.7259 70.3125 53.125 68.9134 53.125 67.1875C53.125 65.4616 51.7259 64.0625 50 64.0625C48.2741 64.0625 46.875 65.4616 46.875 67.1875C46.875 68.9134 48.2741 70.3125 50 70.3125Z" fill="url(#paint1_linear)"/>
<path d="M39.0626 73.4375H60.9376V85.9375H39.0626V73.4375Z" fill="#A7A9AC"/>
<path d="M26.5626 85.9375C24.905 85.9375 23.3152 86.596 22.1431 87.7681C20.971 88.9402 20.3126 90.5299 20.3126 92.1875V95.3125H79.6876V92.1875C79.6876 90.5299 79.0291 88.9402 77.857 87.7681C76.6849 86.596 75.0952 85.9375 73.4376 85.9375H26.5626Z" fill="#808285"/>
<path d="M54.6875 50C56.4134 50 57.8125 48.6009 57.8125 46.875C57.8125 45.1491 56.4134 43.75 54.6875 43.75C52.9616 43.75 51.5625 45.1491 51.5625 46.875C51.5625 48.6009 52.9616 50 54.6875 50Z" fill="#D80027"/>
<path d="M70.3126 50C72.0385 50 73.4376 48.6009 73.4376 46.875C73.4376 45.1491 72.0385 43.75 70.3126 43.75C68.5867 43.75 67.1876 45.1491 67.1876 46.875C67.1876 48.6009 68.5867 50 70.3126 50Z" fill="#D80027"/>
<path d="M20.3126 29.6875H39.0626V42.1875H20.3126V29.6875Z" fill="#D80027"/>
<path d="M10.9376 10.9375H89.0626V20.3125H10.9376V10.9375Z" fill="#FFCD00"/>
<path d="M53.0312 25H62.5V17.1875H51.5625L53.0266 25H53.0312Z" fill="#7ED63E"/>
<path d="M51.5625 17.1875H42.1875L44.1406 25H53.0266L51.5625 17.1875Z" fill="#7ED63E"/>
<path d="M73.4376 17.1875H82.8126L80.8595 25H71.9735L73.4376 17.1875Z" fill="#7ED63E"/>
<path d="M62.5 17.1875V25H71.9687H71.9718L73.4375 17.1875H62.5Z" fill="#7ED63E"/>
<path d="M28.125 60.9375H89.0625V20.3125C89.0625 42.7672 61.8078 60.9375 28.125 60.9375Z" fill="#A4A4A4"/>
<path d="M95.3125 12.5C94.8981 12.5 94.5007 12.6646 94.2077 12.9576C93.9147 13.2507 93.75 13.6481 93.75 14.0625V67.1875C93.75 68.4307 93.2562 69.623 92.3771 70.5021C91.498 71.3811 90.3057 71.875 89.0625 71.875H10.9375C9.69433 71.875 8.50205 71.3811 7.62297 70.5021C6.74389 69.623 6.25003 68.4307 6.25003 67.1875V10.9375C6.25003 9.6943 6.74389 8.50201 7.62297 7.62294C8.50205 6.74386 9.69433 6.25 10.9375 6.25H78.125C78.5394 6.25 78.9369 6.08538 79.2299 5.79235C79.5229 5.49933 79.6875 5.1019 79.6875 4.6875C79.6875 4.2731 79.5229 3.87567 79.2299 3.58265C78.9369 3.28962 78.5394 3.125 78.125 3.125H10.9375C8.86629 3.12748 6.88059 3.95138 5.416 5.41597C3.95141 6.88056 3.12751 8.86626 3.12503 10.9375V67.1875C3.12751 69.2588 3.95141 71.2445 5.416 72.709C6.88059 74.1736 8.86629 74.9975 10.9375 75H37.5V84.375H26.5625C24.4913 84.3775 22.5056 85.2014 21.041 86.666C19.5764 88.1306 18.7525 90.1163 18.75 92.1875V95.3125C18.75 95.7269 18.9147 96.1243 19.2077 96.4174C19.5007 96.7104 19.8981 96.875 20.3125 96.875H79.6875C80.1019 96.875 80.4994 96.7104 80.7924 96.4174C81.0854 96.1243 81.25 95.7269 81.25 95.3125V92.1875C81.2476 90.1163 80.4237 88.1306 78.9591 86.666C77.4945 85.2014 75.5088 84.3775 73.4375 84.375H62.5V75H89.0625C91.1338 74.9975 93.1195 74.1736 94.5841 72.709C96.0487 71.2445 96.8726 69.2588 96.875 67.1875V14.0625C96.875 13.6481 96.7104 13.2507 96.4174 12.9576C96.1244 12.6646 95.7269 12.5 95.3125 12.5ZM78.125 92.1875V93.75H21.875V92.1875C21.875 90.9443 22.3689 89.752 23.248 88.873C24.127 87.9939 25.3193 87.5 26.5625 87.5H73.4375C74.6807 87.5 75.873 87.9939 76.7521 88.873C77.6312 89.752 78.125 90.9443 78.125 92.1875ZM59.375 84.375H40.625V75H59.375V84.375Z" fill="black"/>
<path d="M90.625 60.9375V14.0625C90.625 13.6481 90.4604 13.2507 90.1674 12.9576C89.8743 12.6646 89.4769 12.5 89.0625 12.5C88.6481 12.5 88.2507 12.6646 87.9576 12.9576C87.6646 13.2507 87.5 13.6481 87.5 14.0625V59.375H12.5V21.875H37.5C37.9144 21.875 38.3118 21.7104 38.6049 21.4174C38.8979 21.1243 39.0625 20.7269 39.0625 20.3125C39.0625 19.8981 38.8979 19.5007 38.6049 19.2076C38.3118 18.9146 37.9144 18.75 37.5 18.75H12.5V12.5H78.125C78.5394 12.5 78.9368 12.3354 79.2299 12.0424C79.5229 11.7493 79.6875 11.3519 79.6875 10.9375C79.6875 10.5231 79.5229 10.1257 79.2299 9.83265C78.9368 9.53962 78.5394 9.375 78.125 9.375H10.9375C10.5231 9.375 10.1257 9.53962 9.83265 9.83265C9.53962 10.1257 9.375 10.5231 9.375 10.9375V60.9375C9.375 61.3519 9.53962 61.7493 9.83265 62.0424C10.1257 62.3354 10.5231 62.5 10.9375 62.5H89.0625C89.4769 62.5 89.8743 62.3354 90.1674 62.0424C90.4604 61.7493 90.625 61.3519 90.625 60.9375Z" fill="black"/>
<path d="M54.6875 67.1875C54.6875 66.2604 54.4126 65.3541 53.8975 64.5833C53.3824 63.8124 52.6504 63.2116 51.7938 62.8568C50.9373 62.502 49.9948 62.4092 49.0855 62.5901C48.1762 62.7709 47.341 63.2174 46.6854 63.8729C46.0299 64.5285 45.5834 65.3637 45.4026 66.273C45.2217 67.1823 45.3145 68.1248 45.6693 68.9813C46.0241 69.8379 46.6249 70.5699 47.3958 71.085C48.1666 71.6001 49.0729 71.875 50 71.875C51.2432 71.875 52.4355 71.3811 53.3146 70.5021C54.1936 69.623 54.6875 68.4307 54.6875 67.1875ZM50 68.75C49.691 68.75 49.3889 68.6584 49.1319 68.4867C48.875 68.315 48.6747 68.071 48.5564 67.7854C48.4382 67.4999 48.4072 67.1858 48.4675 66.8827C48.5278 66.5796 48.6766 66.3012 48.8951 66.0826C49.1137 65.8641 49.3921 65.7153 49.6952 65.655C49.9983 65.5947 50.3124 65.6257 50.5979 65.7439C50.8835 65.8622 51.1275 66.0625 51.2992 66.3194C51.4709 66.5764 51.5625 66.8785 51.5625 67.1875C51.5625 67.6019 51.3979 67.9993 51.1049 68.2924C50.8118 68.5854 50.4144 68.75 50 68.75Z" fill="black"/>
<path d="M42.1875 15.625C41.95 15.625 41.7156 15.6792 41.5022 15.7833C41.2887 15.8875 41.1019 16.039 40.9557 16.2262C40.8096 16.4135 40.7081 16.6316 40.6589 16.8639C40.6097 17.0963 40.6142 17.3368 40.6719 17.5672L46.9219 42.5672C47.0065 42.9051 47.2017 43.205 47.4763 43.4193C47.7509 43.6336 48.0892 43.75 48.4375 43.75H51.2188C50.608 44.422 50.2055 45.2569 50.0603 46.1533C49.9151 47.0497 50.0334 47.969 50.4008 48.7994C50.7682 49.6298 51.3689 50.3357 52.1299 50.8311C52.8909 51.3266 53.7794 51.5904 54.6875 51.5904C55.5956 51.5904 56.4841 51.3266 57.2451 50.8311C58.0061 50.3357 58.6068 49.6298 58.9742 48.7994C59.3416 47.969 59.4599 47.0497 59.3147 46.1533C59.1695 45.2569 58.7671 44.422 58.1563 43.75H66.8438C66.233 44.422 65.8305 45.2569 65.6853 46.1533C65.5401 47.0497 65.6584 47.969 66.0258 48.7994C66.3932 49.6298 66.9939 50.3357 67.7549 50.8311C68.5159 51.3266 69.4044 51.5904 70.3125 51.5904C71.2206 51.5904 72.1091 51.3266 72.8701 50.8311C73.6311 50.3357 74.2318 49.6298 74.5992 48.7994C74.9666 47.969 75.0849 47.0497 74.9397 46.1533C74.7945 45.2569 74.392 44.422 73.7813 43.75H76.5625C76.5969 43.75 76.6266 43.7328 76.661 43.7297C76.7157 43.7395 76.771 43.7463 76.8266 43.75C77.1762 43.7499 77.5157 43.6325 77.7908 43.4167C78.0658 43.2008 78.2606 42.899 78.3438 42.5594L87.2422 6.25H95.3125C95.7269 6.25 96.1243 6.08538 96.4174 5.79236C96.7104 5.49933 96.875 5.1019 96.875 4.6875C96.875 4.2731 96.7104 3.87567 96.4174 3.58265C96.1243 3.28962 95.7269 3.125 95.3125 3.125H86.0172C85.6673 3.12474 85.3274 3.24194 85.0521 3.45782C84.7767 3.67371 84.5817 3.97577 84.4985 4.31563L81.7266 15.625H42.1875ZM79.811 23.4375H73.8547L74.7328 18.75H80.961L79.811 23.4375ZM77.5141 32.8125H72.0969L73.2688 26.5625H79.05L77.5141 32.8125ZM75.5985 40.625H70.625L71.5047 35.9375H76.7406L75.5985 40.625ZM46.1422 26.5625H51.7313L52.9031 32.8125H47.7047L46.1422 26.5625ZM54.9094 26.5625H60.9375V32.8125H56.0813L54.9094 26.5625ZM60.9375 23.4375H54.3235L53.4375 18.75H60.9375V23.4375ZM64.0625 18.75H71.5625L70.6828 23.4375H64.0625V18.75ZM64.0625 26.5625H70.0906L68.9188 32.8125H64.0625V26.5625ZM50.2672 18.75L51.1453 23.4375H45.3641L44.1922 18.75H50.2672ZM48.486 35.9375H53.486L54.3656 40.625H49.6578L48.486 35.9375ZM54.6875 48.4375C54.3785 48.4375 54.0764 48.3459 53.8194 48.1742C53.5625 48.0025 53.3622 47.7585 53.244 47.4729C53.1257 47.1874 53.0948 46.8733 53.155 46.5702C53.2153 46.2671 53.3641 45.9887 53.5827 45.7701C53.8012 45.5516 54.0796 45.4028 54.3827 45.3425C54.6858 45.2822 55 45.3132 55.2855 45.4314C55.571 45.5497 55.815 45.75 55.9867 46.0069C56.1584 46.2639 56.25 46.566 56.25 46.875C56.25 47.2894 56.0854 47.6868 55.7924 47.9799C55.4994 48.2729 55.1019 48.4375 54.6875 48.4375ZM57.5453 40.625L56.6672 35.9375H60.9375V40.625H57.5453ZM64.0625 35.9375H68.3328L67.4547 40.625H64.0625V35.9375ZM70.3125 48.4375C70.0035 48.4375 69.7014 48.3459 69.4444 48.1742C69.1875 48.0025 68.9872 47.7585 68.869 47.4729C68.7507 47.1874 68.7198 46.8733 68.78 46.5702C68.8403 46.2671 68.9891 45.9887 69.2077 45.7701C69.4262 45.5516 69.7046 45.4028 70.0077 45.3425C70.3108 45.2822 70.625 45.3132 70.9105 45.4314C71.196 45.5497 71.44 45.75 71.6117 46.0069C71.7834 46.2639 71.875 46.566 71.875 46.875C71.875 47.2894 71.7104 47.6868 71.4174 47.9799C71.1243 48.2729 70.7269 48.4375 70.3125 48.4375Z" fill="black"/>
<path d="M15.625 14.0625C15.2106 14.0625 14.8132 14.2271 14.5201 14.5201C14.2271 14.8132 14.0625 15.2106 14.0625 15.625C14.0625 16.0394 14.2271 16.4368 14.5201 16.7299C14.8132 17.0229 15.2106 17.1875 15.625 17.1875H17.1875C17.6019 17.1875 17.9993 17.0229 18.2924 16.7299C18.5854 16.4368 18.75 16.0394 18.75 15.625C18.75 15.2106 18.5854 14.8132 18.2924 14.5201C17.9993 14.2271 17.6019 14.0625 17.1875 14.0625H15.625Z" fill="black"/>
<path d="M21.8751 14.0625C21.4607 14.0625 21.0632 14.2271 20.7702 14.5201C20.4772 14.8132 20.3126 15.2106 20.3126 15.625C20.3126 16.0394 20.4772 16.4368 20.7702 16.7299C21.0632 17.0229 21.4607 17.1875 21.8751 17.1875H23.4376C23.852 17.1875 24.2494 17.0229 24.5424 16.7299C24.8354 16.4368 25.0001 16.0394 25.0001 15.625C25.0001 15.2106 24.8354 14.8132 24.5424 14.5201C24.2494 14.2271 23.852 14.0625 23.4376 14.0625H21.8751Z" fill="black"/>
<path d="M28.125 14.0625C27.7106 14.0625 27.3132 14.2271 27.0202 14.5201C26.7271 14.8132 26.5625 15.2106 26.5625 15.625C26.5625 16.0394 26.7271 16.4368 27.0202 16.7299C27.3132 17.0229 27.7106 17.1875 28.125 17.1875H29.6875C30.1019 17.1875 30.4994 17.0229 30.7924 16.7299C31.0854 16.4368 31.25 16.0394 31.25 15.625C31.25 15.2106 31.0854 14.8132 30.7924 14.5201C30.4994 14.2271 30.1019 14.0625 29.6875 14.0625H28.125Z" fill="black"/>
<path d="M20.3125 43.75H39.0625C39.4769 43.75 39.8743 43.5854 40.1674 43.2924C40.4604 42.9993 40.625 42.6019 40.625 42.1875V29.6875C40.625 29.2731 40.4604 28.8757 40.1674 28.5826C39.8743 28.2896 39.4769 28.125 39.0625 28.125H20.3125C19.8981 28.125 19.5007 28.2896 19.2076 28.5826C18.9146 28.8757 18.75 29.2731 18.75 29.6875V42.1875C18.75 42.6019 18.9146 42.9993 19.2076 43.2924C19.5007 43.5854 19.8981 43.75 20.3125 43.75ZM21.875 31.25H37.5V40.625H21.875V31.25Z" fill="black"/>
<path d="M20.3125 50H45.3125C45.7269 50 46.1243 49.8354 46.4174 49.5424C46.7104 49.2493 46.875 48.8519 46.875 48.4375C46.875 48.0231 46.7104 47.6257 46.4174 47.3326C46.1243 47.0396 45.7269 46.875 45.3125 46.875H20.3125C19.8981 46.875 19.5007 47.0396 19.2076 47.3326C18.9146 47.6257 18.75 48.0231 18.75 48.4375C18.75 48.8519 18.9146 49.2493 19.2076 49.5424C19.5007 49.8354 19.8981 50 20.3125 50Z" fill="black"/>
<path d="M20.3125 56.25H51.5625C51.9769 56.25 52.3743 56.0854 52.6674 55.7924C52.9604 55.4993 53.125 55.1019 53.125 54.6875C53.125 54.2731 52.9604 53.8757 52.6674 53.5826C52.3743 53.2896 51.9769 53.125 51.5625 53.125H20.3125C19.8981 53.125 19.5007 53.2896 19.2076 53.5826C18.9146 53.8757 18.75 54.2731 18.75 54.6875C18.75 55.1019 18.9146 55.4993 19.2076 55.7924C19.5007 56.0854 19.8981 56.25 20.3125 56.25Z" fill="black"/>
<path d="M60.9375 53.125C60.5231 53.125 60.1257 53.2896 59.8327 53.5826C59.5396 53.8757 59.375 54.2731 59.375 54.6875C59.375 55.1019 59.5396 55.4993 59.8327 55.7924C60.1257 56.0854 60.5231 56.25 60.9375 56.25H82.8125C83.2269 56.25 83.6244 56.0854 83.9174 55.7924C84.2104 55.4993 84.375 55.1019 84.375 54.6875C84.375 54.2731 84.2104 53.8757 83.9174 53.5826C83.6244 53.2896 83.2269 53.125 82.8125 53.125H60.9375Z" fill="black"/>
<path d="M61.5 67C61.5 65.8954 62.3954 65 63.5 65H66.5C67.6046 65 68.5 65.8954 68.5 67C68.5 68.1046 67.6046 69 66.5 69H63.5C62.3954 69 61.5 68.1046 61.5 67Z" fill="black"/>
<path d="M70 67C70 65.8954 70.8954 65 72 65H75C76.1046 65 77 65.8954 77 67C77 68.1046 76.1046 69 75 69H72C70.8954 69 70 68.1046 70 67Z" fill="black"/>
<path d="M78.5 67C78.5 65.8954 79.3954 65 80.5 65H83.5C84.6046 65 85.5 65.8954 85.5 67C85.5 68.1046 84.6046 69 83.5 69H80.5C79.3954 69 78.5 68.1046 78.5 67Z" fill="black"/>
<defs>
<linearGradient id="paint0_linear" x1="50" y1="4.6875" x2="50" y2="73.4375" gradientUnits="userSpaceOnUse">
<stop stop-color="#56CCF2"/>
<stop offset="1" stop-color="#2F80ED"/>
</linearGradient>
<linearGradient id="paint1_linear" x1="50" y1="64.0625" x2="50" y2="70.3125" gradientUnits="userSpaceOnUse">
<stop stop-color="#C6C6C6"/>
<stop offset="1" stop-color="#A4A4A4"/>
</linearGradient>
</defs>
</svg>
