<svg width="100" height="100" viewBox="0 0 100 100" fill="none" xmlns="http://www.w3.org/2000/svg">
<path d="M28.1249 85.9375C27.2961 85.9375 26.5012 86.2667 25.9152 86.8528C25.3291 87.4388 24.9999 88.2337 24.9999 89.0625V92.1875C24.9999 93.0163 25.3291 93.8112 25.9152 94.3972C26.5012 94.9833 27.2961 95.3125 28.1249 95.3125H53.1249C53.9537 95.3125 54.7485 94.9833 55.3346 94.3972C55.9206 93.8112 56.2499 93.0163 56.2499 92.1875V89.0625C56.2499 88.2337 55.9206 87.4388 55.3346 86.8528C54.7485 86.2667 53.9537 85.9375 53.1249 85.9375H28.1249Z" fill="#CC7400"/>
<path d="M29.6874 76.5625C28.8586 76.5625 28.0638 76.8917 27.4777 77.4778C26.8917 78.0638 26.5624 78.8587 26.5624 79.6875V82.8125C26.5624 83.6413 26.8917 84.4362 27.4777 85.0222C28.0638 85.6083 28.8586 85.9375 29.6874 85.9375H54.6874C55.5162 85.9375 56.3111 85.6083 56.8971 85.0222C57.4832 84.4362 57.8124 83.6413 57.8124 82.8125V79.6875C57.8124 78.8587 57.4832 78.0638 56.8971 77.4778C56.3111 76.8917 55.5162 76.5625 54.6874 76.5625H29.6874Z" fill="#EE8700"/>
<path d="M28.1249 67.1875C27.2961 67.1875 26.5012 67.5167 25.9152 68.1028C25.3291 68.6888 24.9999 69.4837 24.9999 70.3125V73.4375C24.9999 74.2663 25.3291 75.0612 25.9152 75.6472C26.5012 76.2333 27.2961 76.5625 28.1249 76.5625H53.1249C53.9537 76.5625 54.7485 76.2333 55.3346 75.6472C55.9206 75.0612 56.2499 74.2663 56.2499 73.4375V70.3125C56.2499 69.4837 55.9206 68.6888 55.3346 68.1028C54.7485 67.5167 53.9537 67.1875 53.1249 67.1875H28.1249Z" fill="#FF9811"/>
<path d="M29.6874 57.8125C28.8586 57.8125 28.0638 58.1417 27.4777 58.7278C26.8917 59.3138 26.5624 60.1087 26.5624 60.9375V64.0625C26.5624 64.8913 26.8917 65.6862 27.4777 66.2722C28.0638 66.8583 28.8586 67.1875 29.6874 67.1875H54.6874C55.5162 67.1875 56.3111 66.8583 56.8971 66.2722C57.4832 65.6862 57.8124 64.8913 57.8124 64.0625V60.9375C57.8124 60.1087 57.4832 59.3138 56.8971 58.7278C56.3111 58.1417 55.5162 57.8125 54.6874 57.8125H29.6874Z" fill="#FFA733"/>
<path d="M26.5624 64.0625H20.3124C24.4564 64.0625 28.4307 65.7087 31.3609 68.639C34.2912 71.5692 35.9374 75.5435 35.9374 79.6875C35.9374 83.8315 34.2912 87.8058 31.3609 90.736C28.4307 93.6663 24.4564 95.3125 20.3124 95.3125H26.5624C29.6018 95.3116 32.575 94.4241 35.1177 92.759C37.6604 91.0938 39.6622 88.7232 40.878 85.9375C41.9181 83.5602 42.3495 80.9612 42.133 78.3754C41.9165 75.7895 41.059 73.2984 39.6381 71.1272C38.2172 68.9559 36.2776 67.173 33.9946 65.9395C31.7116 64.706 29.1573 64.0609 26.5624 64.0625Z" fill="#EE8700"/>
<path d="M64.0625 85.9375C63.2337 85.9375 62.4388 86.2667 61.8528 86.8528C61.2667 87.4388 60.9375 88.2337 60.9375 89.0625V92.1875C60.9375 93.0163 61.2667 93.8112 61.8528 94.3972C62.4388 94.9833 63.2337 95.3125 64.0625 95.3125H89.0625C89.8913 95.3125 90.6862 94.9833 91.2722 94.3972C91.8583 93.8112 92.1875 93.0163 92.1875 92.1875V89.0625C92.1875 88.2337 91.8583 87.4388 91.2722 86.8528C90.6862 86.2667 89.8913 85.9375 89.0625 85.9375H64.0625Z" fill="#CC7400"/>
<path d="M53.1249 54.6875V51.5625C53.1249 50.7337 52.7957 49.9388 52.2096 49.3528C51.6236 48.7667 50.8287 48.4375 49.9999 48.4375H24.9999C24.1711 48.4375 23.3763 48.7667 22.7902 49.3528C22.2042 49.9388 21.8749 50.7337 21.8749 51.5625V54.6875C21.8749 55.5163 22.2042 56.3112 22.7902 56.8972C23.3763 57.4833 24.1711 57.8125 24.9999 57.8125H49.9999C50.8287 57.8125 51.6236 57.4833 52.2096 56.8972C52.7957 56.3112 53.1249 55.5163 53.1249 54.6875Z" fill="#FFB655"/>
<path d="M53.1249 48.4375C53.9537 48.4375 54.7485 48.1083 55.3346 47.5222C55.9206 46.9362 56.2499 46.1413 56.2499 45.3125V42.1875C56.2499 41.3587 55.9206 40.5638 55.3346 39.9778C54.7485 39.3917 53.9537 39.0625 53.1249 39.0625H28.1249C27.2961 39.0625 26.5012 39.3917 25.9152 39.9778C25.3291 40.5638 24.9999 41.3587 24.9999 42.1875V45.3125C24.9999 46.1413 25.3291 46.9362 25.9152 47.5222C26.5012 48.1083 27.2961 48.4375 28.1249 48.4375H53.1249Z" fill="#FFC477"/>
<path d="M65.6249 39.0625C64.7961 39.0625 64.0012 39.3917 63.4152 39.9778C62.8291 40.5638 62.4999 41.3587 62.4999 42.1875V45.3125C62.4999 46.1413 62.8291 46.9362 63.4152 47.5222C64.0012 48.1083 64.7961 48.4375 65.6249 48.4375H90.6249C91.4537 48.4375 92.2485 48.1083 92.8346 47.5222C93.4206 46.9362 93.7499 46.1413 93.7499 45.3125V42.1875C93.7499 41.3587 93.4206 40.5638 92.8346 39.9778C92.2485 39.3917 91.4537 39.0625 90.6249 39.0625H65.6249Z" fill="#FFB655"/>
<path d="M64.0624 32.8125V35.9375C64.0624 36.7663 64.3917 37.5612 64.9777 38.1472C65.5638 38.7333 66.3586 39.0625 67.1874 39.0625H92.1874C93.0162 39.0625 93.8111 38.7333 94.3972 38.1472C94.9832 37.5612 95.3124 36.7663 95.3124 35.9375V32.8125C95.3124 31.9837 94.9832 31.1888 94.3972 30.6028C93.8111 30.0167 93.0162 29.6875 92.1874 29.6875H67.1874C66.3586 29.6875 65.5638 30.0167 64.9777 30.6028C64.3917 31.1888 64.0624 31.9837 64.0624 32.8125Z" fill="#FFC477"/>
<path d="M92.1874 20.3125H67.1874C65.4615 20.3125 64.0624 21.7116 64.0624 23.4375V26.5625C64.0624 28.2884 65.4615 29.6875 67.1874 29.6875H92.1874C93.9133 29.6875 95.3124 28.2884 95.3124 26.5625V23.4375C95.3124 21.7116 93.9133 20.3125 92.1874 20.3125Z" fill="#FFDAAA"/>
<path d="M64.0624 79.6875V82.8125C64.0624 83.6413 64.3917 84.4362 64.9777 85.0222C65.5638 85.6083 66.3586 85.9375 67.1874 85.9375H92.1874C93.0162 85.9375 93.8111 85.6083 94.3972 85.0222C94.9832 84.4362 95.3124 83.6413 95.3124 82.8125V79.6875C95.3124 78.8587 94.9832 78.0638 94.3972 77.4778C93.8111 76.8917 93.0162 76.5625 92.1874 76.5625H67.1874C66.3586 76.5625 65.5638 76.8917 64.9777 77.4778C64.3917 78.0638 64.0624 78.8587 64.0624 79.6875Z" fill="#EE8700"/>
<path d="M65.6249 67.1875C64.7961 67.1875 64.0012 67.5167 63.4152 68.1028C62.8291 68.6888 62.4999 69.4837 62.4999 70.3125V73.4375C62.4999 74.2663 62.8291 75.0612 63.4152 75.6472C64.0012 76.2333 64.7961 76.5625 65.6249 76.5625H90.6249C91.4537 76.5625 92.2485 76.2333 92.8346 75.6472C93.4206 75.0612 93.7499 74.2663 93.7499 73.4375V70.3125C93.7499 69.4837 93.4206 68.6888 92.8346 68.1028C92.2485 67.5167 91.4537 67.1875 90.6249 67.1875H65.6249Z" fill="#FF9811"/>
<path d="M64.0624 60.9375V64.0625C64.0624 64.8913 64.3917 65.6862 64.9777 66.2722C65.5638 66.8583 66.3586 67.1875 67.1874 67.1875H92.1874C93.0162 67.1875 93.8111 66.8583 94.3972 66.2722C94.9832 65.6862 95.3124 64.8913 95.3124 64.0625V60.9375C95.3124 60.1087 94.9832 59.3138 94.3972 58.7278C93.8111 58.1417 93.0162 57.8125 92.1874 57.8125H67.1874C66.3586 57.8125 65.5638 58.1417 64.9777 58.7278C64.3917 59.3138 64.0624 60.1087 64.0624 60.9375Z" fill="#FF9811"/>
<path d="M62.4999 51.5625V54.6875C62.4999 55.5163 62.8291 56.3112 63.4152 56.8972C64.0012 57.4833 64.7961 57.8125 65.6249 57.8125H90.6249C91.4537 57.8125 92.2485 57.4833 92.8346 56.8972C93.4206 56.3112 93.7499 55.5163 93.7499 54.6875V51.5625C93.7499 50.7337 93.4206 49.9388 92.8346 49.3528C92.2485 48.7667 91.4537 48.4375 90.6249 48.4375H65.6249C64.7961 48.4375 64.0012 48.7667 63.4152 49.3528C62.8291 49.9388 62.4999 50.7337 62.4999 51.5625Z" fill="#FFA733"/>
<path d="M4.6875 79.6875C4.6875 83.8315 6.3337 87.8058 9.26396 90.736C12.1942 93.6663 16.1685 95.3125 20.3125 95.3125V64.0625C16.1685 64.0625 12.1942 65.7087 9.26396 68.639C6.3337 71.5692 4.6875 75.5435 4.6875 79.6875Z" fill="#FF5023"/>
<path d="M20.3124 64.0625V95.3125C24.4564 95.3125 28.4307 93.6663 31.3609 90.736C34.2912 87.8058 35.9374 83.8315 35.9374 79.6875C35.9374 75.5435 34.2912 71.5692 31.3609 68.639C28.4307 65.7087 24.4564 64.0625 20.3124 64.0625Z" fill="#E54820"/>
<path d="M20.3124 78.125C20.0033 78.125 19.7012 78.0334 19.4443 77.8617C19.1873 77.69 18.9871 77.446 18.8688 77.1604C18.7506 76.8749 18.7196 76.5608 18.7799 76.2577C18.8402 75.9546 18.989 75.6762 19.2075 75.4576C19.426 75.2391 19.7045 75.0903 20.0075 75.03C20.3106 74.9697 20.6248 75.0007 20.9103 75.1189C21.1958 75.2372 21.4399 75.4375 21.6115 75.6944C21.7832 75.9514 21.8749 76.2535 21.8749 76.5625C21.8749 76.9769 22.0395 77.3743 22.3325 77.6674C22.6255 77.9604 23.023 78.125 23.4374 78.125C23.8518 78.125 24.2492 77.9604 24.5422 77.6674C24.8353 77.3743 24.9999 76.9769 24.9999 76.5625C24.9959 75.5965 24.6935 74.6553 24.1341 73.8677C23.5747 73.08 22.7857 72.4845 21.8749 72.1625V70.3125C21.8749 69.8981 21.7103 69.5007 21.4172 69.2076C21.1242 68.9146 20.7268 68.75 20.3124 68.75C19.898 68.75 19.5005 68.9146 19.2075 69.2076C18.9145 69.5007 18.7499 69.8981 18.7499 70.3125V72.1625C17.7082 72.5294 16.83 73.2531 16.2708 74.2055C15.7115 75.1579 15.5074 76.2775 15.6946 77.3659C15.8817 78.4544 16.4481 79.4414 17.2932 80.1523C18.1384 80.8633 19.208 81.2521 20.3124 81.25C20.6214 81.25 20.9235 81.3416 21.1805 81.5133C21.4374 81.685 21.6377 81.9291 21.7559 82.2146C21.8742 82.5001 21.9051 82.8142 21.8449 83.1173C21.7846 83.4204 21.6358 83.6988 21.4172 83.9174C21.1987 84.1359 20.9203 84.2847 20.6172 84.345C20.3141 84.4053 19.9999 84.3743 19.7144 84.2561C19.4289 84.1378 19.1849 83.9375 19.0132 83.6806C18.8415 83.4236 18.7499 83.1215 18.7499 82.8125C18.7499 82.3981 18.5853 82.0007 18.2922 81.7076C17.9992 81.4146 17.6018 81.25 17.1874 81.25C16.773 81.25 16.3755 81.4146 16.0825 81.7076C15.7895 82.0007 15.6249 82.3981 15.6249 82.8125C15.6289 83.7785 15.9313 84.7197 16.4906 85.5074C17.05 86.295 17.8391 86.8905 18.7499 87.2125V89.0625C18.7499 89.4769 18.9145 89.8743 19.2075 90.1674C19.5005 90.4604 19.898 90.625 20.3124 90.625C20.7268 90.625 21.1242 90.4604 21.4172 90.1674C21.7103 89.8743 21.8749 89.4769 21.8749 89.0625V87.2125C22.9166 86.8456 23.7948 86.1219 24.354 85.1695C24.9132 84.2171 25.1173 83.0975 24.9302 82.0091C24.743 80.9207 24.1767 79.9336 23.3315 79.2227C22.4863 78.5118 21.4168 78.1229 20.3124 78.125Z" fill="black"/>
<path d="M59.3749 64.0625V60.9375C59.3749 59.6943 58.8811 58.502 58.002 57.6229C57.1229 56.7439 55.9306 56.25 54.6874 56.25H54.3999C54.585 55.7496 54.6823 55.221 54.6874 54.6875V51.5625C54.6857 50.9646 54.569 50.3726 54.3437 49.8188C55.3358 49.5516 56.2127 48.9659 56.8394 48.1517C57.4662 47.3375 57.808 46.34 57.8124 45.3125V42.1875C57.8124 40.9443 57.3186 39.752 56.4395 38.8729C55.5604 37.9939 54.3681 37.5 53.1249 37.5H28.1249C26.8817 37.5 25.6895 37.9939 24.8104 38.8729C23.9313 39.752 23.4374 40.9443 23.4374 42.1875V45.3125C23.4392 45.9104 23.5559 46.5024 23.7812 47.0563C22.789 47.3234 21.9122 47.9091 21.2854 48.7233C20.6587 49.5375 20.3168 50.535 20.3124 51.5625V54.6875C20.3124 55.9307 20.8063 57.123 21.6854 58.0021C22.5645 58.8811 23.7567 59.375 24.9999 59.375H25.2874C25.1024 59.8754 25.0051 60.404 24.9999 60.9375V62.5H20.3124C15.754 62.5 11.3823 64.3108 8.15904 67.5341C4.93576 70.7574 3.12494 75.1291 3.12494 79.6875C3.12494 84.2459 4.93576 88.6176 8.15904 91.8409C11.3823 95.0642 15.754 96.875 20.3124 96.875H53.1249C54.3681 96.875 55.5604 96.3811 56.4395 95.5021C57.3186 94.623 57.8124 93.4307 57.8124 92.1875V89.0625C57.8078 88.255 57.5924 87.4627 57.1874 86.7641C57.856 86.3436 58.4072 85.7607 58.7897 85.0698C59.1722 84.3788 59.3735 83.6023 59.3749 82.8125V79.6875C59.3735 78.8977 59.1722 78.1212 58.7897 77.4302C58.4072 76.7393 57.856 76.1564 57.1874 75.7359C57.5924 75.0373 57.8078 74.245 57.8124 73.4375V70.3125C57.8078 69.505 57.5924 68.7127 57.1874 68.0141C57.856 67.5936 58.4072 67.0107 58.7897 66.3198C59.1722 65.6288 59.3735 64.8523 59.3749 64.0625ZM26.5624 42.1875C26.5624 41.7731 26.7271 41.3757 27.0201 41.0826C27.3131 40.7896 27.7105 40.625 28.1249 40.625H53.1249C53.5393 40.625 53.9368 40.7896 54.2298 41.0826C54.5228 41.3757 54.6874 41.7731 54.6874 42.1875V45.3125C54.6874 45.7269 54.5228 46.1243 54.2298 46.4174C53.9368 46.7104 53.5393 46.875 53.1249 46.875H28.1249C27.7105 46.875 27.3131 46.7104 27.0201 46.4174C26.7271 46.1243 26.5624 45.7269 26.5624 45.3125V42.1875ZM24.9999 56.25C24.5855 56.25 24.1881 56.0854 23.8951 55.7924C23.6021 55.4993 23.4374 55.1019 23.4374 54.6875V51.5625C23.4374 51.1481 23.6021 50.7507 23.8951 50.4576C24.1881 50.1646 24.5855 50 24.9999 50H49.9999C50.4143 50 50.8118 50.1646 51.1048 50.4576C51.3978 50.7507 51.5624 51.1481 51.5624 51.5625V54.6875C51.5624 55.1019 51.3978 55.4993 51.1048 55.7924C50.8118 56.0854 50.4143 56.25 49.9999 56.25H24.9999ZM20.3124 93.75C17.5311 93.75 14.8123 92.9253 12.4997 91.3801C10.1872 89.8348 8.38474 87.6386 7.32038 85.069C6.25603 82.4994 5.97754 79.6719 6.52015 76.944C7.06275 74.2162 8.40207 71.7105 10.3687 69.7438C12.3354 67.7771 14.8411 66.4378 17.569 65.8952C20.2968 65.3526 23.1243 65.6311 25.6939 66.6954C28.2635 67.7598 30.4598 69.5622 32.005 71.8748C33.5502 74.1874 34.3749 76.9062 34.3749 79.6875C34.3708 83.4158 32.8879 86.9903 30.2516 89.6266C27.6152 92.263 24.0408 93.7459 20.3124 93.75ZM39.8109 68.75H53.1249C53.5393 68.75 53.9368 68.9146 54.2298 69.2076C54.5228 69.5007 54.6874 69.8981 54.6874 70.3125V73.4375C54.6874 73.8519 54.5228 74.2493 54.2298 74.5424C53.9368 74.8354 53.5393 75 53.1249 75H43.0843C42.4371 72.7127 41.3225 70.5846 39.8109 68.75ZM40.6249 79.6875C40.6199 82.5903 39.7173 85.4205 38.0409 87.7904C36.3645 90.1602 33.9963 91.9536 31.2609 92.925C33.2122 91.3148 34.7834 89.2931 35.8621 87.0046C36.9407 84.7161 37.5 82.2174 37.5 79.6875C37.5 77.1576 36.9407 74.6589 35.8621 72.3704C34.7834 70.0819 33.2122 68.0602 31.2609 66.45C33.9963 67.4214 36.3645 69.2148 38.0409 71.5847C39.7173 73.9545 40.6199 76.7847 40.6249 79.6875ZM54.6874 92.1875C54.6874 92.6019 54.5228 92.9993 54.2298 93.2924C53.9368 93.5854 53.5393 93.75 53.1249 93.75H36.414C38.7069 92.1384 40.5735 89.9935 41.8531 87.5H53.1249C53.5393 87.5 53.9368 87.6646 54.2298 87.9577C54.5228 88.2507 54.6874 88.6481 54.6874 89.0625V92.1875ZM56.2499 82.8125C56.2499 83.2269 56.0853 83.6243 55.7923 83.9174C55.4993 84.2104 55.1018 84.375 54.6874 84.375H43.0843C43.522 82.8508 43.746 81.2733 43.7499 79.6875C43.7499 79.1594 43.7171 78.6406 43.6702 78.125H54.6874C55.1018 78.125 55.4993 78.2896 55.7923 78.5826C56.0853 78.8757 56.2499 79.2731 56.2499 79.6875V82.8125ZM56.2499 64.0625C56.2499 64.4769 56.0853 64.8743 55.7923 65.1674C55.4993 65.4604 55.1018 65.625 54.6874 65.625H36.414C33.9658 63.9007 31.1072 62.8505 28.1249 62.5797V60.9375C28.1249 60.5231 28.2896 60.1257 28.5826 59.8326C28.8756 59.5396 29.273 59.375 29.6874 59.375H54.6874C55.1018 59.375 55.4993 59.5396 55.7923 59.8326C56.0853 60.1257 56.2499 60.5231 56.2499 60.9375V64.0625Z" fill="black"/>
<path d="M96.8749 23.4375C96.8749 22.1943 96.3811 21.002 95.502 20.1229C94.6229 19.2439 93.4306 18.75 92.1874 18.75H67.1874C65.9442 18.75 64.752 19.2439 63.8729 20.1229C62.9938 21.002 62.4999 22.1943 62.4999 23.4375V26.5625C62.504 27.7194 62.9384 28.8333 63.7187 29.6875C62.9384 30.5417 62.504 31.6556 62.4999 32.8125V35.9375C62.5045 36.745 62.72 37.5373 63.1249 38.2359C62.4564 38.6564 61.9052 39.2393 61.5227 39.9302C61.1402 40.6212 60.9389 41.3977 60.9374 42.1875V45.3125C60.9415 46.4694 61.3759 47.5833 62.1562 48.4375C61.3759 49.2917 60.9415 50.4056 60.9374 51.5625V54.6875C60.9389 55.4773 61.1402 56.2538 61.5227 56.9448C61.9052 57.6357 62.4564 58.2186 63.1249 58.6391C62.72 59.3377 62.5045 60.13 62.4999 60.9375V64.0625C62.5045 64.87 62.72 65.6623 63.1249 66.3609C62.4564 66.7814 61.9052 67.3643 61.5227 68.0552C61.1402 68.7462 60.9389 69.5227 60.9374 70.3125V73.4375C60.9389 74.2273 61.1402 75.0038 61.5227 75.6948C61.9052 76.3857 62.4564 76.9686 63.1249 77.3891C62.72 78.0877 62.5045 78.88 62.4999 79.6875V82.8125C62.5017 83.4104 62.6184 84.0024 62.8437 84.5563C61.8516 84.8234 60.9747 85.4091 60.3479 86.2233C59.7212 87.0375 59.3793 88.035 59.3749 89.0625V92.1875C59.3749 93.4307 59.8688 94.623 60.7479 95.5021C61.627 96.3811 62.8192 96.875 64.0624 96.875H89.0624C90.3056 96.875 91.4979 96.3811 92.377 95.5021C93.2561 94.623 93.7499 93.4307 93.7499 92.1875V89.0625C93.7482 88.4646 93.6315 87.8726 93.4062 87.3188C94.3983 87.0516 95.2752 86.4659 95.902 85.6517C96.5287 84.8375 96.8705 83.84 96.8749 82.8125V79.6875C96.8735 78.8977 96.6722 78.1212 96.2897 77.4302C95.9072 76.7393 95.356 76.1564 94.6874 75.7359C95.0924 75.0373 95.3078 74.245 95.3124 73.4375V70.3125C95.3078 69.505 95.0924 68.7127 94.6874 68.0141C95.356 67.5936 95.9072 67.0107 96.2897 66.3198C96.6722 65.6288 96.8735 64.8523 96.8749 64.0625V60.9375C96.8735 60.1477 96.6722 59.3712 96.2897 58.6802C95.9072 57.9893 95.356 57.4064 94.6874 56.9859C95.0924 56.2873 95.3078 55.495 95.3124 54.6875V51.5625C95.3084 50.4056 94.8739 49.2917 94.0937 48.4375C94.8739 47.5833 95.3084 46.4694 95.3124 45.3125V42.1875C95.3078 41.38 95.0924 40.5877 94.6874 39.8891C95.356 39.4686 95.9072 38.8857 96.2897 38.1948C96.6722 37.5038 96.8735 36.7273 96.8749 35.9375V32.8125C96.8709 31.6556 96.4364 30.5417 95.6562 29.6875C96.4364 28.8333 96.8709 27.7194 96.8749 26.5625V23.4375ZM65.6249 23.4375C65.6249 23.0231 65.7896 22.6257 66.0826 22.3326C66.3756 22.0396 66.773 21.875 67.1874 21.875H92.1874C92.6018 21.875 92.9993 22.0396 93.2923 22.3326C93.5853 22.6257 93.7499 23.0231 93.7499 23.4375V26.5625C93.7499 26.9769 93.5853 27.3743 93.2923 27.6674C92.9993 27.9604 92.6018 28.125 92.1874 28.125H67.1874C66.773 28.125 66.3756 27.9604 66.0826 27.6674C65.7896 27.3743 65.6249 26.9769 65.6249 26.5625V23.4375ZM93.7499 32.8125V35.9375C93.7499 36.3519 93.5853 36.7493 93.2923 37.0424C92.9993 37.3354 92.6018 37.5 92.1874 37.5H67.1874C66.773 37.5 66.3756 37.3354 66.0826 37.0424C65.7896 36.7493 65.6249 36.3519 65.6249 35.9375V32.8125C65.6249 32.3981 65.7896 32.0007 66.0826 31.7076C66.3756 31.4146 66.773 31.25 67.1874 31.25H92.1874C92.6018 31.25 92.9993 31.4146 93.2923 31.7076C93.5853 32.0007 93.7499 32.3981 93.7499 32.8125ZM92.1874 42.1875V45.3125C92.1874 45.7269 92.0228 46.1243 91.7298 46.4174C91.4368 46.7104 91.0393 46.875 90.6249 46.875H65.6249C65.2105 46.875 64.8131 46.7104 64.5201 46.4174C64.2271 46.1243 64.0624 45.7269 64.0624 45.3125V42.1875C64.0624 41.7731 64.2271 41.3757 64.5201 41.0826C64.8131 40.7896 65.2105 40.625 65.6249 40.625H90.6249C91.0393 40.625 91.4368 40.7896 91.7298 41.0826C92.0228 41.3757 92.1874 41.7731 92.1874 42.1875ZM92.1874 51.5625V54.6875C92.1874 55.1019 92.0228 55.4993 91.7298 55.7924C91.4368 56.0854 91.0393 56.25 90.6249 56.25H65.6249C65.2105 56.25 64.8131 56.0854 64.5201 55.7924C64.2271 55.4993 64.0624 55.1019 64.0624 54.6875V51.5625C64.0624 51.1481 64.2271 50.7507 64.5201 50.4576C64.8131 50.1646 65.2105 50 65.6249 50H90.6249C91.0393 50 91.4368 50.1646 91.7298 50.4576C92.0228 50.7507 92.1874 51.1481 92.1874 51.5625ZM92.1874 59.375C92.6018 59.375 92.9993 59.5396 93.2923 59.8326C93.5853 60.1257 93.7499 60.5231 93.7499 60.9375V64.0625C93.7499 64.4769 93.5853 64.8743 93.2923 65.1674C92.9993 65.4604 92.6018 65.625 92.1874 65.625H67.1874C66.773 65.625 66.3756 65.4604 66.0826 65.1674C65.7896 64.8743 65.6249 64.4769 65.6249 64.0625V60.9375C65.6249 60.5231 65.7896 60.1257 66.0826 59.8326C66.3756 59.5396 66.773 59.375 67.1874 59.375H92.1874ZM92.1874 70.3125V73.4375C92.1874 73.8519 92.0228 74.2493 91.7298 74.5424C91.4368 74.8354 91.0393 75 90.6249 75H65.6249C65.2105 75 64.8131 74.8354 64.5201 74.5424C64.2271 74.2493 64.0624 73.8519 64.0624 73.4375V70.3125C64.0624 69.8981 64.2271 69.5007 64.5201 69.2076C64.8131 68.9146 65.2105 68.75 65.6249 68.75H90.6249C91.0393 68.75 91.4368 68.9146 91.7298 69.2076C92.0228 69.5007 92.1874 69.8981 92.1874 70.3125ZM90.6249 92.1875C90.6249 92.6019 90.4603 92.9993 90.1673 93.2924C89.8743 93.5854 89.4768 93.75 89.0624 93.75H64.0624C63.648 93.75 63.2506 93.5854 62.9576 93.2924C62.6646 92.9993 62.4999 92.6019 62.4999 92.1875V89.0625C62.4999 88.6481 62.6646 88.2507 62.9576 87.9576C63.2506 87.6646 63.648 87.5 64.0624 87.5H89.0624C89.4768 87.5 89.8743 87.6646 90.1673 87.9576C90.4603 88.2507 90.6249 88.6481 90.6249 89.0625V92.1875ZM93.7499 82.8125C93.7499 83.2269 93.5853 83.6243 93.2923 83.9174C92.9993 84.2104 92.6018 84.375 92.1874 84.375H67.1874C66.773 84.375 66.3756 84.2104 66.0826 83.9174C65.7896 83.6243 65.6249 83.2269 65.6249 82.8125V79.6875C65.6249 79.2731 65.7896 78.8757 66.0826 78.5826C66.3756 78.2896 66.773 78.125 67.1874 78.125H92.1874C92.6018 78.125 92.9993 78.2896 93.2923 78.5826C93.5853 78.8757 93.7499 79.2731 93.7499 79.6875V82.8125Z" fill="black"/>
</svg>
