<svg width="100" height="100" viewBox="0 0 100 100" fill="none" xmlns="http://www.w3.org/2000/svg">
<path d="M89.0625 4.6875H10.9375C7.48572 4.6875 4.6875 7.48572 4.6875 10.9375V67.1875C4.6875 70.6393 7.48572 73.4375 10.9375 73.4375H89.0625C92.5143 73.4375 95.3125 70.6393 95.3125 67.1875V10.9375C95.3125 7.48572 92.5143 4.6875 89.0625 4.6875Z" fill="url(#paint0_linear)"/>
<path d="M10.9375 10.9375H89.0625V60.9375H10.9375V10.9375Z" fill="#C6C6C6"/>
<path d="M10.9375 60.9375H89.0625V10.9375C89.0625 38.575 54.1203 60.9375 10.9375 60.9375Z" fill="#A4A4A4"/>
<path d="M45.3125 89.0625C45.3125 90.7201 44.654 92.3098 43.4819 93.4819C42.3098 94.654 40.7201 95.3125 39.0625 95.3125H79.6875V92.1875C79.6875 90.5299 79.029 88.9402 77.8569 87.7681C76.6848 86.596 75.0951 85.9375 73.4375 85.9375H45.3125V89.0625Z" fill="#808285"/>
<path d="M45.3125 73.4375H60.9375V85.9375H45.3125V73.4375Z" fill="#A7A9AC"/>
<path d="M49.9999 70.3125C51.7258 70.3125 53.1249 68.9134 53.1249 67.1875C53.1249 65.4616 51.7258 64.0625 49.9999 64.0625C48.274 64.0625 46.8749 65.4616 46.8749 67.1875C46.8749 68.9134 48.274 70.3125 49.9999 70.3125Z" fill="url(#paint1_linear)"/>
<path d="M10.9375 85.9375V89.0625C10.9375 90.7201 11.596 92.3098 12.7681 93.4819C13.9402 94.654 15.5299 95.3125 17.1875 95.3125H39.0625C40.7201 95.3125 42.3098 94.654 43.4819 93.4819C44.654 92.3098 45.3125 90.7201 45.3125 89.0625V85.9375H10.9375Z" fill="url(#paint2_linear)"/>
<path d="M45.3125 48.4375V85.9375H10.9375V48.4375C10.9375 46.7799 11.596 45.1902 12.7681 44.0181C13.9402 42.846 15.5299 42.1875 17.1875 42.1875H39.0625C40.7201 42.1875 42.3098 42.846 43.4819 44.0181C44.654 45.1902 45.3125 46.7799 45.3125 48.4375Z" fill="#C6C6C6"/>
<path d="M28.125 54.6875H39.0625V70.3125H28.125V54.6875Z" fill="#FFCD00"/>
<path d="M17.1875 54.6875H28.125V70.3125H17.1875V54.6875Z" fill="#5EAC24"/>
<path d="M17.1875 54.6875H28.125H39.0625V48.4375H17.1875V54.6875Z" fill="#D80027"/>
<path d="M51.5625 17.1875H82.8125V25H51.5625V17.1875Z" fill="#D80027"/>
<path d="M67.1875 25H82.8125V42.1875H67.1875V25Z" fill="#FFCD00"/>
<path d="M52 25H67.625V42.1875H52V25Z" fill="#5EAC24"/>
<path d="M20.3125 17.1875H42.1875V23.4375H20.3125V17.1875Z" fill="url(#paint3_linear)"/>
<path d="M20.3125 29.6875H42.1875V35.9375H20.3125V29.6875Z" fill="url(#paint4_linear)"/>
<path d="M12.5 85.9375H45.3125V56.25C45.3125 72.6563 30.6359 85.9375 12.5 85.9375Z" fill="#A4A4A4"/>
<path d="M29.6875 92.1875H26.5625C26.1481 92.1875 25.7507 92.0229 25.4576 91.7299C25.1646 91.4368 25 91.0394 25 90.625C25 90.2106 25.1646 89.8132 25.4576 89.5201C25.7507 89.2271 26.1481 89.0625 26.5625 89.0625H29.6875C30.1019 89.0625 30.4993 89.2271 30.7924 89.5201C31.0854 89.8132 31.25 90.2106 31.25 90.625C31.25 91.0394 31.0854 91.4368 30.7924 91.7299C30.4993 92.0229 30.1019 92.1875 29.6875 92.1875Z" fill="black"/>
<path d="M82.8125 15.625H51.5625C51.1481 15.625 50.7507 15.7896 50.4576 16.0826C50.1646 16.3757 50 16.7731 50 17.1875V42.1875C50 42.6019 50.1646 42.9993 50.4576 43.2924C50.7507 43.5854 51.1481 43.75 51.5625 43.75H82.8125C83.2269 43.75 83.6243 43.5854 83.9174 43.2924C84.2104 42.9993 84.375 42.6019 84.375 42.1875V17.1875C84.375 16.7731 84.2104 16.3757 83.9174 16.0826C83.6243 15.7896 83.2269 15.625 82.8125 15.625ZM81.25 18.75V23.4375H53.125V18.75H81.25ZM53.125 26.5625H65.625V40.625H53.125V26.5625ZM68.75 40.625V26.5625H81.25V40.625H68.75Z" fill="black"/>
<path d="M89.0625 3.125H10.9375C8.86626 3.12748 6.88056 3.95138 5.41597 5.41597C3.95138 6.88056 3.12748 8.86626 3.125 10.9375V67.1875C3.12727 68.9878 3.75014 70.7323 4.88862 72.127C6.0271 73.5216 7.61158 74.4811 9.375 74.8438V89.0625C9.37748 91.1338 10.2014 93.1195 11.666 94.584C13.1306 96.0486 15.1163 96.8725 17.1875 96.875H79.6875C80.1019 96.875 80.4993 96.7104 80.7924 96.4174C81.0854 96.1243 81.25 95.7269 81.25 95.3125V92.1875C81.2475 90.1163 80.4236 88.1306 78.959 86.666C77.4944 85.2014 75.5088 84.3775 73.4375 84.375H62.5V75H89.0625C91.1338 74.9975 93.1195 74.1736 94.584 72.709C96.0486 71.2444 96.8725 69.2588 96.875 67.1875V10.9375C96.8725 8.86626 96.0486 6.88056 94.584 5.41597C93.1195 3.95138 91.1338 3.12748 89.0625 3.125ZM43.75 89.0625C43.75 90.3057 43.2561 91.498 42.3771 92.3771C41.498 93.2561 40.3057 93.75 39.0625 93.75H17.1875C15.9443 93.75 14.752 93.2561 13.8729 92.3771C12.9939 91.498 12.5 90.3057 12.5 89.0625V87.5H43.75V89.0625ZM43.75 84.375H12.5V48.4375C12.5 47.1943 12.9939 46.002 13.8729 45.1229C14.752 44.2439 15.9443 43.75 17.1875 43.75H39.0625C40.3057 43.75 41.498 44.2439 42.3771 45.1229C43.2561 46.002 43.75 47.1943 43.75 48.4375V84.375ZM39.0625 40.625H17.1875C15.4915 40.6308 13.8444 41.1941 12.5 42.2281V12.5H87.5V59.375H46.875V48.4375C46.8725 46.3663 46.0486 44.3806 44.584 42.916C43.1194 41.4514 41.1337 40.6275 39.0625 40.625ZM46.875 75H59.375V84.375H46.875V75ZM73.4375 87.5C74.6807 87.5 75.873 87.9939 76.7521 88.873C77.6311 89.752 78.125 90.9443 78.125 92.1875V93.75H45.2719C46.306 92.4057 46.8693 90.7586 46.875 89.0625V87.5H73.4375ZM93.75 67.1875C93.75 68.4307 93.2561 69.623 92.3771 70.5021C91.498 71.3811 90.3057 71.875 89.0625 71.875H46.875V70.6563C47.547 71.267 48.3819 71.6695 49.2783 71.8147C50.1747 71.9599 51.094 71.8416 51.9244 71.4742C52.7548 71.1068 53.4607 70.5061 53.9561 69.7451C54.4516 68.9841 54.7154 68.0956 54.7154 67.1875C54.7154 66.2794 54.4516 65.3909 53.9561 64.6299C53.4607 63.8689 52.7548 63.2682 51.9244 62.9008C51.094 62.5334 50.1747 62.4151 49.2783 62.5603C48.3819 62.7055 47.547 63.108 46.875 63.7188V62.5H89.0625C89.4769 62.5 89.8743 62.3354 90.1674 62.0424C90.4604 61.7493 90.625 61.3519 90.625 60.9375V10.9375C90.625 10.5231 90.4604 10.1257 90.1674 9.83265C89.8743 9.53962 89.4769 9.375 89.0625 9.375H10.9375C10.5231 9.375 10.1257 9.53962 9.83265 9.83265C9.53962 10.1257 9.375 10.5231 9.375 10.9375V71.5875C8.46421 71.2655 7.67514 70.67 7.11576 69.8824C6.55638 69.0947 6.25401 68.1535 6.25 67.1875V10.9375C6.25 9.6943 6.74386 8.50201 7.62294 7.62294C8.50201 6.74386 9.6943 6.25 10.9375 6.25H89.0625C90.3057 6.25 91.498 6.74386 92.3771 7.62294C93.2561 8.50201 93.75 9.6943 93.75 10.9375V67.1875ZM48.4375 67.1875C48.4375 66.8785 48.5291 66.5764 48.7008 66.3194C48.8725 66.0625 49.1166 65.8622 49.4021 65.7439C49.6876 65.6257 50.0017 65.5947 50.3048 65.655C50.6079 65.7153 50.8863 65.8641 51.1049 66.0827C51.3234 66.3012 51.4722 66.5796 51.5325 66.8827C51.5928 67.1858 51.5618 67.4999 51.4436 67.7855C51.3253 68.071 51.125 68.315 50.8681 68.4867C50.6111 68.6584 50.309 68.75 50 68.75C49.5856 68.75 49.1882 68.5854 48.8952 68.2924C48.6021 67.9993 48.4375 67.6019 48.4375 67.1875Z" fill="black"/>
<path d="M39.0625 46.875H17.1875C16.7731 46.875 16.3757 47.0396 16.0826 47.3326C15.7896 47.6257 15.625 48.0231 15.625 48.4375V70.3125C15.625 70.7269 15.7896 71.1243 16.0826 71.4174C16.3757 71.7104 16.7731 71.875 17.1875 71.875H39.0625C39.4769 71.875 39.8743 71.7104 40.1674 71.4174C40.4604 71.1243 40.625 70.7269 40.625 70.3125V48.4375C40.625 48.0231 40.4604 47.6257 40.1674 47.3326C39.8743 47.0396 39.4769 46.875 39.0625 46.875ZM26.5625 68.75H18.75V56.25H26.5625V68.75ZM37.5 68.75H29.6875V56.25H37.5V68.75ZM37.5 53.125H18.75V50H37.5V53.125Z" fill="black"/>
<path d="M39.0625 73.4375H17.1875C16.7731 73.4375 16.3757 73.6021 16.0826 73.8951C15.7896 74.1882 15.625 74.5856 15.625 75C15.625 75.4144 15.7896 75.8118 16.0826 76.1049C16.3757 76.3979 16.7731 76.5625 17.1875 76.5625H39.0625C39.4769 76.5625 39.8743 76.3979 40.1674 76.1049C40.4604 75.8118 40.625 75.4144 40.625 75C40.625 74.5856 40.4604 74.1882 40.1674 73.8951C39.8743 73.6021 39.4769 73.4375 39.0625 73.4375Z" fill="black"/>
<path d="M39.0625 78.125H17.1875C16.7731 78.125 16.3757 78.2896 16.0826 78.5826C15.7896 78.8757 15.625 79.2731 15.625 79.6875C15.625 80.1019 15.7896 80.4993 16.0826 80.7924C16.3757 81.0854 16.7731 81.25 17.1875 81.25H39.0625C39.4769 81.25 39.8743 81.0854 40.1674 80.7924C40.4604 80.4993 40.625 80.1019 40.625 79.6875C40.625 79.2731 40.4604 78.8757 40.1674 78.5826C39.8743 78.2896 39.4769 78.125 39.0625 78.125Z" fill="black"/>
<path d="M82.8125 50H51.5625C51.1481 50 50.7507 49.8354 50.4576 49.5424C50.1646 49.2493 50 48.8519 50 48.4375C50 48.0231 50.1646 47.6257 50.4576 47.3326C50.7507 47.0396 51.1481 46.875 51.5625 46.875H82.8125C83.2269 46.875 83.6243 47.0396 83.9174 47.3326C84.2104 47.6257 84.375 48.0231 84.375 48.4375C84.375 48.8519 84.2104 49.2493 83.9174 49.5424C83.6243 49.8354 83.2269 50 82.8125 50Z" fill="black"/>
<path d="M82.8125 56.25H51.5625C51.1481 56.25 50.7507 56.0854 50.4576 55.7924C50.1646 55.4993 50 55.1019 50 54.6875C50 54.2731 50.1646 53.8757 50.4576 53.5826C50.7507 53.2896 51.1481 53.125 51.5625 53.125H82.8125C83.2269 53.125 83.6243 53.2896 83.9174 53.5826C84.2104 53.8757 84.375 54.2731 84.375 54.6875C84.375 55.1019 84.2104 55.4993 83.9174 55.7924C83.6243 56.0854 83.2269 56.25 82.8125 56.25Z" fill="black"/>
<path d="M42.1875 25H20.3125C19.8981 25 19.5007 24.8354 19.2076 24.5424C18.9146 24.2493 18.75 23.8519 18.75 23.4375V17.1875C18.75 16.7731 18.9146 16.3757 19.2076 16.0826C19.5007 15.7896 19.8981 15.625 20.3125 15.625H42.1875C42.6019 15.625 42.9993 15.7896 43.2924 16.0826C43.5854 16.3757 43.75 16.7731 43.75 17.1875V23.4375C43.75 23.8519 43.5854 24.2493 43.2924 24.5424C42.9993 24.8354 42.6019 25 42.1875 25ZM21.875 21.875H40.625V18.75H21.875V21.875Z" fill="black"/>
<path d="M42.1875 38.5H20.3125C19.8981 38.5 19.5007 38.3354 19.2076 38.0424C18.9146 37.7493 18.75 37.3519 18.75 36.9375V30.6875C18.75 30.2731 18.9146 29.8757 19.2076 29.5826C19.5007 29.2896 19.8981 29.125 20.3125 29.125H42.1875C42.6019 29.125 42.9993 29.2896 43.2924 29.5826C43.5854 29.8757 43.75 30.2731 43.75 30.6875V36.9375C43.75 37.3519 43.5854 37.7493 43.2924 38.0424C42.9993 38.3354 42.6019 38.5 42.1875 38.5ZM21.875 35.375H40.625V32.25H21.875V35.375Z" fill="black"/>
<path d="M61.5 67C61.5 65.8954 62.3954 65 63.5 65H66.5C67.6046 65 68.5 65.8954 68.5 67C68.5 68.1046 67.6046 69 66.5 69H63.5C62.3954 69 61.5 68.1046 61.5 67Z" fill="black"/>
<path d="M70 67C70 65.8954 70.8954 65 72 65H75C76.1046 65 77 65.8954 77 67C77 68.1046 76.1046 69 75 69H72C70.8954 69 70 68.1046 70 67Z" fill="black"/>
<path d="M78.5 67C78.5 65.8954 79.3954 65 80.5 65H83.5C84.6046 65 85.5 65.8954 85.5 67C85.5 68.1046 84.6046 69 83.5 69H80.5C79.3954 69 78.5 68.1046 78.5 67Z" fill="black"/>
<defs>
<linearGradient id="paint0_linear" x1="50" y1="4.6875" x2="50" y2="73.4375" gradientUnits="userSpaceOnUse">
<stop stop-color="#36D1DC"/>
<stop offset="1" stop-color="#5B86E5"/>
</linearGradient>
<linearGradient id="paint1_linear" x1="49.9999" y1="64.0625" x2="49.9999" y2="70.3125" gradientUnits="userSpaceOnUse">
<stop stop-color="#C6C6C6"/>
<stop offset="1" stop-color="#A4A4A4"/>
</linearGradient>
<linearGradient id="paint2_linear" x1="28.125" y1="85.9375" x2="28.125" y2="95.3125" gradientUnits="userSpaceOnUse">
<stop stop-color="#56CCF2"/>
<stop offset="0.932292" stop-color="#3285ED"/>
<stop offset="1" stop-color="#2F80ED"/>
</linearGradient>
<linearGradient id="paint3_linear" x1="31.25" y1="17.1875" x2="31.25" y2="23.4375" gradientUnits="userSpaceOnUse">
<stop stop-color="#56CCF2"/>
<stop offset="1" stop-color="#2F80ED"/>
</linearGradient>
<linearGradient id="paint4_linear" x1="31.25" y1="29.6875" x2="31.25" y2="35.9375" gradientUnits="userSpaceOnUse">
<stop stop-color="#56CCF2"/>
<stop offset="1" stop-color="#2F80ED"/>
</linearGradient>
</defs>
</svg>
