<svg width="100" height="100" viewBox="0 0 100 100" fill="none" xmlns="http://www.w3.org/2000/svg">
<g clip-path="url(#clip0)">
<path d="M13.3345 71.666C6.01445 76.8947 1.6696 85.337 1.66797 94.3327V98.3325H5.66777C14.6643 98.3316 23.1058 93.986 28.3344 86.6659L13.3345 71.666Z" fill="#F98500"/>
<path d="M17.7095 76.6659C14.9645 78.6272 13.3353 81.7929 13.3345 85.1661V86.6659H14.8343C18.2083 86.6651 21.374 85.0359 23.3345 82.2909L25.0011 79.9993L20.0011 74.9993L17.7095 76.6659Z" fill="#FFB531"/>
<path d="M98.3338 3.22028V1.66675C89.7385 1.67 81.2246 3.32933 73.2576 6.55522L93.9239 27.0271C96.8308 19.4262 98.3249 11.3582 98.3338 3.22028V3.22028Z" fill="#D80027"/>
<path d="M73.2576 6.55518C60.3646 11.7594 49.4134 20.8503 41.9248 32.5649L23.3345 61.6662L38.3343 76.6661L65.1245 61.038C78.3291 53.3256 88.4926 41.3221 93.9223 27.027L73.2576 6.55518Z" fill="#E6E7E8"/>
<path d="M30.7673 69.0994L38.334 76.6661L65.1241 61.038C78.3288 53.3257 88.4923 41.3222 93.9219 27.027L87.6826 20.8455C68.9189 45.1446 45.7395 60.7434 30.7673 69.0994V69.0994Z" fill="#E6E7E8"/>
<path d="M47.5577 39.23L44.7493 37.4364L46.1409 35.257C46.4062 34.8403 46.678 34.4237 46.9506 34.02L49.7175 35.8787C49.4579 36.2669 49.2024 36.6567 48.9493 37.0449L47.5577 39.23Z" fill="#F26666"/>
<path d="M31.9346 57.489L42.6157 40.7532L45.4258 42.546L34.7446 59.2826L31.9346 57.489Z" fill="#F26666"/>
<path d="M26.6678 64.9995L13.3345 71.6662L28.3345 86.6662L35.0011 73.3328L26.6678 64.9995Z" fill="#D6D6D4"/>
<path d="M78.3341 33.3334C78.3341 39.7771 73.1111 45.0001 66.6674 45.0001C60.2245 45.0001 55.0007 39.7771 55.0007 33.3334C55.0007 26.8905 60.2245 21.6667 66.6674 21.6667C73.1111 21.6667 78.3341 26.8905 78.3341 33.3334Z" fill="#5AAAE7"/>
<path d="M63.3341 33.3329H60.0007C60.0007 29.6513 62.9858 26.6663 66.6674 26.6663V29.9996C64.8266 29.9996 63.3341 31.4921 63.3341 33.3329Z" fill="#9FE4ED"/>
<path d="M25.8662 33.3333C22.1276 33.3324 18.5599 34.9006 16.0331 37.6569L1.66797 53.3331L18.4745 48.7498C19.4404 48.4853 20.474 48.6692 21.2894 49.2503L28.1399 54.1436L41.4365 33.3333H25.8662Z" fill="#D80027"/>
<path d="M46.0659 72.156L50.7477 78.7111C51.3287 79.5265 51.5118 80.56 51.2474 81.526L46.6673 98.3325L62.3443 83.9625C65.099 81.4373 66.6671 77.8721 66.6671 74.1343V60.0679C66.1504 60.3893 65.6523 60.7344 65.1242 61.0379L46.0659 72.156Z" fill="#D80027"/>
<path d="M45.0009 0H41.6676V3.33333H38.3342V6.66667H41.6676V10H45.0009V6.66667H48.3342V3.33333H45.0009V0Z" fill="#FFB531"/>
<path d="M18.3347 15H21.668V18.3333H18.3347V15Z" fill="#FFB531"/>
<path d="M100.001 56.6663H96.6674V53.333H93.3341V56.6663H90.0007V59.9997H93.3341V63.333H96.6674V59.9997H100.001V56.6663Z" fill="#FFB531"/>
<path d="M78.3341 84.9993H75.0008V88.3326H71.6675V91.6659H75.0008V94.9993H78.3341V91.6659H81.6675V88.3326H78.3341V84.9993Z" fill="#FFB531"/>
<path d="M80.0007 66.666H83.3341V69.9993H80.0007V66.666Z" fill="#FFB531"/>
<path d="M6.66797 24.9998H10.0013V28.3331H6.66797V24.9998Z" fill="#FFB531"/>
<path d="M74.3343 24.5466C72.019 34.3505 64.1374 39.1821 58.313 41.4566C61.2931 44.5369 65.7235 45.7332 69.8486 44.5727C73.9746 43.4114 77.1305 40.0805 78.0672 35.8984C79.0039 31.7162 77.5708 27.3567 74.3343 24.5466V24.5466Z" fill="#357E9E"/>
<path d="M98.2858 5.28149C95.2056 10.7193 91.0462 15.4695 86.0625 19.2398L93.9222 27.0271C96.5744 20.0715 98.049 12.7221 98.2858 5.28149Z" fill="#D80027"/>
<path d="M23.5933 81.925L28.3345 86.6662L35.0011 73.3328L31.1917 69.5234L23.5933 81.925Z" fill="#C9C9C7"/>
<path d="M21.5734 67.5483L18.4297 69.1182L30.8833 81.5718L32.4531 78.4281L21.5734 67.5483Z" fill="#A8A8A6"/>
<path d="M98.3337 -4.1421e-05C74.9078 -0.0570072 53.0875 11.8952 40.5225 31.6664H25.8677C21.6644 31.6704 17.6541 33.4347 14.8098 36.5296L0.439843 52.2066C-0.062269 52.7534 -0.142021 53.5664 0.244532 54.2012C0.631085 54.8351 1.39036 55.137 2.1065 54.9417L18.913 50.3584C19.3956 50.2258 19.9123 50.3177 20.3192 50.6083L25.8831 54.5812L21.9297 60.7693C21.509 61.4285 21.6034 62.2919 22.156 62.8445L23.8544 64.5429L12.5898 70.1743C12.5182 70.2248 12.4515 70.2801 12.3896 70.3412L12.366 70.3094C4.61461 75.8571 0.0117863 84.8007 0.001207 94.3327V98.3325C0.001207 99.2529 0.747457 99.9991 1.66786 99.9991H5.66766C15.2013 99.9902 24.1457 95.3865 29.6942 87.6343L29.6632 87.6107C29.7234 87.5489 29.7796 87.4821 29.8292 87.4113L35.4615 76.146L37.1591 77.8444C37.6946 78.3798 38.5238 78.4873 39.1781 78.1064L45.5957 74.3613L49.3945 79.6795C49.6858 80.0872 49.7778 80.6048 49.646 81.0882L45.0627 97.8947C44.8674 98.6108 45.1693 99.3701 45.8032 99.7566C46.4372 100.143 47.251 100.063 47.7978 99.5613L63.474 85.1913C66.5688 82.3463 68.3307 78.3359 68.334 74.1326V60.9882C88.0172 48.3614 99.9434 26.6054 100 3.22015V1.66661C100 0.746209 99.2541 -4.1421e-05 98.3337 -4.1421e-05V-4.1421e-05ZM22.2561 47.8951C21.0337 47.0227 19.4851 46.746 18.0365 47.1415L6.79314 50.2079L17.2667 38.783C19.4786 36.375 22.5979 35.0029 25.8677 34.9997H38.3928L27.6792 51.7695L22.2561 47.8951ZM5.66766 96.6658H3.33451V94.3327C3.34591 86.3721 6.96892 78.847 13.1847 73.873L15.5748 76.2632C13.0887 78.5564 11.6727 81.7839 11.6678 85.1661V86.6659C11.6678 87.5863 12.414 88.3326 13.3344 88.3326H14.8343C18.218 88.3285 21.4455 86.9125 23.7396 84.4263L26.1297 86.8165C21.1558 93.0322 13.629 96.6552 5.66766 96.6658ZM17.9348 78.6232L21.378 82.0663C19.7512 83.886 17.4417 84.9488 15.0011 84.9993C15.0523 82.5587 16.1144 80.2491 17.9348 78.6232ZM27.8778 83.8526L16.1477 72.1226L19.6682 70.3615L29.6347 80.3281L27.8778 83.8526ZM31.2111 77.186L22.8143 68.7893L26.3348 67.0282L32.968 73.6615L31.2111 77.186ZM65.0007 74.1326C64.9974 77.4025 63.6253 80.5226 61.2173 82.7345L49.7925 93.208L52.8596 81.9646C53.256 80.5152 52.9785 78.965 52.1044 77.7426L48.4847 72.6759L65.0007 63.0414V74.1326ZM65.799 58.6461H65.7876L65.5443 58.8016C65.1211 59.0612 64.7109 59.3427 64.2845 59.595L45.2262 70.7163L38.6093 74.5762L27.8509 63.8178L25.4649 61.4309L35.3858 45.9013L42.8459 34.2347L43.3342 33.4616C50.4069 22.3484 60.6867 13.6441 72.8139 8.50005L91.8974 27.5836C86.7095 40.4415 77.5705 51.3187 65.799 58.6461V58.6461ZM93.1873 24.1664L76.2074 7.18333C82.7788 4.82251 89.6863 3.5302 96.6671 3.35524C96.6483 10.4353 95.4732 17.4656 93.1873 24.1664Z" fill="black"/>
<path d="M46.1409 35.257L44.7493 37.4364L47.5577 39.23L48.9493 37.0498C49.2024 36.6567 49.449 36.2669 49.7175 35.8836L46.9506 34.0249C46.678 34.4269 46.4062 34.833 46.1409 35.257Z" fill="black"/>
<path d="M31.9314 57.5012L42.6158 40.7678L45.425 42.5614L34.7415 59.2948L31.9314 57.5012Z" fill="black"/>
<path d="M53.3342 33.3332C53.3342 40.6972 59.3042 46.6664 66.6674 46.6664C74.0315 46.6664 80.0007 40.6972 80.0007 33.3332C80.0007 25.97 74.0315 20 66.6674 20C59.3075 20.0081 53.3424 25.9733 53.3342 33.3332ZM76.6674 33.3332C76.6674 38.8564 72.1907 43.3331 66.6674 43.3331C61.145 43.3331 56.6675 38.8564 56.6675 33.3332C56.6675 27.8108 61.145 23.3333 66.6674 23.3333C72.1882 23.339 76.6625 27.8132 76.6674 33.3332Z" fill="black"/>
<path d="M60.0007 33.3329H63.3341C63.3341 31.4921 64.8266 29.9996 66.6674 29.9996V26.6663C62.9858 26.6663 60.0007 29.6513 60.0007 33.3329Z" fill="black"/>
<path d="M45.0009 10V6.66667H48.3342V3.33333H45.0009V0H41.6676V3.33333H38.3342V6.66667H41.6676V10H45.0009Z" fill="black"/>
<path d="M18.3345 15H21.6678V18.3333H18.3345V15Z" fill="black"/>
<path d="M96.6672 53.333H93.3338V56.6663H90.0005V59.9997H93.3338V63.333H96.6672V59.9997H100.001V56.6663H96.6672V53.333Z" fill="black"/>
<path d="M75.0008 84.9993V88.3326H71.6675V91.6659H75.0008V94.9993H78.3341V91.6659H81.6675V88.3326H78.3341V84.9993H75.0008Z" fill="black"/>
<path d="M80.0005 66.666H83.3338V69.9993H80.0005V66.666Z" fill="black"/>
<path d="M6.66797 24.9998H10.0013V28.3331H6.66797V24.9998Z" fill="black"/>
</g>
<defs>
<clipPath id="clip0">
<rect width="100" height="100" fill="white"/>
</clipPath>
</defs>
</svg>
