<svg width="100" height="100" viewBox="0 0 100 100" fill="none" xmlns="http://www.w3.org/2000/svg">
<path d="M94.1666 100V66.7416C94.1666 62.7052 92.7017 58.8046 90.043 55.7667L82.4999 46.6667H75.8333V100H94.1666Z" fill="#FEC9A3"/>
<path d="M25.8333 91.6667C25.8333 95.3483 28.8183 98.3333 32.4999 98.3333H75.8333C79.5149 98.3333 82.4999 95.3483 82.4999 91.6667V85H25.8333V91.6667Z" fill="#3D4D63"/>
<path d="M75.8333 1.66675H32.4999C28.8183 1.66675 25.8333 4.65177 25.8333 8.33341V11.6667H82.4999V8.33341C82.4999 4.65177 79.5149 1.66675 75.8333 1.66675Z" fill="#3D4D63"/>
<path d="M25.8333 11.6667H82.4999V85.0001H25.8333V11.6667Z" fill="#348FD9"/>
<path d="M45.8333 28.3334C45.83 21.1557 41.6365 14.6412 35.1049 11.6667H25.8333V46.5837C26.3834 46.6318 26.9368 46.6667 27.4999 46.6667C37.6252 46.6667 45.8333 38.4587 45.8333 28.3334Z" fill="#2A71AD"/>
<path d="M25.8333 78.3334V85.0001H82.4999V21.6667L25.8333 78.3334Z" fill="#3086CD"/>
<path d="M52.5 90H55.8333V93.3333H52.5V90Z" fill="#2A3845"/>
<path d="M32.5 51.6667H75.8333V65.0001H32.5V51.6667Z" fill="#4DB7E5"/>
<path d="M37.5 56.6667H44.1667V60.0001H37.5V56.6667Z" fill="#79C6E8"/>
<path d="M47.5 56.6667H70.8333V60.0001H47.5V56.6667Z" fill="#79C6E8"/>
<path d="M32.5 71.6667H75.8333V80.0001H32.5V71.6667Z" fill="#4DB7E5"/>
<path d="M37.5 76.6667H57.5V80.0001H37.5V76.6667Z" fill="#79C6E8"/>
<path d="M60.8333 76.6667H70.8332V80.0001H60.8333V76.6667Z" fill="#79C6E8"/>
<path d="M32.5 18.3333H75.8333V44.9999H32.5V18.3333Z" fill="#60D1E0"/>
<path d="M32.5 39.9999L47.5 28.3333L57.5 38.3333L65.8333 31.6666L75.8333 39.9999V44.9999H32.5V39.9999Z" fill="#9FE4ED"/>
<path d="M62.5 25C62.5 27.7612 60.2612 30 57.5 30C54.7388 30 52.5 27.7612 52.5 25C52.5 22.2388 54.7388 20 57.5 20C60.2612 20 62.5 22.2388 62.5 25Z" fill="#E94F4F"/>
<path d="M32.5 39.9999L45.765 29.6833C45.7983 29.2349 45.8333 28.7882 45.8333 28.3333C45.839 24.781 44.8047 21.3044 42.8581 18.3333H32.5V39.9999Z" fill="#5AC6D4"/>
<path d="M45.765 29.6833L32.5 39.9999V44.9999H35.105C41.1882 42.2232 45.2743 36.3516 45.765 29.6833Z" fill="#60D1E0"/>
<path d="M85.8333 71.6667L68.3333 54.1667C66.0327 51.8653 62.3006 51.8653 60 54.1667C57.6986 56.4674 57.6986 60.1995 60 62.5001L74.1667 76.6667L72.7946 79.0683C69.5988 84.6607 70.1432 91.6374 74.1667 96.6667V100H85.8333V71.6667Z" fill="#FEC9A3"/>
<path d="M42.4999 25.0001C42.4999 35.1254 34.2919 43.3334 24.1666 43.3334C14.0413 43.3334 5.83325 35.1254 5.83325 25.0001C5.83325 14.8748 14.0413 6.66675 24.1666 6.66675C34.2919 6.66675 42.4999 14.8748 42.4999 25.0001Z" fill="#7EB457"/>
<path d="M36.0132 11.0212C31.0799 26.3329 19.3099 33.8801 10.73 37.443C15.3532 42.4511 22.3755 44.4783 28.9567 42.705C35.5379 40.9317 40.5908 35.6518 42.0728 28.9989C43.5539 22.3461 41.2199 15.4207 36.0132 11.0212Z" fill="#74AB4D"/>
<path d="M17.4999 35C17.058 35 16.634 34.8242 16.3215 34.5117L11.3215 29.5117L13.6783 27.1549L17.4999 30.9766L32.9882 15.4883L35.345 17.8451L18.6783 34.5117C18.3658 34.8242 17.9418 35 17.4999 35Z" fill="#5F943A"/>
<path d="M75.8334 0H32.5001C31.0369 0 29.5997 0.385742 28.3334 1.11816L30.0001 4.00146C30.7602 3.56364 31.6228 3.33252 32.5001 3.33333H75.8334C78.5946 3.33333 80.8334 5.5721 80.8334 8.33333V10H44.1667V13.3333H80.8334V64.3099L77.5001 60.9766V51.6667C77.5001 50.7463 76.7538 50 75.8334 50H32.5001C31.5797 50 30.8334 50.7463 30.8334 51.6667V65C30.8334 65.9204 31.5797 66.6667 32.5001 66.6667H61.81L65.1433 70H32.5001C31.5797 70 30.8334 70.7463 30.8334 71.6667V80H34.1667V73.3333H68.4766L72.0883 76.945L71.3486 78.2397C70.4469 79.8275 69.7999 81.5454 69.4304 83.3333H27.5001V48.3333H24.1667V91.6667C24.1724 96.2671 27.8997 99.9943 32.5001 100H75.8334V96.6667C75.8334 96.2882 75.7048 95.9204 75.468 95.625C71.8515 91.1377 71.364 84.8885 74.2416 79.895L75.6137 77.4935C75.984 76.8424 75.8741 76.0238 75.3451 75.4932L61.1785 61.3265C59.572 59.6688 59.5932 57.0288 61.2249 55.3971C62.8573 53.7646 65.4973 53.7435 67.155 55.3499L84.655 72.8499L87.0118 70.4932L84.1667 67.6432V51.2882L88.7883 56.8636C91.1809 59.598 92.5001 63.1079 92.5001 66.7415V100H95.8334V66.7415C95.8383 62.3161 94.24 58.0387 91.3331 54.7013L84.1667 46.0653V8.33333C84.161 3.73291 80.4338 0.00569662 75.8334 0V0ZM32.5001 96.6667C29.7389 96.6667 27.5001 94.4279 27.5001 91.6667V86.6667H69.087C69.043 90.2352 70.1083 93.7297 72.1371 96.6667H32.5001ZM56.8149 60C57.0972 61.2394 57.6913 62.3869 58.5401 63.3333H34.1667V53.3333H58.5401C57.6913 54.2798 57.0972 55.4272 56.8149 56.6667H47.5001V60H56.8149ZM74.1667 57.6432L69.8569 53.3333H74.1667V57.6432Z" fill="black"/>
<path d="M52.5 90H55.8333V93.3333H52.5V90Z" fill="black"/>
<path d="M37.5 56.6667H44.1667V60.0001H37.5V56.6667Z" fill="black"/>
<path d="M37.5 76.6667H57.5V80.0001H37.5V76.6667Z" fill="black"/>
<path d="M60.8333 76.6667H67.4999V80.0001H60.8333V76.6667Z" fill="black"/>
<path d="M37.5 43.3334V46.6667H75.8333C76.7537 46.6667 77.5 45.9205 77.5 45.0001V18.3334C77.5 17.413 76.7537 16.6667 75.8333 16.6667H47.5V20.0001H74.1667V36.4421L66.9002 30.385C66.2915 29.878 65.4102 29.8699 64.7917 30.3655L57.6253 36.1003L48.68 27.155L46.3232 29.5118L56.3232 39.5118C56.9238 40.1124 57.88 40.1661 58.5433 39.6347L65.813 33.8184L74.1667 40.7821V43.3334H37.5Z" fill="black"/>
<path d="M52.5 25C52.5 27.7612 54.7388 30 57.5 30C60.2612 30 62.5 27.7612 62.5 25C62.5 22.2388 60.2612 20 57.5 20C54.7388 20 52.5 22.2388 52.5 25ZM57.5 23.3333C58.4204 23.3333 59.1667 24.0796 59.1667 25C59.1667 25.9204 58.4204 26.6667 57.5 26.6667C56.5796 26.6667 55.8333 25.9204 55.8333 25C55.8333 24.0796 56.5796 23.3333 57.5 23.3333Z" fill="black"/>
<path d="M4.16675 25C4.16675 36.0457 13.121 45 24.1667 45C35.2125 45 44.1667 36.0457 44.1667 25C44.1667 13.9543 35.2125 5 24.1667 5C13.1259 5.01221 4.17896 13.9591 4.16675 25ZM40.8334 25C40.8334 34.2049 33.3717 41.6667 24.1667 41.6667C14.9618 41.6667 7.50008 34.2049 7.50008 25C7.50008 15.7951 14.9618 8.33333 24.1667 8.33333C33.3676 8.3431 40.8236 15.7992 40.8334 25Z" fill="black"/>
<path d="M13.6783 27.1549L11.3215 29.5117L16.3215 34.5117C16.9726 35.1619 18.0273 35.1619 18.6783 34.5117L35.345 17.8451L32.9882 15.4883L17.4999 30.9766L13.6783 27.1549Z" fill="black"/>
</svg>
