<svg width="100" height="100" viewBox="0 0 100 100" fill="none" xmlns="http://www.w3.org/2000/svg">
<g clip-path="url(#clip0)">
<path d="M43.3334 45C66.3453 45 85.0001 63.6548 85.0001 86.6667V88.3333C85.0001 93.8558 80.5225 98.3333 75.0001 98.3333H11.6667C6.14429 98.3333 1.66675 93.8558 1.66675 88.3333V86.6667C1.66675 63.6548 20.3215 45 43.3334 45Z" fill="#F48BB3"/>
<path d="M5 95.7763C6.82943 97.4243 9.20492 98.3349 11.6667 98.3333H75C80.5225 98.3333 85 93.8557 85 88.3333V86.6666C85.0138 76.184 81.0604 66.0839 73.9331 58.3967C55.4647 81.9351 24.2065 91.7936 5 95.7763V95.7763Z" fill="#E882A8"/>
<path d="M44.2683 45.0237C44.8086 46.9858 45.5891 48.8746 46.5917 50.6471L41.2279 56.0116C40.5777 56.6627 40.5777 57.7174 41.2279 58.3684L48.2982 65.4387C48.9493 66.0889 50.0039 66.0889 50.655 65.4387L56.0196 60.075C56.7699 60.5006 57.5422 60.8863 58.3332 61.2297C59.4156 61.7001 60.5289 62.0932 61.6665 62.4065V70.0001C61.6665 70.9205 62.4128 71.6667 63.3332 71.6667H73.3332C74.2536 71.6667 74.9999 70.9205 74.9999 70.0001V62.4065C75.6045 62.2405 76.1815 62.0102 76.7683 61.8002C69.1063 51.4902 57.1109 45.2979 44.2683 45.0237V45.0237Z" fill="#E882A8"/>
<path d="M62.9004 74.9504C63.4156 74.1928 63.2227 73.1617 62.4683 72.6409C61.7147 72.1208 60.682 72.3064 60.1571 73.0567C59.4108 74.1488 58.8835 75.3744 58.6035 76.6667H49.8666C49.0389 70.9319 44.1276 66.6733 38.3334 66.6667C37.4129 66.6667 36.6667 67.413 36.6667 68.3334C36.6667 69.2538 37.4129 70.0001 38.3334 70.0001C42.2917 70.005 45.7023 72.789 46.4999 76.6667H43.3334C39.4092 76.67 35.7503 78.6459 33.5954 81.9247C33.5767 81.9247 33.5637 81.9101 33.5449 81.9084C30.2678 81.4885 27.3324 79.668 25.4997 76.9182L24.7168 75.7415C24.2057 74.9757 23.1706 74.769 22.4048 75.28C21.639 75.7911 21.4323 76.8263 21.9434 77.592L22.7271 78.7582C24.9056 82.0191 28.2959 84.275 32.1452 85.0269C30.376 90.9791 33.5873 97.273 39.445 99.3336C40.3133 99.6396 41.2655 99.1846 41.5715 98.3171C41.8783 97.4488 41.4234 96.4967 40.555 96.1899C36.7285 94.8373 34.4336 90.9237 35.1197 86.9239C35.8065 82.9241 39.2749 80.0001 43.3334 80.0001H58.4001C58.6174 82.1062 59.3376 84.1301 60.4997 85.9001C60.8171 86.412 61.3851 86.7139 61.9865 86.6887C62.5879 86.6635 63.1291 86.316 63.4025 85.7797C63.676 85.2434 63.6385 84.6013 63.3049 84.1C61.2956 81.4259 61.1345 77.7914 62.9004 74.9504V74.9504Z" fill="#D17196"/>
<path d="M48.3332 86.6668C47.4128 86.6668 46.6665 87.4131 46.6665 88.3335C46.6665 89.2539 47.4128 90.0001 48.3332 90.0001C52.4046 89.9871 55.8844 92.9274 56.5518 96.9435C56.6868 97.7451 57.3802 98.3327 58.1932 98.3335C58.2868 98.3335 58.3796 98.3262 58.4715 98.3099C59.3789 98.1569 59.9909 97.2975 59.8379 96.3901C58.9061 90.7667 54.033 86.6489 48.3332 86.6668V86.6668Z" fill="#D17196"/>
<path d="M26.2117 64.6965C25.4134 66.8058 25.0032 69.0413 25 71.2964C25 72.2168 25.7462 72.9631 26.6666 72.9631C27.587 72.9631 28.3333 72.2168 28.3333 71.2964C28.3219 67.2095 29.9463 63.287 32.845 60.4053L33.7386 59.5117C34.1715 59.0934 34.3457 58.4733 34.1927 57.8906C34.0405 57.308 33.5856 56.853 33.0021 56.7009C32.4194 56.5479 31.8001 56.722 31.3818 57.155L30.4883 58.0485C29.4319 59.113 28.5066 60.2995 27.7319 61.5837C24.7314 61.1637 22.207 57.7067 21.7415 53.1633C21.7008 52.7206 21.4835 52.3128 21.1385 52.0329C20.7934 51.7529 20.3499 51.6235 19.908 51.6748C19.4677 51.7196 19.0625 51.9385 18.7833 52.2827C18.5042 52.627 18.3732 53.068 18.4196 53.5083C19.0096 59.2033 22.1484 63.5563 26.2117 64.6965V64.6965Z" fill="#D17196"/>
<path d="M23.2795 88.3335C19.8208 88.4726 16.4501 87.2235 13.9167 84.8634C14.6931 84.0854 15.393 83.2342 16.0082 82.3236L16.9432 80.9238C17.4559 80.1564 17.25 79.1196 16.4834 78.6069C15.7168 78.0942 14.6792 78.3001 14.1666 79.0667L13.2331 80.4665C10.9496 83.9023 7.25494 86.1419 3.15337 86.5781C2.27365 86.675 1.62343 87.4424 1.67144 88.3253C1.71946 89.2083 2.44862 89.9009 3.33322 89.9017C3.39345 89.9017 3.45285 89.9017 3.51307 89.8935C6.31744 89.5851 9.0038 88.5915 11.3329 87.0005C14.4083 90.0067 18.5424 91.6831 22.8433 91.6668C23.0232 91.6668 23.2046 91.6668 23.3869 91.6587C23.8288 91.6448 24.2471 91.4552 24.5499 91.133C24.8526 90.8099 25.0145 90.3802 24.9999 89.9383C24.9893 89.4964 24.8005 89.0765 24.4774 88.7746C24.1535 88.4726 23.7222 88.314 23.2795 88.3335V88.3335Z" fill="#D17196"/>
<path d="M83.5002 76.6667C77.771 76.6781 72.8402 80.7187 71.7017 86.3331C71.517 87.2348 72.0988 88.1153 72.9997 88.3001C73.1096 88.3229 73.2211 88.3342 73.3334 88.3334C74.1252 88.3326 74.8064 87.776 74.965 87.0004C75.7854 82.9355 79.3531 80.009 83.5002 80.0001C84.4206 80.0001 85.1669 79.2538 85.1669 78.3334C85.1669 77.413 84.4206 76.6667 83.5002 76.6667V76.6667Z" fill="#D17196"/>
<path d="M7.90837 68.0753C10.7209 67.3762 13.6693 68.5156 15.2798 70.9252C15.7909 71.691 16.826 71.8977 17.5918 71.3867C18.3576 70.8756 18.5643 69.8404 18.0532 69.0747C15.6615 65.4923 11.2791 63.7955 7.09782 64.8331C6.20508 65.0569 5.66228 65.9627 5.88607 66.8554C6.10905 67.749 7.01482 68.2918 7.90837 68.068V68.0753Z" fill="#D17196"/>
<path d="M96.6668 28.3334H89.0732C88.5304 26.3624 87.7467 24.4662 86.74 22.6864L92.1038 17.3219C92.754 16.6708 92.754 15.6161 92.1038 14.9651L85.0351 7.89478C84.384 7.24455 83.3293 7.24455 82.6783 7.89478L77.3137 13.2585C75.5339 12.2519 73.6378 11.469 71.6667 10.927V3.33341C71.6667 2.413 70.9205 1.66675 70.0001 1.66675H60.0001C59.0797 1.66675 58.3334 2.413 58.3334 3.33341V10.927C57.1957 11.2403 56.0824 11.6334 55.0001 12.1038C54.2091 12.4472 53.4368 12.8329 52.6864 13.2585L47.3219 7.89478C46.6708 7.24455 45.6161 7.24455 44.9651 7.89478L37.8948 14.9651C37.2445 15.6161 37.2445 16.6708 37.8948 17.3219L43.2585 22.6864C42.8329 23.4368 42.4472 24.2091 42.1038 25.0001C41.6334 26.0824 41.2403 27.1957 40.927 28.3334H33.3334C32.413 28.3334 31.6667 29.0797 31.6667 30.0001V40.0001C31.6667 40.9205 32.413 41.6667 33.3334 41.6667H40.927C41.4698 43.6378 42.2535 45.5339 43.2602 47.3137L37.8964 52.6783C37.2462 53.3293 37.2462 54.384 37.8964 55.0351L44.9667 62.1054C45.6178 62.7556 46.6724 62.7556 47.3235 62.1054L52.6881 56.7416C53.4376 57.1672 54.2099 57.553 55.0001 57.8964C56.0824 58.3668 57.1957 58.7598 58.3334 59.0732V66.6668C58.3334 67.5872 59.0797 68.3334 60.0001 68.3334H70.0001C70.9205 68.3334 71.6667 67.5872 71.6667 66.6668V59.0732C73.6378 58.5304 75.5339 57.7467 77.3137 56.74L82.6783 62.1038C83.3293 62.754 84.384 62.754 85.0351 62.1038L92.1054 55.0334C92.7556 54.3824 92.7556 53.3277 92.1054 52.6767L86.7416 47.3121C87.7475 45.5331 88.5312 43.637 89.0732 41.6667H96.6668C97.5872 41.6667 98.3334 40.9205 98.3334 40.0001V30.0001C98.3334 29.0797 97.5872 28.3334 96.6668 28.3334V28.3334ZM65.0001 41.6667C61.3184 41.6667 58.3334 38.6817 58.3334 35.0001C58.3334 31.3184 61.3184 28.3334 65.0001 28.3334C68.6817 28.3334 71.6667 31.3184 71.6667 35.0001C71.6667 38.6817 68.6817 41.6667 65.0001 41.6667Z" fill="#4DB7E5"/>
<path d="M96.6667 28.3333H89.0731C88.5303 26.3622 87.7466 24.4661 86.7399 22.6863L92.1037 17.3217C92.7539 16.6707 92.7539 15.616 92.1037 14.9649L85.035 7.89463C84.6566 7.52598 84.1235 7.36241 83.6035 7.45518C81.0905 16.5201 76.8726 25.0227 71.1751 32.5081C72.1566 34.8445 71.7147 37.5357 70.0374 39.4352C68.3602 41.3346 65.7446 42.1061 63.3049 41.4217C56.5519 47.941 48.8436 53.3927 40.4468 57.5886L44.965 62.1069C45.616 62.7571 46.6707 62.7571 47.3218 62.1069L52.6864 56.7431C53.4367 57.1687 54.209 57.5536 55 57.8963C56.0824 58.3666 57.1956 58.7597 58.3333 59.073V66.6666C58.3333 67.587 59.0796 68.3333 60 68.3333H70C70.9204 68.3333 71.6667 67.587 71.6667 66.6666V59.073C73.6377 58.5302 75.5339 57.7465 77.3136 56.7398L82.6782 62.1036C83.3293 62.7538 84.384 62.7538 85.035 62.1036L92.1053 55.0333C92.7555 54.3823 92.7555 53.3276 92.1053 52.6765L86.7415 47.3119C87.7474 45.533 88.5311 43.6368 89.0731 41.6666H96.6667C97.5871 41.6666 98.3333 40.9203 98.3333 39.9999V29.9999C98.3333 29.0795 97.5871 28.3333 96.6667 28.3333V28.3333Z" fill="#48ADD9"/>
<path d="M65.0001 53.3334C54.8748 53.3334 46.6667 45.1254 46.6667 35.0001C46.6667 24.8748 54.8748 16.6667 65.0001 16.6667C75.1254 16.6667 83.3334 24.8748 83.3334 35.0001C83.3212 45.1205 75.1205 53.3212 65.0001 53.3334ZM65.0001 20.0001C56.7156 20.0001 50.0001 26.7156 50.0001 35.0001C50.0001 43.2846 56.7156 50.0001 65.0001 50.0001C73.2846 50.0001 80.0001 43.2846 80.0001 35.0001C79.9903 26.7196 73.2805 20.0098 65.0001 20.0001Z" fill="#2A8EBD"/>
<path d="M11.6667 99.9999H75C81.4404 99.9926 86.6593 94.7737 86.6667 88.3333V86.6666C86.6683 83.7556 86.3778 80.8528 85.8 77.9996C84.9544 73.8297 83.4937 69.8079 81.4665 66.0668L78.5368 67.6529C80.0871 70.5313 81.2752 73.5904 82.0752 76.7602C76.9157 77.3827 72.7344 81.2402 71.7 86.3329L74.9666 86.9864C75.7422 83.1965 78.9258 80.3726 82.7816 80.0569C83.147 82.2411 83.3309 84.4522 83.3333 86.6666V88.3333C83.3276 92.9337 79.6004 96.6609 75 96.6666H59.8665C59.0389 90.9317 54.1276 86.6731 48.3333 86.6666V89.9999C52.2917 90.0048 55.7023 92.7888 56.4998 96.6666H43.3333C38.7313 96.6666 35 92.9353 35 88.3333C35 83.7312 38.7313 79.9999 43.3333 79.9999H58.4001C58.6173 82.106 59.3376 84.13 60.4997 85.9L63.3048 84.0999C61.2972 81.4241 61.1393 77.7904 62.9069 74.9503L60.1636 73.0566C59.4149 74.1479 58.8859 75.3743 58.6035 76.6666H49.8665C49.0389 70.9317 44.1276 66.6731 38.3333 66.6666V69.9999C42.2917 70.0048 45.7023 72.7888 46.4998 76.6666H43.3333C39.4141 76.6698 35.7585 78.6409 33.6019 81.9132C30.3019 81.5087 27.3437 79.6825 25.5029 76.9132L24.7201 75.7364L21.9466 77.5862L22.7303 78.7532C24.908 82.0141 28.3 84.2691 32.1501 85.0162C30.9106 89.1617 32.0793 93.6523 35.1831 96.6666H11.6667C7.66439 96.6609 4.23177 93.811 3.4904 89.8779C6.30046 89.5824 8.99414 88.5977 11.333 87.0116C14.4108 90.0138 18.5441 91.6853 22.8434 91.6666C23.0233 91.6666 23.2048 91.6666 23.387 91.6584L23.2796 88.3251C19.8161 88.4635 16.4412 87.211 13.9071 84.8469C14.6859 84.0714 15.3898 83.2234 16.0083 82.3152L16.9434 80.9146L14.1667 79.0665L13.2332 80.4662C10.9847 83.8484 7.36572 86.0733 3.33333 86.5551C3.35205 80.1122 4.93001 73.7695 7.93294 68.0696C10.7381 67.3852 13.6711 68.5253 15.2767 70.9252L18.0501 69.0746C16.2419 66.3785 13.2585 64.7021 10.0146 64.5597C12.3885 60.9854 15.319 57.814 18.6947 55.1667C19.6696 59.9299 22.57 63.6384 26.2134 64.6915C25.4142 66.8017 25.0024 69.0396 25 71.2963H28.3333C28.3219 67.2094 29.9463 63.2869 32.8451 60.4052L33.7386 59.5116L31.3818 57.1549L30.4883 58.0484C29.4222 59.1218 28.4904 60.3206 27.7116 61.6186C24.6769 61.1734 22.1663 57.5235 21.7383 53.0232C24.9544 50.9407 28.4554 49.3359 32.1313 48.2584L31.202 45.0569C26.8896 46.3101 22.8003 48.2315 19.0837 50.7519C7.15332 58.8118 0.00325521 72.2688 0 86.6666V88.3333C0.00732421 94.7737 5.22624 99.9926 11.6667 99.9999V99.9999Z" fill="black"/>
<path d="M33.3333 43.3333H39.6899C40.1025 44.5955 40.6095 45.8244 41.2069 47.0101L36.7163 51.4998C35.4142 52.8019 35.4142 54.9129 36.7163 56.215L43.7866 63.2853C45.0887 64.5874 47.1997 64.5874 48.5018 63.2853L52.9899 58.7948C53.4318 59.0186 53.8818 59.2285 54.3351 59.4263C55.092 59.7599 55.8716 60.0513 56.6683 60.3133V66.6667C56.6683 68.5075 58.1608 70 60.0016 70H70.0016C71.8424 70 73.335 68.5075 73.335 66.6667V60.3101C74.5972 59.8975 75.826 59.3905 77.0117 58.7931L81.4998 63.2837C82.8019 64.5858 84.9129 64.5858 86.215 63.2837L93.2869 56.2134C94.589 54.9113 94.589 52.8003 93.2869 51.4982L88.7948 47.0101C89.3921 45.8244 89.8983 44.5955 90.3101 43.3333H96.6667C98.5075 43.3333 100 41.8408 100 40V30C100 28.1592 98.5075 26.6667 96.6667 26.6667H90.3101C89.8975 25.4045 89.3905 24.1756 88.7931 22.9899L93.2853 18.5002C94.5866 17.1981 94.5866 15.0887 93.2853 13.7866L86.2134 6.71468C84.9113 5.4126 82.8003 5.4126 81.4982 6.71468L77.0101 11.215C75.8244 10.6144 74.5955 10.105 73.3333 9.68994V3.33333C73.3333 1.49251 71.8408 0 70 0H60C58.1592 0 56.6667 1.49251 56.6667 3.33333V9.68994C55.8716 9.95036 55.092 10.2466 54.3335 10.5754C53.8802 10.7731 53.4302 10.9831 52.9883 11.2069L48.5002 6.71468C47.1981 5.41341 45.0887 5.41341 43.7866 6.71468L36.7163 13.7866C35.4142 15.0887 35.4142 17.1997 36.7163 18.5018L41.2069 22.9899C40.9831 23.4318 40.7731 23.8818 40.5754 24.3351C40.2417 25.092 39.9504 25.8716 39.6883 26.6683H33.3333C31.4925 26.6683 30 28.1608 30 30.0016V40.0016C30.0008 41.8416 31.4933 43.3333 33.3333 43.3333V43.3333ZM33.3333 30H40.9269C41.6764 30 42.334 29.4995 42.5334 28.7769C42.8263 27.7148 43.1934 26.6748 43.632 25.6649C43.9526 24.9276 44.3123 24.2082 44.7087 23.5083C45.0773 22.8564 44.9666 22.0378 44.4368 21.508L39.0731 16.1434L46.145 9.07145L51.508 14.4368C52.0378 14.9666 52.8564 15.0773 53.5083 14.7087C54.2082 14.3123 54.9276 13.9526 55.6649 13.632C56.6748 13.1934 57.7148 12.8263 58.7769 12.5334C59.4995 12.334 60 11.6764 60 10.9269V3.33333H70V10.9269C70 11.6756 70.4997 12.3332 71.2215 12.5334C73.0607 13.0363 74.8307 13.7646 76.4917 14.6997C77.1436 15.0692 77.9622 14.9585 78.492 14.4287L83.8566 9.06331L90.9285 16.1369L85.5631 21.4998C85.0334 22.0296 84.9227 22.8483 85.2913 23.5002C86.2272 25.1611 86.9548 26.9312 87.4585 28.7703C87.6587 29.4922 88.3154 29.9919 89.0649 29.9919H96.6667V39.9919H89.0731C88.3244 39.991 87.6668 40.4915 87.4666 41.2134C86.9637 43.0526 86.2354 44.8218 85.3003 46.4836C84.9308 47.1354 85.0415 47.9533 85.5713 48.4831L90.9367 53.8485L83.8631 60.918L78.5002 55.5631C77.9704 55.0334 77.1517 54.9227 76.4998 55.2913C74.8389 56.2272 73.0688 56.9548 71.2297 57.4585C70.5078 57.6587 70.0081 58.3154 70.0081 59.0649V66.6667H60V59.0731C60 58.3236 59.4995 57.666 58.7769 57.4666C57.7148 57.1737 56.6756 56.8066 55.6649 56.368C54.9276 56.0474 54.2082 55.6877 53.5083 55.2913C53.2576 55.1489 52.9744 55.0741 52.6864 55.0749C52.2445 55.0749 51.8205 55.2506 51.508 55.5631L46.1434 60.9269L39.0731 53.855L44.4368 48.5002C44.9666 47.9704 45.0773 47.1517 44.7087 46.4998C43.7728 44.8389 43.0452 43.0688 42.5415 41.2297C42.3437 40.5013 41.6813 39.9967 40.9269 40H33.3333V30Z" fill="black"/>
<path d="M65.0001 53.3334C75.1254 53.3334 83.3334 45.1254 83.3334 35.0001C83.3334 24.8748 75.1254 16.6667 65.0001 16.6667C54.8748 16.6667 46.6667 24.8748 46.6667 35.0001C46.679 45.1205 54.8796 53.3212 65.0001 53.3334ZM65.0001 20.0001C73.2846 20.0001 80.0001 26.7156 80.0001 35.0001C80.0001 43.2846 73.2846 50.0001 65.0001 50.0001C56.7156 50.0001 50.0001 43.2846 50.0001 35.0001C50.0098 26.7196 56.7196 20.0098 65.0001 20.0001Z" fill="black"/>
<path d="M65.0001 43.3334C69.6021 43.3334 73.3334 39.6021 73.3334 35.0001C73.3334 30.398 69.6021 26.6667 65.0001 26.6667C60.398 26.6667 56.6667 30.398 56.6667 35.0001C56.6724 39.6005 60.3997 43.3277 65.0001 43.3334ZM65.0001 30.0001C67.7613 30.0001 70.0001 32.2388 70.0001 35.0001C70.0001 37.7613 67.7613 40.0001 65.0001 40.0001C62.2389 40.0001 60.0001 37.7613 60.0001 35.0001C60.0001 32.2388 62.2389 30.0001 65.0001 30.0001Z" fill="black"/>
</g>
<defs>
<clipPath id="clip0">
<rect width="100" height="100" fill="white"/>
</clipPath>
</defs>
</svg>
