<svg width="100" height="100" viewBox="0 0 100 100" fill="none" xmlns="http://www.w3.org/2000/svg">
<g clip-path="url(#clip0)">
<path d="M16.6667 1.66675H83.3334C86.0946 1.66675 88.3334 3.90552 88.3334 6.66675V50.0001C88.3334 52.7613 86.0946 55.0001 83.3334 55.0001H16.6667C13.9055 55.0001 11.6667 52.7613 11.6667 50.0001V6.66675C11.6667 3.90552 13.9055 1.66675 16.6667 1.66675Z" fill="#FFDA75"/>
<path d="M83.3333 1.66675H81.6666L28.3333 55.0001H83.3333C86.0945 55.0001 88.3333 52.7613 88.3333 50.0001V6.66675C88.3333 3.90552 86.0945 1.66675 83.3333 1.66675Z" fill="#FFCE46"/>
<path d="M59.445 63.3333L56.6667 55H43.3333L40.555 63.3333H35V66.6667H65V63.3333H59.445Z" fill="#E0E0DE"/>
<path d="M16.6667 6.66675H20.0001V10.0001H16.6667V6.66675Z" fill="#3A9CC9"/>
<path d="M57.7783 58.3333L56.6667 55H43.3333L42.2217 58.3333H57.7783Z" fill="#D6D6D4"/>
<path d="M21.6667 71.6667H78.3334V98.3334H21.6667V71.6667Z" fill="#D6D6D4"/>
<path d="M48.3333 76.6667H51.6666V80.0001H48.3333V76.6667Z" fill="#A8A8A6"/>
<path d="M41.6665 76.6667H44.9998V80.0001H41.6665V76.6667Z" fill="#A8A8A6"/>
<path d="M35 76.6667H38.3333V80.0001H35V76.6667Z" fill="#A8A8A6"/>
<path d="M28.3333 76.6667H31.6666V80.0001H28.3333V76.6667Z" fill="#A8A8A6"/>
<path d="M68.3333 76.6667H71.6666V80.0001H68.3333V76.6667Z" fill="#A8A8A6"/>
<path d="M61.6665 76.6667H64.9998V80.0001H61.6665V76.6667Z" fill="#A8A8A6"/>
<path d="M55 76.6667H58.3333V80.0001H55V76.6667Z" fill="#A8A8A6"/>
<path d="M48.3333 83.3335H51.6666V86.6668H48.3333V83.3335Z" fill="#A8A8A6"/>
<path d="M41.6665 83.3335H44.9998V86.6668H41.6665V83.3335Z" fill="#A8A8A6"/>
<path d="M35 83.3335H38.3333V86.6668H35V83.3335Z" fill="#A8A8A6"/>
<path d="M28.3333 83.3335H31.6666V86.6668H28.3333V83.3335Z" fill="#A8A8A6"/>
<path d="M68.3333 83.3335H71.6666V86.6668H68.3333V83.3335Z" fill="#A8A8A6"/>
<path d="M61.6665 83.3335H64.9998V86.6668H61.6665V83.3335Z" fill="#A8A8A6"/>
<path d="M55 83.3335H58.3333V86.6668H55V83.3335Z" fill="#A8A8A6"/>
<path d="M41.6665 90H58.3332V93.3333H41.6665V90Z" fill="#A8A8A6"/>
<path d="M21.6667 75H5.83333C2.61149 75 0 72.3885 0 69.1667C0 65.9448 2.61149 63.3333 5.83333 63.3333H22.5C23.881 63.3333 25 62.2144 25 60.8333V55H28.3333V60.8333C28.3333 64.0552 25.7218 66.6667 22.5 66.6667H5.83333C4.45231 66.6667 3.33333 67.7856 3.33333 69.1667C3.33333 70.5477 4.45231 71.6667 5.83333 71.6667H21.6667V75Z" fill="#C2C2C0"/>
<path d="M38.2934 89.1064C37.382 87.7416 35.5599 87.3315 34.152 88.1746L28.3333 91.6666V81.6666C28.3333 79.8258 26.8408 78.3333 25 78.3333C23.1591 78.3333 21.6666 79.8258 21.6666 81.6666C21.6666 79.8258 20.1741 78.3333 18.3333 78.3333C16.4925 78.3333 15 79.8258 15 81.6666C15 79.8258 13.5074 78.3333 11.6666 78.3333C9.82581 78.3333 8.33329 79.8258 8.33329 81.6666C8.33329 79.8258 6.84078 78.3333 4.99996 78.3333C3.15914 78.3333 1.66663 79.8258 1.66663 81.6666V98.3333H30L37.4397 93.3731C38.8541 92.4307 39.2358 90.5208 38.2934 89.1064V89.1064Z" fill="#FEC9A3"/>
<path d="M8.33329 90C7.41288 90 6.66663 89.2537 6.66663 88.3333V81.6667C6.66663 80.7463 7.41288 80 8.33329 80C9.2537 80 9.99996 80.7463 9.99996 81.6667V88.3333C9.99996 89.2537 9.2537 90 8.33329 90Z" fill="#FEB784"/>
<path d="M14.9999 90C14.0795 90 13.3333 89.2537 13.3333 88.3333V81.6667C13.3333 80.7463 14.0795 80 14.9999 80C15.9203 80 16.6666 80.7463 16.6666 81.6667V88.3333C16.6666 89.2537 15.9203 90 14.9999 90Z" fill="#FEB784"/>
<path d="M21.6667 90C20.7463 90 20 89.2537 20 88.3333V81.6667C20 80.7463 20.7463 80 21.6667 80C22.5871 80 23.3333 80.7463 23.3333 81.6667V88.3333C23.3333 89.2537 22.5871 90 21.6667 90Z" fill="#FEB784"/>
<path d="M61.7065 89.1064C62.6179 87.7416 64.44 87.3315 65.8479 88.1746L71.6666 91.6666V81.6666C71.6666 79.8258 73.1591 78.3333 74.9999 78.3333C76.8408 78.3333 78.3333 79.8258 78.3333 81.6666C78.3333 79.8258 79.8258 78.3333 81.6666 78.3333C83.5074 78.3333 84.9999 79.8258 84.9999 81.6666C84.9999 79.8258 86.4924 78.3333 88.3333 78.3333C90.1741 78.3333 91.6666 79.8258 91.6666 81.6666C91.6666 79.8258 93.1591 78.3333 94.9999 78.3333C96.8408 78.3333 98.3333 79.8258 98.3333 81.6666V98.3333H69.9999L62.5601 93.3731C61.1458 92.4307 60.7641 90.5208 61.7065 89.1064V89.1064Z" fill="#FEC9A3"/>
<path d="M91.6667 90C92.5871 90 93.3333 89.2537 93.3333 88.3333V81.6667C93.3333 80.7463 92.5871 80 91.6667 80C90.7463 80 90 80.7463 90 81.6667V88.3333C90 89.2537 90.7463 90 91.6667 90Z" fill="#FEB784"/>
<path d="M84.9999 90C85.9203 90 86.6666 89.2537 86.6666 88.3333V81.6667C86.6666 80.7463 85.9203 80 84.9999 80C84.0795 80 83.3333 80.7463 83.3333 81.6667V88.3333C83.3333 89.2537 84.0795 90 84.9999 90Z" fill="#FEB784"/>
<path d="M78.3334 90C79.2538 90 80.0001 89.2537 80.0001 88.3333V81.6667C80.0001 80.7463 79.2538 80 78.3334 80C77.413 80 76.6667 80.7463 76.6667 81.6667V88.3333C76.6667 89.2537 77.413 90 78.3334 90Z" fill="#FEB784"/>
<path d="M25 55H28.3333V58.3333H25V55Z" fill="#A8A8A6"/>
<path d="M48.3333 76.6667H51.6666V80.0001H48.3333V76.6667Z" fill="black"/>
<path d="M41.6667 76.6667H45.0001V80.0001H41.6667V76.6667Z" fill="black"/>
<path d="M35 76.6667H38.3333V80.0001H35V76.6667Z" fill="black"/>
<path d="M61.6667 76.6667H65.0001V80.0001H61.6667V76.6667Z" fill="black"/>
<path d="M55 76.6667H58.3333V80.0001H55V76.6667Z" fill="black"/>
<path d="M48.3333 83.3333H51.6666V86.6666H48.3333V83.3333Z" fill="black"/>
<path d="M41.6667 83.3333H45.0001V86.6666H41.6667V83.3333Z" fill="black"/>
<path d="M55 83.3333H58.3333V86.6666H55V83.3333Z" fill="black"/>
<path d="M41.6667 90H58.3334V93.3333H41.6667V90Z" fill="black"/>
<path d="M3.33333 81.6667C3.33333 80.7463 4.07959 80 5 80C5.44922 79.9984 5.87891 80.1831 6.18652 80.5103C6.4974 80.8138 6.67074 81.2321 6.66667 81.6667V88.3333H10V81.6667C10 80.7463 10.7463 80 11.6667 80C12.1159 79.9984 12.5456 80.1831 12.8532 80.5103C13.1641 80.8138 13.3374 81.2321 13.3333 81.6667V88.3333H16.6667V81.6667C16.6667 80.7463 17.4129 80 18.3333 80C18.7826 79.9984 19.2122 80.1831 19.5199 80.5103C19.8307 80.8138 20.0041 81.2321 20 81.6667V88.3333H23.3333V81.6667C23.3333 80.7463 24.0796 80 25 80C25.4492 79.9984 25.8789 80.1831 26.1865 80.5103C26.4974 80.8138 26.6707 81.2321 26.6667 81.6667V91.6667C26.6667 92.2673 26.9897 92.8214 27.513 93.1169C28.0355 93.4131 28.6768 93.4041 29.1919 93.0949L35.0081 89.6134C35.6551 89.2187 36.499 89.4043 36.9198 90.035C37.0711 90.2612 37.1509 90.5282 37.1501 90.8C37.1525 91.2777 36.91 91.7236 36.5063 91.98L29.0731 96.9466C28.4619 97.3543 28.1901 98.1144 28.4033 98.8175C28.6165 99.5207 29.2651 100.001 30 100H70C70.7349 100.001 71.3835 99.5207 71.5967 98.8175C71.8099 98.1144 71.5381 97.3543 70.9269 96.9466L63.4733 91.9686C62.8304 91.5397 62.6562 90.6714 63.0851 90.0285C63.5075 89.397 64.3547 89.2147 65 89.6151L70.813 93.0949C71.3281 93.4017 71.9678 93.409 72.4886 93.1136C73.0094 92.8182 73.3325 92.2656 73.3333 91.6667V81.6667C73.3317 81.2174 73.5164 80.7878 73.8436 80.4801C74.1471 80.1693 74.5654 79.9959 75 80C75.9204 80 76.6667 80.7463 76.6667 81.6667V88.3333H80V81.6667C79.9984 81.2174 80.1831 80.7878 80.5103 80.4801C80.8138 80.1693 81.2321 79.9959 81.6667 80C82.5871 80 83.3333 80.7463 83.3333 81.6667V88.3333H86.6667V81.6667C86.665 81.2174 86.8498 80.7878 87.1769 80.4801C87.4805 80.1693 87.8988 79.9959 88.3333 80C89.2537 80 90 80.7463 90 81.6667V88.3333H93.3333V81.6667C93.3317 81.2174 93.5164 80.7878 93.8436 80.4801C94.1471 80.1693 94.5654 79.9959 95 80C95.9204 80 96.6667 80.7463 96.6667 81.6667V100H100V81.6667C100 78.9054 97.7612 76.6667 95 76.6667C93.7638 76.6634 92.5724 77.1289 91.6667 77.9704C90.7568 77.1362 89.5679 76.6707 88.3333 76.6667C87.0972 76.6634 85.9058 77.1289 85 77.9704C84.0902 77.1362 82.9012 76.6707 81.6667 76.6667C81.0986 76.6691 80.5347 76.7684 80 76.9596V71.6667C80 70.7463 79.2537 70 78.3333 70H5.83333C4.45231 70 3.33333 68.881 3.33333 67.5C3.33333 66.119 4.45231 65 5.83333 65H22.5C25.7218 65 28.3333 62.3885 28.3333 59.1667V56.6667H41.0197L38.798 63.3333H35V66.6667H65V63.3333H61.202L58.9803 56.6667H83.3333C87.015 56.6667 90 53.6816 90 50V6.66667C90 2.98503 87.015 0 83.3333 0H16.6667C12.985 0 10 2.98503 10 6.66667V50C10 53.6816 12.985 56.6667 16.6667 56.6667H25V59.1667C25 60.5477 23.881 61.6667 22.5 61.6667H5.83333C2.61149 61.6667 0 64.2782 0 67.5C0 70.7218 2.61149 73.3333 5.83333 73.3333H20V76.9596C18.2756 76.3371 16.3468 76.7269 15 77.972C14.0934 77.1313 12.9028 76.665 11.6667 76.6667C10.4321 76.6715 9.24316 77.137 8.33333 77.972C7.42676 77.1313 6.23617 76.665 5 76.6667C2.23877 76.6667 0 78.9054 0 81.6667V100H3.33333V81.6667ZM23.3333 73.3333H76.6667V76.9653C76.1328 76.77 75.5688 76.6691 75 76.6667C73.7638 76.6642 72.5724 77.1305 71.6667 77.972V76.6667H68.3333V80H70.3035C70.1082 80.5339 70.0057 81.0978 70 81.6667V83.3333H68.3333V86.6667H70V88.7231L66.7065 86.7554C66.1833 86.4388 65.6038 86.2272 65 86.132V83.3333H61.6667V86.6667H62.0003C60.5395 87.4544 59.6004 88.9518 59.528 90.6095C59.4556 92.2673 60.2604 93.8411 61.6463 94.7534L64.5003 96.6667H35.4997L38.3333 94.7648C39.738 93.8647 40.5591 92.2868 40.4907 90.6201C40.4224 88.9534 39.4743 87.4479 37.9997 86.6667H38.3333V83.3333H35V86.132C34.397 86.2272 33.8184 86.438 33.2951 86.7529L30 88.7248V86.6667H31.6667V83.3333H30V81.6667C29.9943 81.0978 29.8926 80.5347 29.6981 80H31.6667V76.6667H28.3333V77.9769C26.9914 76.7228 25.0578 76.3314 23.3333 76.9653V73.3333ZM42.312 63.3333L44.5353 56.6667H55.4647L57.688 63.3333H42.312ZM16.6667 53.3333C14.8258 53.3333 13.3333 51.8408 13.3333 50V6.66667C13.3333 4.82585 14.8258 3.33333 16.6667 3.33333H83.3333C85.1742 3.33333 86.6667 4.82585 86.6667 6.66667V50C86.6667 51.8408 85.1742 53.3333 83.3333 53.3333H16.6667Z" fill="black"/>
<path d="M16.6667 6.66675H20.0001V10.0001H16.6667V6.66675Z" fill="black"/>
<path d="M16.6667 13H20.0001V16.3333H16.6667V13Z" fill="black"/>
<path d="M16.6667 19.3333H20.0001V22.6666H16.6667V19.3333Z" fill="black"/>
<path d="M50.001 46.3899C60.1574 46.3899 68.3909 38.1564 68.3909 28C68.3909 17.8435 60.1574 9.61011 50.001 9.61011C39.8445 9.61011 31.6111 17.8435 31.6111 28C31.6111 38.1564 39.8445 46.3899 50.001 46.3899Z" fill="#FFBB00"/>
<path opacity="0.12" d="M55.4759 10.439C61.9214 13.2976 66.4179 19.7518 66.4179 27.257C66.4179 37.4134 58.1844 45.6469 48.028 45.6469C46.1213 45.6469 44.2825 45.3566 42.5532 44.818C44.8301 45.828 47.3499 46.39 50.0012 46.39C60.1576 46.39 68.3911 38.1566 68.3911 28.0001C68.3909 19.7503 62.9586 12.7694 55.4759 10.439Z" fill="black"/>
<path d="M38.9366 17.4718C37.0191 15.5542 33.9074 15.5582 31.9949 17.484C30.0866 19.4055 30.1299 22.5239 32.0448 24.4388L37.8516 30.2456C38.4509 30.8449 39.4225 30.8449 40.0217 30.2456L45.8285 24.4388C47.7434 22.5239 47.7866 19.4056 45.8783 17.484C43.9658 15.5582 40.8543 15.5542 38.9366 17.4718Z" fill="#ED6EA4"/>
<path opacity="0.12" d="M45.8783 17.4838C45.1301 16.7303 44.1983 16.271 43.2262 16.106C43.7898 16.3467 44.3177 16.6978 44.7765 17.1598C46.6847 19.0813 46.6415 22.1997 44.7266 24.1146L38.9198 29.9214C38.6584 30.1829 38.3259 30.3302 37.9844 30.3635C38.5867 30.8413 39.4648 30.8022 40.0216 30.2455L45.8283 24.4387C47.7434 22.5237 47.7866 19.4052 45.8783 17.4838Z" fill="black"/>
<path d="M61.0653 17.4718C59.1477 15.5542 56.0361 15.5582 54.1236 17.484C52.2153 19.4055 52.2585 22.5239 54.1734 24.4388L59.9802 30.2456C60.5795 30.8449 61.5512 30.8449 62.1504 30.2456L67.9572 24.4388C69.8721 22.5239 69.9153 19.4056 68.007 17.484C66.0944 15.5582 62.9829 15.5542 61.0653 17.4718Z" fill="#ED6EA4"/>
<path opacity="0.12" d="M68.0069 17.4838C67.2587 16.7303 66.3268 16.271 65.3548 16.106C65.9185 16.3467 66.4464 16.6978 66.9051 17.1598C68.8134 19.0813 68.7702 22.1997 66.8553 24.1146L61.0485 29.9214C60.787 30.1829 60.4546 30.3302 60.113 30.3635C60.7154 30.8413 61.5934 30.8022 62.1502 30.2455L67.957 24.4387C69.872 22.5237 69.9152 19.4052 68.0069 17.4838Z" fill="black"/>
<path d="M35.1837 37.8739C33.2298 34.9479 32.197 31.5336 32.197 27.9998C32.197 27.1917 32.2522 26.3827 32.3607 25.5832L37.4372 30.6596C37.8377 31.0601 38.3703 31.2807 38.9367 31.2807C39.5031 31.2807 40.0356 31.0601 40.4361 30.6597L46.2429 24.8529C48.3951 22.7006 48.4182 19.2095 46.2942 17.0708C45.2589 16.0284 43.8798 15.4529 42.411 15.4504H42.4012C41.1233 15.4504 39.9123 15.8842 38.9361 16.6826C38.392 16.24 37.7749 15.9133 37.1229 15.708C40.4779 12.1933 45.1168 10.196 50.001 10.196C52.4373 10.196 54.7978 10.6792 57.0173 11.6321C57.3146 11.7597 57.6592 11.6222 57.787 11.3249C57.9146 11.0274 57.777 10.6829 57.4797 10.5553C55.1133 9.53925 52.5971 9.02417 50.001 9.02417C44.5409 9.02417 39.3694 11.3669 35.7622 15.4605C34.8776 15.4124 33.9771 15.5767 33.1423 15.9681C32.8493 16.1056 32.7231 16.4545 32.8605 16.7474C32.9979 17.0406 33.3469 17.1666 33.6397 17.0292C35.2791 16.2605 37.2412 16.6048 38.5223 17.8859C38.7511 18.1146 39.1222 18.1146 39.351 17.8859C40.1661 17.0708 41.2489 16.6224 42.4012 16.6224H42.4089C43.5639 16.6243 44.6484 17.0768 45.4625 17.8967C47.1328 19.5785 47.1111 22.3274 45.4142 24.0243L39.6073 29.8312C39.4282 30.0103 39.19 30.109 38.9366 30.109C38.6833 30.109 38.4451 30.0103 38.2659 29.8311L32.459 24.0243C32.4575 24.0227 32.4561 24.0212 32.4546 24.0196C32.4452 24.01 32.436 24.0002 32.4269 23.9905L32.3951 23.9566C32.3937 23.9552 32.3921 23.9541 32.3908 23.9527C30.9497 22.4443 30.7681 20.0767 31.9805 18.4028C32.1703 18.1407 32.1117 17.7744 31.8496 17.5845C31.5874 17.3946 31.2212 17.4532 31.0313 17.7153C30.272 18.7638 29.9122 20.061 30.0182 21.3681C30.1133 22.5406 30.5801 23.6513 31.342 24.54C31.1325 25.6772 31.0251 26.8394 31.0251 27.9999C31.0251 31.766 32.1261 35.4054 34.209 38.5247C34.4358 38.8644 34.6767 39.2011 34.9251 39.5256C35.0404 39.6763 35.2145 39.7554 35.3907 39.7553C35.5149 39.7553 35.6402 39.7159 35.7465 39.6346C36.0034 39.4379 36.0522 39.0701 35.8555 38.813C35.6226 38.5086 35.3965 38.1926 35.1837 37.8739ZM50.001 30.1089C49.6774 30.1089 49.415 30.3712 49.415 30.6948C49.415 31.5405 48.7271 32.2285 47.8814 32.2285C47.0358 32.2285 46.3479 31.5405 46.3479 30.6948C46.3479 30.3712 46.0855 30.1089 45.7619 30.1089C45.4383 30.1089 45.176 30.3712 45.176 30.6948C45.176 32.1867 46.3897 33.4005 47.8815 33.4005C48.7393 33.4005 49.505 32.9992 50.001 32.3745C50.4971 32.9991 51.2629 33.4005 52.1207 33.4005C53.6125 33.4005 54.8262 32.1867 54.8262 30.6948C54.8262 30.3712 54.5639 30.1089 54.2403 30.1089C53.9166 30.1089 53.6543 30.3712 53.6543 30.6948C53.6543 31.5405 52.9664 32.2285 52.1207 32.2285C51.275 32.2285 50.5871 31.5405 50.5871 30.6948C50.587 30.3712 50.3246 30.1089 50.001 30.1089ZM68.4227 17.0709C67.3874 16.0284 66.0084 15.453 64.5395 15.4505H64.5298C64.4327 15.4505 64.3361 15.4538 64.2398 15.4588C62.9253 13.9672 61.3959 12.6967 59.6888 11.681C59.4108 11.5154 59.0511 11.6067 58.8857 11.8849C58.7202 12.163 58.8116 12.5225 59.0896 12.6881C60.4856 13.5188 61.7549 14.531 62.8746 15.7039C62.2186 15.9106 61.6059 16.2403 61.0653 16.6823C60.0892 15.8842 58.8786 15.4505 57.6008 15.4505H57.5911C56.1221 15.453 54.7431 16.0285 53.7078 17.0709C51.5839 19.2097 51.6069 22.7008 53.7591 24.853L59.5659 30.6597C59.9663 31.0602 60.4989 31.2808 61.0653 31.2808C61.6316 31.2808 62.1642 31.0602 62.5648 30.6598L67.6412 25.5833C67.7498 26.3827 67.8049 27.1917 67.8049 28C67.8049 32.7555 65.953 37.2265 62.5903 40.5893C59.2276 43.952 54.7567 45.8039 50.0011 45.8039C45.2869 45.8039 40.8438 43.9797 37.4902 40.6672C37.26 40.4399 36.889 40.4422 36.6615 40.6723C36.434 40.9025 36.4364 41.2735 36.6666 41.501C40.241 45.0315 44.9766 46.9758 50.001 46.9758C55.0696 46.9758 59.8349 45.002 63.4189 41.4179C67.003 37.8339 68.9768 33.0687 68.9768 28.0001C68.9768 26.8392 68.8693 25.6769 68.6598 24.5396C70.5195 22.3741 70.4467 19.1089 68.4227 17.0709ZM67.6091 23.9545C67.6084 23.9551 67.6077 23.9555 67.6071 23.9562L67.5831 23.9817C67.5695 23.9957 67.5566 24.0102 67.5427 24.0241L61.7359 29.8309C61.5568 30.0101 61.3186 30.1088 61.0652 30.1088C60.8119 30.1088 60.5737 30.0101 60.3945 29.8309L54.5878 24.0241C52.8908 22.3273 52.8691 19.5784 54.5392 17.8966C55.3534 17.0767 56.438 16.6242 57.5931 16.6222H57.6007C58.753 16.6222 59.836 17.0707 60.6509 17.8857C60.7609 17.9956 60.9099 18.0573 61.0653 18.0573C61.2207 18.0573 61.3698 17.9956 61.4797 17.8857C62.1774 17.188 63.0718 16.7599 64.0378 16.6509C64.0568 16.6494 64.0758 16.6472 64.0947 16.6439C64.2384 16.6296 64.3836 16.6222 64.5299 16.6222H64.5376C65.6927 16.6242 66.7772 17.0767 67.5914 17.8966C69.239 19.5559 69.2387 22.2529 67.6091 23.9545Z" fill="black"/>
</g>
<defs>
<clipPath id="clip0">
<rect width="100" height="100" fill="white"/>
</clipPath>
</defs>
</svg>
