<svg width="100" height="100" viewBox="0 0 100 100" fill="none" xmlns="http://www.w3.org/2000/svg">
<rect x="1.17188" y="1.17188" width="97.6562" height="97.6562" rx="48.8281" fill="#3C3C47"/>
<path d="M58.0445 93.7318C31.2951 93.7318 9.61035 72.0471 9.61035 45.2977C9.61035 30.943 15.8574 18.049 25.7783 9.17969C12.0604 17.7316 2.92969 32.9523 2.92969 50.308C2.92969 77.0574 24.6145 98.7422 51.3639 98.7422C63.7586 98.7422 75.0637 94.0842 83.6301 86.426C76.2055 91.0547 67.4383 93.7318 58.0445 93.7318Z" fill="#5B5C6C"/>
<path d="M95.8254 29.9688C93.1502 23.8566 89.3338 18.4143 84.4826 13.793C83.857 13.1965 82.8656 13.2207 82.2688 13.8467C81.6725 14.4729 81.6965 15.4641 82.3227 16.0605C91.7027 24.9961 96.8686 37.0494 96.8686 50C96.8686 75.8434 75.8436 96.8686 50 96.8686C24.1564 96.8686 3.13145 75.8434 3.13145 50C3.13145 24.1566 24.1566 3.13145 50 3.13145C59.2445 3.13145 68.1855 5.81895 75.857 10.9033C76.5781 11.3814 77.5496 11.1842 78.0273 10.4633C78.5053 9.74238 78.308 8.7707 77.5873 8.29316C69.4012 2.86758 59.8615 0 50 0C36.6445 0 24.0885 5.20098 14.6447 14.6447C5.20098 24.0885 0 36.6445 0 50C0 63.3555 5.20098 75.9115 14.6447 85.3553C24.0885 94.799 36.6445 100 50 100C63.3555 100 75.9115 94.799 85.3553 85.3553C94.7992 75.9115 100 63.3555 100 50C100 43.0365 98.5955 36.2971 95.8254 29.9688Z" fill="black"/>
<path d="M67.1956 20.3368C68.6541 21.1789 69.7144 22.7328 70.3011 24.9942C70.8892 27.2603 70.977 30.1582 70.5408 33.5178C69.6691 40.2323 66.7311 48.5874 61.8977 56.9591C57.0643 65.3307 51.2976 72.0527 45.9185 76.1649C43.2271 78.2224 40.6735 79.5953 38.417 80.2191C36.1653 80.8416 34.2894 80.7004 32.8308 79.8583C31.3723 79.0162 30.3121 77.4623 29.7253 75.2009C29.1373 72.9348 29.0494 70.0369 29.4856 66.6773C30.3573 59.9628 33.2953 51.6077 38.1287 43.236C42.9621 34.8644 48.7288 28.1424 54.1079 24.0302C56.7993 21.9727 59.3529 20.5998 61.6094 19.976C63.8612 19.3535 65.737 19.4947 67.1956 20.3368Z" stroke="#54A1FF" stroke-width="2"/>
<path d="M67.1955 79.8581C65.737 80.7002 63.8611 80.8415 61.6093 80.219C59.3528 79.5951 56.7993 78.2223 54.1078 76.1647C48.7287 72.0525 42.962 65.3306 38.1286 56.9589C33.2953 48.5873 30.3572 40.2322 29.4855 33.5177C29.0493 30.158 29.1372 27.2602 29.7252 24.9941C30.312 22.7327 31.3722 21.1788 32.8308 20.3367C34.2893 19.4946 36.1652 19.3534 38.417 19.9759C40.6735 20.5997 43.227 21.9725 45.9185 24.0301C51.2976 28.1423 57.0643 34.8642 61.8976 43.2359C66.731 51.6076 69.669 59.9626 70.5408 66.6772C70.9769 70.0368 70.8891 72.9347 70.3011 75.2008C69.7143 77.4621 68.654 79.0161 67.1955 79.8581Z" stroke="#54A1FF" stroke-width="2"/>
<path d="M84.3779 50.0976C84.3779 51.7817 83.5623 53.4769 81.8973 55.1157C80.2288 56.758 77.7631 58.283 74.6355 59.5851C68.3847 62.1875 59.6799 63.8206 50.0132 63.8206C40.3464 63.8206 31.6417 62.1875 25.3909 59.5851C22.2633 58.283 19.7976 56.758 18.1291 55.1157C16.4641 53.4769 15.6484 51.7817 15.6484 50.0976C15.6484 48.4134 16.4641 46.7182 18.1291 45.0794C19.7976 43.4371 22.2633 41.9121 25.3909 40.61C31.6417 38.0076 40.3464 36.3745 50.0132 36.3745C59.6799 36.3745 68.3847 38.0076 74.6355 40.61C77.7631 41.9121 80.2288 43.4371 81.8973 45.0794C83.5623 46.7182 84.3779 48.4134 84.3779 50.0976Z" stroke="#54A1FF" stroke-width="2"/>
<rect x="46" y="46" width="8" height="8" rx="4" fill="#A0DCF0"/>
<rect x="46" y="46" width="8" height="8" rx="4" stroke="black" stroke-width="2"/>
<path d="M32.3408 19.5569C33.8463 18.6877 35.7802 18.5435 38.0966 19.1839C40.4177 19.8256 43.0424 21.2371 45.8074 23.3508C51.3335 27.5754 57.2562 34.4797 62.2199 43.0771C67.1836 51.6745 70.2015 60.2559 71.0971 67.1539C71.5452 70.6052 71.4552 73.5841 70.8504 75.9151C70.2467 78.2413 69.1549 79.844 67.6494 80.7132C66.1439 81.5824 64.2101 81.7266 61.8937 81.0862C59.5726 80.4446 56.9478 79.033 54.1829 76.9193C48.6568 72.6947 42.734 65.7904 37.7703 57.1931C32.8066 48.5957 29.7887 40.0143 28.8932 33.1163C28.4451 29.6649 28.535 26.686 29.1399 24.355C29.7435 22.0288 30.8353 20.4261 32.3408 19.5569Z" stroke="black" stroke-width="2"/>
<path d="M14.6865 50.135C14.6865 48.3966 15.5286 46.6497 17.2413 44.9639C18.9576 43.2746 21.4924 41.7072 24.7054 40.3696C31.127 37.6961 40.0677 36.019 49.9951 36.019C59.9225 36.019 68.8632 37.6961 75.2848 40.3696C78.4978 41.7072 81.0327 43.2746 82.7489 44.9639C84.4617 46.6497 85.3037 48.3966 85.3037 50.135C85.3037 51.8734 84.4617 53.6203 82.7489 55.3061C81.0327 56.9954 78.4978 58.5628 75.2848 59.9004C68.8632 62.5739 59.9225 64.251 49.9951 64.251C40.0677 64.251 31.1271 62.5739 24.7054 59.9004C21.4924 58.5628 18.9576 56.9954 17.2413 55.3061C15.5286 53.6203 14.6865 51.8734 14.6865 50.135Z" stroke="black" stroke-width="2"/>
<path d="M34.1138 22.5292C35.1185 21.9491 36.5318 21.9042 38.3928 22.5935C40.2463 23.2799 42.3999 24.6477 44.7169 26.6382C49.3435 30.6128 54.4494 36.9214 58.9004 44.6307C63.3514 52.34 66.2618 59.9162 67.3907 65.9103C67.956 68.9121 68.0637 71.4611 67.7314 73.4095C67.3978 75.3658 66.6523 76.5672 65.6475 77.1473C64.6427 77.7275 63.2295 77.7724 61.3685 77.0831C59.515 76.3967 57.3614 75.0289 55.0444 73.0384C50.4178 69.0637 45.3118 62.7552 40.8609 55.0459C36.4099 47.3366 33.4995 39.7604 32.3706 33.7663C31.8053 30.7645 31.6976 28.2155 32.0298 26.2671C32.3634 24.3108 33.109 23.1094 34.1138 22.5292Z" stroke="black" stroke-width="2"/>
<path d="M65.6476 22.5291C66.6524 23.1092 67.3979 24.3107 67.7315 26.267C68.0638 28.2154 67.9561 30.7643 67.3908 33.7662C66.2619 39.7603 63.3515 47.3364 58.9005 55.0457C54.4495 62.7551 49.3436 69.0636 44.717 73.0383C42.4 75.0288 40.2464 76.3965 38.3929 77.083C36.5319 77.7722 35.1186 77.7273 34.1138 77.1472C33.1091 76.5671 32.3635 75.3656 32.0299 73.4094C31.6977 71.4609 31.8054 68.912 32.3707 65.9102C33.4996 59.9161 36.41 52.3399 40.8609 44.6306C45.3119 36.9213 50.4179 30.6127 55.0445 26.638C57.3615 24.6475 59.5151 23.2798 61.3686 22.5933C63.2296 21.9041 64.6428 21.949 65.6476 22.5291Z" stroke="black" stroke-width="2"/>
<path d="M81.4145 49.8382C81.4145 50.9985 80.7467 52.2448 79.2193 53.5119C77.6981 54.7738 75.4368 55.9551 72.5545 56.9664C66.799 58.9858 58.7827 60.2534 49.8807 60.2534C40.9787 60.2534 32.9624 58.9858 27.2069 56.9664C24.3246 55.9551 22.0633 54.7738 20.5421 53.5119C19.0147 52.2448 18.3469 50.9985 18.3469 49.8382C18.3469 48.678 19.0147 47.4316 20.5421 46.1646C22.0633 44.9027 24.3246 43.7214 27.2069 42.7101C32.9624 40.6907 40.9787 39.4231 49.8807 39.4231C58.7827 39.4231 66.799 40.6907 72.5545 42.7101C75.4368 43.7214 77.6981 44.9027 79.2193 46.1646C80.7467 47.4316 81.4145 48.678 81.4145 49.8382Z" stroke="black" stroke-width="2"/>
<path d="M33.3151 78.797C32.0583 78.0714 31.1438 76.6676 30.6762 74.5346C30.2083 72.401 30.2161 69.6446 30.7203 66.4265C31.7276 59.9972 34.6824 51.9394 39.3773 43.8076C44.0722 35.6757 49.5731 29.0879 54.6374 25.0009C57.1723 22.9551 59.5554 21.5703 61.6371 20.9086C63.7182 20.2472 65.3912 20.3372 66.6479 21.0628C67.9047 21.7884 68.8192 23.1922 69.2869 25.3252C69.7547 27.4588 69.747 30.2152 69.2427 33.4333C68.2354 39.8626 65.2806 47.9204 60.5857 56.0522C55.8908 64.184 50.3899 70.7719 45.3256 74.8589C42.7908 76.9046 40.4076 78.2895 38.3259 78.9512C36.2448 79.6126 34.5718 79.5226 33.3151 78.797Z" stroke="#54A1FF" stroke-width="2"/>
<path d="M67.6494 19.5569C69.1549 20.4262 70.2467 22.0288 70.8503 24.355C71.4552 26.686 71.5451 29.6649 71.0971 33.1163C70.2015 40.0143 67.1836 48.5957 62.2199 57.1931C57.2562 65.7904 51.3335 72.6947 45.8074 76.9193C43.0424 79.033 40.4177 80.4446 38.0966 81.0863C35.7802 81.7266 33.8463 81.5824 32.3408 80.7132C30.8353 79.844 29.7435 78.2413 29.1399 75.9151C28.535 73.5841 28.4451 70.6053 28.8932 67.1539C29.7887 60.2559 32.8066 51.6745 37.7703 43.0771C42.734 34.4797 48.6568 27.5754 54.1829 23.3508C56.9478 21.2371 59.5726 19.8256 61.8937 19.1839C64.21 18.5435 66.1439 18.6877 67.6494 19.5569Z" stroke="black" stroke-width="2"/>
<path d="M66.614 78.7774C65.3629 79.4997 63.6952 79.588 61.6178 78.9243C59.54 78.2605 57.1603 76.8736 54.6283 74.826C49.5698 70.7353 44.0724 64.145 39.3774 56.013C34.6823 47.8809 31.7237 39.8249 30.7102 33.3988C30.203 30.1822 30.1918 27.4278 30.6558 25.2965C31.1197 23.1656 32.03 21.7655 33.2811 21.0432C34.5322 20.3209 36.1999 20.2325 38.2773 20.8962C40.3551 21.56 42.7348 22.9469 45.2668 24.9945C50.3253 29.0853 55.8226 35.6755 60.5177 43.8076C65.2128 51.9397 68.1714 59.9956 69.1849 66.4218C69.6921 69.6384 69.7033 72.3927 69.2393 74.5241C68.7754 76.655 67.8651 78.0551 66.614 78.7774Z" stroke="#54A1FF" stroke-width="2"/>
<path d="M16.625 50C16.625 48.5431 17.3853 47.0444 19.0008 45.5687C20.6168 44.0925 23.0108 42.7172 26.0536 41.5415C32.1327 39.1928 40.5987 37.7188 50 37.7188C59.4013 37.7188 67.8673 39.1928 73.9464 41.5415C76.9892 42.7172 79.3832 44.0925 80.9992 45.5687C82.6147 47.0444 83.375 48.5431 83.375 50C83.375 51.4569 82.6147 52.9556 80.9992 54.4313C79.3832 55.9075 76.9892 57.2828 73.9464 58.4585C67.8673 60.8072 59.4013 62.2812 50 62.2812C40.5987 62.2812 32.1327 60.8072 26.0536 58.4585C23.0108 57.2828 20.6168 55.9075 19.0008 54.4313C17.3853 52.9556 16.625 51.4569 16.625 50Z" stroke="#54A1FF" stroke-width="2"/>
</svg>
