<svg width="100" height="100" viewBox="0 0 100 100" fill="none" xmlns="http://www.w3.org/2000/svg">
<path d="M53.9998 86.6666L49.9999 73.3333H33.3333L29.3334 86.6666H23.3333V89.9999H59.9999V86.6666H53.9998Z" fill="#E94F4F"/>
<path d="M6.66663 10C3.9054 10 1.66663 12.2388 1.66663 15V63.3333H81.6666V15C81.6666 12.2388 79.4279 10 76.6666 10H6.66663Z" fill="#E94F4F"/>
<path d="M76.6667 10H70.0001L16.6667 63.3333H81.6667V15C81.6667 12.2388 79.428 10 76.6667 10Z" fill="#DE4242"/>
<path d="M1.66663 63.3333V68.3333C1.66663 71.0945 3.9054 73.3333 6.66663 73.3333H76.6666C79.4279 73.3333 81.6666 71.0945 81.6666 68.3333V63.3333H1.66663Z" fill="#F26666"/>
<path d="M8.33325 23.3333H74.9999V43.3333H8.33325V23.3333Z" fill="#CF3A3A"/>
<path d="M8.33325 50H26.6666V63.3333H8.33325V50Z" fill="#CF3A3A"/>
<path d="M33.3333 50H49.9999V63.3333H33.3333V50Z" fill="#CF3A3A"/>
<path d="M56.6665 50H74.9998V63.3333H56.6665V50Z" fill="#CF3A3A"/>
<path d="M8.33325 15H11.6666V18.3333H8.33325V15Z" fill="#CF3A3A"/>
<path d="M15 15H18.3333V18.3333H15V15Z" fill="#CF3A3A"/>
<path d="M21.6665 15H24.9998V18.3333H21.6665V15Z" fill="#CF3A3A"/>
<path d="M43.3333 86.6666C43.3333 88.5074 44.8258 89.9999 46.6666 89.9999H83.3333C85.1741 89.9999 86.6666 88.5074 86.6666 86.6666V83.3333H43.3333V86.6666Z" fill="#FFCB73"/>
<path d="M83.3333 33.3333H46.6666C44.8258 33.3333 43.3333 34.8258 43.3333 36.6666V83.3332H86.6666V36.6666C86.6666 34.8258 85.1741 33.3333 83.3333 33.3333Z" fill="#FFB531"/>
<path d="M83.3333 33.3333L43.3333 73.3332V83.3332H86.6666V36.6666C86.6666 34.8258 85.1741 33.3333 83.3333 33.3333Z" fill="#FFA912"/>
<path d="M50 38.3333H55V41.6666H50V38.3333Z" fill="#F58F00"/>
<path d="M58.3333 38.3333H63.3333V41.6666H58.3333V38.3333Z" fill="#F58F00"/>
<path d="M66.6667 38.3333H71.6667V41.6666H66.6667V38.3333Z" fill="#F58F00"/>
<path d="M75 38.3333H80V41.6666H75V38.3333Z" fill="#F58F00"/>
<path d="M50 46.6667H80V58.3334H50V46.6667Z" fill="#F58F00"/>
<path d="M50 65H80V76.6667H50V65Z" fill="#F58F00"/>
<path d="M75 86.6666C75 88.5074 76.4925 89.9999 78.3333 89.9999H95C96.8408 89.9999 98.3333 88.5074 98.3333 86.6666V83.3333H75V86.6666Z" fill="#62A9E6"/>
<path d="M95 50H78.3333C76.4925 50 75 51.4925 75 53.3333V83.3333H98.3333V53.3333C98.3333 51.4925 96.8408 50 95 50Z" fill="#348FD9"/>
<path d="M75 77.5001V83.3334H98.3333V54.1667L75 77.5001Z" fill="#3086CD"/>
<path d="M80 55H93.3333V65H80V55Z" fill="#1C75BD"/>
<path d="M80 68.3333H93.3333V78.3333H80V68.3333Z" fill="#1C75BD"/>
<path d="M27.0931 88.3333H23.3333V91.6666H38.3333V88.3333H30.5737L34.5736 74.9999H38.3333V71.6666H6.66667C4.82585 71.6666 3.33333 70.1741 3.33333 68.3333V64.9999H38.3333V61.6666H3.33333V14.9999C3.33333 13.1591 4.82585 11.6666 6.66667 11.6666H76.6667C78.5075 11.6666 80 13.1591 80 14.9999V28.3333H83.3333V14.9999C83.3333 11.3183 80.3483 8.33325 76.6667 8.33325H6.66667C2.98503 8.33325 0 11.3183 0 14.9999V68.3333C0 72.0149 2.98503 74.9999 6.66667 74.9999H31.0929L27.0931 88.3333Z" fill="black"/>
<path d="M73.3334 25.0001V28.3334H76.6667V23.3334C76.6667 22.413 75.9205 21.6667 75.0001 21.6667H8.33341C7.413 21.6667 6.66675 22.413 6.66675 23.3334V43.3334C6.66675 44.2538 7.413 45.0001 8.33341 45.0001H38.3334V41.6667H10.0001V25.0001H73.3334Z" fill="black"/>
<path d="M28.3334 58.3333V49.9999C28.3334 49.0795 27.5872 48.3333 26.6667 48.3333H8.33341C7.413 48.3333 6.66675 49.0795 6.66675 49.9999V58.3333H10.0001V51.6666H25.0001V58.3333H28.3334Z" fill="black"/>
<path d="M31.6667 49.9999V58.3333H35.0001V51.6666H38.3334V48.3333H33.3334C32.413 48.3333 31.6667 49.0795 31.6667 49.9999Z" fill="black"/>
<path d="M6.66675 15H10.0001V18.3333H6.66675V15Z" fill="black"/>
<path d="M13.3333 15H16.6666V18.3333H13.3333V15Z" fill="black"/>
<path d="M20 15H23.3333V18.3333H20V15Z" fill="black"/>
<path d="M88.3334 45.0001V36.6667C88.3334 33.9055 86.0947 31.6667 83.3334 31.6667H46.6667C43.9055 31.6667 41.6667 33.9055 41.6667 36.6667V86.6668C41.6667 89.428 43.9055 91.6668 46.6667 91.6668H70.0001V88.3334H46.6667C45.7463 88.3334 45.0001 87.5872 45.0001 86.6668V85.0001H70.0001V81.6668H45.0001V36.6667C45.0001 35.7463 45.7463 35.0001 46.6667 35.0001H83.3334C84.2538 35.0001 85.0001 35.7463 85.0001 36.6667V45.0001H88.3334Z" fill="black"/>
<path d="M50 38.3333H55V41.6666H50V38.3333Z" fill="black"/>
<path d="M58.3333 38.3333H63.3333V41.6666H58.3333V38.3333Z" fill="black"/>
<path d="M66.6667 38.3333H71.6667V41.6666H66.6667V38.3333Z" fill="black"/>
<path d="M75 38.3333H80V41.6666H75V38.3333Z" fill="black"/>
<path d="M51.6666 48.3333H73.3333V45H49.9999C49.0795 45 48.3333 45.7463 48.3333 46.6667V58.3333C48.3333 59.2537 49.0795 60 49.9999 60H69.9999V56.6667H51.6666V48.3333Z" fill="black"/>
<path d="M69.9999 66.6666V63.3333H49.9999C49.0795 63.3333 48.3333 64.0795 48.3333 64.9999V76.6666C48.3333 77.587 49.0795 78.3333 49.9999 78.3333H69.9999V74.9999H51.6666V66.6666H69.9999Z" fill="black"/>
<path d="M94.9999 48.3333H78.3333C75.572 48.3333 73.3333 50.572 73.3333 53.3333V86.6666C73.3333 89.4278 75.572 91.6666 78.3333 91.6666H94.9999C97.7611 91.6666 99.9999 89.4278 99.9999 86.6666V53.3333C99.9999 50.572 97.7611 48.3333 94.9999 48.3333ZM96.6666 86.6666C96.6666 87.587 95.9203 88.3333 94.9999 88.3333H78.3333C77.4128 88.3333 76.6666 87.587 76.6666 86.6666V84.9999H96.6666V86.6666ZM96.6666 81.6666H76.6666V53.3333C76.6666 52.4128 77.4128 51.6666 78.3333 51.6666H94.9999C95.9203 51.6666 96.6666 52.4128 96.6666 53.3333V81.6666Z" fill="black"/>
<path d="M91.6667 55H81.6667C80.7463 55 80 55.7463 80 56.6667V63.3333C80 64.2537 80.7463 65 81.6667 65H91.6667C92.5871 65 93.3333 64.2537 93.3333 63.3333V56.6667C93.3333 55.7463 92.5871 55 91.6667 55ZM90 61.6667H83.3333V58.3333H90V61.6667Z" fill="black"/>
<path d="M91.6667 68.3333H81.6667C80.7463 68.3333 80 69.0795 80 69.9999V76.6666C80 77.587 80.7463 78.3333 81.6667 78.3333H91.6667C92.5871 78.3333 93.3333 77.587 93.3333 76.6666V69.9999C93.3333 69.0795 92.5871 68.3333 91.6667 68.3333ZM90 74.9999H83.3333V71.6666H90V74.9999Z" fill="black"/>
</svg>
