<svg width="100" height="100" viewBox="0 0 100 100" fill="none" xmlns="http://www.w3.org/2000/svg">
<path d="M64.3953 93.3334L58.3414 76.6667H41.6747L35.6062 93.3334H28.3333V96.6667H71.6666V93.3334H64.3953Z" fill="#E0E0DE"/>
<path d="M48.3334 5H8.33342C4.65177 5 1.66675 7.98503 1.66675 11.6667V65H98.3334V11.6667C98.3334 7.98503 95.3484 5 91.6668 5H48.3334Z" fill="#5AC6D4"/>
<path d="M91.6668 5H81.6668L21.6667 65H98.3334V11.6667C98.3334 7.98503 95.3484 5 91.6668 5Z" fill="#52BECC"/>
<path d="M1.66675 65V70C1.66675 73.6816 4.65177 76.6667 8.33342 76.6667H91.6668C95.3484 76.6667 98.3334 73.6816 98.3334 70V65H1.66675Z" fill="#E0E0DE"/>
<path d="M8.33325 10H11.6666V13.3333H8.33325V10Z" fill="#2A8EBD"/>
<path d="M15 10H18.3333V13.3333H15V10Z" fill="#2A8EBD"/>
<path d="M21.6667 10H25.0001V13.3333H21.6667V10Z" fill="#2A8EBD"/>
<path d="M8.33325 16.6667H91.6666V20.0001H8.33325V16.6667Z" fill="#2A8EBD"/>
<path d="M89.7518 24.1251C89.4482 23.6327 88.9111 23.3333 88.3333 23.3333H80V26.6666H81.722L66.722 34.7403L54.2163 26.9197C53.6165 26.5445 52.8442 26.5893 52.2917 27.032L36.6667 39.5336L29.375 33.7003C28.7663 33.2128 27.9004 33.2128 27.2917 33.7003L10.625 47.0336L12.7083 49.637L28.3333 37.1329L35.625 42.9662C36.2337 43.4537 37.0996 43.4537 37.7083 42.9662L53.4513 30.3718L65.7853 38.0785C66.2907 38.3935 66.9263 38.4138 67.452 38.1331L84.4832 28.9664L83.5034 30.9252L86.4868 32.4153L89.8202 25.7486C90.0806 25.2319 90.0545 24.6174 89.7518 24.1251Z" fill="#FFB531"/>
<path d="M18.3333 48.3333H21.6666V58.3333H18.3333V48.3333Z" fill="#2A8EBD"/>
<path d="M31.6667 46.6667H35.0001V58.3334H31.6667V46.6667Z" fill="#2A8EBD"/>
<path d="M45 40H48.3333V58.3333H45V40Z" fill="#2A8EBD"/>
<path d="M58.3333 40H61.6666V58.3333H58.3333V40Z" fill="#2A8EBD"/>
<path d="M71.6667 38.3333H75.0001V58.3333H71.6667V38.3333Z" fill="#2A8EBD"/>
<path d="M85 35H88.3333V58.3333H85V35Z" fill="#2A8EBD"/>
<path d="M25 43.3333H28.3333V58.3333H25V43.3333Z" fill="#3EA8D6"/>
<path d="M38.3333 46.6665H41.6666V58.3332H38.3333V46.6665Z" fill="#3EA8D6"/>
<path d="M51.6665 36.6665H54.9998V58.3332H51.6665V36.6665Z" fill="#3EA8D6"/>
<path d="M65 43.3333H68.3333V58.3333H65V43.3333Z" fill="#3EA8D6"/>
<path d="M78.3333 38.3333H81.6666V59.9999H78.3333V38.3333Z" fill="#3EA8D6"/>
<path d="M11.6665 53.3333H14.9998V58.3332H11.6665V53.3333Z" fill="#3EA8D6"/>
<path d="M8.33325 23.3333H11.6666V26.6666H8.33325V23.3333Z" fill="#3EA8D6"/>
<path d="M8.33325 30H18.3333V33.3333H8.33325V30Z" fill="#3EA8D6"/>
<path d="M15 23.3333H25V26.6666H15V23.3333Z" fill="#3EA8D6"/>
<path d="M59.5516 80.0001L58.3415 76.6667H41.6748L40.4614 80.0001H59.5516Z" fill="#D6D6D4"/>
<path d="M8.33325 56.6667H91.6666V60.0001H8.33325V56.6667Z" fill="#2A8EBD"/>
<path d="M0 69.9999C0.00569662 74.6003 3.73291 78.3276 8.33333 78.3333H39.2952L33.833 93.3332H28.3333V96.6666H71.6667V93.3332H66.167L60.7202 78.3333H91.6667C96.2671 78.3276 99.9943 74.6003 100 69.9999V11.6666C99.9943 7.06616 96.2671 3.33895 91.6667 3.33325H8.33333C3.73291 3.33895 0.00569662 7.06616 0 11.6666V69.9999ZM62.6221 93.3332H37.382L42.8418 78.3333H57.1753L62.6221 93.3332ZM96.6667 69.9999C96.6667 72.7611 94.4279 74.9999 91.6667 74.9999H8.33333C5.5721 74.9999 3.33333 72.7611 3.33333 69.9999V66.6666H96.6667V69.9999ZM3.33333 11.6666C3.33333 8.90535 5.5721 6.66659 8.33333 6.66659H91.6667C94.4279 6.66659 96.6667 8.90535 96.6667 11.6666V63.3333H3.33333V11.6666Z" fill="black"/>
<path d="M8.33325 10H11.6666V13.3333H8.33325V10Z" fill="black"/>
<path d="M15 10H18.3333V13.3333H15V10Z" fill="black"/>
<path d="M21.6667 10H25.0001V13.3333H21.6667V10Z" fill="black"/>
<path d="M8.33325 16.6667H91.6666V20.0001H8.33325V16.6667Z" fill="black"/>
<path d="M54.2163 26.9197C53.6165 26.5445 52.8442 26.5893 52.2917 27.032L36.6667 39.5336L29.375 33.7003C28.7663 33.2128 27.9004 33.2128 27.2917 33.7003L10.625 47.0336L12.7083 49.637L28.3333 37.1329L35.625 42.9662C36.2337 43.4537 37.0996 43.4537 37.7083 42.9662L53.4513 30.3718L65.7853 38.0785C66.2907 38.3935 66.9263 38.4138 67.452 38.1331L84.4832 28.9664L83.5034 30.9252L86.4868 32.4153L89.8201 25.7486C90.0798 25.2319 90.0529 24.6182 89.7502 24.1259C89.4474 23.6344 88.9111 23.3341 88.3333 23.3333H80V26.6666H81.722L66.722 34.7403L54.2163 26.9197Z" fill="black"/>
<path d="M88.3333 35H84.9999V56.6667H81.6666V36.6667H78.3333V56.6667H74.9999V38.3333H71.6666V56.6667H68.3333V43.3333H64.9999V56.6667H61.6666V40H58.3333V56.6667H54.9999V36.6667H51.6666V56.6667H48.3333V40H44.9999V56.6667H41.6666V46.6667H38.3333V56.6667H34.9999V46.6667H31.6666V56.6667H28.3333V43.3333H24.9999V56.6667H21.6666V48.3333H18.3333V56.6667H14.9999V53.3333H11.6666V56.6667H8.33325V60H91.6666V56.6667H88.3333V35Z" fill="black"/>
<path d="M8.33325 23.3333H11.6666V26.6666H8.33325V23.3333Z" fill="black"/>
<path d="M8.33325 30H18.3333V33.3333H8.33325V30Z" fill="black"/>
<path d="M15 23.3333H25V26.6666H15V23.3333Z" fill="black"/>
</svg>
