<svg width="100" height="100" viewBox="0 0 100 100" fill="none" xmlns="http://www.w3.org/2000/svg">
<path d="M49.9999 98.4343C76.7493 98.4343 98.434 76.7495 98.434 50.0001C98.434 23.2506 76.7493 1.56592 49.9999 1.56592C23.2504 1.56592 1.56567 23.2506 1.56567 50.0001C1.56567 76.7495 23.2504 98.4343 49.9999 98.4343Z" fill="#3CCFE6"/>
<path d="M50 14.927C30.6297 14.927 14.927 30.6297 14.927 50C14.927 69.3704 30.6297 85.0731 50 85.0731C69.3704 85.0731 85.0731 69.3704 85.0731 50C85.0731 30.6297 69.3704 14.927 50 14.927ZM50 76.7223C35.2418 76.7223 23.2778 64.7583 23.2778 50C23.2778 35.2418 35.2418 23.2778 50 23.2778C64.7583 23.2778 76.7223 35.2418 76.7223 50C76.7223 64.7583 64.7583 76.7223 50 76.7223Z" fill="#0FA1B8"/>
<path d="M56.6805 93.4237C29.9311 93.4237 8.24634 71.739 8.24634 44.9896C8.24634 30.6349 14.4934 17.7409 24.4143 8.87158C10.6963 17.4235 1.56567 32.6442 1.56567 49.9999C1.56567 76.7493 23.2504 98.4341 49.9999 98.4341C62.3946 98.4341 73.6997 93.7761 82.2661 86.1179C74.8415 90.7466 66.0743 93.4237 56.6805 93.4237Z" fill="#2EC2D9"/>
<path d="M50 14.927C30.6297 14.927 14.927 30.6297 14.927 50C14.927 69.3704 30.6297 85.0731 50 85.0731C69.3704 85.0731 85.0731 69.3704 85.0731 50C85.0731 30.6297 69.3704 14.927 50 14.927ZM19.9374 50C19.9374 46.5747 20.5118 43.2836 21.5668 40.2161L36.3163 76.7749C26.5928 71.7958 19.9374 61.6751 19.9374 50ZM63.3204 76.9555L66.4844 68.1413L53.101 34.9688H42.2954L59.825 78.4186C56.7459 79.4829 53.4409 80.0627 50 80.0627C46.4049 80.0627 42.9575 79.4305 39.7616 78.2731L43.5854 68.0092L30.2555 34.9688H23.9602C29.1583 25.9833 38.8727 19.9375 50 19.9375C58.0971 19.9375 65.4456 23.1397 70.8508 28.3456C67.5684 28.7684 65.0315 31.5715 65.0315 34.969C65.0315 38.6586 71.7122 53.3407 71.7122 53.3407C71.7122 53.3407 75.9887 43.9413 77.6983 38.2942C79.2208 41.892 80.0627 45.8479 80.0627 50.0004C80.0627 61.8194 73.2405 72.0442 63.3204 76.9555Z" fill="#E5E5E5"/>
<path d="M95.8254 29.9688C93.1502 23.8566 89.3338 18.4143 84.4826 13.793C83.857 13.1965 82.8656 13.2207 82.2688 13.8467C81.6725 14.4729 81.6965 15.4641 82.3227 16.0605C91.7027 24.9961 96.8686 37.0494 96.8686 50C96.8686 75.8434 75.8436 96.8686 50 96.8686C24.1564 96.8686 3.13145 75.8434 3.13145 50C3.13145 24.1566 24.1566 3.13145 50 3.13145C59.2445 3.13145 68.1855 5.81895 75.857 10.9033C76.5781 11.3814 77.5496 11.1842 78.0273 10.4633C78.5053 9.74238 78.308 8.7707 77.5873 8.29316C69.4012 2.86758 59.8615 0 50 0C36.6445 0 24.0885 5.20098 14.6447 14.6447C5.20098 24.0885 0 36.6445 0 50C0 63.3555 5.20098 75.9115 14.6447 85.3553C24.0885 94.799 36.6445 100 50 100C63.3555 100 75.9115 94.799 85.3553 85.3553C94.7992 75.9115 100 63.3555 100 50C100 43.0365 98.5955 36.2971 95.8254 29.9688Z" fill="black"/>
<path d="M27.3175 78.7751C33.8353 83.9197 41.6787 86.6388 49.9999 86.6388C70.2027 86.6388 86.6388 70.2027 86.6388 49.9999C86.6388 29.7972 70.2027 13.3611 49.9999 13.3611C29.7972 13.3611 13.3611 29.7972 13.3611 49.9999C13.3611 58.6931 16.4593 67.1216 22.0857 73.733C22.6464 74.3914 23.6345 74.471 24.2929 73.9107C24.9513 73.3501 25.031 72.3621 24.4707 71.7035C19.3259 65.6578 16.4927 57.9503 16.4927 49.9999C16.4927 31.524 31.524 16.4927 49.9999 16.4927C68.4759 16.4927 83.5072 31.524 83.5072 49.9999C83.5072 68.4759 68.4759 83.5072 49.9999 83.5072C42.3898 83.5072 35.2171 81.0207 29.2576 76.3169C28.5791 75.7814 27.5943 75.897 27.0583 76.5759C26.5228 77.2548 26.6388 78.2394 27.3175 78.7751Z" fill="black"/>
<path d="M38.8535 76.2253C38.4099 76.0362 37.9724 75.8354 37.5406 75.6247C37.5406 75.6247 23.0441 39.6987 23.0371 39.6825C22.8048 39.0429 22.1664 38.6169 21.4863 38.6517C20.8546 38.6839 20.2906 39.1079 20.0849 39.7062C18.9482 43.0104 18.3718 46.4739 18.3718 49.9999C18.3718 67.4399 32.5601 81.6282 50.0001 81.6282C67.44 81.6282 81.6285 67.4399 81.6285 49.9999C81.6285 45.7349 80.7935 41.5964 79.1468 37.6995C78.8796 37.064 78.2021 36.6743 77.5187 36.7552C76.9462 36.8229 76.4431 37.2165 76.2398 37.7563L71.7712 49.6099C69.38 44.0874 66.5972 37.0015 66.5972 34.9685C66.5972 32.6327 68.1742 30.5958 70.432 30.0146C70.6203 29.9661 70.7906 29.8749 70.9834 29.8407C71.1642 29.8085 71.3347 29.7675 71.4998 29.6841C71.8048 29.5302 72.056 29.2722 72.2037 28.9647C72.4918 28.3655 72.3552 27.6161 71.8751 27.1562C65.9611 21.4913 58.1921 18.3716 50 18.3716C38.7437 18.3716 28.246 24.4308 22.6037 34.1845C22.0125 35.2065 22.7695 36.5347 23.9576 36.5347C23.981 36.5347 29.1988 36.5345 29.1988 36.5345L41.906 68.0315L38.8535 76.2253ZM21.5031 49.9999C21.5031 48.3909 21.6367 46.797 21.9007 45.2288L33.0667 72.9056C26.0564 67.7093 21.5031 59.3767 21.5031 49.9999ZM41.798 77.2917L45.0527 68.5554L45.0529 68.555L49.4238 56.8224L57.7371 77.4286C55.2759 78.1237 52.6806 78.4964 50 78.4964C47.1496 78.4968 44.3966 78.0743 41.798 77.2917ZM62.0673 75.8116C61.6185 76.0224 61.1636 76.2214 60.7025 76.4091L44.6154 36.5343H52.0443L64.8091 68.1737L62.0673 75.8116ZM66.2656 73.3849L77.6234 42.9632C78.2041 45.247 78.4968 47.6007 78.4968 49.9999C78.4968 59.6708 73.6533 68.2308 66.2656 73.3849ZM32.5755 36.5343H33.2986C34.1632 36.5343 34.8644 35.8333 34.8644 34.9685C34.8644 34.1036 34.1634 33.4026 33.2986 33.4026H26.8339C32.1539 26.0007 40.7951 21.5028 50 21.5028C56.5175 21.5028 62.7363 23.6956 67.7709 27.722C65.1636 29.1388 63.4654 31.8927 63.4654 34.9683C63.4654 38.7501 69.1755 51.5347 70.1957 53.7882L66.4212 63.8005L55.4209 36.5341H56.6804C57.5453 36.5341 58.2462 35.8331 58.2462 34.9683C58.2462 34.1034 57.5455 33.4024 56.6804 33.4024H39.9791C39.1144 33.4024 38.4132 34.1034 38.4132 34.9683C38.4132 35.8331 39.1142 36.5341 39.9791 36.5341H41.2386L47.6865 52.5159L43.5275 63.6798L32.5755 36.5343Z" fill="black"/>
</svg>
